<svg width="388" height="729" viewBox="0 0 388 729" fill="none" xmlns="http://www.w3.org/2000/svg">
<path d="M46.4555 469.897C46.4555 469.897 45.8114 466.757 45.6826 465.694C45.5297 464.455 45.3525 460.695 45.3525 460.695C45.3525 460.695 45.3525 447.564 46.3186 447.645C47.2927 447.725 48.5486 449.972 48.8304 450.785C49.1122 451.59 49.5228 452.516 49.8126 453.321C50.0944 454.134 50.9316 454.593 51.9702 454.303C53.0007 454.021 52.574 450.543 52.1795 449.376C50.9638 445.721 45.7631 436.616 45.2559 435.633C44.6521 434.466 48.8385 411.691 49.6516 403.777C51.3664 390.864 53.7816 377.669 53.9748 376.3L76.9755 325.452L61.6229 309.77C61.6229 309.77 35.2973 365.842 34.307 368.789C33.8321 370.198 32.1736 400.444 32.1817 400.444C32.3024 415.386 32.4474 428.557 32.399 431.085C32.399 431.085 30.2334 438.62 28.5669 443.33C26.9004 448.047 27.2708 453.055 27.0051 454.448C26.9648 454.649 25.7975 459.415 26.6026 465.372C27.2949 470.509 29.0097 465.292 29.0097 465.292C29.0097 465.292 29.4525 455.518 30.2173 455.679C30.8131 455.8 30.2495 461.13 30.958 466.822C31.1431 468.287 31.3203 469.728 31.5054 471.056C31.9804 474.534 34.2668 475.21 34.3553 471.491C34.3876 470.179 34.3875 467.989 34.1621 466.435C33.9206 464.753 34.2507 463.126 34.2668 461.677C34.299 458.803 34.2829 456.71 34.4036 456.774C34.5566 456.855 34.9672 456.291 35.2087 457.837C35.4985 459.697 35.2329 463.795 35.8769 466.5C36.2392 468.029 36.8027 471.282 36.8027 471.282C36.8027 471.282 38.2921 476.442 38.6061 476.426C40.3128 476.354 40.3128 472.344 39.54 470.332C39.7171 468.794 39.0247 465.397 39.0247 465.397C39.0247 465.397 39.1857 458.191 40.2162 458.191C41.0615 458.191 44.0161 475.476 45.7229 475.283C47.1156 475.122 46.4635 469.881 46.4635 469.881L46.4555 469.897Z" fill="#F7A491"/>
<path d="M67.6206 354.91C67.6206 354.91 58.0725 353.26 53.0086 351.376C46.2541 348.864 41.8182 346.666 41.8182 346.666C41.8182 346.666 49.2329 314.939 58.4831 295.673C62.3071 287.711 66.1714 283.871 71.5654 282.945C71.5976 282.945 82.9329 290.408 82.4821 308.401C82.3774 312.628 67.6286 354.918 67.6286 354.918L67.6206 354.91Z" fill="#E27023"/>
<path d="M96.9732 461.533L109.347 575.369C109.347 575.369 103.301 599.441 104.026 606.284C104.758 613.127 117.478 702.835 117.478 702.835L116.939 707.867L116.923 722.728H164.14C164.14 722.728 154.117 718.107 140.101 708.978C139.062 708.302 136.679 706.152 136.091 701.853C132.348 674.199 139.754 581.963 139.754 581.963L145.591 461.904L96.9732 461.533Z" fill="#F7A491"/>
<path d="M59.0305 485.483C56.3658 486.176 52.26 584.056 50.0541 588.395C36.054 615.896 32.7291 699.51 32.7291 699.51L28.6635 711.417L24.3081 726.021C24.3081 726.021 38.2921 729.845 45.6182 725.683L44.805 711.288L44.0644 698.125L79.3826 593.95L98.7122 487.697L59.0466 485.483H59.0305Z" fill="#F7A491"/>
<path d="M129.272 295.875C123.573 287.856 100.065 264.638 97.4562 264.687C89.8403 264.823 64.8511 264.831 59.9724 267.392L60.0046 272.858C60.1334 297.308 63.2571 321.661 69.4078 345.322C73.6988 361.818 77.7563 379.432 77.2571 385.76L77.3779 385.881C91.8369 400.251 114.636 399.124 127.864 383.377C127.864 383.377 127.807 365.843 129.844 349.846C133.032 324.793 143.433 315.784 129.28 295.875H129.272Z" fill="#FF862D"/>
<path d="M89.8001 239.802C89.8001 239.802 90.4603 256.113 89.0353 262.296C87.6103 268.478 85.7184 268.945 97.9313 270.829C102.729 271.57 107.359 272.673 107.359 272.673C107.359 272.673 106.103 263.592 105.918 259.76C105.604 253.448 107.326 233.949 107.326 233.949L89.8001 239.802Z" fill="#F7A491"/>
<path d="M99.0985 247.917C101.61 249.318 103.961 250.139 106.127 250.485C106.545 242.781 107.326 233.949 107.326 233.949L90.6051 239.536C92.5453 242.869 95.3067 245.808 99.0985 247.925V247.917Z" fill="#F47458"/>
<path d="M93.6725 194.122C93.6725 194.122 86.6926 196.586 82.8364 204.274C78.9801 211.962 77.5471 233.57 92.7306 242.024C100.25 246.21 108.92 246.999 113.002 243.32C117.164 239.568 116.657 231.22 116.247 224.288C115.417 210.554 112.398 189.751 93.6725 194.122Z" fill="#F7A491"/>
<path d="M82.4821 221.245C83.3435 224.852 82.1922 228.338 79.9139 229.022C77.6356 229.707 75.0835 227.34 74.2221 223.733C73.3607 220.126 74.5119 216.64 76.7902 215.956C79.0686 215.272 81.6206 217.639 82.4821 221.245Z" fill="#F7A491"/>
<path d="M44.797 711.224C38.3484 714.179 31.449 712.351 28.6554 711.409L24.1793 726.07C24.1793 726.07 38.2598 730.24 45.5859 726.07L44.797 711.224Z" fill="#271651"/>
<path d="M50.9236 543.609C50.9236 543.609 50.9318 543.625 50.94 543.609H50.9236Z" fill="#F47458"/>
<path d="M116.44 726.423H165.525C167.336 726.254 167.779 724.724 167.151 723.783C165.855 721.842 160.131 720.425 153.69 717.334C142.403 718.558 118.71 710.539 116.931 707.842C115.9 713.244 115.425 726.19 116.44 726.423Z" fill="#271651"/>
<path d="M215.02 332.956C215.97 331.636 219.158 325.171 219.158 325.171C219.158 325.171 222.459 314.093 221.774 314.238C221.372 314.327 220.011 315.889 218.401 319.246C217.419 321.291 216.34 324.881 215.318 326.652C213.53 329.76 211.534 331.056 212.025 329.857C212.387 328.979 213.611 328.262 214.69 326.403C217.314 321.87 219.633 314.456 218.619 314.609C217.733 314.737 215.197 319.85 212.387 323.827C211.164 325.557 207.686 327.731 205.504 329.108C205.528 328.126 205.802 327.143 205.947 326.676C206.229 325.807 210.125 320.639 208.595 319.986C207.074 319.334 197.791 330.533 197.791 330.533L193.984 337.03L193.645 337.279H193.629C193.629 337.279 147.338 355.425 145.784 354.934C142.145 353.783 129.699 317.724 129.699 317.724L103.8 322.394C103.43 322.192 131.027 376.067 136.172 378.708C140.688 381.026 188.807 355.957 197.848 350.595C210.294 345.805 215.157 340.105 217.177 337.191C218.264 335.621 222.435 328.81 222.435 328.81C222.435 328.81 223.328 319.367 222.652 319.286C220.366 319.004 219.738 327.908 219.738 327.908C219.738 327.908 216.646 332.111 216.115 332.658C214.786 334.027 215.02 332.972 215.02 332.972V332.956Z" fill="#F8A492"/>
<path d="M87.0871 286.294C83.5528 301.276 102.407 334.678 102.407 334.678C102.407 334.678 129.264 321.636 133.99 316.009C133.99 316.009 115.466 285.433 114.314 283.436C111.835 279.121 103.132 270.209 97.2711 271.843C93.5356 272.882 87.0951 286.286 87.0951 286.286L87.0871 286.294Z" fill="#E27023"/>
<path d="M91.3539 249.358C93.3585 235.615 116.158 207.607 107.351 195.901C100.226 186.434 87.8035 189.268 79.8898 191.989C44 204.338 46.0609 249.454 34.7337 256.507C14.1965 269.299 1.55695 277.261 0.0756261 306.083C-1.67942 340.258 27.3512 357.719 62.2588 349.355C81.0249 344.863 86.0002 338.72 93.5276 320.992C96.9249 313.006 103.768 288.081 101.892 275.901C100.218 265 89.7276 260.427 91.3458 249.358H91.3539Z" fill="#271651"/>
<path d="M105 224.159C105 228.225 103.527 231.526 101.699 231.526C99.8715 231.526 98.3983 228.225 98.3983 224.159C98.3983 220.094 99.8715 216.793 101.699 216.793C103.527 216.793 105 220.094 105 224.159Z" fill="#F7A491"/>
<path d="M149.995 535.582L151.677 468.046C151.967 448.958 148.191 430.047 140.616 412.665L127.855 383.377C122.695 385.068 117.824 386.509 112.398 387.137C100.596 388.497 88.987 387.145 77.2491 385.76C77.2169 386.219 77.1606 386.621 77.0881 386.951C74.9547 396.894 63.0961 419.074 58.0966 449.376C52.4209 483.777 50.3036 535.228 51.0121 539.27C105.249 541.733 118.179 543.689 149.995 535.582Z" fill="#7473E8"/>
<path d="M234.937 301.615C235.533 303.82 235.879 304.553 236.644 306.026C241.555 315.574 252.963 329.196 252.963 329.196L261.786 307.983C261.786 307.983 260.345 301.325 257.857 291.801C249.34 294.176 241.225 295.552 234.945 301.606L234.937 301.615Z" fill="#F8A492"/>
<path d="M285.511 283.218C285.511 283.218 236.314 305.833 234.72 305.398C233.697 305.116 214.537 270.901 214.336 238.714C214.239 223.853 228.706 205.972 244.84 209.506C252.963 211.286 252.842 213.701 264.861 232.338C276.881 250.975 285.511 283.21 285.511 283.21V283.218Z" fill="#A4E5FF"/>
<path d="M327.512 688.625C327.512 688.625 326.344 709.25 326.336 709.291C325.91 711.907 324.219 718.38 324.219 720.755C324.219 729.699 364.005 713.163 355.085 709.202C354.28 708.84 350.053 706.127 349.788 703.084C349.377 698.398 348.339 688.907 348.339 688.907L327.512 688.617V688.625Z" fill="#F7A491"/>
<path d="M354.989 709.122C354.989 709.122 345.65 711.859 340.868 712.543C336.086 713.228 329.774 707.471 326.393 709.025C322.665 710.74 322.818 726.149 322.818 726.149C322.818 726.149 372.909 730.536 386.99 725.996C392.569 724.201 374.085 715.498 354.989 709.13V709.122Z" fill="#271651"/>
<path d="M246.12 688.625C246.12 688.625 244.952 709.251 244.944 709.291C244.517 711.907 242.827 718.38 242.827 720.755C242.827 729.699 282.613 713.163 273.693 709.202C272.888 708.84 267.405 704.106 267.14 701.063C266.729 696.378 266.947 688.915 266.947 688.915L246.12 688.625Z" fill="#F7A491"/>
<path d="M273.596 709.122C273.596 709.122 264.258 711.859 259.476 712.543C254.693 713.228 248.382 707.471 245.001 709.025C241.273 710.74 241.128 726.149 241.128 726.149C241.128 726.149 291.445 731.261 305.598 725.996C311.096 723.951 292.693 715.498 273.596 709.13V709.122Z" fill="#271651"/>
<path d="M258.284 313.046L293.321 260.66C293.465 260.202 293.787 259.26 294.27 257.827C296.034 252.626 299.705 241.814 302.909 231.05L302.941 230.937C303.947 227.178 306.073 220.616 308.134 214.265C310.428 207.204 313.27 198.453 313.367 196.964C313.278 196.706 313.117 196.247 312.892 195.643C311.604 192.085 309.873 183.608 309.253 179.92C308.858 177.57 308.472 171.87 311.088 171.87C315.202 171.87 313.238 177.57 315.138 181.128C315.838 178.745 317.239 174.035 317.988 169.253L318.672 158.111C318.801 157.274 317.964 151.131 320.854 151.131H320.991C323.583 151.341 323.518 157.87 324.597 168.915C324.935 167.643 325.282 166.114 325.531 164.705C325.499 163.948 326.022 160.631 326.409 158.876C325.885 155.801 326.191 150.946 329.259 151.397C330.796 151.63 330.667 158.401 330.667 158.401C330.651 159.335 330.563 166.492 330.611 167.909C330.925 165.502 332.157 155.253 334.572 155.253C336.569 155.253 336.73 158.015 336.689 160.196C336.665 161.492 335.409 172.594 335.337 173.89C336.279 172.208 337.398 162.418 338.324 162.418C342.22 162.418 340.811 176.338 339.378 179.961C339.241 180.331 339.096 181.064 338.935 181.901C338.452 184.381 337.631 188.535 335.594 192.254C333.147 196.722 329.774 203.823 329.259 204.918C328.88 207.14 327.713 215.118 326.232 225.149C325.604 229.44 324.911 234.158 324.187 239.028H324.146C324.018 240.075 323.285 243.432 320.516 256.031C316.724 273.268 316.329 274.008 316.16 274.33C314.51 277.446 276.736 332.198 275.126 334.525L274.176 335.902L258.268 313.038L258.284 313.046Z" fill="#F7A491"/>
<path d="M323.454 190.861C323.454 190.861 320.612 183.1 315.548 183.084C315.548 183.084 318.374 181.997 320.805 184.042C323.229 186.095 323.454 190.861 323.454 190.861Z" fill="#F47458"/>
<path d="M249.815 175.863L245.306 206.311C245.306 206.311 262.495 221.044 272.51 217.936C280.914 215.328 275.15 203.598 275.15 203.598C275.15 203.598 270.674 187.344 272.043 178.826C273.419 170.308 249.807 175.863 249.807 175.863H249.815Z" fill="#F7A491"/>
<path d="M253.051 185.066C257.358 187.239 265.876 190.202 272.502 190.918C271.866 186.66 271.503 182.151 272.043 178.826C272.679 174.898 267.985 173.964 262.76 174.101C255.917 174.728 249.815 175.872 249.815 175.872L248.945 181.725C250.25 183.19 251.618 184.357 253.051 185.082V185.066Z" fill="#FE875E"/>
<path d="M228.126 140.746C227.418 140.746 234.921 174.76 246.53 180.613C258.139 186.466 275.456 183.415 278.709 174.253C282.299 164.117 269.193 129.427 252.858 125.015C236.523 120.612 228.118 140.746 228.118 140.746H228.126Z" fill="#F7A491"/>
<path d="M241.563 109.502C232.289 115.21 228.03 123.679 226.597 127.149C222.241 129.355 216.976 134.12 214.448 146.969C211.341 162.765 222.394 174.945 234.108 178.608C245.83 182.271 247.802 190.547 247.802 190.547L248.961 181.643C248.961 181.643 246.353 173.891 242.432 170.01C238.512 166.13 244.292 160.47 244.799 155.857C245.194 152.307 242.738 145.408 243.27 139.579C243.27 139.579 249.783 129.049 256.199 126.44C267.14 122.004 253.454 102.176 241.555 109.502H241.563Z" fill="#271651"/>
<path d="M246.498 161.775C248.011 165.703 247.392 169.6 245.113 170.485C242.827 171.371 239.752 168.899 238.23 164.971C236.716 161.042 237.336 157.145 239.615 156.26C241.901 155.374 244.976 157.846 246.498 161.775Z" fill="#F7A491"/>
<path d="M289.754 313.884L357.339 302.122C357.339 302.122 349.651 281.456 346.898 281.456C344.144 281.456 295.792 303.989 295.792 303.989L291.944 312.233L289.746 313.884H289.754Z" fill="#F8A492"/>
<path d="M255.128 363.346C255.128 363.346 248.39 398.133 251.135 424.515C253.88 450.889 254.098 544.59 254.098 544.59L243.616 694.51L268.492 695.089C268.492 695.089 297.99 545.242 297.442 549.083C296.895 552.931 307.337 443.571 307.337 443.571L272.163 360.045L255.128 363.338V363.346Z" fill="#271651"/>
<path d="M261.73 361.697C261.73 361.697 257.334 393.022 262.833 406.756C268.331 420.49 309.969 555.29 310.517 566.28C311.064 577.269 324.911 698.745 324.911 698.745L353.837 697.876L360.093 562.818L346.986 393.07L334.266 350.152L261.73 361.688V361.697Z" fill="#271651"/>
<path d="M245.306 206.311C245.306 206.311 252.439 211.302 259.089 210.731C265.747 210.151 275.15 203.598 275.15 203.598L273.846 198.864C273.846 198.864 256.634 196.191 256.199 196.481C255.764 196.771 245.306 206.311 245.306 206.311Z" fill="#F7A491"/>
<path d="M321.337 280.442C321.337 280.442 346.906 306.188 358.442 301.792C369.979 297.396 374.761 282.366 346.6 260.379C321.401 240.704 321.337 280.434 321.337 280.434V280.442Z" fill="#F8A492"/>
<path d="M338.662 312.233C334.862 290.183 307.337 221.559 305.139 208.919C304.068 202.769 289.223 202.64 275.078 203.437C260.144 204.282 245.298 206.303 245.298 206.303C245.298 206.303 232.071 208.622 226.259 214.442C220.446 220.263 218.892 236.348 227.257 266.892C233.858 291.004 242.046 304.247 246.095 321.806C246.917 327.699 247.617 333.511 248.551 340.298C250.04 366.559 248.535 401.249 248.535 401.249C248.535 401.249 320.524 417.19 347.453 393.006C347.453 393.006 342.55 334.815 338.662 312.225V312.233Z" fill="#E9FAFF"/>
<path d="M357.017 264.823C357.017 264.823 328.767 289.707 327.125 289.707C326.062 289.707 286.816 258.897 277.759 233.578C272.751 219.586 283.257 203.927 295.253 203.976C303.569 204.008 307.264 206.302 323.752 221.14C340.24 235.977 357.017 264.823 357.017 264.823Z" fill="#A4E5FF"/>
<path d="M60.6693 0H185.331C207.781 0 226 18.2009 226 40.6107V66.3893C226 88.8072 207.773 107 185.331 107H60.6693C38.2191 107 20 88.7991 20 66.3893V40.6107C20 18.1928 38.2271 0 60.6693 0Z" fill="#4D5CA8"/>
<path d="M95.6792 53.8574C95.6792 58.1967 91.7183 61.7149 86.8396 61.7149C81.9609 61.7149 78 58.1967 78 53.8574C78 49.5181 81.9609 46 86.8396 46C91.7183 46 95.6792 49.5181 95.6792 53.8574Z" fill="white"/>
<path d="M136.818 53.8574C136.818 58.1967 132.857 61.7149 127.978 61.7149C123.1 61.7149 119.139 58.1967 119.139 53.8574C119.139 49.5181 123.1 46 127.978 46C132.857 46 136.818 49.5181 136.818 53.8574Z" fill="white"/>
<path d="M177.965 53.8574C177.965 58.1967 174.004 61.7149 169.125 61.7149C164.247 61.7149 160.286 58.1967 160.286 53.8574C160.286 49.5181 164.247 46 169.125 46C174.004 46 177.965 49.5181 177.965 53.8574Z" fill="white"/>
</svg>
