<svg width="527" height="559" viewBox="0 0 527 559" fill="none" xmlns="http://www.w3.org/2000/svg">
<path d="M219.856 329.377C251.484 295.489 245.821 236.912 225.181 224.712C214.445 218.365 204.101 227.19 193.887 219.08C182.57 210.094 189.674 194.818 182.645 165.512C179.012 150.369 172.426 122.91 154.437 116.121C136.597 109.388 125.331 129.694 105.739 123.512C87.2116 117.667 90.2436 97.2887 66.3556 83.4187C64.1334 82.1283 38.956 67.9155 22.9192 78.4486C6.62645 89.149 5.52442 121.609 18.3217 139.552C29.9484 155.854 49.6277 155.382 50.4578 166.074C51.3725 177.857 27.7725 182.291 27.5489 194.486C27.2286 212.112 76.3021 215.711 82.3381 242.358C85.8859 258.027 70.5079 263.807 70.657 284.396C70.8463 310.968 96.6967 333.966 117.343 344.021C147.263 358.595 192.446 358.75 219.86 329.377H219.856Z" fill="url(#paint0_linear_248_205)"/>
<mask id="mask0_248_205" style="mask-type:luminance" maskUnits="userSpaceOnUse" x="9" y="74" width="234" height="280">
<path d="M219.856 329.377C251.484 295.489 245.821 236.912 225.181 224.712C214.445 218.365 204.101 227.19 193.887 219.08C182.57 210.094 189.674 194.818 182.645 165.512C179.012 150.369 172.426 122.91 154.437 116.121C136.597 109.388 125.331 129.694 105.739 123.512C87.2116 117.667 90.2436 97.2887 66.3556 83.4187C64.1334 82.1283 38.956 67.9155 22.9192 78.4486C6.62645 89.149 5.52442 121.609 18.3217 139.552C29.9484 155.854 49.6277 155.382 50.4578 166.074C51.3725 177.857 27.7725 182.291 27.5489 194.486C27.2286 212.112 76.3021 215.711 82.3381 242.358C85.8859 258.027 70.5079 263.807 70.657 284.396C70.8463 310.968 96.6967 333.966 117.343 344.021C147.263 358.595 192.446 358.75 219.86 329.377H219.856Z" fill="white"/>
</mask>
<g mask="url(#mask0_248_205)">
<g style="mix-blend-mode:soft-light" opacity="0.7">
<path d="M205.739 357.938L207.067 357.311C182.838 305.823 157.115 258.658 130.612 217.122C109.403 183.886 87.6508 154.16 65.9587 128.769C28.9894 85.4995 4.65811 69.6072 4.41635 69.4519L3.62257 70.6879C3.86231 70.8431 28.0667 86.6629 64.9111 129.805C98.9209 169.627 150.96 241.532 205.739 357.938Z" fill="white"/>
<path d="M69.3555 133.041C68.8961 87.4896 47.6191 54.352 47.4035 54.0233L46.1746 54.8258C46.3881 55.1524 67.4315 87.9493 67.8868 133.056L69.3555 133.041Z" fill="white"/>
<path d="M134.53 223C149.481 175.684 150.416 143.982 148.567 125.72C146.552 105.828 141.036 97.2827 140.804 96.9279L139.579 97.7384C139.636 97.8231 145.166 106.435 147.124 126.033C148.933 144.141 147.974 175.585 133.132 222.558L134.532 223.002L134.53 223Z" fill="white"/>
<path d="M185.486 314.104C229.53 239.38 221.99 188.786 221.909 188.282L220.458 188.518C220.479 188.645 222.394 201.765 218.577 224.222C215.214 243.998 206.527 275.514 184.22 313.356L185.486 314.102V314.104Z" fill="white"/>
<path d="M110.546 213.108C115.629 213.001 120.792 212.616 126.008 211.9L125.809 210.445C91.7224 215.128 59.7878 205.499 39.0003 196.595C16.4661 186.943 1.83353 176.055 1.69049 175.946L0.810078 177.121C0.957149 177.23 15.7288 188.225 38.4241 197.946C56.2057 205.561 82.0882 213.705 110.548 213.108H110.546Z" fill="white"/>
<path d="M167.609 297.975C170.353 297.917 173.134 297.764 175.95 297.502L175.815 296.038C140.097 299.351 110.028 285.319 91.0898 272.966C70.5542 259.569 58.3392 245.223 58.2183 245.08L57.0962 246.028C57.2191 246.173 69.5751 260.684 90.288 274.197C107.931 285.706 135.147 298.655 167.609 297.975Z" fill="white"/>
</g>
</g>
<path d="M217.716 355.98C166.364 350.407 128.541 296.822 137.093 271.484C141.541 258.303 156.694 258.22 159.42 243.931C162.44 228.099 145.331 220.377 129.949 190.508C122.001 175.075 107.592 147.091 117.843 128.255C128.009 109.574 152.292 118.512 164.34 99.0187C175.73 80.5859 158.348 65.5867 168.431 36.4736C169.37 33.7657 180.292 3.42269 201.492 0.634174C223.031 -2.20072 247.572 24.4062 249.818 48.8798C251.859 71.1134 234.898 85.0539 241.975 94.6857C249.774 105.301 272.925 91.8508 281.983 101.987C295.074 116.637 256.255 155.426 270.539 182.321C278.94 198.137 300.755 191.709 305.399 214.187C312.886 250.419 309.052 261.17 298.934 284.702C284.271 318.806 262.225 360.813 217.714 355.984L217.716 355.98Z" fill="url(#paint1_linear_248_205)"/>
<mask id="mask1_248_205" style="mask-type:luminance" maskUnits="userSpaceOnUse" x="114" y="0" width="196" height="357">
<path d="M217.716 355.98C166.364 350.407 128.541 296.822 137.093 271.484C141.541 258.303 156.694 258.22 159.42 243.931C162.44 228.099 145.331 220.377 129.949 190.508C122.001 175.075 107.592 147.091 117.843 128.255C128.009 109.574 152.292 118.512 164.34 99.0187C175.73 80.5859 158.348 65.5867 168.431 36.4736C169.37 33.7657 180.292 3.42269 201.492 0.634174C223.031 -2.20072 247.572 24.4062 249.818 48.8798C251.859 71.1134 234.898 85.0539 241.975 94.6857C249.774 105.301 272.925 91.8508 281.983 101.987C295.074 116.637 256.255 155.426 270.539 182.321C278.94 198.137 300.755 191.709 305.399 214.187C312.886 250.419 309.052 261.17 298.934 284.702C284.271 318.806 262.225 360.813 217.714 355.984L217.716 355.98Z" fill="white"/>
</mask>
<g mask="url(#mask1_248_205)">
<g style="mix-blend-mode:soft-light" opacity="0.7">
<path d="M250.409 369.812L248.831 370.251C231.839 309.128 219.254 250.563 211.423 196.183C205.157 152.67 201.901 111.723 201.75 74.4806C201.492 11.014 210.48 -20.1315 210.57 -20.438L212.14 -19.9742C212.049 -19.6678 203.12 11.3225 203.388 74.5915C203.636 132.991 211.995 231.616 250.409 369.812Z" fill="white"/>
<path d="M201.99 80.5636C169.245 41.7663 163.111 -1.71281 163.052 -2.14833L164.674 -2.36609C164.73 -1.93662 170.819 41.0889 203.241 79.5071L201.99 80.5636Z" fill="white"/>
<path d="M212.388 204.001C165.349 174.94 141.501 148.853 129.78 132.086C117.011 113.822 115.453 102.588 115.393 102.12L117.017 101.91C117.031 102.023 118.626 113.322 131.226 131.295C142.869 147.901 166.55 173.754 213.248 202.605L212.388 204.001Z" fill="white"/>
<path d="M235.629 318.046C144.088 287.037 113.656 238.824 113.36 238.34L114.754 237.483C114.829 237.604 122.755 250.079 142.311 266.259C159.532 280.508 189.793 300.79 236.151 316.493L235.627 318.046H235.629Z" fill="white"/>
<path d="M225.447 178.174C221.077 181.787 216.439 185.223 211.511 188.419L210.621 187.044C242.809 166.167 262.769 134.77 273.845 112.109C285.851 87.5421 290.287 67.6898 290.331 67.4922L291.931 67.843C291.887 68.0426 287.408 88.0865 275.318 112.826C265.843 132.211 249.913 157.943 225.449 178.172L225.447 178.174Z" fill="white"/>
<path d="M238.991 291.402C236.632 293.354 234.172 295.248 231.604 297.078L230.655 295.744C263.224 272.522 278.407 238.767 285.412 214.54C293.007 188.268 292.888 167.256 292.886 167.046L294.524 167.03C294.524 167.242 294.647 188.495 286.985 214.995C280.46 237.566 266.897 268.326 238.991 291.4V291.402Z" fill="white"/>
</g>
</g>
<path d="M334.937 27.5825L228.58 46.7727L280.632 335.717L386.989 316.527L334.937 27.5825Z" fill="url(#paint2_linear_248_205)"/>
<path d="M322.415 42.8653L242.192 57.3401L250.95 105.951L331.172 91.4765L322.415 42.8653Z" fill="url(#paint3_linear_248_205)"/>
<path d="M332.666 99.7602L252.443 114.235L261.201 162.848L341.423 148.373L332.666 99.7602Z" fill="url(#paint4_linear_248_205)"/>
<path d="M342.914 156.653L262.691 171.128L271.448 219.739L351.671 205.264L342.914 156.653Z" fill="url(#paint5_linear_248_205)"/>
<path d="M353.164 213.548L272.942 228.023L281.699 276.636L361.922 262.161L353.164 213.548Z" fill="url(#paint6_linear_248_205)"/>
<g style="mix-blend-mode:multiply" opacity="0.3">
<path d="M334.938 27.5879L278.398 37.7883C286.534 46.3091 293.845 56.9873 297.784 70.1375C305.282 95.1616 295.273 111.419 294.024 145.296C292.723 180.652 302.363 197.204 309.918 230.083C315.43 254.071 319.875 286.961 316.794 329.198L386.984 316.535L334.938 27.5879Z" fill="url(#paint7_linear_248_205)"/>
</g>
<path d="M458.054 67.3843L355.645 32.8328L261.927 311.051L364.335 345.603L458.054 67.3843Z" fill="url(#paint8_linear_248_205)"/>
<path d="M439.717 74.7263L362.473 48.6648L346.706 95.4715L423.95 121.533L439.717 74.7263Z" fill="url(#paint9_linear_248_205)"/>
<path d="M421.265 129.506L344.021 103.445L328.254 150.251L405.498 176.313L421.265 129.506Z" fill="url(#paint10_linear_248_205)"/>
<path d="M402.813 184.288L325.568 158.227L309.801 205.033L387.046 231.095L402.813 184.288Z" fill="url(#paint11_linear_248_205)"/>
<path d="M384.359 239.07L307.114 213.008L291.347 259.815L368.592 285.877L384.359 239.07Z" fill="url(#paint12_linear_248_205)"/>
<g style="mix-blend-mode:multiply" opacity="0.3">
<path d="M458.067 67.361L390.618 44.6093C396.65 62.8324 395.731 76.4847 393.261 86.2516C386.319 113.697 365.072 118.653 350.887 151.281C337.586 181.876 345.056 203.301 343.865 229.166C342.731 253.774 333.587 286.037 301.195 324.276L364.367 345.586L458.067 67.361Z" fill="url(#paint13_linear_248_205)"/>
</g>
<path d="M557.113 159.996L484.059 80.2924L267.868 278.761L340.922 358.465L557.113 159.996Z" fill="url(#paint14_linear_248_205)"/>
<path d="M537.517 157.573L482.414 97.4545L446.043 130.844L501.145 190.963L537.517 157.573Z" fill="url(#paint15_linear_248_205)"/>
<path d="M494.946 196.656L439.843 136.537L403.472 169.927L458.574 230.046L494.946 196.656Z" fill="url(#paint16_linear_248_205)"/>
<path d="M452.374 235.735L397.271 175.617L360.9 209.006L416.003 269.125L452.374 235.735Z" fill="url(#paint17_linear_248_205)"/>
<path d="M409.805 274.815L354.702 214.696L318.331 248.086L373.433 308.205L409.805 274.815Z" fill="url(#paint18_linear_248_205)"/>
<g style="mix-blend-mode:multiply" opacity="0.3">
<path d="M557.097 160.007L510.213 108.852C508.408 135.296 499.576 150.242 491.416 159.185C472.343 180.091 451.276 174.416 423.373 196.466C397.208 217.143 393.68 239.558 380.42 261.793C368.664 281.505 347.635 303.784 307.118 321.61L340.898 358.468L557.095 160.007H557.097Z" fill="url(#paint19_linear_248_205)"/>
</g>
<path d="M329.055 311.552C333.544 307.06 333.544 299.777 329.055 295.285C324.567 290.793 317.289 290.793 312.801 295.285C308.312 299.777 308.312 307.06 312.801 311.552C317.289 316.045 324.567 316.045 329.055 311.552Z" fill="url(#paint20_linear_248_205)"/>
<path d="M358.619 530.981C351.239 528.532 345.723 522.263 344.168 514.559L333.425 461.351L241.538 464.617L230.23 520.047C228.646 527.81 234.986 535.599 242.287 538.458L280.731 553.511C287.882 556.312 295.568 557.427 303.207 556.772L384.453 549.815C386.828 549.612 388.732 547.743 389.01 545.347C389.286 542.95 390.951 540.258 388.686 539.506L358.621 530.981H358.619Z" fill="#97A6B7"/>
<path d="M359.53 527.745C352.156 525.326 346.646 519.136 345.092 511.528L334.362 458.99L244.713 462.218L233.415 516.95C231.833 524.616 236.02 532.302 243.313 535.125L281.719 549.989C288.863 552.753 296.541 553.854 304.172 553.209L385.336 546.339C387.709 546.138 389.611 544.293 389.887 541.926C390.163 539.559 388.736 537.325 386.474 536.583L359.53 527.741V527.745Z" fill="url(#paint21_linear_248_205)"/>
<path d="M53.776 496.714C43.8114 497.309 35.66 490.839 35.66 482.29V174.137C35.66 165.588 43.8114 158.985 53.776 159.416L514.601 179.4C521.917 179.716 527.842 185.89 527.842 193.161V455.244C527.842 462.514 521.919 468.785 514.601 469.22L53.776 496.714Z" fill="url(#paint22_linear_248_205)"/>
<path d="M57.9181 496.714C47.9536 497.309 39.8022 490.839 39.8022 482.29V174.137C39.8022 165.588 47.9536 158.985 57.9181 159.416L518.744 179.4C526.059 179.716 531.984 185.89 531.984 193.161V455.244C531.984 462.514 526.061 468.785 518.744 469.22L57.9181 496.714Z" fill="url(#paint23_linear_248_205)"/>
<g style="mix-blend-mode:multiply" opacity="0.3">
<path d="M518.744 185.568L57.9181 166.594C52.5913 166.375 48.2598 169.897 48.2598 174.464V481.824C48.2598 486.389 52.5913 489.841 57.9181 489.537L518.744 463.053C522.664 462.827 525.835 459.482 525.835 455.58V192.923C525.835 189.022 522.664 185.729 518.744 185.568Z" fill="#D8DEE8"/>
</g>
<path d="M521.038 192.758V437.66C521.038 439.182 520.035 440.482 518.508 440.559L57.7328 463.359C55.6577 463.462 54.0258 462.097 54.0258 460.327V174.69C54.0258 172.92 55.7765 171.536 57.8517 171.619L518.474 189.882C520.001 189.947 521.036 191.233 521.036 192.756L521.038 192.758Z" fill="#D8DEE8"/>
<path opacity="0.7" d="M521.467 193.052L521.725 234.281L54.0258 225.234V174.678C54.0258 172.913 55.7483 171.536 57.7872 171.619L518.697 190.135C520.253 190.201 521.457 191.506 521.469 193.05L521.467 193.052Z" fill="white"/>
<g opacity="0.5">
<path d="M353.852 351.135L81.5141 355.77L81.3992 245.238L352.762 249.008L353.852 351.135Z" fill="white"/>
<path d="M502.691 348.602L369.48 350.869L368.338 249.224L501.135 251.071L502.691 348.602Z" fill="white"/>
<path d="M503.853 421.436L81.5987 438.377L81.5282 370.267L502.894 361.39L503.853 421.436Z" fill="white"/>
</g>
<path d="M251.396 337.487C252.492 341.017 250.747 344.429 247.592 345.409L25.8142 414.359C22.6593 415.339 19.2907 413.519 18.1947 409.988L0.336626 352.453C-0.759359 348.923 0.908795 345.265 4.06378 344.285L225.842 275.335C228.997 274.355 232.442 276.421 233.538 279.952L251.396 337.487Z" fill="url(#paint24_linear_248_205)"/>
<path d="M239.902 277.974L257.762 335.509C258.856 339.035 257.111 342.449 253.958 343.429L32.1826 412.379C29.0297 413.359 25.6591 411.537 24.5631 408.01L6.70301 350.475C5.60702 346.943 7.27518 343.287 10.4302 342.305L232.206 273.355C235.359 272.375 238.806 274.439 239.902 277.972V277.974Z" fill="url(#paint25_linear_248_205)"/>
<path style="mix-blend-mode:multiply" opacity="0.2" d="M252.623 318.959L257.76 335.511C258.854 339.037 257.109 342.451 253.956 343.431L32.1806 412.381C29.0277 413.361 25.6571 411.539 24.5611 408.012L6.70099 350.478C5.60501 346.945 7.27316 343.289 10.4281 342.308L38.7827 333.492C46.1665 333.095 53.7337 334.236 60.3358 338.273C82.6564 351.921 84.4857 370.084 142.122 349.308C184.11 334.172 228.318 318.027 252.623 318.961V318.959Z" fill="url(#paint26_linear_248_205)"/>
<path d="M82.2434 546.728C82.7511 546.293 83.3232 546.448 85.8879 546.894C89.0409 547.442 89.6977 547.474 90.7473 548.101C91.0052 548.255 92.7338 549.289 92.5404 549.908C92.3933 550.38 91.245 550.267 87.0444 550.16C83.3273 550.065 82.3683 550.106 81.8787 549.349C81.3811 548.579 81.5745 547.301 82.2434 546.728Z" fill="#26264F"/>
<path d="M82.7914 544.067L83.3394 547.678C84.0324 548.047 84.7053 548.073 85.352 547.678L85.3057 544.519L82.7914 544.067Z" fill="url(#paint27_linear_248_205)"/>
<path d="M78.9514 410.845C78.7177 415.972 78.7217 423.741 80.2327 432.992C83.0855 450.461 87.9631 452.721 88.9059 466.097C89.7017 477.384 87.0202 487.02 83.841 498.448C80.4967 510.47 77.8574 513.962 77.4867 522.68C77.0798 532.296 79.7754 540.242 82.058 545.377C83.3373 545.438 84.6187 545.498 85.898 545.561C87.4493 538.752 90.3565 528.62 96.1406 517.373C102.384 505.229 108.821 497.932 111.138 494.859C119.366 483.951 124.264 461.903 107.479 412.492C97.9679 411.944 88.4587 411.393 78.9474 410.845H78.9514Z" fill="url(#paint28_linear_248_205)"/>
<path d="M140.903 544.613L142.232 550.255C142.232 550.255 143.097 551.053 144.614 550.255V544.886L140.903 544.611V544.613Z" fill="url(#paint29_linear_248_205)"/>
<path d="M141.545 550.013C142.053 549.577 142.625 549.733 145.19 550.178C148.343 550.727 149 550.759 150.049 551.386C150.307 551.539 152.036 552.574 151.842 553.193C151.695 553.664 150.547 553.551 146.346 553.445C142.629 553.35 141.67 553.39 141.181 552.634C140.683 551.864 140.877 550.585 141.545 550.013Z" fill="#26264F"/>
<path style="mix-blend-mode:multiply" opacity="0.3" d="M107.483 412.492C97.972 411.944 88.4627 411.393 78.9514 410.845C78.7177 415.972 78.7217 423.741 80.2327 432.992C81.1434 438.567 82.2595 442.585 83.3897 445.918C84.1352 446.676 84.9229 447.412 85.8114 448.092C93.2234 453.772 99.5273 451.463 102.545 456.602C105.525 461.675 100.305 465.486 100.899 478.568C101.278 486.911 103.47 486.871 102.545 491.472C100.613 501.086 91.1261 500.868 87.1814 511.514C84.7013 518.212 87.6629 520.442 84.9874 527.987C83.5993 531.901 81.4637 535.044 79.2556 537.542C80.0957 540.579 81.1091 543.234 82.0621 545.375C83.3414 545.436 84.6227 545.496 85.902 545.559C87.4553 538.75 90.3605 528.618 96.1447 517.371C102.388 505.227 108.825 497.93 111.142 494.857C119.37 483.949 124.268 461.901 107.483 412.49V412.492Z" fill="url(#paint30_linear_248_205)"/>
<path d="M93.7653 408.282C91.1462 413.761 90.6708 418.202 90.6587 421.072C90.5942 436.627 103.998 450.777 123.81 471.225C128.692 476.263 131.059 478.419 132.854 482.909C136.565 492.194 132.808 499.049 132.173 513.163C131.581 526.364 132.894 532.062 134.093 535.951C135.655 541.008 137.742 544.92 139.305 547.482C141.499 547.573 143.695 547.666 145.889 547.757C151.103 539.47 158.89 524.436 159.968 504.644C160.866 488.149 156.7 475.808 151.335 459.915C147.509 448.586 141.132 432.984 130.251 415.694C118.089 413.222 105.926 410.752 93.7633 408.28L93.7653 408.282Z" fill="url(#paint31_linear_248_205)"/>
<path d="M54.8055 398.751V400.616L57.9484 401.318C58.3654 401.411 58.7724 401.544 59.1632 401.713L60.5131 402.298C63.1906 403.457 66.2791 403.141 68.6644 401.459L54.8075 398.753L54.8055 398.751Z" fill="url(#paint32_linear_248_205)"/>
<path d="M217.626 342.289C217.366 341.067 216.326 342.356 215.71 341.884C214.432 340.906 212.22 344.378 210.772 345.717C209.194 347.175 209.553 348.818 208.578 351.863C208.05 353.51 207.059 355.794 205.012 358.315L208.578 362.158L212.752 355.835C213.554 355.145 214.715 353.945 215.496 352.141C215.796 351.449 215.984 350.796 216.105 350.223L217.045 347.395C217.398 345.269 217.874 343.445 217.628 342.289H217.626Z" fill="url(#paint33_linear_248_205)"/>
<path d="M56.0969 396.719C55.9417 398.743 55.7886 400.768 55.6335 402.792C53.373 403.096 39.2945 404.77 29.0216 395.104C16.5105 383.331 20.5801 365.023 21.3396 361.607C26.6503 337.727 52.0836 328.458 55.0291 327.437C65.6505 323.756 74.3619 324.601 90.7473 326.189C102.924 327.371 115.093 328.552 128.337 334.285C157.234 346.794 161.033 367.305 179.363 367.741C185.641 367.89 194.957 365.702 206.567 353.699C208.312 354.889 210.059 356.077 211.803 357.266C210.953 360.952 206.325 379.326 189.509 388.513C171.016 398.614 145.297 393.505 128.039 374.653C126.679 390.015 129.544 400.897 132.721 408.282C135.239 414.138 137.732 417.273 136.287 420.638C133.68 426.709 121.237 426.578 104.737 426.405C88.509 426.233 80.3073 426.052 76.012 421.322C71.6381 416.505 73.9147 412.131 71.5031 394.515C69.4381 379.425 67.915 368.293 62.1772 366.569C56.9048 364.985 47.3088 371.118 46.3096 380.49C45.5883 387.256 49.5371 393.91 56.0949 396.719H56.0969Z" fill="url(#paint34_linear_248_205)"/>
<path d="M56.0969 396.719C55.9417 398.743 55.7886 400.768 55.6335 402.792C53.373 403.096 39.2945 404.77 29.0216 395.104C16.5105 383.331 20.5801 365.023 21.3396 361.607C26.6503 337.727 52.0836 328.458 55.0291 327.437C65.6505 323.756 74.3619 324.601 90.7473 326.189C102.924 327.371 115.093 328.552 128.337 334.285C157.234 346.794 161.033 367.305 179.363 367.741C185.641 367.89 194.957 365.702 206.567 353.699C208.312 354.889 210.059 356.077 211.803 357.266C210.953 360.952 206.325 379.326 189.509 388.513C171.016 398.614 145.297 393.505 128.039 374.653C126.679 390.015 129.544 400.897 132.721 408.282C135.239 414.138 137.732 417.273 136.287 420.638C133.68 426.709 121.237 426.578 104.737 426.405C88.509 426.233 80.3073 426.052 76.012 421.322C70.8725 415.664 74.8233 410.238 71.5031 394.515C70.9813 392.041 65.721 367.957 56.9773 367.477C52.2851 367.219 47.0308 373.784 46.3076 380.49C45.5742 387.291 49.531 393.942 56.0928 396.719H56.0969Z" fill="url(#paint35_linear_248_205)"/>
<path d="M75.7964 314.11C76.5761 321.911 75.1356 324.677 73.4533 325.617C71.1606 326.899 66.0574 326.109 63.6398 327.837C63.525 327.917 63.3195 328.067 63.3316 328.26C63.3779 329.071 67.4879 329.557 72.9174 330.857C79.2274 332.367 91.4948 331.819 94.003 330.857C94.1783 330.789 94.5309 330.641 94.5551 330.401C94.6538 329.432 89.1235 329.813 85.8799 326.532C83.4522 324.078 84.3668 321.659 80.8673 317.677C80.0474 316.743 79.2778 316.058 78.7459 315.618C77.7627 315.114 76.7796 314.612 75.7964 314.108V314.11Z" fill="url(#paint36_linear_248_205)"/>
<path d="M81.3227 321.26C81.9029 320.941 86.6233 320.366 87.272 317.826C88.1544 314.378 85.0599 310.182 84.6731 309.507C83.0573 306.68 82.6524 306.299 81.9009 305.819L80.8593 305.208C80.8593 305.208 80.7988 305.186 80.7364 305.164C80.0715 304.944 77.8212 304.926 77.3679 305.034C75.9193 305.379 74.503 311.347 75.1356 319.725C75.0832 320.046 75.0308 320.37 74.9825 320.695C74.8555 321.544 81.365 321.556 81.3227 321.258V321.26Z" fill="url(#paint37_linear_248_205)"/>
<path d="M85.761 304.676C85.217 306.256 83.0613 307.892 82.0983 308.619C81.9573 308.726 81.5503 309.087 81.1816 309.668C81.1272 309.753 81.0809 309.851 81.0406 309.978C80.5087 311.63 83.154 313.497 82.6685 314.243C82.3159 314.783 80.5309 314.112 80.3315 314.576C80.1441 315.013 81.6329 315.874 81.4194 316.396C81.2582 316.791 80.3456 316.455 79.7895 317.066C79.5115 317.37 79.6001 317.604 79.3201 318.523C79.1609 319.044 78.9353 319.612 78.758 319.931C77.8957 321.477 75.3653 322.092 74.8636 321.491C74.7246 321.324 74.8374 321.179 74.6863 320.61C74.6863 320.61 74.5453 320.084 74.1645 319.481C73.6185 318.618 72.3352 318.021 71.0337 317.128C68.6242 315.473 67.9452 314.031 67.7417 313.543C67.7196 313.489 67.6994 313.438 67.6813 313.392C67.647 313.309 67.6168 313.227 67.5906 313.144C67.0467 311.38 68.4408 309.478 69.1923 308.593C70.2681 307.337 72.0793 305.472 74.7327 303.811C75.4539 303.359 82.4771 299.02 85.0518 301.165C85.9705 301.931 86.1337 303.601 85.763 304.676H85.761Z" fill="#26264F"/>
<path d="M81.7196 313.654C81.0628 312.793 79.9628 313.64 79.9829 314.773C80.0031 315.906 81.1252 317.058 82.1829 316.81C83.2427 316.562 82.602 314.811 81.7196 313.652V313.654Z" fill="url(#paint38_linear_248_205)"/>
<path style="mix-blend-mode:multiply" opacity="0.3" d="M132.173 419.539C128.476 421.301 123.333 421.201 120.377 418.44C115.782 414.152 120.496 406.218 115.713 403.064C111.343 400.183 107.088 403.984 103.093 401.417C96.2152 396.997 104.062 382.661 96.7833 374.51C90.7856 367.791 82.0621 373.725 74.8354 366.822C66.7344 359.081 73.131 347.255 65.7814 342.112C59.6367 337.811 48.5297 341.439 41.9135 346.231C30.7885 354.288 30.0652 367.293 24.9036 367.098C23.7593 367.053 22.3792 366.348 20.844 364.081C19.7339 370.358 18.37 385.081 29.0196 395.102C39.2904 404.766 53.371 403.094 55.6315 402.79C55.7866 400.766 55.9397 398.741 56.0949 396.717C49.5351 393.94 45.5782 387.289 46.3096 380.488C47.0328 373.782 52.2851 367.217 56.9793 367.475C65.723 367.957 70.9833 392.039 71.5051 394.513C74.8233 410.236 70.8745 415.662 76.014 421.32C80.3093 426.05 88.511 426.231 104.739 426.403C121.237 426.578 133.682 426.709 136.289 420.636C136.91 419.188 136.777 417.771 136.253 416.176C135.159 417.591 133.793 418.767 132.173 419.539Z" fill="url(#paint39_linear_248_205)"/>
<path d="M480.813 309.757C480.813 315.027 476.935 319.721 472.591 319.721H321.835C317.491 319.721 313.857 315.027 313.857 309.757V217.518C313.857 212.247 317.491 208.328 321.835 208.328H472.591C476.935 208.328 480.813 212.249 480.813 217.518V309.757Z" fill="url(#paint40_linear_248_205)"/>
<path d="M484.988 217.52V309.759C484.988 313.295 483.43 316.584 481.077 318.29C479.923 319.128 478.609 319.721 477.179 319.721H326.422C322.077 319.721 318.029 315.027 318.029 309.759V217.52C318.029 212.245 322.077 208.325 326.422 208.325H477.179C481.524 208.325 484.988 212.245 484.988 217.52Z" fill="url(#paint41_linear_248_205)"/>
<path d="M461.227 302.431L431.996 261.237C431.701 260.821 431.202 260.573 430.668 260.573C430.134 260.573 429.634 260.823 429.34 261.237L412.53 284.918L384.997 246.117C384.703 245.701 384.203 245.453 383.669 245.453C383.136 245.453 382.636 245.703 382.342 246.117L342.375 302.431C342.052 302.885 342.024 303.655 342.302 304.133C342.58 304.611 343.118 305.099 343.702 305.099H459.897C460.481 305.099 461.019 304.613 461.297 304.133C461.575 303.655 461.547 302.885 461.225 302.431H461.227Z" fill="white"/>
<path d="M427.134 247.988C434.091 247.988 439.73 242.344 439.73 235.382C439.73 228.42 434.091 222.776 427.134 222.776C420.178 222.776 414.538 228.42 414.538 235.382C414.538 242.344 420.178 247.988 427.134 247.988Z" fill="white"/>
<g style="mix-blend-mode:multiply" opacity="0.2">
<path d="M481.105 318.29C479.951 319.128 478.607 319.721 477.179 319.721H326.422C322.077 319.721 318.029 315.027 318.029 309.759V217.52C318.029 212.245 322.077 208.325 326.422 208.325H327.943C330.75 213.199 334.223 219.78 338.537 225.613C378.081 279.063 440.592 263.642 476.709 312.021C478.341 314.205 479.796 316.267 481.107 318.287L481.105 318.29Z" fill="url(#paint42_linear_248_205)"/>
</g>
<path d="M480.825 301.125V291.963C480.825 291.963 479.51 290.007 478.819 285.164C478.128 280.321 479.383 282.242 479.999 284.257C480.171 284.819 480.527 285.295 480.952 285.69C482.018 286.684 483.771 286.033 483.976 284.591L484.843 278.524C484.843 278.524 488.358 282.121 485.814 291.12C485.018 293.937 485.814 300.734 485.814 300.734L480.825 301.127V301.125Z" fill="url(#paint43_linear_248_205)"/>
<path d="M320.499 308.418L318.192 299.498C318.192 299.498 320.411 296.074 319.345 292.58C318.281 289.086 318.92 290.33 318.061 292.58C317.203 294.83 315.509 291.019 314.185 287.549C312.862 284.079 312.183 289.414 312.505 292.58C312.827 295.745 312.946 297.631 314.836 299.939C316.726 302.25 316.347 310.464 316.347 310.464L320.497 308.418H320.499Z" fill="url(#paint44_linear_248_205)"/>
<path d="M451.385 554.005C451.459 552.039 456.192 552.434 459.292 552.733C462.395 553.031 463.759 554.275 464.245 555.441C464.73 556.604 464.365 559.477 461.5 558.274C459.149 557.286 451.32 555.745 451.385 554.007V554.005Z" fill="#26264F"/>
<path d="M457.086 546.392L459.292 554.007C459.292 554.007 461.501 555.525 462.226 554.769L461.404 545.992L457.086 546.392Z" fill="url(#paint45_linear_248_205)"/>
<path d="M441.501 541.885L448.806 545.075L447.579 548.775L440.264 546.87L441.501 541.885Z" fill="url(#paint46_linear_248_205)"/>
<path d="M441.084 556.243C441.084 556.243 445.951 557.503 448.105 554.624C449.489 552.773 450.641 549.63 451.288 547.62C451.639 546.529 451.087 545.357 450.025 544.932C448.48 544.315 446.38 543.651 445.484 544.156C443.985 544.998 445.389 550.604 444.734 552.063C444.08 553.523 440.896 554.461 441.084 556.241V556.243Z" fill="#26264F"/>
<path d="M429.731 427.911C430.831 445.576 433.263 466.039 438.102 488.468C443.147 511.847 449.701 532.227 456.278 549.265C456.913 549.569 458.043 550.009 459.516 550.051C461.239 550.102 462.556 549.58 463.215 549.265C464.41 540.159 465.026 532.473 465.367 526.765C466.271 511.692 466.68 503.969 464.629 495.001C462.705 486.583 461.158 487.24 459.149 477.937C457.362 469.664 457.324 463.301 457.32 453.981C457.318 447.584 457.61 438.942 458.845 428.689C449.14 428.431 439.436 428.171 429.731 427.911Z" fill="url(#paint47_linear_248_205)"/>
<path style="mix-blend-mode:multiply" opacity="0.3" d="M457.235 543.041C455.301 536.806 459.115 533.957 458.67 526.047C458.128 516.381 452.179 516.093 450.299 505.223C448.788 496.489 452.467 495.735 451.496 485.117C450.464 473.834 446.022 471.545 446.951 464.773C447.468 461.006 449.662 455.871 457.356 450.276C457.459 444.386 457.834 437.091 458.845 428.689C449.14 428.431 439.436 428.171 429.731 427.911C430.831 445.576 433.263 466.039 438.102 488.468C443.147 511.847 449.701 532.227 456.279 549.265C456.913 549.569 458.043 550.009 459.516 550.051C460.298 550.073 460.981 549.973 461.571 549.832C459.736 548.051 458.1 545.823 457.235 543.041Z" fill="url(#paint48_linear_248_205)"/>
<path d="M406.055 424.8C405.702 429.056 405.009 435.502 403.52 443.243C400.164 460.696 396.31 466.287 395.292 477.699C394.108 491.006 397.738 501.481 399.118 505.463C408.545 532.659 434.431 545.319 441.281 548.418C442.055 545.908 442.828 543.397 443.602 540.887C441.88 538.581 439.327 534.869 436.919 529.949C432.809 521.551 432.533 516.603 429.731 508.334C424.674 493.416 420.83 495.529 419.907 487.932C418.445 475.892 428.152 471.033 436.905 448.017C439.414 441.422 440.88 435.869 441.688 432.46C429.81 429.907 417.931 427.352 406.053 424.8H406.055Z" fill="url(#paint49_linear_248_205)"/>
<path d="M479.238 297.461C481.71 297.062 484.18 296.663 486.652 296.264C489.754 300.631 498.696 314.438 496.937 332.885C496.52 337.257 494.717 351.764 482.463 363.303C473.689 371.566 463.936 374.163 459.468 375.058C459.46 396.542 459.867 410.091 460.604 418.198C460.693 419.176 461.454 427.381 460.344 437.96C460.006 441.184 459.828 442.815 459.387 443.704C453.271 456.056 418.209 446.267 408.738 442.172C406.276 441.107 403.774 439.625 402.704 437.002C401.33 433.633 402.648 430.578 403.182 427.907C404.495 421.348 400.601 416.396 392.786 403.671C389.482 398.29 384.685 390.212 379.082 379.726C372.597 381.619 357.311 385.012 342.348 377.869C320.362 367.372 307.815 338.299 314.211 306.793C316.444 306.154 318.676 305.516 320.908 304.877C322.385 310.991 325.234 319.223 331.068 327.526C334.608 332.563 337.558 336.759 342.671 339.104C350.701 342.787 357.835 339.047 368.261 336.47C384.691 332.412 398.429 333.926 415.117 335.767C433.347 337.777 438.344 341.525 451.675 339.005C457.604 337.884 465.026 336.384 471.103 330.486C483.058 318.884 479.731 300.042 479.234 297.455L479.238 297.461Z" fill="url(#paint50_linear_248_205)"/>
<path d="M411.123 321.469C411.123 321.469 410.03 325.849 411.571 327.812C413.11 329.774 418.253 337.297 419.928 337.666C420.881 337.876 423.27 338.237 425.152 338.511C426.141 338.654 426.35 340.017 425.434 340.416C423.564 341.229 420.266 342.045 414.605 341.985C406.421 341.896 399.839 338.781 396.968 337.166C396.561 336.936 396.753 336.317 397.22 336.353L400.903 336.63C404.058 336.868 406.651 334.176 406.298 331.03L406.069 328.982L411.123 321.473V321.469Z" fill="url(#paint51_linear_248_205)"/>
<path d="M407.745 330.286C407.239 330.008 403.125 329.508 402.557 327.294C401.787 324.288 404.487 320.63 404.822 320.042C406.23 317.578 406.582 317.245 407.237 316.826L408.146 316.293C408.146 316.293 408.198 316.273 408.253 316.255C408.833 316.064 410.795 316.047 411.19 316.142C412.453 316.443 413.686 321.645 413.136 328.95C413.182 329.23 413.227 329.512 413.269 329.796C413.38 330.536 407.705 330.546 407.743 330.286H407.745Z" fill="url(#paint52_linear_248_205)"/>
<path d="M403.875 315.828C403.695 316.721 406.059 318.499 407.068 319.265C407.191 319.358 407.545 319.673 407.868 320.181C407.914 320.255 407.954 320.34 407.991 320.451C408.454 321.891 406.147 323.52 406.572 324.169C406.879 324.641 408.436 324.054 408.609 324.459C408.772 324.84 407.475 325.593 407.66 326.048C407.801 326.393 408.597 326.099 409.083 326.633C409.324 326.897 409.248 327.103 409.492 327.903C409.631 328.355 409.826 328.853 409.981 329.129C410.735 330.476 412.939 331.012 413.376 330.49C413.499 330.345 413.398 330.218 413.531 329.722C413.531 329.722 413.654 329.262 413.986 328.736C414.462 327.984 415.58 327.464 416.714 326.683C418.816 325.24 419.406 323.984 419.585 323.558C419.605 323.51 419.623 323.467 419.637 323.427C419.668 323.354 419.694 323.282 419.716 323.209C420.159 321.76 418.32 319.241 418.32 319.241C416.843 317.253 414.98 315.92 413.489 315.072C410.763 314.535 408.545 314.602 407.007 314.773C405.756 314.912 404.014 315.12 403.873 315.826L403.875 315.828Z" fill="#26264F"/>
<path d="M403.026 323.348C403.026 323.348 404.769 325.441 407.07 322.927L408.206 323.262C408.206 323.262 405.428 329.379 404.834 329.379C404.239 329.379 402.505 328.984 402.505 328.984C401.854 328.712 401.487 328.014 401.638 327.325C401.91 326.066 402.626 324.234 403.026 323.346V323.348Z" fill="#26264F"/>
<path d="M407.622 323.655C408.194 322.905 409.153 323.643 409.137 324.631C409.121 325.619 408.142 326.623 407.219 326.407C406.296 326.191 406.852 324.665 407.622 323.655Z" fill="url(#paint53_linear_248_205)"/>
<path style="mix-blend-mode:multiply" opacity="0.3" d="M450.061 440.117C438.183 444.307 424.34 438.182 420.883 429.824C418.328 423.646 423.788 417.755 419.926 411.393C416.207 405.268 409.492 408.012 404.858 401.82C399.809 395.07 405.75 389.091 401.27 380.038C397.899 373.229 389.828 367.1 381.897 367.114C372.47 367.13 368.95 375.814 360.849 374.056C356.618 373.137 356.717 370.58 350.804 366.396C340.543 359.135 333.663 362.176 325.214 357.061C322.731 355.557 319.959 353.252 317.383 349.546C322.429 362.376 331.163 372.53 342.35 377.871C357.313 385.014 372.599 381.621 379.084 379.728C384.687 390.214 389.484 398.292 392.788 403.673C400.601 416.398 404.497 421.35 403.184 427.909C402.648 430.58 401.33 433.635 402.706 437.004C403.776 439.628 406.278 441.107 408.74 442.174C418.211 446.269 453.273 456.058 459.389 443.706C459.83 442.817 460.008 441.186 460.346 437.962C460.558 435.954 460.699 434.032 460.793 432.228C458.35 435.363 454.896 438.412 450.063 440.115L450.061 440.117Z" fill="url(#paint54_linear_248_205)"/>
<path d="M315.05 502.481C315.05 473.88 288.689 451.552 257.291 452.574C239.41 453.157 223.853 461.224 214.14 473.132C214.14 473.128 214.138 473.126 214.136 473.122C214.076 473.197 214.019 473.273 213.959 473.348C213.792 473.555 213.629 473.769 213.463 473.979C213.163 474.364 212.867 474.749 212.579 475.142C212.41 475.374 212.24 475.606 212.075 475.842C211.797 476.233 211.527 476.628 211.263 477.025C211.112 477.253 210.959 477.481 210.81 477.711C210.514 478.171 210.23 478.637 209.95 479.106C209.849 479.276 209.742 479.443 209.644 479.614C209.275 480.25 208.92 480.895 208.582 481.544C208.491 481.717 208.411 481.893 208.322 482.066C208.076 482.554 207.834 483.046 207.605 483.542C207.492 483.786 207.385 484.032 207.278 484.276C207.085 484.716 206.896 485.157 206.716 485.603C206.611 485.861 206.509 486.121 206.408 486.381C206.233 486.839 206.066 487.298 205.906 487.762C205.822 488.004 205.735 488.246 205.655 488.488C205.463 489.071 205.284 489.658 205.117 490.25C205.082 490.373 205.04 490.494 205.006 490.619C204.808 491.333 204.631 492.053 204.47 492.777C204.422 492.99 204.383 493.206 204.339 493.42C204.23 493.94 204.127 494.46 204.037 494.987C203.99 495.255 203.95 495.523 203.91 495.791C203.835 496.277 203.769 496.765 203.71 497.255C203.678 497.529 203.646 497.805 203.618 498.082C203.565 498.598 203.525 499.118 203.491 499.64C203.475 499.882 203.454 500.124 203.442 500.368C203.404 501.13 203.38 501.894 203.38 502.667C203.38 521.021 214.487 537.21 231.138 545.878C232.669 546.674 234.249 547.41 235.871 548.075C236.683 548.41 237.507 548.727 238.341 549.027C244.201 551.134 250.582 552.384 257.291 552.58C258.215 552.606 259.134 552.612 260.051 552.598C260.359 552.594 260.665 552.576 260.974 552.568C261.578 552.549 262.184 552.531 262.785 552.497C263.151 552.475 263.516 552.443 263.881 552.414C264.417 552.374 264.955 552.334 265.486 552.279C265.877 552.239 266.264 552.191 266.651 552.142C267.155 552.082 267.658 552.019 268.158 551.947C268.557 551.888 268.954 551.824 269.349 551.757C269.832 551.676 270.314 551.594 270.793 551.501C271.194 551.424 271.593 551.344 271.992 551.259C272.461 551.16 272.929 551.055 273.392 550.944C273.791 550.85 274.188 550.753 274.583 550.652C275.042 550.533 275.497 550.408 275.953 550.279C276.344 550.168 276.734 550.057 277.123 549.938C277.266 549.894 277.413 549.858 277.556 549.813C277.552 549.809 277.55 549.807 277.546 549.803C299.269 542.994 315.045 524.533 315.045 502.483L315.05 502.481Z" fill="url(#paint55_linear_248_205)"/>
<path d="M310.736 502.489C310.736 531.016 284.509 553.376 253.269 552.463C223.192 551.584 199.621 529.306 199.621 502.673C199.621 476.04 223.192 453.685 253.269 452.705C284.509 451.689 310.736 473.961 310.736 502.489Z" fill="url(#paint56_linear_248_205)"/>
<path d="M239.175 516.305L216.872 504.945V501.288L239.175 488.363V494.589L223.744 502.838L239.175 510.105V516.305Z" fill="white"/>
<path d="M262.9 483.32L250.215 521.684L243.843 521.62L256.426 483.409L262.898 483.322L262.9 483.32Z" fill="white"/>
<path d="M267.614 510.191L283.913 502.747L267.614 494.402V488.065L291.385 501.102V504.933L267.614 516.502V510.191Z" fill="white"/>
<g style="mix-blend-mode:multiply" opacity="0.3">
<path d="M266.854 540.046C260.075 525.11 266.929 511.308 257.776 501.727C248.581 492.103 236.789 501.1 224.29 493.4C219.509 490.456 214.229 484.82 210.327 473.199C203.593 481.469 199.621 491.67 199.621 502.671C199.621 529.302 223.192 551.582 253.269 552.461C260.321 552.666 267.124 551.682 273.438 549.698C270.32 546.444 268.261 543.139 266.856 540.046H266.854Z" fill="url(#paint57_linear_248_205)"/>
</g>
<defs>
<linearGradient id="paint0_linear_248_205" x1="143.562" y1="185.558" x2="514.496" y2="-125.179" gradientUnits="userSpaceOnUse">
<stop stop-color="#E38DDD"/>
<stop offset="1" stop-color="#9571F6"/>
</linearGradient>
<linearGradient id="paint1_linear_248_205" x1="114.291" y1="178.394" x2="309.32" y2="178.394" gradientUnits="userSpaceOnUse">
<stop stop-color="#FF9085"/>
<stop offset="1" stop-color="#FB6FBB"/>
</linearGradient>
<linearGradient id="paint2_linear_248_205" x1="271.877" y1="155.668" x2="356.537" y2="216.801" gradientUnits="userSpaceOnUse">
<stop stop-color="white"/>
<stop offset="1" stop-color="#F4F7FA"/>
</linearGradient>
<linearGradient id="paint3_linear_248_205" x1="266.29" y1="22.4794" x2="355.52" y2="249.143" gradientUnits="userSpaceOnUse">
<stop stop-color="#FFC444"/>
<stop offset="1" stop-color="#F36F56"/>
</linearGradient>
<linearGradient id="paint4_linear_248_205" x1="248.543" y1="8.14136" x2="337.774" y2="234.807" gradientUnits="userSpaceOnUse">
<stop stop-color="#FFC444"/>
<stop offset="1" stop-color="#F36F56"/>
</linearGradient>
<linearGradient id="paint5_linear_248_205" x1="237.885" y1="11.846" x2="327.115" y2="238.512" gradientUnits="userSpaceOnUse">
<stop stop-color="#FFC444"/>
<stop offset="1" stop-color="#F36F56"/>
</linearGradient>
<linearGradient id="paint6_linear_248_205" x1="233.419" y1="31.3013" x2="322.65" y2="257.967" gradientUnits="userSpaceOnUse">
<stop stop-color="#FFC444"/>
<stop offset="1" stop-color="#F36F56"/>
</linearGradient>
<linearGradient id="paint7_linear_248_205" x1="334.892" y1="25.283" x2="332.359" y2="200.623" gradientUnits="userSpaceOnUse">
<stop stop-color="#FFC444"/>
<stop offset="1" stop-color="#F36F56"/>
</linearGradient>
<linearGradient id="paint8_linear_248_205" x1="378.066" y1="51.6758" x2="355.534" y2="222.79" gradientUnits="userSpaceOnUse">
<stop stop-color="white"/>
<stop offset="1" stop-color="#F4F7FA"/>
</linearGradient>
<linearGradient id="paint9_linear_248_205" x1="399.48" y1="41.0516" x2="370.706" y2="243.615" gradientUnits="userSpaceOnUse">
<stop stop-color="#E38DDD"/>
<stop offset="1" stop-color="#9571F6"/>
</linearGradient>
<linearGradient id="paint10_linear_248_205" x1="389.008" y1="39.561" x2="360.235" y2="242.127" gradientUnits="userSpaceOnUse">
<stop stop-color="#E38DDD"/>
<stop offset="1" stop-color="#9571F6"/>
</linearGradient>
<linearGradient id="paint11_linear_248_205" x1="378.537" y1="38.0731" x2="349.762" y2="240.638" gradientUnits="userSpaceOnUse">
<stop stop-color="#E38DDD"/>
<stop offset="1" stop-color="#9571F6"/>
</linearGradient>
<linearGradient id="paint12_linear_248_205" x1="373.328" y1="-0.530679" x2="344.554" y2="202.033" gradientUnits="userSpaceOnUse">
<stop stop-color="#E38DDD"/>
<stop offset="1" stop-color="#9571F6"/>
</linearGradient>
<linearGradient id="paint13_linear_248_205" x1="398.224" y1="54.2645" x2="375.72" y2="225.384" gradientUnits="userSpaceOnUse">
<stop stop-color="#E38DDD"/>
<stop offset="1" stop-color="#9571F6"/>
</linearGradient>
<linearGradient id="paint14_linear_248_205" x1="389.022" y1="187.719" x2="448.279" y2="267.519" gradientUnits="userSpaceOnUse">
<stop stop-color="white"/>
<stop offset="1" stop-color="#F4F7FA"/>
</linearGradient>
<linearGradient id="paint15_linear_248_205" x1="496.619" y1="137.808" x2="373.683" y2="301.303" gradientUnits="userSpaceOnUse">
<stop stop-color="#FF9085"/>
<stop offset="1" stop-color="#FB6FBB"/>
</linearGradient>
<linearGradient id="paint16_linear_248_205" x1="495.685" y1="121.422" x2="372.751" y2="284.917" gradientUnits="userSpaceOnUse">
<stop stop-color="#FF9085"/>
<stop offset="1" stop-color="#FB6FBB"/>
</linearGradient>
<linearGradient id="paint17_linear_248_205" x1="491.621" y1="109.199" x2="368.688" y2="272.694" gradientUnits="userSpaceOnUse">
<stop stop-color="#FF9085"/>
<stop offset="1" stop-color="#FB6FBB"/>
</linearGradient>
<linearGradient id="paint18_linear_248_205" x1="490.62" y1="92.9052" x2="367.686" y2="256.4" gradientUnits="userSpaceOnUse">
<stop stop-color="#FF9085"/>
<stop offset="1" stop-color="#FB6FBB"/>
</linearGradient>
<linearGradient id="paint19_linear_248_205" x1="463.29" y1="78.7628" x2="435.991" y2="220.456" gradientUnits="userSpaceOnUse">
<stop stop-color="#FF9085"/>
<stop offset="1" stop-color="#FB6FBB"/>
</linearGradient>
<linearGradient id="paint20_linear_248_205" x1="309.642" y1="305.461" x2="332.265" y2="301.386" gradientUnits="userSpaceOnUse">
<stop stop-color="#E38DDD"/>
<stop offset="1" stop-color="#9571F6"/>
</linearGradient>
<linearGradient id="paint21_linear_248_205" x1="301.14" y1="630.731" x2="312.616" y2="519.886" gradientUnits="userSpaceOnUse">
<stop stop-color="#444B8C"/>
<stop offset="1" stop-color="#26264F"/>
</linearGradient>
<linearGradient id="paint22_linear_248_205" x1="221.625" y1="321.447" x2="100.679" y2="335.44" gradientUnits="userSpaceOnUse">
<stop stop-color="#444B8C"/>
<stop offset="0.39" stop-color="#383C74"/>
<stop offset="1" stop-color="#26264F"/>
</linearGradient>
<linearGradient id="paint23_linear_248_205" x1="427.461" y1="99.1679" x2="102.462" y2="593.283" gradientUnits="userSpaceOnUse">
<stop stop-color="#444B8C"/>
<stop offset="1" stop-color="#26264F"/>
</linearGradient>
<linearGradient id="paint24_linear_248_205" x1="9.23532" y1="381.088" x2="242.459" y2="308.684" gradientUnits="userSpaceOnUse">
<stop stop-color="#AB316D"/>
<stop offset="1" stop-color="#792D3D"/>
</linearGradient>
<linearGradient id="paint25_linear_248_205" x1="15.5998" y1="379.11" x2="248.823" y2="306.705" gradientUnits="userSpaceOnUse">
<stop stop-color="#FF9085"/>
<stop offset="1" stop-color="#FB6FBB"/>
</linearGradient>
<linearGradient id="paint26_linear_248_205" x1="15.5998" y1="379.11" x2="248.823" y2="306.705" gradientUnits="userSpaceOnUse">
<stop stop-color="#FF9085"/>
<stop offset="1" stop-color="#FB6FBB"/>
</linearGradient>
<linearGradient id="paint27_linear_248_205" x1="85.1022" y1="539.151" x2="82.4912" y2="556.174" gradientUnits="userSpaceOnUse">
<stop stop-color="#311944"/>
<stop offset="1" stop-color="#A03976"/>
</linearGradient>
<linearGradient id="paint28_linear_248_205" x1="77.4464" y1="478.205" x2="118.697" y2="478.205" gradientUnits="userSpaceOnUse">
<stop stop-color="#AB316D"/>
<stop offset="1" stop-color="#792D3D"/>
</linearGradient>
<linearGradient id="paint29_linear_248_205" x1="145.029" y1="539.272" x2="139.672" y2="558.489" gradientUnits="userSpaceOnUse">
<stop stop-color="#311944"/>
<stop offset="1" stop-color="#A03976"/>
</linearGradient>
<linearGradient id="paint30_linear_248_205" x1="77.4464" y1="478.205" x2="118.697" y2="478.205" gradientUnits="userSpaceOnUse">
<stop stop-color="#AB316D"/>
<stop offset="1" stop-color="#792D3D"/>
</linearGradient>
<linearGradient id="paint31_linear_248_205" x1="90.6587" y1="478.021" x2="160.091" y2="478.021" gradientUnits="userSpaceOnUse">
<stop stop-color="#AB316D"/>
<stop offset="1" stop-color="#792D3D"/>
</linearGradient>
<linearGradient id="paint32_linear_248_205" x1="98.3447" y1="309.25" x2="57.6871" y2="409.992" gradientUnits="userSpaceOnUse">
<stop stop-color="#311944"/>
<stop offset="1" stop-color="#A03976"/>
</linearGradient>
<linearGradient id="paint33_linear_248_205" x1="210.228" y1="393.69" x2="211.798" y2="333.777" gradientUnits="userSpaceOnUse">
<stop stop-color="#311944"/>
<stop offset="1" stop-color="#A03976"/>
</linearGradient>
<linearGradient id="paint34_linear_248_205" x1="131.978" y1="323.55" x2="78.6843" y2="448.17" gradientUnits="userSpaceOnUse">
<stop stop-color="#AA80F9"/>
<stop offset="1" stop-color="#6165D7"/>
</linearGradient>
<linearGradient id="paint35_linear_248_205" x1="131.978" y1="323.55" x2="78.6843" y2="448.17" gradientUnits="userSpaceOnUse">
<stop stop-color="#AA80F9"/>
<stop offset="1" stop-color="#6165D7"/>
</linearGradient>
<linearGradient id="paint36_linear_248_205" x1="63.3296" y1="322.953" x2="94.5551" y2="322.953" gradientUnits="userSpaceOnUse">
<stop stop-color="#311944"/>
<stop offset="1" stop-color="#A03976"/>
</linearGradient>
<linearGradient id="paint37_linear_248_205" x1="67.2522" y1="332.736" x2="84.4516" y2="308.386" gradientUnits="userSpaceOnUse">
<stop stop-color="#311944"/>
<stop offset="1" stop-color="#A03976"/>
</linearGradient>
<linearGradient id="paint38_linear_248_205" x1="68.4489" y1="333.581" x2="85.6503" y2="309.233" gradientUnits="userSpaceOnUse">
<stop stop-color="#311944"/>
<stop offset="1" stop-color="#A03976"/>
</linearGradient>
<linearGradient id="paint39_linear_248_205" x1="111.658" y1="314.862" x2="58.3642" y2="439.48" gradientUnits="userSpaceOnUse">
<stop stop-color="#AA80F9"/>
<stop offset="1" stop-color="#6165D7"/>
</linearGradient>
<linearGradient id="paint40_linear_248_205" x1="422.962" y1="243.09" x2="325.154" y2="322.127" gradientUnits="userSpaceOnUse">
<stop stop-color="#AA80F9"/>
<stop offset="1" stop-color="#6165D7"/>
</linearGradient>
<linearGradient id="paint41_linear_248_205" x1="387.983" y1="274.397" x2="599.35" y2="112.716" gradientUnits="userSpaceOnUse">
<stop stop-color="#AA80F9"/>
<stop offset="1" stop-color="#6165D7"/>
</linearGradient>
<linearGradient id="paint42_linear_248_205" x1="318.029" y1="264.023" x2="481.105" y2="264.023" gradientUnits="userSpaceOnUse">
<stop stop-color="#AA80F9"/>
<stop offset="1" stop-color="#6165D7"/>
</linearGradient>
<linearGradient id="paint43_linear_248_205" x1="484.369" y1="296.733" x2="491.076" y2="344.363" gradientUnits="userSpaceOnUse">
<stop stop-color="#FFC444"/>
<stop offset="1" stop-color="#F36F56"/>
</linearGradient>
<linearGradient id="paint44_linear_248_205" x1="319.772" y1="319.911" x2="326.479" y2="367.54" gradientUnits="userSpaceOnUse">
<stop stop-color="#FFC444"/>
<stop offset="1" stop-color="#F36F56"/>
</linearGradient>
<linearGradient id="paint45_linear_248_205" x1="454.449" y1="532.429" x2="464.583" y2="562.567" gradientUnits="userSpaceOnUse">
<stop stop-color="#FFC444"/>
<stop offset="1" stop-color="#F36F56"/>
</linearGradient>
<linearGradient id="paint46_linear_248_205" x1="441.489" y1="536.897" x2="451.548" y2="566.812" gradientUnits="userSpaceOnUse">
<stop stop-color="#FFC444"/>
<stop offset="1" stop-color="#F36F56"/>
</linearGradient>
<linearGradient id="paint47_linear_248_205" x1="482.375" y1="516.974" x2="434.818" y2="463.397" gradientUnits="userSpaceOnUse">
<stop stop-color="#444B8C"/>
<stop offset="1" stop-color="#3E4177"/>
</linearGradient>
<linearGradient id="paint48_linear_248_205" x1="482.375" y1="516.974" x2="434.818" y2="463.397" gradientUnits="userSpaceOnUse">
<stop stop-color="#444B8C"/>
<stop offset="1" stop-color="#3E4177"/>
</linearGradient>
<linearGradient id="paint49_linear_248_205" x1="422.625" y1="486.413" x2="352.466" y2="473.35" gradientUnits="userSpaceOnUse">
<stop stop-color="#444B8C"/>
<stop offset="1" stop-color="#3E4177"/>
</linearGradient>
<linearGradient id="paint50_linear_248_205" x1="389.037" y1="269.171" x2="432.79" y2="429.68" gradientUnits="userSpaceOnUse">
<stop stop-color="#FF9085"/>
<stop offset="1" stop-color="#FB6FBB"/>
</linearGradient>
<linearGradient id="paint51_linear_248_205" x1="409.006" y1="331.099" x2="416.909" y2="354.391" gradientUnits="userSpaceOnUse">
<stop stop-color="#FFC444"/>
<stop offset="1" stop-color="#F36F56"/>
</linearGradient>
<linearGradient id="paint52_linear_248_205" x1="508.449" y1="620.714" x2="516.351" y2="644.008" gradientUnits="userSpaceOnUse">
<stop stop-color="#FFC444"/>
<stop offset="1" stop-color="#F36F56"/>
</linearGradient>
<linearGradient id="paint53_linear_248_205" x1="678.649" y1="761.753" x2="699.001" y2="794.53" gradientUnits="userSpaceOnUse">
<stop stop-color="#FFC444"/>
<stop offset="1" stop-color="#F36F56"/>
</linearGradient>
<linearGradient id="paint54_linear_248_205" x1="358.246" y1="277.563" x2="401.999" y2="438.073" gradientUnits="userSpaceOnUse">
<stop stop-color="#FF9085"/>
<stop offset="1" stop-color="#FB6FBB"/>
</linearGradient>
<linearGradient id="paint55_linear_248_205" x1="185.105" y1="353.685" x2="267.62" y2="519.142" gradientUnits="userSpaceOnUse">
<stop stop-color="#311944"/>
<stop offset="1" stop-color="#893976"/>
</linearGradient>
<linearGradient id="paint56_linear_248_205" x1="233.568" y1="462.395" x2="313.714" y2="610.922" gradientUnits="userSpaceOnUse">
<stop stop-color="#FF9085"/>
<stop offset="1" stop-color="#FB6FBB"/>
</linearGradient>
<linearGradient id="paint57_linear_248_205" x1="211.586" y1="472.271" x2="289.448" y2="628.395" gradientUnits="userSpaceOnUse">
<stop stop-color="#FF9085"/>
<stop offset="1" stop-color="#FB6FBB"/>
</linearGradient>
</defs>
</svg>
