<svg width="1440" height="570" viewBox="0 0 1440 570" fill="none" xmlns="http://www.w3.org/2000/svg" preserveAspectRatio="none">
<g clip-path="url(#clip0_287_14)">
<path d="M0 279.706L80 303.848C160 328.582 320 375.977 480 364.425C640 352.28 800 279.706 960 194.988C1120 110.862 1280 13.11 1440 1.55753C1600 -10.5874 1760 61.986 1920 134.559C2080 207.133 2240 279.706 2400 315.993C2560 352.28 2720 352.28 2880 303.848C3040 256.009 3200 158.257 3360 146.704C3520 134.559 3680 207.133 3840 267.561C4000 328.582 4160 375.977 4320 364.425C4480 352.28 4640 279.706 4800 255.565C4960 230.83 5120 256.009 5280 207.133C5440 158.257 5600 38.2886 5760 37.8442C5920 38.2886 6080 158.257 6240 182.991C6400 207.133 6560 134.559 6720 146.704C6880 158.257 7040 256.009 7200 291.851C7360 328.582 7520 303.404 7680 267.561C7840 230.83 8000 183.435 8160 182.991C8320 183.435 8480 230.83 8640 194.988C8800 158.257 8960 38.2886 9120 1.55753C9280 -34.2849 9440 13.11 9600 61.986C9760 110.862 9920 158.257 10080 194.988C10240 230.83 10400 256.009 10560 255.565C10720 256.009 10880 230.83 11040 267.561C11200 303.404 11360 401.156 11440 448.995L11520 497.427V570H11440C11360 570 11200 570 11040 570C10880 570 10720 570 10560 570C10400 570 10240 570 10080 570C9920 570 9760 570 9600 570C9440 570 9280 570 9120 570C8960 570 8800 570 8640 570C8480 570 8320 570 8160 570C8000 570 7840 570 7680 570C7520 570 7360 570 7200 570C7040 570 6880 570 6720 570C6560 570 6400 570 6240 570C6080 570 5920 570 5760 570C5600 570 5440 570 5280 570C5120 570 4960 570 4800 570C4640 570 4480 570 4320 570C4160 570 4000 570 3840 570C3680 570 3520 570 3360 570C3200 570 3040 570 2880 570C2720 570 2560 570 2400 570C2240 570 2080 570 1920 570C1760 570 1600 570 1440 570C1280 570 1120 570 960 570C800 570 640 570 480 570C320 570 160 570 80 570H0V279.706Z" fill="url(#paint0_linear_287_14)"/>
</g>
<defs>
<linearGradient id="paint0_linear_287_14" x1="0" y1="570" x2="0" y2="-11" gradientUnits="userSpaceOnUse" >
<stop stop-color="#FFFAF6"/>
<stop offset="1" stop-color="#FFD4B3"/>
</linearGradient>
<clipPath id="clip0_287_14">
<rect width="1440" height="570" fill="white"/>
</clipPath>
</defs>
</svg>
