<svg width="445" height="504" viewBox="0 0 445 504" fill="none" xmlns="http://www.w3.org/2000/svg">
<path d="M256.377 193.514L280.322 217.459C280.322 217.459 325.923 235.293 331.02 246.246C336.117 257.199 326.433 256.69 315.735 255.161C305.036 253.632 274.721 234.779 274.721 234.779L246.953 202.679L256.377 193.51V193.514Z" fill="#5858C6"/>
<path d="M326.466 241.447L320.543 239.347L309.081 244.698C309.081 244.698 303.158 248.71 300.294 258.648C297.429 268.582 300.294 328.006 305.069 337.557C309.845 347.109 326.471 241.452 326.471 241.452L326.466 241.447Z" fill="#E9FAFF"/>
<path d="M364.073 479.74C364.073 479.74 368.282 482.454 368.632 483.7C368.976 484.95 372.067 498.452 370.911 500.014C369.755 501.58 365.522 500.821 367.169 501.963C368.41 502.822 376.413 503.482 381.534 502.1C383.03 501.698 382.345 489.075 382.563 487.154C382.883 484.36 384.814 478.022 383.643 476.371C383.072 475.564 379.788 474.148 376.829 472.997C373.719 471.784 370.269 468.358 370.269 468.358L364.078 479.74H364.073Z" fill="#F7A491"/>
<path d="M376.565 472.893C376.565 472.893 374.078 496.847 371.166 498.617C370.392 499.089 366.3 499.438 365.923 501.392C365.913 501.439 365.828 503.397 367.07 503.445L382.596 503.397C382.596 503.397 382.756 491.618 382.657 487.008C382.657 487.008 384.799 475.229 384.101 474.351C383.403 473.469 376.565 472.898 376.565 472.898V472.893Z" fill="#3C8F7C"/>
<path d="M424.832 479.74C424.832 479.74 429.041 482.454 429.391 483.7C429.74 484.945 432.826 498.452 431.67 500.014C430.514 501.58 426.281 500.821 427.928 501.963C429.169 502.822 437.173 503.482 442.293 502.1C443.784 501.698 443.105 489.075 443.322 487.154C443.642 484.36 445.573 478.022 444.402 476.371C443.831 475.564 440.547 474.148 437.588 472.997C434.478 471.784 431.028 468.358 431.028 468.358L424.837 479.74H424.832Z" fill="#F7A491"/>
<path d="M348.575 324.07C348.575 324.07 362.77 352.257 365.682 359.827L387.315 414.71L435.025 470.83C435.025 470.83 431.533 479.849 426.252 482.265C426.252 482.265 368.731 435.819 363.997 428.504C356.787 417.353 323.946 349.034 323.946 349.034L317.839 335.891L348.58 324.065L348.575 324.07Z" fill="#E27023"/>
<path d="M314.267 323.768L314.494 347.802C314.494 347.802 304.225 426.315 306.216 430.977C311.072 442.355 364.427 480.911 364.427 480.911L371.685 468.429L333.347 425.631L347.867 383.979C351.931 374.305 360.571 355.608 360.354 345.117C360.165 336.127 342.341 315.278 342.341 315.278L314.267 323.773V323.768Z" fill="#F7A464"/>
<path d="M336.055 359.293C350.194 356.084 361.633 351.087 362.808 347.141C363.337 345.358 355.456 327.425 349.656 303.48C347.764 295.66 348.103 288.317 345.069 260.937C344.422 255.127 342.02 242.957 333.026 239.814C329.864 238.714 328.104 238.851 328.104 238.851C328.028 238.865 316.66 238.941 311.459 241.829C310.176 243.57 305.39 253.103 304.116 279.087C303.559 290.431 301.294 326.859 301.761 332.776C301.832 333.654 301.917 334.504 302.026 335.325C304.06 351.049 320.595 362.804 336.06 359.293H336.055Z" fill="#5858C6"/>
<path d="M311.063 259.592C311.063 259.592 311.086 259.592 311.105 259.592C316.867 258.955 331.365 239.965 331.365 239.965L331.331 239.913L322.389 225.746C322.389 225.746 309.213 228.144 311.794 232.16C314.371 236.166 315.815 245.793 315.815 245.793C315.772 245.902 315.716 246.034 315.636 246.194C314.729 248.162 311.78 253.981 311.067 259.597L311.063 259.592Z" fill="#F7A491"/>
<path d="M311.794 232.155C309.218 228.148 322.393 225.746 322.393 225.746L323.139 226.926C323.158 227.922 323.045 228.833 322.771 229.616C321.346 233.632 317.924 237.167 314.371 238.87C313.715 236.388 312.851 233.802 311.794 232.155Z" fill="#FE875E"/>
<path d="M314.951 203.349C315.234 203.08 325.225 219.512 322.828 226.279C320.43 233.047 312.356 238.441 307.561 236.029C302.257 233.358 294.244 214.51 299.076 206.516C303.909 198.521 314.951 203.349 314.951 203.349Z" fill="#F7A491"/>
<path d="M300.482 195.973C306.362 194.708 316.867 196.445 322.78 200.607C330.053 205.723 330.293 214.803 327.018 220.739C323.743 226.676 325.716 231.046 325.716 231.046C325.716 231.046 315.494 230.404 313.427 223.448C312.559 220.527 313.639 218.55 311.676 216.907C310.161 215.638 308.892 211.952 307.391 208.989C307.391 208.989 300.799 205.482 298.288 208.37C297.429 209.357 292.941 197.601 300.487 195.983L300.482 195.973Z" fill="#271651"/>
<path d="M310.643 218.177C311.539 220.324 313.271 221.641 314.522 221.122C315.768 220.603 316.056 218.441 315.164 216.294C314.267 214.147 312.535 212.83 311.284 213.349C310.039 213.868 309.751 216.03 310.643 218.177Z" fill="#F7A491"/>
<path d="M437.39 472.921C437.39 472.921 434.837 496.847 431.925 498.617C431.151 499.089 427.059 499.438 426.682 501.392C426.672 501.439 426.554 503.463 427.829 503.43L443.336 503.397C443.336 503.397 443.515 491.618 443.416 487.008C443.416 487.008 445.558 475.229 444.86 474.351C444.162 473.469 437.39 472.921 437.39 472.921Z" fill="#3C8F7C"/>
<path d="M94.4632 362.356C82.1368 336.571 78.7532 298.096 92.1839 267.572C114.831 216.058 177.143 195.034 172.556 136.649C171.4 121.944 164.859 110.113 155.222 102.506C129.862 82.4777 89.0551 93.0769 59.9285 107.064C41.3256 116.002 24.0488 128.673 8.1028 145.087L0 41.9732C34.9595 17.1646 77.2666 4.1917 119.489 0.874143C206.01 -5.92615 272.823 26.5274 279.624 113.072C285.825 192.004 232.484 226.973 196.704 266.43C176.841 288.332 172.353 305.203 173.891 324.749C174.684 334.853 178.474 347.326 184.566 355.278L94.4632 362.356ZM156.586 503.364C72.4861 509.971 62.7458 396.985 147.705 390.312C231.389 383.739 240.365 496.781 156.586 503.364Z" fill="#F7A464"/>
<path d="M243.555 198.729C243.4 198.017 243.975 198.578 242.904 193.01C242.593 191.4 241.592 189.706 240.847 188.805C240.445 188.314 239.516 187.484 238.94 187.134C237.977 186.559 237.227 187.498 237.416 188.026C237.609 188.555 238.6 190.386 238.794 190.914C238.987 191.443 239.072 192.745 238.633 193.175C238.194 193.609 231.229 185.62 230.795 184.921C230.427 184.326 229.601 181.726 229.601 181.726C229.601 181.726 228.992 179.834 228.251 180.315C227.765 180.631 227.232 182.189 228.629 185.256C229.851 187.937 231.536 190.074 231.347 190.235C230.847 190.645 227.822 187.026 227.822 187.026C227.822 187.026 226.765 185.006 226.052 184.289C225.604 182.948 224.783 181.278 223.924 181.934C223.763 182.057 224.334 184.912 224.334 184.912C224.334 184.912 225.391 186.799 225.84 187.734C226.632 189.376 228.44 191.367 229.058 192.434C229.572 193.321 229.072 193.118 229.034 193.222C229.001 193.302 228.223 192.307 227.034 190.848C226.434 190.112 225.613 189.414 225.042 188.456C224.514 187.569 223.622 186.45 223.065 185.789C221.498 183.921 220.663 185.19 221.857 187.163C222.31 187.913 222.81 188.729 223.324 189.551C225.311 192.75 227.76 195.251 227.52 195.553C227.213 195.945 223.003 191.122 223.003 191.122C223.003 191.122 220.035 189.145 221.8 192.056C223.848 195.431 226.061 197.592 226.165 197.682C226.864 198.29 228.728 201.155 231.465 202.896C234.202 204.638 238.638 207.266 238.638 207.266C239.148 207.88 240.445 209.881 242.243 212.707L248.879 204.723C246.543 202.292 243.669 199.22 243.56 198.725L243.555 198.729Z" fill="#F8A492"/>
<path d="M238.322 209.984L247.491 201.962L278.987 233.042C278.987 233.042 327.74 237.318 327.868 237.351L329.821 237.959C347.509 244.066 340.227 258.502 336.82 260.734C328.882 265.934 284.801 262.82 270.676 254.056C259.048 246.845 238.322 209.984 238.322 209.984Z" fill="#7473E8"/>
</svg>
