<svg width="555" height="821" viewBox="0 0 555 821" fill="none" xmlns="http://www.w3.org/2000/svg">
<g clip-path="url(#clip0_305_122)">
<g clip-path="url(#clip1_305_122)">
<path d="M184.455 335.909C206.661 331.965 226.523 322.536 237.104 307.567C213.397 286.49 235.786 257.377 204.519 231.86C172.702 205.884 147.293 234.74 147.293 234.74L164.08 334.552C173.837 335.561 174.002 337.762 184.455 335.909Z" fill="#72140F"/>
<path d="M208.565 339.046L188.94 342.201C188.94 342.201 186.835 325.801 181.856 306.356L153.627 306.246C153.627 306.246 160.693 336.735 156.428 345.76C155.147 348.475 131.019 349.649 136.584 357.611C149.545 376.157 202.524 405.563 213.269 391.089C228.628 370.415 208.565 339.046 208.565 339.046Z" fill="#FF8B45"/>
<path d="M156.703 323.307C155.476 314.281 153.609 306.246 153.609 306.246L181.837 306.356C185.773 321.766 187.787 334.35 188.464 338.918C176.968 335.726 165.984 330.333 156.703 323.307Z" fill="#E27037"/>
<path d="M145.664 244.517C145.664 244.517 177.755 225.091 197.526 259.762C217.315 294.433 212.263 320.39 187.567 324.499C172.849 326.957 157.728 324.077 144.657 305.384C131.586 286.691 115.239 260.385 145.664 244.517Z" fill="#FF8B45"/>
<path d="M166.057 235.217C166.057 235.217 174.606 241.399 171.75 252.809C168.913 264.219 151.632 257.469 151.998 270.291C152.364 283.114 164.959 301.605 145.884 309.09C145.884 309.09 139.495 287.829 134.643 291.938C129.792 296.047 155.989 316.813 155.989 316.813C155.989 316.813 108.52 307.219 112.053 264.476C115.586 221.734 161.609 231.218 166.039 235.235L166.057 235.217Z" fill="#941F14"/>
<path d="M112.841 278.491C112.841 278.491 122.506 315.804 102.809 328.003C102.809 328.003 119.284 344.146 157.947 336.258C157.947 336.258 160.803 315.437 150.076 311.145C150.076 311.145 131.092 312.227 125.014 296.065C118.918 279.922 112.841 278.473 112.841 278.473V278.491Z" fill="#941F14"/>
<path d="M191.668 294.561C193.041 291.498 194.615 288.544 196.263 285.664L196.885 287.095C196.244 286.985 195.768 286.857 195.238 286.673C194.725 286.49 194.212 286.288 193.736 286.068C192.748 285.646 191.851 285.059 190.954 284.472C190.515 284.178 190.093 283.848 189.672 283.518C189.251 283.206 188.867 282.821 188.483 282.472C188.08 282.124 187.732 281.738 187.366 281.353C187 280.968 186.615 280.601 186.304 280.179C185.627 279.372 184.986 278.546 184.418 277.666C183.814 276.804 183.338 275.887 182.826 274.988C182.35 274.07 181.947 273.117 181.526 272.163C181.16 271.19 180.849 270.2 180.556 269.228C181.178 270.053 181.764 270.897 182.313 271.741C182.936 272.548 183.485 273.373 184.107 274.162C184.748 274.933 185.297 275.758 185.975 276.492C186.597 277.262 187.238 277.996 187.933 278.693C188.611 279.409 189.306 280.087 190.02 280.729C190.753 281.372 191.503 281.995 192.272 282.564C193.059 283.114 193.865 283.646 194.688 284.123C195.109 284.362 195.53 284.563 195.952 284.765C196.373 284.949 196.849 285.15 197.196 285.261L198.533 285.682L197.819 286.673C195.878 289.388 193.865 292.048 191.65 294.561H191.668Z" fill="#D65730"/>
<path d="M152.51 280.271C152.51 280.271 152.602 278.381 153.829 275.887C154.414 274.639 155.311 273.263 156.501 271.943C157.124 271.319 157.764 270.64 158.515 270.071C159.284 269.521 160.071 268.952 160.95 268.549C161.81 268.09 162.725 267.778 163.641 267.522C164.538 267.173 165.508 267.21 166.387 267.063C167.284 266.916 168.144 267.1 168.95 267.136C169.755 267.136 170.487 267.43 171.165 267.595C171.842 267.778 172.446 267.925 172.94 268.2C173.453 268.439 173.874 268.677 174.222 268.861C174.917 269.246 175.302 269.503 175.302 269.503C175.302 269.503 174.826 269.539 174.057 269.539C173.673 269.539 173.197 269.539 172.684 269.521C172.172 269.466 171.567 269.576 170.945 269.594C170.323 269.649 169.645 269.594 168.95 269.76C168.254 269.906 167.522 269.925 166.808 270.126C166.094 270.347 165.343 270.457 164.629 270.768C163.915 271.044 163.183 271.282 162.506 271.686C161.792 271.979 161.151 272.438 160.474 272.841C159.833 273.263 159.192 273.722 158.588 274.181C158.039 274.694 157.417 275.116 156.904 275.63C156.373 276.107 155.897 276.584 155.44 277.042C154.561 277.959 153.81 278.748 153.298 279.335C152.767 279.904 152.474 280.271 152.474 280.271H152.51Z" fill="#7F150F"/>
<path d="M180.885 266.513C180.885 266.513 181.068 265.173 181.984 263.504C182.423 262.642 183.046 261.725 183.833 260.807C184.254 260.367 184.675 259.909 185.169 259.505C185.663 259.083 186.176 258.679 186.762 258.349C187.329 257.982 187.952 257.689 188.592 257.45C189.196 257.157 189.929 257.084 190.551 256.955C191.228 256.9 191.888 256.9 192.492 256.955C193.114 257.102 193.682 257.23 194.157 257.45C194.633 257.689 195.036 257.964 195.366 258.184C195.695 258.423 195.915 258.734 196.098 258.955C196.464 259.413 196.629 259.67 196.629 259.67C196.629 259.67 196.281 259.633 195.75 259.56C195.476 259.523 195.183 259.45 194.835 259.413C194.469 259.413 194.103 259.413 193.718 259.413C193.315 259.432 192.913 259.56 192.492 259.597C192.089 259.725 191.668 259.854 191.228 259.982C190.807 260.202 190.35 260.312 189.91 260.587C189.471 260.826 189.013 261.046 188.574 261.339C187.659 261.853 186.78 262.513 185.901 263.1C185.041 263.724 184.217 264.311 183.467 264.825C182.02 265.852 180.867 266.531 180.867 266.531L180.885 266.513Z" fill="#7F150F"/>
<path d="M189.343 278.767C189.343 278.767 189.123 278.436 188.83 277.831C188.537 277.226 188.153 276.327 187.878 275.171C187.75 274.603 187.64 273.942 187.604 273.245C187.604 272.548 187.604 271.777 187.805 270.989C188.025 270.218 188.318 269.356 188.94 268.659C189.526 267.962 190.313 267.375 191.155 267.063L191.466 266.935C191.466 266.935 191.485 266.916 191.704 266.861L191.851 266.824L192.4 266.696C192.876 266.641 193.425 266.586 193.865 266.659C194.78 266.733 195.622 267.118 196.299 267.558C197.672 268.457 198.496 269.631 199.1 270.64C199.704 271.649 200.052 272.566 200.272 273.208C200.492 273.85 200.583 274.217 200.583 274.217C200.583 274.217 200.327 273.924 199.887 273.41C199.448 272.915 198.844 272.181 198.093 271.411C197.325 270.658 196.391 269.778 195.329 269.246C194.798 268.952 194.231 268.824 193.682 268.787C193.37 268.751 193.187 268.787 192.913 268.806L192.363 268.952L192.235 268.989C192.363 268.952 192.217 269.007 192.217 269.007L192.016 269.099C190.881 269.503 190.13 270.383 189.709 271.521C189.306 272.658 189.178 273.905 189.16 274.988C189.16 276.07 189.215 277.024 189.27 277.666C189.325 278.326 189.361 278.712 189.361 278.712L189.343 278.767Z" fill="#001014"/>
<path d="M164.446 289.553C164.446 289.553 164.245 289.241 163.952 288.673C163.659 288.104 163.275 287.26 162.982 286.196C162.689 285.132 162.414 283.811 162.597 282.307C162.689 281.573 162.89 280.729 163.384 279.996C163.842 279.244 164.629 278.601 165.471 278.308L165.783 278.18C166.075 278.088 166.021 278.125 166.149 278.088C166.35 278.051 166.46 278.014 166.716 277.996C166.972 277.996 167.229 277.996 167.485 277.996L168.144 278.106C169.005 278.308 169.718 278.785 170.304 279.262C171.439 280.252 172.172 281.371 172.684 282.344C173.215 283.316 173.526 284.178 173.709 284.784C173.911 285.389 173.984 285.756 173.984 285.756C173.984 285.756 173.746 285.481 173.343 284.985C172.94 284.49 172.391 283.793 171.696 283.004C171 282.234 170.158 281.353 169.188 280.693C168.712 280.363 168.181 280.161 167.686 280.032L167.302 279.977C167.21 279.977 167.101 279.977 167.009 279.977C166.918 279.977 166.68 280.032 166.533 280.069C166.497 280.069 166.259 280.124 166.387 280.106L166.204 280.179C165.197 280.491 164.629 281.445 164.355 282.582C164.08 283.72 164.098 284.93 164.117 285.976C164.172 287.022 164.245 287.902 164.318 288.526C164.391 289.168 164.428 289.516 164.428 289.516L164.446 289.553Z" fill="#001014"/>
<path d="M172.776 304.137C172.776 304.137 174.698 304.412 177.48 304.651C178.89 304.742 180.501 304.871 182.222 304.834C183.082 304.871 183.961 304.779 184.858 304.742C185.755 304.742 186.634 304.541 187.531 304.449C188.409 304.265 189.306 304.137 190.148 303.88C190.954 303.568 191.851 303.44 192.583 303.036C193.334 302.688 194.121 302.413 194.743 301.972C195.384 301.55 196.08 301.239 196.574 300.78C197.105 300.34 197.617 299.973 198.075 299.624C198.478 299.221 198.826 298.854 199.1 298.56C199.704 297.973 200.052 297.643 200.052 297.643C200.052 297.643 199.869 298.083 199.485 298.835C199.283 299.221 199.064 299.679 198.752 300.211C198.386 300.688 197.965 301.22 197.489 301.789C197.05 302.413 196.391 302.89 195.732 303.44C195.091 304.027 194.304 304.467 193.462 304.926C192.656 305.439 191.723 305.715 190.789 306.063C189.855 306.375 188.867 306.558 187.897 306.779C186.908 306.852 185.92 307.035 184.949 307.017C183.979 307.054 183.027 307.017 182.112 306.907C180.281 306.76 178.615 306.375 177.206 305.971C174.405 305.146 172.739 304.119 172.739 304.119L172.776 304.137Z" fill="#D65730"/>
<path d="M151.321 309.512C151.321 309.512 145.884 289.828 138.085 290.635C130.287 291.443 131.257 300.853 136.364 305.898C140.849 310.319 148.355 313.878 151.321 309.512Z" fill="#FF8B45"/>
<path d="M147.385 308.998C146.744 308.87 146.122 308.705 145.499 308.448C144.895 308.191 144.273 307.898 143.705 307.384C143.577 307.219 143.431 307.109 143.321 306.907C143.229 306.687 143.064 306.522 143.064 306.228C143.028 305.953 143.028 305.678 143.138 305.421C143.211 305.128 143.357 304.944 143.504 304.761C143.797 304.357 144.126 304.21 144.456 303.954L145.408 303.458L144.822 304.614C144.254 303.018 143.614 301.404 142.936 299.863C142.241 298.34 141.527 296.763 140.575 295.625C140.355 295.35 140.099 295.075 139.861 294.928C139.623 294.763 139.421 294.708 139.238 294.69C139.165 294.671 139 294.708 138.945 294.708L138.341 294.965C138.103 295.112 137.829 295.277 137.554 295.534C136.547 296.524 136.291 298.34 136.474 300.101C136.035 299.312 135.742 298.432 135.669 297.496C135.669 297.019 135.632 296.524 135.76 296.047C135.852 295.552 136.071 295.075 136.346 294.616C136.621 294.176 137.023 293.791 137.499 293.442L138.067 293.094C138.396 292.929 138.671 292.819 139.037 292.764C139.733 292.653 140.41 292.892 140.904 293.167C141.435 293.461 141.801 293.809 142.167 294.176C142.863 294.91 143.376 295.717 143.833 296.524C144.291 297.331 144.675 298.157 145.005 299.001C145.334 299.844 145.664 300.67 145.902 301.55C146.158 302.413 146.414 303.257 146.579 304.155L146.762 305.036L145.993 305.293L145.206 305.55C145.023 305.66 144.712 305.77 144.639 305.88C144.547 305.935 144.492 305.99 144.474 306.008C144.419 306.045 144.419 306.082 144.401 306.118C144.346 306.155 144.419 306.247 144.401 306.338C144.401 306.43 144.511 306.54 144.547 306.65C144.822 307.091 145.279 307.512 145.755 307.916C146.231 308.32 146.762 308.686 147.293 309.053L147.385 308.998Z" fill="#D65730"/>
<path d="M236.958 702.082C236.958 702.082 216.656 726.26 287.245 809.525L301.195 805.471C301.195 805.471 281.223 741.706 273.973 703.953C267.511 670.236 250.816 633.877 225.04 649.91C207.814 660.642 236.939 702.1 236.939 702.1L236.958 702.082Z" fill="#FF8B45"/>
<path d="M270.568 785.219C270.568 785.219 292.005 818.697 294.458 818C296.911 817.321 321.551 779.66 319.318 775.074C317.066 770.488 293.14 799.325 293.14 799.325L270.587 785.219H270.568Z" fill="#FF8B45"/>
<path d="M291.2 815.046C295.337 809.084 308.371 790.061 308.847 786.503C309.158 784.136 307.273 784.503 305.552 785.292C311.758 778.725 318.201 772.799 319.318 775.074C321.57 779.66 296.911 817.321 294.458 818C293.982 818.128 292.792 816.973 291.2 815.046Z" fill="#091B2E"/>
<path d="M255.447 767.186C266.047 763.407 276.005 758.197 285.47 751.52C281.003 735.102 276.628 717.766 273.992 703.934C267.53 670.217 250.834 633.859 225.059 649.892C207.832 660.623 236.958 702.082 236.958 702.082C236.958 702.082 223.832 717.729 255.447 767.204V767.186Z" fill="#E27037"/>
<path d="M232.491 459.936L226.468 484.499C226.468 484.499 278.843 643.856 288.655 737.835C288.655 737.835 270.092 758.656 228.134 755.335C228.134 755.335 210.999 703.549 210.322 662.458C210.322 662.458 134.277 561.197 133.966 529.754C133.655 498.312 232.509 459.936 232.509 459.936H232.491Z" fill="#E94137"/>
<path opacity="0.4" d="M232.491 459.936L226.468 484.499C226.468 484.499 278.843 643.856 288.655 737.835C288.655 737.835 270.092 758.656 228.134 755.335C228.134 755.335 210.999 703.549 210.322 662.458C210.322 662.458 134.277 561.197 133.966 529.754C133.655 498.312 232.509 459.936 232.509 459.936H232.491Z" fill="#941F14"/>
<path d="M76.3559 601.573C76.3559 601.573 98.5249 579.101 34.8004 490.442L20.5764 493.377C20.5764 493.377 35.3862 558.555 39.5967 596.748C43.3495 630.869 57.0793 668.456 84.0629 654.551C102.095 645.251 76.3559 601.573 76.3559 601.573Z" fill="#FF8B45"/>
<path d="M49.4821 515.996C49.4821 515.996 30.7913 480.903 28.2833 481.399C25.7937 481.894 -1.79405 517.445 0.0732021 522.197C1.94045 526.948 28.1003 500.128 28.1003 500.128L49.4638 516.015L49.4821 515.996Z" fill="#FF8B45"/>
<path d="M76.3559 601.573C76.3559 601.573 91.7149 585.98 60.0449 529.553C48.5485 538.34 40.512 549.053 34.3976 561.912C36.5578 574.276 38.4617 586.494 39.5967 596.767C43.3495 630.887 57.0792 668.475 84.0628 654.57C102.095 645.269 76.3559 601.591 76.3559 601.591V601.573Z" fill="#E27037"/>
<path d="M31.3041 484.609C26.7092 490.222 12.1922 508.145 11.4416 511.63C10.9474 513.96 12.8512 513.74 14.627 513.098C7.90851 519.151 1.02532 524.545 0.0916915 522.178C-1.77556 517.427 25.7938 481.876 28.3018 481.38C28.7778 481.288 29.8762 482.536 31.3224 484.59L31.3041 484.609Z" fill="#091B2E"/>
<path d="M239.411 523.811C235.823 510.97 231.631 494.643 226.468 484.499L232.491 459.936L169.169 445.333L163.915 459.11C163.915 459.11 141.014 461.917 122.122 479.014C98.7263 500.183 109.655 533.111 109.655 533.111L88.5845 576.386C86.461 567.324 81.6098 551.217 71.4132 536.01C71.4132 536.01 41.5738 556.427 28.027 582.715C28.027 582.715 48.8231 669.043 79.3032 666.328C99.3487 664.549 145.17 627.787 183.467 568.663C183.467 568.663 217.681 555.271 239.393 523.774L239.411 523.811Z" fill="#E94137"/>
<path opacity="0.4" d="M229.763 471.052L232.491 459.936L169.169 445.333L157.947 456.524C170.689 471.933 197.617 475.84 229.763 471.034V471.052Z" fill="#941F14"/>
<path d="M223.667 374.359C223.667 374.359 306.87 390.557 317.707 381.403C328.545 372.231 327.501 211.626 321.716 279.207C321.716 279.207 319.538 233.254 317.909 280.803C317.909 280.803 314.925 231.291 313.68 280.619C313.68 280.619 312.142 242.39 308.664 283.609C308.664 283.609 290.467 257.34 308.298 291.938C308.298 291.938 293.36 348.237 290.943 347.668C288.527 347.081 220.427 338.734 220.427 338.734L223.686 374.359H223.667Z" fill="#FF8B45"/>
<path d="M265.937 344.091C244.756 341.578 220.427 338.753 220.427 338.753L223.686 374.377C223.686 374.377 245.69 378.432 269.14 381.403C272.234 369.755 269.305 355.905 265.955 344.109L265.937 344.091Z" fill="#E27037"/>
<path d="M260.811 337.744C260.811 337.744 267.676 381.312 260.317 390.502C260.317 390.502 233.278 388.154 228.409 386.668C223.521 385.182 207.704 338.001 207.704 338.001C207.704 338.001 222.459 331.177 260.811 337.744Z" fill="#72A0D1"/>
<path d="M225.59 346.2C221.196 343.816 216.766 338.716 207.704 338C198.917 350.695 174.606 353.703 159.979 344.311C143.504 347.815 130.177 354.217 128.566 363.958C124.593 387.861 145.133 455.992 145.133 455.992C145.133 455.992 199.704 464.724 246.495 458.285C246.495 458.285 244.042 356.235 225.59 346.219V346.2Z" fill="#72A0D1"/>
<path opacity="0.5" d="M196.171 420.147C165.654 410.791 144.968 383.88 134.149 354.987C131.129 357.592 129.115 360.546 128.566 363.939C124.593 387.842 145.133 455.973 145.133 455.973C145.133 455.973 199.704 464.705 246.495 458.266C246.495 458.266 246.129 443.022 244.61 423.76C228.116 425.228 211.768 424.934 196.171 420.147Z" fill="#5280AA"/>
<path d="M155.769 383.366C155.769 383.366 86.9004 441.353 72.896 438.73C58.8733 436.106 -21.2537 296.322 17.867 352.071C17.867 352.071 -3.44163 311.144 21.9859 351.576C21.9859 351.576 -0.402767 307.164 25.5557 349.337C25.5557 349.337 7.59712 315.419 31.4137 349.466C31.4137 349.466 33.94 317.748 35.9354 356.492C35.9354 356.492 77.2895 397.968 79.1018 396.281C80.8959 394.593 140.611 350.842 140.611 350.842L155.751 383.33L155.769 383.366Z" fill="#FF8B45"/>
<path d="M109.6 419.321C132.044 403.343 155.769 383.366 155.769 383.366L140.63 350.878C140.63 350.878 106.085 376.175 88.7493 389.035C95.1016 399.051 101.692 410.131 109.6 419.321Z" fill="#E27037"/>
<path d="M93.93 373.497C93.93 373.497 117.088 414.222 128.108 418.588C128.108 418.588 157.581 399.711 161.059 396.024C164.538 392.337 159.961 344.293 159.961 344.293C159.961 344.293 127.742 341.394 93.93 373.497Z" fill="#72A0D1"/>
</g>
<g clip-path="url(#clip2_305_122)">
<path d="M423.334 163.461L433.497 200.805L422.199 206.72L456.972 227.15L489.587 208.67L499.047 184.579L466.144 195.481L457.707 161.654L423.334 163.461Z" fill="#72140F"/>
<path d="M408.712 116.844C408.712 116.844 442.062 101.13 448.279 101.514C454.495 101.897 483.259 150.991 485.032 163.109C486.822 175.227 460.359 197.512 438.723 181.062C417.086 164.628 397.207 128.642 408.696 116.828L408.712 116.844Z" fill="#941F14"/>
<path d="M414.881 149.92C414.881 149.92 405.293 142.007 402.16 152.862C399.044 163.701 419.898 178.152 425.14 168.544C430.381 158.937 414.881 149.92 414.881 149.92Z" fill="#941F14"/>
<path d="M453.888 91.1862C456.508 76.4628 452.769 69.2689 446.984 78.2532C446.984 78.2532 446.009 71.3791 441.088 72.3543C436.182 73.3294 435.191 85.7828 435.191 85.7828C435.191 85.7828 435.191 75.6315 427.009 75.9512C418.828 76.2709 423.414 88.0689 423.414 88.0689C423.414 88.0689 419.483 78.573 416.862 78.8927C414.241 79.2124 419.483 88.0689 419.483 88.0689C419.483 88.0689 410.965 78.2373 408.025 80.859C405.085 83.4808 410.31 91.3461 410.31 91.3461C410.31 91.3461 398.197 79.8839 395.896 88.7243C395.385 90.7066 395.529 92.3532 396.04 93.7281C393.787 93.0247 391.326 93.1845 389.025 95.2787C383.752 100.043 390.799 107.125 394.362 110.178C391.805 108.452 387.059 106.421 383.128 111.329C379.197 116.237 390.99 122.472 390.99 122.472C390.99 122.472 384.774 120.186 384.774 125.093C384.774 127.715 390.335 129.026 396.232 128.371C396.232 128.371 399.907 137.818 406.06 148.018C406.859 147.842 409.815 148.178 410.965 148.673C416.862 151.215 417.837 155.883 421.448 161.127L425.699 159.496L415.552 137.547C415.552 137.547 421.113 131.328 416.207 119.85C416.207 119.85 448.63 115.917 455.821 99.8668C462.405 85.1753 461.59 74.3526 453.888 91.1702V91.1862Z" fill="#091B2E"/>
<path d="M453.2 98.5559C453.2 98.5559 462.037 114.606 464.338 121.48L450.915 102.808L453.2 98.5559Z" fill="#091B2E"/>
<path d="M447.4 168.208C447.4 168.208 463.444 162.054 475.205 155.164C475.205 155.164 470.139 172.749 447.4 168.208Z" fill="white"/>
<path d="M461.19 156.443C463.028 155.116 464.834 153.773 466.528 152.318C467.375 151.599 468.206 150.847 468.941 150.048C469.308 149.648 469.644 149.233 469.931 148.817C470.203 148.401 470.411 147.954 470.443 147.618L470.89 148.401C469.852 147.986 468.893 147.458 467.95 146.915C467.023 146.371 466.096 145.78 465.217 145.156C463.428 143.941 461.75 142.614 460.088 141.255C458.442 139.881 456.844 138.458 455.31 136.971C453.776 135.484 452.29 133.934 450.899 132.287C454.447 134.701 457.835 137.275 461.206 139.833L463.731 141.735L466.272 143.605C467.119 144.229 467.998 144.804 468.845 145.396C469.708 145.971 470.603 146.483 471.497 146.995L472.025 147.298L471.945 147.794C471.801 148.577 471.434 149.137 471.066 149.632C470.682 150.128 470.267 150.56 469.836 150.959C468.973 151.743 468.046 152.446 467.103 153.085C465.201 154.348 463.236 155.483 461.174 156.443H461.19Z" fill="#600F0B"/>
<path d="M427.265 141.175C427.265 141.175 427.153 140.76 427.153 140.024C427.137 139.289 427.217 138.266 427.521 137.067C427.824 135.868 428.4 134.509 429.294 133.182C429.758 132.527 430.269 131.871 430.876 131.28C431.5 130.688 432.155 130.113 432.906 129.649C433.641 129.154 434.44 128.77 435.255 128.466C436.038 128.083 436.917 128.019 437.7 127.843C438.499 127.683 439.298 127.763 440.017 127.763C440.752 127.763 441.423 127.971 442.03 128.099C442.638 128.258 443.181 128.386 443.644 128.642C444.108 128.85 444.491 129.074 444.811 129.25C445.434 129.601 445.754 129.873 445.754 129.873C445.754 129.873 445.338 130.017 444.651 130.193C444.316 130.273 443.916 130.385 443.469 130.465C443.021 130.529 442.526 130.736 442.014 130.88C441.503 131.04 440.944 131.104 440.4 131.36C439.857 131.584 439.266 131.696 438.739 131.967C438.195 132.255 437.604 132.399 437.093 132.735C436.549 133.038 435.99 133.294 435.495 133.662C434.951 133.95 434.472 134.381 433.961 134.733C433.465 135.117 432.986 135.532 432.506 135.932C431.58 136.763 430.701 137.611 429.95 138.394C429.183 139.177 428.511 139.865 428.048 140.376C427.553 140.888 427.265 141.191 427.265 141.191V141.175Z" fill="#091B2E"/>
<path d="M450.26 128.466C450.26 128.466 450.164 128.163 450.132 127.651C450.084 127.14 450.084 126.436 450.244 125.621C450.532 124.006 451.475 121.96 453.344 120.473C453.792 120.106 454.351 119.786 454.894 119.514C455.438 119.242 456.077 119.082 456.668 118.97C457.307 118.938 457.883 118.859 458.442 118.97C459.001 119.114 459.513 119.178 459.928 119.45C460.343 119.69 460.695 119.946 460.967 120.169C461.222 120.425 461.414 120.713 461.574 120.921C461.878 121.352 461.973 121.624 461.973 121.624C461.973 121.624 461.638 121.704 461.174 121.784C460.935 121.816 460.663 121.88 460.391 121.912C460.104 122.008 459.8 122.12 459.513 122.2C459.225 122.248 458.937 122.487 458.682 122.567C458.41 122.663 458.17 122.919 457.915 123.015C457.659 123.223 457.419 123.383 457.147 123.575C456.892 123.814 456.604 123.958 456.317 124.214C455.725 124.63 455.134 125.189 454.479 125.653C453.856 126.164 453.2 126.628 452.593 127.06C451.97 127.475 451.411 127.827 450.979 128.067C450.564 128.307 450.276 128.45 450.276 128.45L450.26 128.466Z" fill="#091B2E"/>
<path d="M437.109 148.673C437.109 148.673 436.901 148.417 436.581 147.922C436.262 147.426 435.862 146.707 435.527 145.732C435.367 145.252 435.207 144.709 435.111 144.117C435.031 143.526 434.967 142.87 435.079 142.167C435.191 141.479 435.367 140.728 435.83 140.073C436.278 139.417 436.885 138.858 437.572 138.506L437.828 138.378C437.828 138.378 437.844 138.362 438.019 138.282L438.131 138.25L438.595 138.09C438.994 137.994 439.458 137.898 439.841 137.93C440.64 137.914 441.391 138.154 441.998 138.474C443.261 139.113 444.076 140.041 444.683 140.84C445.29 141.655 445.674 142.391 445.93 142.918C446.169 143.446 446.281 143.749 446.281 143.749C446.281 143.749 446.041 143.526 445.61 143.126C445.194 142.742 444.603 142.183 443.884 141.591C443.149 141.016 442.286 140.36 441.311 140.009C440.832 139.817 440.337 139.753 439.857 139.769C439.586 139.769 439.442 139.833 439.202 139.865L438.755 140.041L438.643 140.089C438.739 140.041 438.627 140.104 438.627 140.104L438.467 140.2C437.524 140.648 436.981 141.479 436.725 142.486C436.485 143.494 436.501 144.581 436.581 145.508C436.677 146.435 436.821 147.234 436.917 147.794C437.029 148.353 437.093 148.689 437.093 148.689L437.109 148.673Z" fill="#001014"/>
<path d="M458.442 137.227C458.442 137.227 458.25 136.987 457.946 136.524C457.643 136.06 457.243 135.389 456.876 134.493C456.524 133.614 456.157 132.511 456.173 131.216C456.173 130.577 456.285 129.841 456.636 129.17C456.956 128.482 457.563 127.859 458.25 127.523L458.506 127.395C458.745 127.3 458.698 127.331 458.809 127.284C458.969 127.236 459.065 127.188 459.289 127.156C459.513 127.124 459.72 127.092 459.944 127.076L460.519 127.108C461.286 127.204 461.926 127.539 462.469 127.875C463.539 128.61 464.259 129.49 464.802 130.289C465.345 131.072 465.697 131.776 465.92 132.287C466.144 132.783 466.256 133.087 466.256 133.087C466.256 133.087 466.032 132.863 465.649 132.495C465.265 132.111 464.722 131.568 464.051 130.96C463.38 130.369 462.581 129.697 461.702 129.218C461.254 128.994 460.791 128.85 460.343 128.802H460.024C459.944 128.802 459.864 128.818 459.768 128.818C459.688 128.818 459.497 128.898 459.369 128.946C459.337 128.946 459.129 129.026 459.241 128.994L459.097 129.074C458.266 129.442 457.883 130.305 457.739 131.312C457.611 132.303 457.739 133.342 457.867 134.222C458.01 135.101 458.154 135.852 458.282 136.38C458.394 136.907 458.458 137.211 458.458 137.211L458.442 137.227Z" fill="#001014"/>
<path d="M419.706 167.393C419.067 167.457 418.412 167.457 417.741 167.361C417.405 167.313 417.086 167.249 416.75 167.137C416.431 167.026 416.095 166.882 415.775 166.658C415.456 166.45 415.184 166.114 415.008 165.715C414.896 165.523 414.896 165.299 414.865 165.091C414.817 164.867 414.865 164.676 414.896 164.468C414.928 164.036 415.12 163.732 415.248 163.365C415.424 163.045 415.616 162.757 415.807 162.453L415.679 163.141C414.944 161.334 414.129 159.496 413.235 157.785C413.011 157.354 412.755 156.938 412.515 156.538C412.244 156.155 412.004 155.739 411.732 155.371C411.461 154.988 411.157 154.668 410.87 154.38L410.406 154.013C410.262 153.965 410.102 153.853 409.959 153.805C409.831 153.805 409.703 153.709 409.559 153.741C409.303 153.757 409.032 153.789 408.92 153.837C408.616 153.885 408.217 154.109 407.897 154.332C407.562 154.556 407.258 154.86 407.002 155.196C406.763 155.547 406.555 155.931 406.411 156.347C406.251 156.762 406.155 157.194 406.155 157.658C406.123 158.105 406.155 158.569 406.283 159.032C406.315 159.272 406.395 159.496 406.491 159.704C406.571 159.928 406.651 160.167 406.779 160.375C406.986 160.823 407.29 161.222 407.578 161.638C407.178 161.318 406.763 161.015 406.427 160.615C406.076 160.231 405.772 159.784 405.564 159.288C405.324 158.809 405.165 158.265 405.117 157.705C405.037 157.162 405.069 156.586 405.181 156.027C405.277 155.467 405.5 154.924 405.772 154.428C406.06 153.933 406.427 153.453 406.875 153.069C407.354 152.686 407.817 152.366 408.504 152.174C408.856 152.046 409.096 152.03 409.335 151.982C409.687 151.902 410.071 151.998 410.438 152.046C410.79 152.126 411.061 152.302 411.365 152.446C411.621 152.622 411.86 152.814 412.1 152.989C412.515 153.389 412.915 153.805 413.235 154.236C413.922 155.1 414.417 156.027 414.88 156.954C415.823 158.809 416.51 160.727 417.07 162.725L417.182 163.109L416.958 163.413C416.782 163.636 416.606 163.86 416.431 164.084C416.335 164.308 416.127 164.548 416.095 164.771C416.063 164.883 415.999 164.995 416.015 165.107C416.015 165.203 415.967 165.331 416.015 165.411C416.047 165.507 416.047 165.619 416.127 165.715C416.191 165.811 416.239 165.922 416.351 166.002C416.526 166.194 416.766 166.37 417.022 166.514C417.277 166.658 417.565 166.786 417.853 166.898C418.428 167.121 419.051 167.297 419.69 167.425L419.706 167.393Z" fill="#600F0B"/>
<path d="M403.359 625.691L393.787 667.239C393.787 667.239 491.456 726.437 419.547 662.172L434.12 606.763L403.359 625.707V625.691Z" fill="#0C2944"/>
<path d="M421.273 662.46C421.273 662.46 415.871 660.829 412.5 663.579" stroke="white" stroke-miterlimit="10" stroke-linecap="round"/>
<path d="M424.916 666.28C424.916 666.28 419.515 664.65 416.143 667.399" stroke="white" stroke-miterlimit="10" stroke-linecap="round"/>
<path d="M429.071 670.373C429.071 670.373 423.67 668.742 420.298 671.492" stroke="white" stroke-miterlimit="10" stroke-linecap="round"/>
<path d="M435.095 459.768L400.163 444.006C400.163 444.006 335.492 531.611 401.138 470.239L447.496 493.052L435.111 459.768H435.095Z" fill="#0C2944"/>
<path d="M400.642 471.902C400.642 471.902 402.784 466.818 400.834 463.061" stroke="white" stroke-width="0.94" stroke-miterlimit="10" stroke-linecap="round"/>
<path d="M396.823 474.939C396.823 474.939 398.964 469.856 397.015 466.099" stroke="white" stroke-width="0.94" stroke-miterlimit="10" stroke-linecap="round"/>
<path d="M392.7 478.424C392.7 478.424 394.842 473.341 392.892 469.584" stroke="white" stroke-width="0.94" stroke-miterlimit="10" stroke-linecap="round"/>
<path d="M417.965 356.32C417.965 356.32 469.947 364.649 521.547 359.869C521.547 359.869 514.196 473.101 502.083 493.547C488.053 517.207 449.365 522.691 452.146 492.892C454.942 463.093 467.135 416.301 467.135 416.301L477.522 415.902C477.522 415.902 442.158 612.518 423.765 653.843L396.056 644.906C396.056 644.906 395.625 589.018 404.797 507.871C413.986 426.548 417.949 356.32 417.949 356.32H417.965Z" fill="#72A0D1"/>
<path d="M452.385 371.987C471.705 373.202 490.929 372.93 510.265 372.035C513.749 371.875 517.232 371.667 520.716 371.475C521.259 364.266 521.547 359.869 521.547 359.869C469.947 364.649 417.965 356.32 417.965 356.32C417.965 356.32 418.013 359.582 417.997 365.544C428.847 369.717 440.816 371.252 452.37 371.987H452.385Z" fill="#5280AA"/>
<path d="M477.378 416.733C476.26 422.904 468.781 463.973 459.305 510.781C470.667 517.655 492.335 509.997 502.083 493.547C508.619 482.533 513.749 444.597 517.12 411.953C503.857 413.392 490.61 414.958 477.394 416.733H477.378Z" fill="#5280AA"/>
<path d="M331.337 40.0458C331.337 40.0458 329.42 -3.19732 336.563 39.3424C336.563 39.3424 333.271 -5.51535 340.286 38.671C340.286 38.671 337.074 4.12444 345.08 40.7652C345.08 40.7652 359.43 12.2775 347.813 45.4972C347.813 45.4972 372.502 111.249 378.414 126.756L430.876 208.734C430.876 208.734 441.951 253.896 416.207 239.748C390.479 225.6 352.798 142.295 352.798 142.295C341.037 112.928 314.75 -11.1426 331.337 40.0458Z" fill="#941F14"/>
<path d="M430.876 208.734L412.691 180.31C405.452 190.717 397.718 200.789 390.191 210.988C399.028 224.209 408.201 235.335 416.223 239.748C441.951 253.896 430.892 208.734 430.892 208.734H430.876Z" fill="#72140F"/>
<path d="M446.457 213.322L418.444 180.822L394.011 224.864L415.695 246.638L446.457 213.322Z" fill="#FF8B45"/>
<path d="M550.678 19.7112C550.678 19.7112 545.213 -23.2282 545.405 19.903C545.405 19.903 541.01 -24.8588 541.634 19.8871C541.634 19.8871 538.917 -14.6915 537.255 22.7646C537.255 22.7646 518.271 -2.86155 535.369 27.8803C535.369 27.8803 522.234 96.8775 519.054 113.168L481.309 202.883C481.309 202.883 478.081 249.26 501.028 230.939C523.976 212.619 546.907 124.102 546.907 124.102C553.523 93.1686 558.285 -33.5714 550.662 19.6952L550.678 19.7112Z" fill="#941F14"/>
<path d="M499.814 158.873L481.309 202.883C481.309 202.883 478.081 249.26 501.028 230.939C510.776 223.154 520.524 202.707 528.514 181.749C518.367 174.875 508.699 167.345 499.814 158.873Z" fill="#72140F"/>
<path d="M482.412 189.055L496.33 155.835L531.326 199.35L511.208 231.579L482.412 189.055Z" fill="#FF8B45"/>
<path d="M482.412 189.055L496.33 155.835L531.326 199.35L511.208 231.579L482.412 189.055Z" fill="#E27037"/>
<path d="M499.047 184.579L491.137 168.401L482.652 189.215C482.588 196.585 478.896 205.249 463.539 208.99C449.253 212.459 440.896 207.903 436.07 202.356L434.424 202.819L405.772 210.908C405.772 210.908 413.906 305.788 414.545 360.637C414.545 360.637 495.979 373.985 525.478 362.299C525.478 362.299 530.639 268.316 499.063 184.595L499.047 184.579Z" fill="#FF8B45"/>
<path d="M487.03 321.486C453.632 314.82 428.176 292.055 409.863 264.479C411.988 295.189 414.209 332.98 414.529 360.621C414.529 360.621 495.963 373.969 525.462 362.283C525.462 362.283 526.277 347.416 525.27 324.252C512.422 324.699 499.526 323.98 487.014 321.47L487.03 321.486Z" fill="#E27037"/>
</g>
</g>
<defs>
<clipPath id="clip0_305_122">
<rect width="555" height="821" fill="white"/>
</clipPath>
<clipPath id="clip1_305_122">
<rect width="326" height="597" fill="white" transform="translate(0 221)"/>
</clipPath>
<clipPath id="clip2_305_122">
<rect width="299" height="768" fill="white" transform="translate(326)"/>
</clipPath>
</defs>
</svg>
