<svg width="1440" height="415" viewBox="0 0 1440 415" fill="none" xmlns="http://www.w3.org/2000/svg" preserveAspectRatio="none">
<g clip-path="url(#clip0_321_384)">
<path d="M-137 151.699L-23.7222 173.596C89.5556 196.03 316.111 239.018 542.667 228.54C769.222 217.524 995.778 151.699 1222.33 74.8575C1448.89 -1.44618 1675.44 -90.1089 1902 -100.587C2128.56 -111.603 2355.11 -45.7776 2581.67 20.0478C2808.22 85.8732 3034.78 151.699 3261.33 184.611C3487.89 217.524 3714.44 217.524 3941 173.596C4167.56 130.205 4394.11 41.5418 4620.67 31.0635C4847.22 20.0478 5073.78 85.8732 5300.33 140.683C5526.89 196.03 5753.44 239.018 5980 228.54C6206.56 217.524 6433.11 151.699 6659.67 129.802C6886.22 107.367 7112.78 130.205 7339.33 85.8732C7565.89 41.5418 7792.44 -67.2716 8019 -67.6746C8245.56 -67.2716 8472.11 41.5418 8698.67 63.9762C8925.22 85.8732 9151.78 20.0478 9378.33 31.0635C9604.89 41.5418 9831.44 130.205 10058 162.714C10284.6 196.03 10511.1 173.193 10737.7 140.683C10964.2 107.367 11190.8 64.3792 11417.3 63.9762C11643.9 64.3792 11870.4 107.367 12097 74.8575C12323.6 41.5418 12550.1 -67.2716 12776.7 -100.587C13003.2 -133.097 13229.8 -90.1089 13456.3 -45.7776C13682.9 -1.44619 13909.4 41.5418 14136 74.8575C14362.6 107.367 14589.1 130.205 14815.7 129.802C15042.2 130.205 15268.8 107.367 15495.3 140.683C15721.9 173.193 15948.4 261.855 16061.7 305.246L16175 349.175V415H16061.7C15948.4 415 15721.9 415 15495.3 415C15268.8 415 15042.2 415 14815.7 415C14589.1 415 14362.6 415 14136 415C13909.4 415 13682.9 415 13456.3 415C13229.8 415 13003.2 415 12776.7 415C12550.1 415 12323.6 415 12097 415C11870.4 415 11643.9 415 11417.3 415C11190.8 415 10964.2 415 10737.7 415C10511.1 415 10284.6 415 10058 415C9831.44 415 9604.89 415 9378.33 415C9151.78 415 8925.22 415 8698.67 415C8472.11 415 8245.56 415 8019 415C7792.44 415 7565.89 415 7339.33 415C7112.78 415 6886.22 415 6659.67 415C6433.11 415 6206.56 415 5980 415C5753.44 415 5526.89 415 5300.33 415C5073.78 415 4847.22 415 4620.67 415C4394.11 415 4167.56 415 3941 415C3714.44 415 3487.89 415 3261.33 415C3034.78 415 2808.22 415 2581.67 415C2355.11 415 2128.56 415 1902 415C1675.44 415 1448.89 415 1222.33 415C995.778 415 769.222 415 542.667 415C316.111 415 89.5556 415 -23.7222 415H-137V151.699Z" fill="url(#paint0_linear_321_384)"/>
</g>
<defs>
<linearGradient id="paint0_linear_321_384" x1="-137" y1="415" x2="-137" y2="-111.977" gradientUnits="userSpaceOnUse">
<stop stop-color="#FFFAF6"/>
<stop offset="1" stop-color="#FFD4B3"/>
</linearGradient>
<clipPath id="clip0_321_384">
<rect width="1440" height="415" fill="white"/>
</clipPath>
</defs>
</svg>
