<svg width="554" height="359" viewBox="0 0 554 359" fill="none" xmlns="http://www.w3.org/2000/svg">
<path d="M254.489 317.365C248.674 315.273 244.327 309.919 243.102 303.339L234.637 257.895L162.23 260.685L153.319 308.026C152.071 314.656 157.067 321.309 162.821 323.751L193.114 336.608C198.749 339 204.805 339.952 210.825 339.392L274.846 333.451C276.718 333.277 278.218 331.681 278.437 329.635C278.655 327.588 279.966 325.289 278.182 324.646L254.491 317.365H254.489Z" fill="#97A6B7"/>
<path d="M255.207 314.601C249.396 312.535 245.054 307.248 243.83 300.751L235.375 255.878L164.732 258.635L155.829 305.381C154.583 311.929 157.882 318.493 163.629 320.904L193.892 333.599C199.522 335.96 205.572 336.901 211.586 336.349L275.542 330.482C277.412 330.31 278.91 328.734 279.128 326.713C279.345 324.691 278.221 322.783 276.439 322.149L255.207 314.598V314.601Z" fill="url(#paint0_linear_300_686)"/>
<path d="M14.2752 288.098C6.42323 288.606 0 283.08 0 275.779V12.59C0 5.28836 6.42323 -0.351445 14.2752 0.0170803L377.402 17.0846C383.166 17.355 387.835 22.628 387.835 28.8378V252.679C387.835 258.889 383.168 264.244 377.402 264.616L14.2752 288.098Z" fill="url(#paint1_linear_300_686)"/>
<path d="M17.5393 288.098C9.68727 288.606 3.26404 283.08 3.26404 275.779V12.59C3.26404 5.28836 9.68727 -0.351445 17.5393 0.0170803L380.666 17.0846C386.43 17.355 391.099 22.628 391.099 28.8378V252.679C391.099 258.889 386.432 264.244 380.666 264.616L17.5393 288.098Z" fill="url(#paint2_linear_300_686)"/>
<g style="mix-blend-mode:multiply" opacity="0.3">
<path d="M380.666 22.3525L17.5392 6.14773C13.3418 5.96002 9.92853 8.9685 9.92853 12.869V275.381C9.92853 279.28 13.3418 282.228 17.5392 281.968L380.666 259.348C383.755 259.156 386.254 256.299 386.254 252.966V28.6346C386.254 25.3024 383.755 22.4903 380.666 22.3525Z" fill="#D8DEE8"/>
</g>
<path d="M382.474 28.4934V237.661C382.474 238.961 381.683 240.071 380.48 240.137L17.3932 259.61C15.758 259.698 14.4721 258.532 14.4721 257.02V13.0618C14.4721 11.5499 15.8517 10.3685 17.4869 10.4391L380.453 26.0377C381.656 26.0928 382.472 27.1915 382.472 28.4917L382.474 28.4934Z" fill="#D8DEE8"/>
<path opacity="0.7" d="M382.812 28.7448L383.015 63.9579L14.4721 56.2309V13.0515C14.4721 11.5447 15.8295 10.3685 17.4361 10.4391L380.629 26.253C381.855 26.3098 382.804 27.424 382.814 28.7431L382.812 28.7448Z" fill="white"/>
<g opacity="0.5">
<path d="M250.733 163.761L36.1327 167.72L36.0422 73.3157L249.874 76.536L250.733 163.761Z" fill="white"/>
<path d="M368.016 161.598L263.047 163.534L262.147 76.7202L366.791 78.2976L368.016 161.598Z" fill="white"/>
<path d="M368.932 223.805L36.1993 238.274L36.1437 180.102L368.177 172.519L368.932 223.805Z" fill="white"/>
</g>
<path d="M448.456 185.281L461.854 198.68C461.854 198.68 487.371 208.658 490.222 214.787C493.074 220.916 487.656 220.631 481.67 219.775C475.683 218.92 458.72 208.371 458.72 208.371L443.183 190.409L448.456 185.278V185.281Z" fill="#5858C6"/>
<path d="M487.674 212.102L484.36 210.927L477.946 213.921C477.946 213.921 474.632 216.166 473.029 221.727C471.427 227.285 473.03 260.536 475.702 265.88C478.374 271.225 487.677 212.104 487.677 212.104L487.674 212.102Z" fill="#E9FAFF"/>
<path d="M508.717 345.439C508.717 345.439 511.073 346.957 511.268 347.654C511.461 348.354 513.19 355.909 512.544 356.783C511.897 357.66 509.528 357.234 510.45 357.873C511.144 358.354 515.622 358.724 518.488 357.95C519.325 357.726 518.942 350.662 519.063 349.587C519.243 348.024 520.323 344.478 519.668 343.553C519.348 343.102 517.51 342.31 515.855 341.665C514.115 340.987 512.184 339.07 512.184 339.07L508.72 345.439H508.717Z" fill="#F7A491"/>
<path d="M515.707 341.607C515.707 341.607 514.315 355.011 512.686 356.001C512.253 356.265 509.964 356.461 509.752 357.554C509.747 357.58 509.7 358.676 510.394 358.703L519.082 358.676C519.082 358.676 519.171 352.085 519.116 349.505C519.116 349.505 520.315 342.915 519.924 342.423C519.533 341.93 515.707 341.61 515.707 341.61V341.607Z" fill="#3C8F7C"/>
<path d="M542.715 345.439C542.715 345.439 545.07 346.957 545.266 347.654C545.461 348.351 547.188 355.909 546.541 356.783C545.894 357.66 543.526 357.234 544.447 357.873C545.142 358.354 549.62 358.724 552.485 357.95C553.32 357.726 552.939 350.662 553.061 349.587C553.24 348.024 554.32 344.478 553.666 343.553C553.346 343.102 551.508 342.31 549.853 341.665C548.112 340.987 546.182 339.07 546.182 339.07L542.718 345.439H542.715Z" fill="#F7A491"/>
<path d="M500.046 258.333C500.046 258.333 507.988 274.106 509.618 278.341L521.722 309.051L548.419 340.453C548.419 340.453 546.465 345.5 543.51 346.852C543.51 346.852 511.324 320.863 508.675 316.77C504.64 310.53 486.264 272.302 486.264 272.302L482.847 264.948L500.048 258.331L500.046 258.333Z" fill="#E27023"/>
<path d="M480.848 258.164L480.975 271.613C480.975 271.613 475.229 315.545 476.343 318.154C479.061 324.52 508.915 346.094 508.915 346.094L512.977 339.109L491.524 315.162L499.649 291.856C501.923 286.443 506.758 275.981 506.636 270.111C506.531 265.08 496.557 253.414 496.557 253.414L480.848 258.167V258.164Z" fill="#F7A464"/>
<path d="M493.04 278.043C500.951 276.247 507.352 273.451 508.01 271.243C508.305 270.245 503.895 260.211 500.65 246.812C499.591 242.437 499.781 238.328 498.083 223.007C497.722 219.757 496.378 212.947 491.345 211.188C489.575 210.573 488.591 210.649 488.591 210.649C488.548 210.657 482.187 210.699 479.277 212.315C478.559 213.29 475.881 218.624 475.168 233.163C474.857 239.511 473.589 259.894 473.851 263.205C473.89 263.696 473.938 264.172 473.999 264.631C475.137 273.43 484.389 280.007 493.043 278.043H493.04Z" fill="#5858C6"/>
<path d="M479.055 222.255C479.055 222.255 479.068 222.255 479.079 222.255C482.303 221.898 490.415 211.273 490.415 211.273L490.397 211.244L485.393 203.316C485.393 203.316 478.02 204.658 479.465 206.905C480.906 209.147 481.714 214.534 481.714 214.534C481.691 214.594 481.659 214.668 481.614 214.758C481.107 215.859 479.457 219.115 479.058 222.257L479.055 222.255Z" fill="#F7A491"/>
<path d="M479.465 206.902C478.023 204.66 485.395 203.316 485.395 203.316L485.813 203.977C485.823 204.534 485.76 205.043 485.607 205.482C484.809 207.729 482.895 209.707 480.906 210.66C480.539 209.271 480.056 207.824 479.465 206.902Z" fill="#FE875E"/>
<path d="M481.231 190.784C481.39 190.634 486.98 199.828 485.638 203.615C484.297 207.401 479.779 210.42 477.096 209.07C474.128 207.576 469.644 197.029 472.348 192.556C475.052 188.083 481.231 190.784 481.231 190.784Z" fill="#F7A491"/>
<path d="M473.135 186.657C476.425 185.949 482.303 186.921 485.612 189.25C489.681 192.112 489.816 197.193 487.983 200.515C486.151 203.837 487.254 206.282 487.254 206.282C487.254 206.282 481.535 205.923 480.378 202.03C479.892 200.396 480.497 199.289 479.399 198.371C478.551 197.66 477.841 195.598 477.001 193.94C477.001 193.94 473.312 191.978 471.907 193.594C471.427 194.146 468.915 187.568 473.138 186.662L473.135 186.657Z" fill="#271651"/>
<path d="M478.82 199.081C479.322 200.282 480.291 201.019 480.991 200.729C481.688 200.438 481.849 199.229 481.35 198.027C480.848 196.826 479.879 196.089 479.179 196.38C478.482 196.67 478.321 197.879 478.82 199.081Z" fill="#F7A491"/>
<path d="M549.742 341.623C549.742 341.623 548.313 355.011 546.684 356.001C546.251 356.265 543.961 356.461 543.75 357.554C543.745 357.58 543.679 358.713 544.392 358.695L553.069 358.676C553.069 358.676 553.169 352.085 553.114 349.505C553.114 349.505 554.312 342.914 553.922 342.423C553.531 341.93 549.742 341.623 549.742 341.623Z" fill="#3C8F7C"/>
<path d="M357.857 279.757C350.96 265.328 349.066 243.8 356.582 226.72C369.254 197.895 404.12 186.131 401.554 153.462C400.907 145.234 397.247 138.614 391.855 134.357C377.664 123.15 354.831 129.081 338.533 136.908C328.124 141.909 318.457 148.999 309.534 158.183L305 100.486C324.562 86.6045 348.235 79.3455 371.86 77.4891C420.273 73.684 457.659 91.8434 461.464 140.269C464.933 184.436 435.087 204.003 415.066 226.081C403.951 238.336 401.44 247.776 402.301 258.714C402.745 264.367 404.865 271.346 408.274 275.796L357.857 279.757ZM392.618 358.658C345.56 362.355 340.109 299.133 387.648 295.4C434.474 291.721 439.496 354.974 392.618 358.658Z" fill="#F7A464"/>
<path d="M441.282 188.199C441.194 187.8 441.517 188.115 440.917 184.999C440.743 184.098 440.183 183.15 439.766 182.646C439.541 182.371 439.021 181.907 438.699 181.711C438.16 181.389 437.74 181.914 437.846 182.21C437.954 182.506 438.509 183.531 438.617 183.826C438.725 184.122 438.773 184.851 438.527 185.091C438.282 185.334 434.384 180.864 434.141 180.473C433.935 180.14 433.473 178.685 433.473 178.685C433.473 178.685 433.133 177.626 432.718 177.895C432.446 178.072 432.148 178.944 432.929 180.66C433.613 182.16 434.556 183.356 434.45 183.446C434.17 183.676 432.478 181.65 432.478 181.65C432.478 181.65 431.886 180.52 431.488 180.119C431.237 179.369 430.777 178.434 430.297 178.801C430.207 178.87 430.526 180.467 430.526 180.467C430.526 180.467 431.118 181.524 431.369 182.047C431.812 182.965 432.824 184.08 433.17 184.677C433.457 185.173 433.178 185.059 433.156 185.118C433.138 185.162 432.702 184.605 432.037 183.789C431.701 183.377 431.242 182.987 430.922 182.451C430.627 181.954 430.128 181.328 429.816 180.959C428.939 179.913 428.472 180.623 429.14 181.727C429.394 182.147 429.673 182.604 429.961 183.063C431.073 184.853 432.443 186.253 432.309 186.422C432.137 186.641 429.782 183.942 429.782 183.942C429.782 183.942 428.121 182.836 429.108 184.465C430.254 186.353 431.493 187.563 431.551 187.613C431.942 187.954 432.985 189.556 434.516 190.531C436.048 191.505 438.53 192.976 438.53 192.976C438.815 193.319 439.541 194.439 440.547 196.021L444.26 191.553C442.953 190.193 441.345 188.474 441.284 188.196L441.282 188.199Z" fill="#F8A492"/>
<path d="M438.353 194.497L443.484 190.008L461.107 207.399C461.107 207.399 488.387 209.791 488.458 209.81L489.552 210.15C499.449 213.567 495.374 221.645 493.468 222.894C489.026 225.804 464.36 224.061 456.457 219.157C449.951 215.123 438.353 194.497 438.353 194.497Z" fill="#7473E8"/>
<defs>
<linearGradient id="paint0_linear_300_686" x1="209.196" y1="402.56" x2="219.8" y2="308.064" gradientUnits="userSpaceOnUse">
<stop stop-color="#444B8C"/>
<stop offset="1" stop-color="#26264F"/>
</linearGradient>
<linearGradient id="paint1_linear_300_686" x1="146.539" y1="138.405" x2="51.0469" y2="148.598" gradientUnits="userSpaceOnUse">
<stop stop-color="#444B8C"/>
<stop offset="0.39" stop-color="#383C74"/>
<stop offset="1" stop-color="#26264F"/>
</linearGradient>
<linearGradient id="paint2_linear_300_686" x1="308.736" y1="-51.4403" x2="22.9607" y2="349.418" gradientUnits="userSpaceOnUse">
<stop stop-color="#444B8C"/>
<stop offset="1" stop-color="#26264F"/>
</linearGradient>
</defs>
</svg>
