<svg width="1440" height="607" viewBox="0 0 1440 607" fill="none" xmlns="http://www.w3.org/2000/svg" preserveAspectRatio="none">
<g clip-path="url(#clip0_300_290)">
<path d="M-76 0.830292H4C84 0.830292 244 0.830292 404 48.6801C564 96.53 724 192.23 884 240.079C1044 287.929 1204 287.929 1364 192.23C1524 96.5299 1684 -94.8694 1844 -190.569C2004 -286.269 2164 -286.269 2324 -238.419C2484 -190.569 2644 -94.8694 2804 -15.1847C2964 65.2811 3124 127.779 3284 128.365C3444 127.779 3604 65.2811 3764 96.53C3924 127.779 4084 256.68 4244 224.064C4404 192.23 4564 0.830261 4724 16.8453C4884 32.0792 5044 256.68 5204 256.095C5364 256.68 5524 32.0792 5684 -47.0195C5844 -126.118 6004 -63.6205 6164 48.6801C6324 160.981 6484 319.178 6644 367.614C6804 414.878 6964 352.38 7124 224.064C7284 96.53 7444 -94.8694 7604 -47.0195C7764 0.830292 7924 287.929 8084 351.794C8244 414.878 8404 256.68 8564 112.545C8724 -30.4186 8884 -159.32 9044 -206.584C9204 -255.02 9364 -221.818 9524 -190.569C9684 -159.32 9844 -126.118 10004 -47.0195C10164 32.0792 10324 160.981 10484 240.079C10644 319.178 10804 352.38 10964 287.929C11124 223.479 11284 65.2811 11364 -15.1847L11444 -94.8694V670.728H11364C11284 670.728 11124 670.728 10964 670.728C10804 670.728 10644 670.728 10484 670.728C10324 670.728 10164 670.728 10004 670.728C9844 670.728 9684 670.728 9524 670.728C9364 670.728 9204 670.728 9044 670.728C8884 670.728 8724 670.728 8564 670.728C8404 670.728 8244 670.728 8084 670.728C7924 670.728 7764 670.728 7604 670.728C7444 670.728 7284 670.728 7124 670.728C6964 670.728 6804 670.728 6644 670.728C6484 670.728 6324 670.728 6164 670.728C6004 670.728 5844 670.728 5684 670.728C5524 670.728 5364 670.728 5204 670.728C5044 670.728 4884 670.728 4724 670.728C4564 670.728 4404 670.728 4244 670.728C4084 670.728 3924 670.728 3764 670.728C3604 670.728 3444 670.728 3284 670.728C3124 670.728 2964 670.728 2804 670.728C2644 670.728 2484 670.728 2324 670.728C2164 670.728 2004 670.728 1844 670.728C1684 670.728 1524 670.728 1364 670.728C1204 670.728 1044 670.728 884 670.728C724 670.728 564 670.728 404 670.728C244 670.728 84 670.728 4 670.728H-76V0.830292Z" fill="url(#paint0_linear_300_290)"/>
</g>
<defs>
<linearGradient id="paint0_linear_300_290" x1="-76" y1="670.728" x2="-76" y2="-269.849" gradientUnits="userSpaceOnUse">
<stop stop-color="white"/>
<stop offset="1" stop-color="#FFD4B3"/>
</linearGradient>
<clipPath id="clip0_300_290">
<rect width="1440" height="607" fill="white"/>
</clipPath>
</defs>
</svg>
