<svg width="52" height="51" viewBox="0 0 52 51" fill="none" xmlns="http://www.w3.org/2000/svg">
<path d="M1 25.5C1 11.969 11.969 1 25.5 1H26.5C40.031 1 51 11.969 51 25.5C51 39.031 40.031 50 26.5 50H25.5C11.969 50 1 39.031 1 25.5Z" stroke="#F7A464" stroke-width="2"/>
<path d="M28.8333 27.75H32.881L34.5 21.75H28.8333V18.75C28.8333 17.205 28.8333 15.75 32.0714 15.75H34.5V10.71C33.9722 10.6455 31.9791 10.5 29.8744 10.5C25.4787 10.5 22.3571 12.9855 22.3571 17.55V21.75H17.5V27.75H22.3571V40.5H28.8333V27.75Z" fill="#F7A464"/>
</svg>
