<svg width="35" height="35" viewBox="0 0 35 35" fill="none" xmlns="http://www.w3.org/2000/svg">
<circle cx="17.5" cy="17.5" r="17.5" fill="#FEE3CE"/>
<path d="M14.22 8H21.78C24.66 8 27 10.34 27 13.22V20.78C27 22.1644 26.45 23.4922 25.4711 24.4711C24.4922 25.45 23.1644 26 21.78 26H14.22C11.34 26 9 23.66 9 20.78V13.22C9 11.8356 9.54996 10.5078 10.5289 9.5289C11.5078 8.54996 12.8356 8 14.22 8ZM14.04 9.8C13.1807 9.8 12.3566 10.1414 11.749 10.749C11.1414 11.3566 10.8 12.1807 10.8 13.04V20.96C10.8 22.751 12.249 24.2 14.04 24.2H21.96C22.8193 24.2 23.6434 23.8586 24.251 23.251C24.8586 22.6434 25.2 21.8193 25.2 20.96V13.04C25.2 11.249 23.751 9.8 21.96 9.8H14.04ZM22.725 11.15C23.0234 11.15 23.3095 11.2685 23.5205 11.4795C23.7315 11.6905 23.85 11.9766 23.85 12.275C23.85 12.5734 23.7315 12.8595 23.5205 13.0705C23.3095 13.2815 23.0234 13.4 22.725 13.4C22.4266 13.4 22.1405 13.2815 21.9295 13.0705C21.7185 12.8595 21.6 12.5734 21.6 12.275C21.6 11.9766 21.7185 11.6905 21.9295 11.4795C22.1405 11.2685 22.4266 11.15 22.725 11.15ZM18 12.5C19.1935 12.5 20.3381 12.9741 21.182 13.818C22.0259 14.6619 22.5 15.8065 22.5 17C22.5 18.1935 22.0259 19.3381 21.182 20.182C20.3381 21.0259 19.1935 21.5 18 21.5C16.8065 21.5 15.6619 21.0259 14.818 20.182C13.9741 19.3381 13.5 18.1935 13.5 17C13.5 15.8065 13.9741 14.6619 14.818 13.818C15.6619 12.9741 16.8065 12.5 18 12.5ZM18 14.3C17.2839 14.3 16.5972 14.5845 16.0908 15.0908C15.5845 15.5972 15.3 16.2839 15.3 17C15.3 17.7161 15.5845 18.4028 16.0908 18.9092C16.5972 19.4155 17.2839 19.7 18 19.7C18.7161 19.7 19.4028 19.4155 19.9092 18.9092C20.4155 18.4028 20.7 17.7161 20.7 17C20.7 16.2839 20.4155 15.5972 19.9092 15.0908C19.4028 14.5845 18.7161 14.3 18 14.3Z" fill="#F7A464"/>
</svg>
