<svg width="52" height="51" viewBox="0 0 52 51" fill="none" xmlns="http://www.w3.org/2000/svg">
<path d="M1 25.5C1 11.969 11.969 1 25.5 1H26.5C40.031 1 51 11.969 51 25.5C51 39.031 40.031 50 26.5 50H25.5C11.969 50 1 39.031 1 25.5Z" stroke="#F7A464" stroke-width="2"/>
<path d="M20.12 11H31.88C36.36 11 40 14.77 40 19.41V31.59C40 33.8205 39.1445 35.9596 37.6217 37.5368C36.0989 39.114 34.0336 40 31.88 40H20.12C15.64 40 12 36.23 12 31.59V19.41C12 17.1795 12.8555 15.0404 14.3783 13.4632C15.9011 11.8861 17.9664 11 20.12 11ZM19.84 13.9C18.5033 13.9 17.2214 14.45 16.2762 15.4289C15.331 16.4078 14.8 17.7356 14.8 19.12V31.88C14.8 34.7655 17.054 37.1 19.84 37.1H32.16C33.4967 37.1 34.7786 36.55 35.7238 35.5711C36.669 34.5922 37.2 33.2644 37.2 31.88V19.12C37.2 16.2345 34.946 13.9 32.16 13.9H19.84ZM33.35 16.075C33.8141 16.075 34.2592 16.266 34.5874 16.6059C34.9156 16.9458 35.1 17.4068 35.1 17.8875C35.1 18.3682 34.9156 18.8292 34.5874 19.1691C34.2592 19.509 33.8141 19.7 33.35 19.7C32.8859 19.7 32.4408 19.509 32.1126 19.1691C31.7844 18.8292 31.6 18.3682 31.6 17.8875C31.6 17.4068 31.7844 16.9458 32.1126 16.6059C32.4408 16.266 32.8859 16.075 33.35 16.075ZM26 18.25C27.8565 18.25 29.637 19.0138 30.9497 20.3735C32.2625 21.7331 33 23.5772 33 25.5C33 27.4228 32.2625 29.2669 30.9497 30.6265C29.637 31.9862 27.8565 32.75 26 32.75C24.1435 32.75 22.363 31.9862 21.0503 30.6265C19.7375 29.2669 19 27.4228 19 25.5C19 23.5772 19.7375 21.7331 21.0503 20.3735C22.363 19.0138 24.1435 18.25 26 18.25ZM26 21.15C24.8861 21.15 23.8178 21.6083 23.0302 22.4241C22.2425 23.2399 21.8 24.3463 21.8 25.5C21.8 26.6537 22.2425 27.7601 23.0302 28.5759C23.8178 29.3917 24.8861 29.85 26 29.85C27.1139 29.85 28.1822 29.3917 28.9698 28.5759C29.7575 27.7601 30.2 26.6537 30.2 25.5C30.2 24.3463 29.7575 23.2399 28.9698 22.4241C28.1822 21.6083 27.1139 21.15 26 21.15Z" fill="#F7A464"/>
</svg>
