<svg width="34" height="35" viewBox="0 0 34 35" fill="none" xmlns="http://www.w3.org/2000/svg">
<path d="M9.86 0H24.14C29.58 0 34 4.55 34 10.15V24.85C34 27.5419 32.9612 30.1236 31.1121 32.0271C29.263 33.9306 26.755 35 24.14 35H9.86C4.42 35 0 30.45 0 24.85V10.15C0 7.45805 1.03882 4.87636 2.88793 2.97287C4.73704 1.06937 7.24497 0 9.86 0ZM9.52 3.5C7.89687 3.5 6.34023 4.16375 5.19251 5.34523C4.04478 6.52671 3.4 8.12914 3.4 9.8V25.2C3.4 28.6825 6.137 31.5 9.52 31.5H24.48C26.1031 31.5 27.6598 30.8363 28.8075 29.6548C29.9552 28.4733 30.6 26.8709 30.6 25.2V9.8C30.6 6.3175 27.863 3.5 24.48 3.5H9.52ZM25.925 6.125C26.4886 6.125 27.0291 6.35547 27.4276 6.7657C27.8261 7.17594 28.05 7.73234 28.05 8.3125C28.05 8.89266 27.8261 9.44906 27.4276 9.8593C27.0291 10.2695 26.4886 10.5 25.925 10.5C25.3614 10.5 24.8209 10.2695 24.4224 9.8593C24.0239 9.44906 23.8 8.89266 23.8 8.3125C23.8 7.73234 24.0239 7.17594 24.4224 6.7657C24.8209 6.35547 25.3614 6.125 25.925 6.125ZM17 8.75C19.2543 8.75 21.4163 9.67187 23.0104 11.3128C24.6045 12.9538 25.5 15.1794 25.5 17.5C25.5 19.8206 24.6045 22.0462 23.0104 23.6872C21.4163 25.3281 19.2543 26.25 17 26.25C14.7457 26.25 12.5837 25.3281 10.9896 23.6872C9.39553 22.0462 8.5 19.8206 8.5 17.5C8.5 15.1794 9.39553 12.9538 10.9896 11.3128C12.5837 9.67187 14.7457 8.75 17 8.75ZM17 12.25C15.6474 12.25 14.3502 12.8031 13.3938 13.7877C12.4373 14.7723 11.9 16.1076 11.9 17.5C11.9 18.8924 12.4373 20.2277 13.3938 21.2123C14.3502 22.1969 15.6474 22.75 17 22.75C18.3526 22.75 19.6498 22.1969 20.6062 21.2123C21.5627 20.2277 22.1 18.8924 22.1 17.5C22.1 16.1076 21.5627 14.7723 20.6062 13.7877C19.6498 12.8031 18.3526 12.25 17 12.25Z" fill="#F7A464"/>
</svg>
