<svg width="35" height="35" viewBox="0 0 35 35" fill="none" xmlns="http://www.w3.org/2000/svg">
<circle cx="17.5" cy="17.5" r="17.5" fill="#FEE3CE"/>
<path d="M12.7775 10.0009C12.7773 10.5313 12.5781 11.0399 12.2237 11.4147C11.8693 11.7896 11.3888 12 10.8878 11.9998C10.3869 11.9995 9.90658 11.7886 9.55254 11.4133C9.1985 11.0381 8.99975 10.5293 9 9.99889C9.00025 9.46849 9.19949 8.95991 9.55388 8.58505C9.90827 8.21018 10.3888 7.99974 10.8897 8C11.3907 8.00027 11.871 8.21122 12.225 8.58646C12.579 8.9617 12.7778 9.47049 12.7775 10.0009ZM12.8342 13.4807H9.05666V26H12.8342V13.4807ZM18.8027 13.4807H15.0441V26H18.765V19.4304C18.765 15.7706 23.2697 15.4306 23.2697 19.4304V26H27V18.0704C27 11.9008 20.3326 12.1308 18.765 15.1606L18.8027 13.4807Z" fill="#F7A464"/>
</svg>
