<svg width="52" height="51" viewBox="0 0 52 51" fill="none" xmlns="http://www.w3.org/2000/svg">
<path d="M1 25.5C1 11.969 11.969 1 25.5 1H26.5C40.031 1 51 11.969 51 25.5C51 39.031 40.031 50 26.5 50H25.5C11.969 50 1 39.031 1 25.5Z" stroke="#F7A464" stroke-width="2"/>
<path d="M18.4565 15.3902C18.4561 16.1563 18.1683 16.8909 17.6564 17.4324C17.1445 17.9739 16.4504 18.2778 15.7269 18.2775C15.0033 18.2771 14.3095 17.9724 13.7981 17.4303C13.2867 16.8883 12.9996 16.1534 13 15.3873C13.0004 14.6211 13.2881 13.8865 13.8 13.3451C14.3119 12.8036 15.006 12.4996 15.7296 12.5C16.4532 12.5004 17.147 12.8051 17.6583 13.3471C18.1697 13.8891 18.4568 14.624 18.4565 15.3902ZM18.5383 20.4166H13.0818V38.5H18.5383V20.4166ZM27.1595 20.4166H21.7303V38.5H27.1049V29.0105C27.1049 23.7242 33.6118 23.2331 33.6118 29.0105V38.5H39V27.0462C39 18.1345 29.3694 18.4667 27.1049 22.8431L27.1595 20.4166Z" fill="#F7A464"/>
</svg>
