<svg width="194" height="351" viewBox="0 0 194 351" fill="none" xmlns="http://www.w3.org/2000/svg">
<path d="M17.8789 1L4.37256 47.2713L35.173 67.1966L42.1191 28.9896L17.8789 1Z" fill="#FEE6D4"/>
<path d="M5.03192 47.5986L31.3134 93.8219L35.1723 66.1975L5.03192 47.5986Z" fill="#E8B389"/>
<path d="M42.1194 28.9902L28.41 96.8593L51.2286 77.8375L42.1194 28.9902Z" fill="#EFCAAD"/>
<path d="M70.6749 69.2347L80.5558 6.854L57.6763 43.4462L70.6749 69.2347Z" fill="#EFCAAD"/>
<path d="M80.8401 5.98926L85.5622 50.9149L68.8774 80.404L80.8401 5.98926Z" fill="#FEE6D4"/>
<path d="M52.7921 76.5303L30.2274 95.1003L20.9254 123.551L111.682 119.851L52.7921 76.5303Z" fill="#EFCAAD"/>
<path d="M52.7917 76.5303L111.681 119.851L86.73 84.8733L52.7917 76.5303Z" fill="#FEE6D4"/>
<path d="M20.5089 123.551L80.292 151.896V144.072L111.681 119.85L20.5089 123.551Z" fill="#ECB58A"/>
<path d="M65.3436 144.813L12.4862 182.558L29.7905 127.954L65.3436 144.813Z" fill="#E09C65"/>
<path d="M80.2919 151.896L69.0096 171.831L12.4862 182.558L65.3436 144.812L80.2919 151.896Z" fill="#F4B887"/>
<path d="M80.2928 151.896L87.0662 176.098L129.179 192.477L109.621 209.557L69.0104 171.83L80.2928 151.896Z" fill="#E09C65"/>
<path d="M69.0096 171.831L44.2006 238.354L12.4862 182.558L69.0096 171.831Z" fill="#E0A06D"/>
<path d="M44.2008 238.354L69.0097 171.831L66.0038 227.349L44.2008 238.354Z" fill="#EFAD78"/>
<path d="M12.4862 182.557L38.8692 258.596L52.6294 254.607L66.0036 227.348L44.2006 238.354L12.4862 182.557Z" fill="#D7A176"/>
<path d="M38.8689 258.597L10.7799 275.043H42.5349L53.0556 254.57L38.8689 258.597Z" fill="#C08C63"/>
<path d="M42.0983 275.523L130.123 275.043L66.6533 226.407L42.0983 275.523Z" fill="#E09C65"/>
<path d="M66.5623 227.128L130.123 275.042L109.62 209.557L66.5623 227.128Z" fill="#E0B492"/>
<path d="M69.01 171.831L109.62 209.557L66.0041 227.349L69.01 171.831Z" fill="#EFCAAD"/>
<path d="M109.619 209.557L129.178 192.477L153.5 222.014L109.619 209.557Z" fill="#E19455"/>
<path d="M153.5 222.014L130.123 275.042L109.619 209.557L153.5 222.014Z" fill="#E3A574"/>
<path d="M153.501 222.015L182.138 192.747L153.034 275.043L153.501 222.015Z" fill="#E3A26E"/>
<path d="M130.123 275.043H153.033L153.5 222.015L130.123 275.043Z" fill="#C08C63"/>
<path d="M57.6763 43.4458L70.6748 69.2343L68.8774 80.4033L52.7917 76.5297L57.6763 43.4458Z" fill="#E8B389"/>
<path d="M80.292 151.896L69.6697 146.859L111.681 119.85L80.292 144.072V151.896Z" fill="#BD875C"/>
<path d="M52.792 76.5303L20.5089 124.166L28.4095 96.8593L52.792 76.5303Z" fill="#E3A26E"/>
<path d="M110.238 326.718L118.699 338.572V326.718H119.419V339.445H118.312L110.049 327.87V339.445H109.329V326.718H110.238Z" fill="#FEF4EC"/>
<path d="M107.619 337.861C106.412 339.019 104.969 339.598 103.289 339.598C101.483 339.598 99.9437 338.965 98.6716 337.699C97.4054 336.427 96.7724 334.887 96.7724 333.081C96.7724 331.287 97.4054 329.754 98.6716 328.482C99.9437 327.204 101.483 326.564 103.289 326.564C104.969 326.564 106.43 327.132 107.673 328.266L107.124 328.752C106.031 327.786 104.753 327.303 103.289 327.303C101.693 327.303 100.328 327.867 99.1936 328.995C98.0655 330.123 97.5014 331.485 97.5014 333.081C97.5014 334.683 98.0655 336.048 99.1936 337.177C100.328 338.305 101.693 338.869 103.289 338.869C104.657 338.869 105.863 338.449 106.907 337.609V333.729H107.619V337.861Z" fill="#FEF4EC"/>
<path d="M95.0082 326.718V339.445H94.2881V326.718H95.0082Z" fill="#FEF4EC"/>
<path d="M89.1666 332.397C88.2605 332.097 87.5434 331.686 87.0153 331.164C86.4933 330.636 86.2322 329.997 86.2322 329.247C86.2322 328.515 86.4933 327.885 87.0153 327.357C87.5434 326.828 88.1824 326.564 88.9325 326.564C89.6706 326.564 90.3067 326.828 90.8407 327.357C91.1288 327.639 91.3298 327.954 91.4438 328.302L90.7957 328.554C90.6997 328.296 90.5437 328.059 90.3277 327.843C89.9436 327.459 89.4786 327.267 88.9325 327.267C88.3865 327.267 87.9184 327.459 87.5284 327.843C87.1443 328.227 86.9523 328.695 86.9523 329.247C86.9523 329.793 87.1443 330.261 87.5284 330.651C87.8884 331.005 88.3865 331.329 89.0225 331.623C90.0426 331.953 90.9007 332.466 91.5968 333.162C92.3289 333.894 92.6949 334.779 92.6949 335.817C92.6949 336.862 92.3259 337.753 91.5878 338.491C90.8557 339.229 89.9706 339.598 88.9325 339.598C87.8884 339.598 87.0003 339.226 86.2682 338.482C85.6742 337.894 85.3201 337.21 85.2061 336.43L85.8812 336.187C85.9532 336.877 86.2472 337.477 86.7633 337.987C87.3634 338.587 88.0864 338.887 88.9325 338.887C89.7786 338.887 90.5017 338.587 91.1018 337.987C91.7018 337.387 92.0019 336.664 92.0019 335.817C92.0019 334.977 91.7018 334.257 91.1018 333.657C90.5737 333.129 89.9286 332.709 89.1666 332.397Z" fill="#FEF4EC"/>
<path d="M83.6939 326.718V327.438H78.0503V332.721H83.6939V333.442H78.0503V338.725H83.6939V339.445H77.3302V326.718H83.6939Z" fill="#FEF4EC"/>
<path d="M68.9773 326.718C71.0716 326.73 72.6948 327.315 73.8469 328.473C75.119 329.751 75.7551 331.287 75.7551 333.081C75.7551 334.888 75.119 336.427 73.8469 337.699C72.6948 338.851 71.0716 339.433 68.9773 339.445H66.6191V326.718H68.9773ZM67.3392 327.465V338.707H68.9683C70.7985 338.707 72.2417 338.197 73.2978 337.177C74.4259 336.049 74.99 334.684 74.99 333.081C74.99 331.485 74.4259 330.12 73.2978 328.986C72.2417 327.972 70.7985 327.465 68.9683 327.465H67.3392Z" fill="#FEF4EC"/>
<path d="M57.3984 312.188L59.4398 314.003C56.8151 316.39 53.9258 317.583 50.7719 317.583C47.3803 317.583 44.5126 316.417 42.1687 314.084C39.8357 311.74 38.6691 308.932 38.6691 305.659C38.6691 302.419 39.8357 299.621 42.1687 297.266C44.5126 294.912 47.3803 293.734 50.7719 293.734C53.9258 293.734 56.8151 294.933 59.4398 297.331L57.3984 299.146C55.2598 297.256 53.0509 296.31 50.7719 296.31C48.2876 296.31 46.1382 297.218 44.3236 299.032C42.5198 300.836 41.6179 303.045 41.6179 305.659C41.6179 308.294 42.5198 310.514 44.3236 312.318C46.1382 314.122 48.2876 315.024 50.7719 315.024C53.0509 315.024 55.2598 314.078 57.3984 312.188Z" fill="#FEF4EC"/>
<path d="M183.173 294.01V296.554H173.419V304.396H183.173V306.939H173.419V314.781H183.173V317.325H170.487V294.01H183.173Z" fill="#FEF4EC"/>
<path d="M156.537 296.57V307.134H159.421C160.782 307.134 161.97 306.631 162.985 305.627C164.001 304.612 164.508 303.348 164.508 301.836C164.508 300.334 164.001 299.081 162.985 298.077C161.97 297.072 160.782 296.57 159.421 296.57H156.537ZM159.275 309.694H156.537V317.325H153.605V294.01H160.28C162.224 294.269 163.85 295.058 165.156 296.376C166.679 297.899 167.441 299.719 167.441 301.836C167.441 303.964 166.658 305.811 165.092 307.377C164.055 308.424 163.137 309.046 162.337 309.24L167.571 317.325H164.184L159.275 309.694Z" fill="#FEF4EC"/>
<path d="M145.18 307.636L142.02 298.919L138.845 307.636H145.18ZM143.3 294.01L151.741 317.325H148.696L145.18 307.636H138.845L135.264 317.325H132.202L140.757 294.01H143.3Z" fill="#FEF4EC"/>
<path d="M118.171 306.939V317.325H115.239V294.01H118.171V304.396H127.747V294.01H130.679V317.325H127.747V306.939H118.171Z" fill="#FEF4EC"/>
<path d="M102.407 312.188L104.448 314.003C101.824 316.39 98.9344 317.583 95.7805 317.583C92.3889 317.583 89.5212 316.417 87.1773 314.084C84.8443 311.74 83.6777 308.932 83.6777 305.659C83.6777 302.419 84.8443 299.621 87.1773 297.266C89.5212 294.912 92.3889 293.734 95.7805 293.734C98.9344 293.734 101.824 294.933 104.448 297.331L102.407 299.146C100.268 297.256 98.0595 296.31 95.7805 296.31C93.2962 296.31 91.1468 297.218 89.3322 299.032C87.5284 300.836 86.6265 303.045 86.6265 305.659C86.6265 308.294 87.5284 310.514 89.3322 312.318C91.1468 314.122 93.2962 315.024 95.7805 315.024C98.0595 315.024 100.268 314.078 102.407 312.188Z" fill="#FEF4EC"/>
<path d="M80.486 294.01V317.325H77.5534V294.01H80.486Z" fill="#FEF4EC"/>
<path d="M69.4849 296.554V317.325H66.5686V296.554H60.9952V294.01H75.0422V296.554H69.4849Z" fill="#FEF4EC"/>
<path d="M25.3351 296.57V307.134H28.219C29.58 307.134 30.7681 306.631 31.7834 305.627C32.7987 304.612 33.3064 303.348 33.3064 301.836C33.3064 300.334 32.7987 299.081 31.7834 298.077C30.7681 297.072 29.58 296.57 28.219 296.57H25.3351ZM28.0732 309.694H25.3351V317.325H22.4026V294.01H29.0777C31.0219 294.269 32.6475 295.058 33.9545 296.376C35.4774 297.899 36.2389 299.719 36.2389 301.836C36.2389 303.964 35.4558 305.811 33.8897 307.377C32.8527 308.424 31.9346 309.046 31.1354 309.24L36.3685 317.325H32.9824L28.0732 309.694Z" fill="#FEF4EC"/>
<path d="M13.9776 307.636L10.8183 298.919L7.64273 307.636H13.9776ZM12.0982 294.01L20.5394 317.325H17.4934L13.9776 307.636H7.64273L4.06214 317.325H1L9.55454 294.01H12.0982Z" fill="#FEF4EC"/>
</svg>
