<svg width="378" height="388" viewBox="0 0 378 388" fill="none" xmlns="http://www.w3.org/2000/svg">
<g clip-path="url(#clip0_324_840)">
<path d="M-44.0906 308.297C0.909534 425.116 105.636 428.275 164.203 425.612C222.769 422.949 368.508 421.618 394.455 376.947C420.402 332.277 424.403 274.957 384.472 228.302C344.542 181.647 363.842 196.307 351.201 139.653C338.56 82.9987 333.895 50.3246 292.635 25.6657C251.375 1.00685 144.902 -21.6679 77.0174 63C9.13282 147.668 -105.98 147.655 -44.0906 308.297Z" fill="#F4F7FA"/>
<path d="M337.09 111.365C331.057 107.028 321.181 100.752 307.897 96.0427C284.27 87.6671 273.442 92.6083 263.441 82.6193C253.088 72.2795 259.794 62.0962 247.398 50.5503C246.356 49.5794 233.047 37.503 221.006 41.9994C212.583 45.1452 209.302 54.7137 207.764 59.2034C201.792 76.6271 205.264 103.177 223.853 116.273C241.477 128.689 263.79 122.771 270.874 120.842C283.302 117.458 286.247 112.614 298.881 109.552C314.245 105.827 328.056 108.586 337.09 111.364V111.365Z" fill="url(#paint0_linear_324_840)"/>
<mask id="mask0_324_840" style="mask-type:luminance" maskUnits="userSpaceOnUse" x="205" y="41" width="133" height="83">
<path d="M337.09 111.365C331.057 107.028 321.181 100.752 307.897 96.0427C284.27 87.6671 273.442 92.6083 263.441 82.6193C253.088 72.2795 259.794 62.0962 247.398 50.5503C246.356 49.5794 233.047 37.503 221.006 41.9994C212.583 45.1452 209.302 54.7137 207.764 59.2034C201.792 76.6271 205.264 103.177 223.853 116.273C241.477 128.689 263.79 122.771 270.874 120.842C283.302 117.458 286.247 112.614 298.881 109.552C314.245 105.827 328.056 108.586 337.09 111.364V111.365Z" fill="white"/>
</mask>
<g mask="url(#mask0_324_840)">
<g style="mix-blend-mode:soft-light">
<path d="M342.047 115.283L342.279 114.967C327.582 104.212 313.228 99.1454 299.624 99.9066C293.675 100.239 289.501 101.563 285.464 102.844C280.417 104.445 275.65 105.956 267.742 105.627C253.508 105.032 241.364 100.203 233.545 92.0281C221.436 79.3669 218.756 58.1271 226.719 37.917L226.354 37.7728C218.335 58.1249 221.046 79.5279 233.262 92.2988C241.151 100.548 253.39 105.42 267.725 106.019C275.708 106.351 280.503 104.829 285.584 103.218C289.597 101.945 293.748 100.629 299.647 100.298C313.162 99.5426 327.426 104.584 342.049 115.283H342.047Z" fill="white"/>
<path d="M227.704 84.083L227.682 83.7823C226.769 71.6571 234.07 62.4592 240.356 56.8776C247.181 50.819 254.309 47.5965 254.38 47.5654L254.22 47.207C254.148 47.2392 246.965 50.4861 240.097 56.5847C233.797 62.1773 226.489 71.3708 227.27 83.506C224.615 82.4773 204.235 74.0451 202.899 57.3714L202.508 57.4025C203.95 75.4044 227.187 83.8988 227.421 83.982L227.705 84.083H227.704Z" fill="white"/>
<path d="M232.19 111.672C235.686 111.672 238.775 111.318 241.405 110.813C251.15 108.945 256.85 104.664 256.906 104.62L257.058 104.504L256.946 104.348C249.847 94.5602 251.028 83.8332 253.268 76.5584C255.7 68.661 259.865 63.0173 259.907 62.9607L259.593 62.7266C259.551 62.7832 255.345 68.4823 252.894 76.443C250.639 83.7644 249.449 94.5447 256.516 104.42C255.548 105.105 250.089 108.753 241.311 110.43C232.394 112.136 218.131 112.099 200.812 102.243L200.618 102.584C212.948 109.6 223.748 111.67 232.192 111.67L232.19 111.672Z" fill="white"/>
</g>
</g>
<path d="M189.564 209.331C188.022 197.613 187.287 179.144 195.84 161.697C210.761 131.259 237.155 138.19 262.937 104.591C283.73 77.4916 277.529 58.6883 300.426 39.7614C304.259 36.5937 324.519 19.2434 339.32 26.9661C347.661 31.3176 350.57 41.6866 351.116 43.6334C359.37 73.0528 332.172 123.165 297.237 148.359C277.166 162.832 270.793 159.409 235.566 177.483C214.867 188.104 199.266 200.664 189.564 209.331L189.564 209.331Z" fill="url(#paint1_linear_324_840)"/>
<mask id="mask1_324_840" style="mask-type:luminance" maskUnits="userSpaceOnUse" x="188" y="25" width="165" height="185">
<path d="M189.564 209.331C188.022 197.613 187.287 179.144 195.84 161.697C210.761 131.259 237.155 138.19 262.937 104.591C283.73 77.4916 277.529 58.6883 300.426 39.7614C304.259 36.5937 324.519 19.2434 339.32 26.9661C347.661 31.3176 350.57 41.6866 351.116 43.6334C359.37 73.0528 332.172 123.165 297.237 148.359C277.166 162.832 270.793 159.409 235.566 177.483C214.867 188.104 199.266 200.664 189.564 209.331L189.564 209.331Z" fill="white"/>
</mask>
<g mask="url(#mask1_324_840)">
<g style="mix-blend-mode:soft-light">
<path d="M186.046 223.877L186.361 223.937C191.804 195.11 201.667 175.126 215.677 164.539C222.514 159.373 227.934 158.116 233.673 156.784C239.921 155.335 246.383 153.836 254.987 146.991C263.352 140.337 266.39 134.446 270.236 126.99C273.666 120.34 277.935 112.063 287.421 100.658C295.737 90.6609 301.764 85.7653 307.081 81.4454C312.884 76.7311 317.467 73.0086 322.838 64.4648C331.594 50.5391 336.296 33.3494 336.817 13.3737L336.496 13.3655C335.978 33.2823 331.291 50.4172 322.567 64.2945C317.224 72.793 312.658 76.5007 306.878 81.196C301.55 85.5249 295.51 90.4309 287.174 100.452C277.665 111.884 273.388 120.177 269.95 126.841C266.122 134.264 263.097 140.127 254.786 146.74C246.239 153.54 239.813 155.03 233.6 156.471C227.827 157.81 222.374 159.074 215.483 164.282C201.407 174.918 191.503 194.968 186.045 223.875L186.046 223.877Z" fill="white"/>
<path d="M304.444 83.3904L304.672 83.3754C323.518 82.1383 337.634 72.4568 346.157 64.5534C355.389 55.9931 360.231 47.6118 360.279 47.5284L360.001 47.3696C359.954 47.4534 355.131 55.798 345.932 64.3259C337.483 72.1594 323.513 81.7476 304.877 83.0406C305.309 81.4866 307.894 71.9107 309.152 60.8671C310.418 49.7604 310.561 34.8525 304.055 26.9047L303.807 27.1077C316.137 42.1692 304.626 82.7629 304.507 83.1712L304.444 83.3904Z" fill="white"/>
<path d="M280.891 114.244C284.52 115.338 291.239 116.934 299.785 117.026C311.787 117.155 329.954 114.261 348.343 99.7398L348.144 99.4885C329.828 113.951 311.739 116.834 299.788 116.706C287.69 116.576 279.282 113.423 278.163 112.98C283.291 91.8539 279.355 63.0716 279.314 62.7826L278.997 62.8272C279.037 63.1162 282.982 91.9606 277.819 113.039L277.787 113.172L277.913 113.226C277.943 113.239 278.995 113.673 280.891 114.245L280.891 114.244Z" fill="white"/>
<path d="M255.995 163.123C264.661 165.736 277.734 167.998 294.316 165.908L294.276 165.59C276.038 167.888 262.06 164.906 253.547 162C245.123 159.124 240.251 155.759 239.438 155.173C246.578 144.448 248.594 130.951 249.025 121.5C249.494 111.225 248.245 103.383 248.232 103.306L247.915 103.357C247.966 103.668 252.808 134.671 239.087 155.123L239.003 155.249L239.123 155.34C239.172 155.378 244.178 159.14 253.445 162.304C254.247 162.577 255.098 162.852 255.996 163.123L255.995 163.123Z" fill="white"/>
</g>
</g>
<path d="M206.399 207.758C200.215 192.903 193.696 170.7 199.795 148.214C206.797 122.394 224.036 119.8 238.752 93.3758C259.759 55.6543 233.558 21.6048 256.259 12.7194C267.329 8.38647 285.043 11.2579 296.16 19.2181C327.878 41.9289 321.766 117.425 273.277 139.399C251.347 149.337 231.786 144.56 215.563 159.393C201.228 172.501 203.037 193.158 206.401 207.759L206.399 207.758Z" fill="url(#paint2_linear_324_840)"/>
<mask id="mask2_324_840" style="mask-type:luminance" maskUnits="userSpaceOnUse" x="197" y="10" width="119" height="198">
<path d="M206.399 207.758C200.215 192.903 193.696 170.7 199.795 148.214C206.797 122.394 224.036 119.8 238.752 93.3758C259.759 55.6543 233.558 21.6048 256.259 12.7194C267.329 8.38647 285.043 11.2579 296.16 19.2181C327.878 41.9289 321.766 117.425 273.277 139.399C251.347 149.337 231.786 144.56 215.563 159.393C201.228 172.501 203.037 193.158 206.401 207.759L206.399 207.758Z" fill="white"/>
</mask>
<g mask="url(#mask2_324_840)">
<g style="mix-blend-mode:soft-light">
<path d="M201.283 171.972L201.73 172.144C203.419 166.59 205.758 161.24 208.681 156.244C215.399 144.764 223.034 139.092 232.697 131.909C238.997 127.226 246.139 121.919 254.335 113.978C269.668 99.1224 274.403 93.7985 278.504 84.6488C286.623 66.539 284.727 48.8122 282.875 39.8579C280.247 27.1527 274.668 14.561 266.295 2.4339L265.899 2.48553C274.245 14.5723 279.805 27.1231 282.425 39.7883C284.271 48.7173 286.162 66.3942 278.066 84.4559C273.976 93.5779 269.248 98.8922 253.938 113.728C245.752 121.659 238.617 126.962 232.321 131.64C222.639 138.836 214.991 144.52 208.252 156.033C205.321 161.041 202.977 166.403 201.283 171.972L201.283 171.972Z" fill="white"/>
<path d="M282.429 71.4819L282.78 71.3859C282.87 71.361 291.954 68.8299 299.882 61.9619C307.199 55.6235 315.005 44.1882 310.643 25.7048L310.195 25.6421C314.531 44.0205 306.774 55.3918 299.502 61.695C292.497 67.7678 284.587 70.4325 282.849 70.9674C281.915 56.582 270.088 45.4348 260.291 38.5994C249.609 31.1464 238.968 27.0737 238.861 27.0329L238.778 27.3144C238.884 27.3547 249.448 31.3997 260.054 38.8025C269.826 45.6232 281.639 56.7769 282.412 71.176L282.428 71.4805L282.429 71.4819Z" fill="white"/>
<path d="M261.285 111.199C264.355 112.53 269.581 114.555 275.891 116.035C285.268 118.235 299.033 119.651 311.364 113.907L311.033 113.612C298.809 119.306 285.168 117.904 275.878 115.724C266.682 113.567 259.828 110.251 258.657 109.665C262.823 96.292 258.436 85.2174 254.012 78.2732C249.199 70.7171 243.294 66.2744 243.235 66.2305L242.969 66.4124C243.028 66.4563 248.858 70.8464 253.621 78.3315C258.018 85.2403 262.375 96.275 258.174 109.61L258.137 109.727L258.313 109.819C258.341 109.834 259.412 110.387 261.284 111.198L261.285 111.199Z" fill="white"/>
<path d="M245.002 135.971C245.873 136.349 246.798 136.725 247.776 137.093C255.646 140.056 268.709 143.109 286.251 140.84L286.028 140.515C268.604 142.769 255.654 139.745 247.859 136.811C240.177 133.92 235.874 130.558 235.143 129.96C242.5 116.805 230.8 91.6077 230.68 91.3537L230.253 91.3496C230.372 91.6023 242.07 116.797 234.663 129.838L234.616 129.922L234.726 130.017C234.765 130.052 238.265 133.05 245.002 135.97L245.002 135.971Z" fill="white"/>
</g>
</g>
<path d="M111 78H308.53C314.053 78 318.53 82.4772 318.53 88V202.3C318.53 207.823 314.053 212.3 308.53 212.3H111C105.477 212.3 101 207.823 101 202.3V88C101 82.4772 105.477 78 111 78Z" fill="url(#paint3_linear_324_840)"/>
<rect x="163" y="134" width="58" height="5" fill="#D9D9D9"/>
<rect x="163" y="144" width="58" height="5" fill="#D9D9D9"/>
<rect x="163" y="154" width="58" height="6" fill="#D9D9D9"/>
<rect x="163" y="165" width="58" height="5" fill="#D9D9D9"/>
<path d="M55.2887 222.34C50.8389 226.789 25.1554 249.01 21.7019 289.271C18.2485 329.533 28.1252 342.621 38.4953 348.058C48.8654 353.494 61.9635 357.199 67.6419 344.353C73.3203 331.506 85.1802 266.055 83.4486 252.231C81.717 238.407 55.2887 222.349 55.2887 222.349V222.34Z" fill="url(#paint4_linear_324_840)"/>
<path d="M171.676 294.82C171.676 299.587 179 388.24 179 388.24C179 388.24 56.7577 389.95 57.0002 388.24C57.2427 386.531 70.8715 273 70.8715 273L171.666 294.82H171.676Z" fill="url(#paint5_linear_324_840)"/>
<path d="M244.62 118.941L241.186 126.433L236.408 120.574L244.62 118.941Z" fill="url(#paint6_linear_324_840)"/>
<path d="M244.62 156.85C244.62 156.85 244.572 138.174 243.338 133.424C242.104 128.673 238.961 121.517 237.245 120.477C235.529 119.438 234.883 117.154 233.013 118.326C231.143 119.499 231.297 120.926 229.668 122.883C228.039 124.84 222.688 131.079 222.389 133.363C222.09 135.646 225.58 160.428 225.831 160.561C226.082 160.693 244.611 156.85 244.611 156.85H244.62Z" fill="white"/>
<path d="M140.252 193.445C142.177 193.899 149.142 187.021 177.795 224.816C206.449 262.611 230.4 251.486 233.37 226.789C236.34 202.093 223.987 158.62 223.987 158.62C223.987 158.62 247.697 154.421 248.442 155.408C249.187 156.395 288.442 207.026 281.535 263.83C274.628 320.633 255.852 330.752 221.027 333.973C175.58 338.171 147.178 324.338 137.05 311.008C124.474 294.447 73.0784 177.638 140.262 193.445H140.252Z" fill="url(#paint7_linear_324_840)"/>
<path d="M138.811 136.331L138.878 140.423C138.965 139.833 139.014 139.224 139.014 138.614C139.014 137.831 138.946 137.076 138.811 136.331Z" fill="white"/>
<path d="M114.317 138.614C114.317 145.434 119.85 150.958 126.67 150.958C127.492 150.958 128.286 150.881 129.06 150.726C130.269 154.663 132.252 157.894 134.206 160.177C138.288 164.936 137.534 162.692 139.014 161.212C140.503 159.732 139.759 156.762 139.014 148.617L138.878 140.423L138.811 136.331C138.811 136.331 138.811 136.322 138.801 136.312C138.598 135.2 138.24 134.126 137.746 133.139C135.725 129.067 131.526 126.261 126.67 126.261C119.85 126.261 114.317 131.795 114.317 138.614Z" fill="white"/>
<path d="M130.802 126.755C130.802 126.755 124.553 119.712 106.772 130.576C88.9923 141.439 80.6827 157.246 90.811 177.493C90.811 192.971 73.5919 187.766 64.2085 193.938C54.8251 200.11 35.6027 217.087 39.0562 266.974C42.5096 316.86 67.3998 347.448 99.9999 350.167C132.6 352.885 180.765 326.882 169.65 283.902C158.535 240.923 128.528 248.091 140.63 225.861C152.732 203.631 157.23 187.756 146.85 174.165C136.47 160.574 122.395 156.878 130.792 126.745L130.802 126.755Z" fill="url(#paint8_linear_324_840)"/>
<path d="M228.427 128.854V129.163V137.56L214.477 150.9L210.279 146.392L228.427 128.854Z" fill="url(#paint9_linear_324_840)"/>
<circle cx="7" cy="7" r="7" transform="matrix(-1 0 0 1 257 104)" fill="url(#paint10_linear_324_840)"/>
<circle cx="7" cy="7" r="7" transform="matrix(-1 0 0 1 74 48)" fill="url(#paint11_linear_324_840)"/>
<path d="M260 113.5C276 117 303.7 142.8 320.5 118C337.3 93.2 358.5 92.8333 364 93" stroke="#FD78AD" stroke-dasharray="5 5"/>
<path d="M237 110.5C224 112.5 217.5 91 191.5 87C159 82 140 87.5 114.5 89.5C94.1 91.1 78.6667 73.8333 73.5 65" stroke="#FD7DA5" stroke-dasharray="5 5"/>
</g>
<defs>
<linearGradient id="paint0_linear_324_840" x1="337.09" y1="82.475" x2="205.089" y2="82.475" gradientUnits="userSpaceOnUse">
<stop stop-color="#FF9085"/>
<stop offset="1" stop-color="#FB6FBB"/>
</linearGradient>
<linearGradient id="paint1_linear_324_840" x1="268.308" y1="50.3599" x2="272.767" y2="196.542" gradientUnits="userSpaceOnUse">
<stop stop-color="#AA80F9"/>
<stop offset="1" stop-color="#6165D7"/>
</linearGradient>
<linearGradient id="paint2_linear_324_840" x1="190.915" y1="1.66705" x2="195.684" y2="109.591" gradientUnits="userSpaceOnUse">
<stop stop-color="#FFC444"/>
<stop offset="1" stop-color="#F36F56"/>
</linearGradient>
<linearGradient id="paint3_linear_324_840" x1="318.53" y1="145.15" x2="101" y2="145.15" gradientUnits="userSpaceOnUse">
<stop stop-color="#383B72"/>
<stop offset="1" stop-color="#6A70D8"/>
</linearGradient>
<linearGradient id="paint4_linear_324_840" x1="52.3092" y1="222.34" x2="52.3092" y2="353.059" gradientUnits="userSpaceOnUse">
<stop stop-color="#FFF33B"/>
<stop offset="0.04" stop-color="#FEE62D"/>
<stop offset="0.12" stop-color="#FDD51B"/>
<stop offset="0.2" stop-color="#FDCA0F"/>
<stop offset="0.28" stop-color="#FDC70C"/>
<stop offset="0.67" stop-color="#F3903F"/>
<stop offset="0.89" stop-color="#ED683C"/>
<stop offset="1" stop-color="#E93E3A"/>
</linearGradient>
<linearGradient id="paint5_linear_324_840" x1="118.005" y1="273" x2="118.005" y2="389.001" gradientUnits="userSpaceOnUse">
<stop stop-color="#FFC545"/>
<stop offset="1" stop-color="#F36F56"/>
</linearGradient>
<linearGradient id="paint6_linear_324_840" x1="244.157" y1="122.831" x2="236.252" y2="121.89" gradientUnits="userSpaceOnUse">
<stop stop-color="#26264F"/>
<stop offset="1" stop-color="#444C8C"/>
</linearGradient>
<linearGradient id="paint7_linear_324_840" x1="247.677" y1="154.953" x2="150.912" y2="322.558" gradientUnits="userSpaceOnUse">
<stop stop-color="#FFF33B"/>
<stop offset="0.04" stop-color="#FEE62D"/>
<stop offset="0.12" stop-color="#FDD51B"/>
<stop offset="0.2" stop-color="#FDCA0F"/>
<stop offset="0.28" stop-color="#FDC70C"/>
<stop offset="0.67" stop-color="#F3903F"/>
<stop offset="0.89" stop-color="#ED683C"/>
<stop offset="1" stop-color="#E93E3A"/>
</linearGradient>
<linearGradient id="paint8_linear_324_840" x1="99.6224" y1="118" x2="99.6224" y2="316.125" gradientUnits="userSpaceOnUse">
<stop offset="0.33" stop-color="#26264F"/>
<stop offset="1" stop-color="#444C8C"/>
</linearGradient>
<linearGradient id="paint9_linear_324_840" x1="228.427" y1="139.872" x2="210.279" y2="139.872" gradientUnits="userSpaceOnUse">
<stop stop-color="#26264F"/>
<stop offset="1" stop-color="#444C8C"/>
</linearGradient>
<linearGradient id="paint10_linear_324_840" x1="7" y1="0" x2="7" y2="14" gradientUnits="userSpaceOnUse">
<stop stop-color="#D789E1"/>
<stop offset="1" stop-color="#A276F2"/>
</linearGradient>
<linearGradient id="paint11_linear_324_840" x1="7" y1="0" x2="7" y2="14" gradientUnits="userSpaceOnUse">
<stop stop-color="#FD7FA2"/>
<stop offset="1" stop-color="#FF8E89"/>
</linearGradient>
<clipPath id="clip0_324_840">
<rect width="378" height="388" fill="white"/>
</clipPath>
</defs>
</svg>
