<svg width="378" height="393" viewBox="0 0 378 393" fill="none" xmlns="http://www.w3.org/2000/svg">
<g clip-path="url(#clip0_324_838)">
<path d="M18.6391 113.953C26.2786 103.487 91.6726 16.9324 197.674 21.1491C202.971 21.3602 306.352 26.8257 344.482 94.6721C372.688 144.861 342.827 189.39 377.236 223.585C407.218 253.38 444.067 233.659 462.491 257.753C490.558 294.454 445.862 393.577 377.188 448.855C306.279 505.935 170.62 547.811 65.1815 471.655C-53.1965 386.156 -51.995 210.734 18.6391 113.953Z" fill="#F4F7FA"/>
<path d="M140.16 229.637C147.901 217.397 157.8 197.916 160.037 172.651C162.606 143.641 152.725 133.52 150.725 100.541C147.87 53.4621 172.987 30.648 161.429 11.8217C155.792 2.6413 144.167 -2.19177 135.234 0.966191C109.748 9.97644 93.4276 88.5418 117.32 131.765C128.126 151.314 141.391 155.035 147.397 177.019C152.703 196.444 146.102 216.424 140.159 229.637H140.16Z" fill="url(#paint0_linear_324_838)"/>
<mask id="mask0_324_838" style="mask-type:luminance" maskUnits="userSpaceOnUse" x="105" y="0" width="60" height="230">
<path d="M140.16 229.637C147.901 217.397 157.8 197.916 160.037 172.651C162.606 143.641 152.725 133.52 150.725 100.541C147.87 53.4621 172.987 30.648 161.429 11.8217C155.792 2.6413 144.167 -2.19177 135.234 0.966191C109.748 9.97644 93.4276 88.5418 117.32 131.765C128.126 151.314 141.391 155.035 147.397 177.019C152.703 196.444 146.102 216.424 140.159 229.637H140.16Z" fill="white"/>
</mask>
<g mask="url(#mask0_324_838)">
<g style="mix-blend-mode:soft-light">
<path d="M152.809 195.888L152.489 195.866C152.93 189.546 152.918 183.148 152.453 176.851C151.385 162.382 148.212 153.352 144.195 141.92C141.576 134.466 138.608 126.018 135.693 114.462C130.239 92.845 128.751 85.4289 128.668 74.4428C128.504 52.6977 134.378 35.7019 137.894 27.5067C142.883 15.8784 149.65 5.65025 158.008 -2.8927L158.238 -2.66825C149.907 5.84618 143.161 16.0412 138.188 27.6327C134.683 35.8049 128.825 52.7528 128.988 74.44C129.071 85.393 130.558 92.7963 136.003 114.384C138.914 125.925 141.88 134.366 144.497 141.813C148.522 153.268 151.701 162.315 152.772 176.827C153.239 183.139 153.251 189.551 152.809 195.887V195.888Z" fill="white"/>
<path d="M129.761 59.4946L129.571 59.2453C129.523 59.1809 124.625 52.6774 121.589 42.3176C118.787 32.7564 117.041 17.858 124.628 1.1759L124.92 1.30837C117.375 17.8957 119.109 32.7086 121.893 42.2146C124.575 51.373 128.717 57.4994 129.64 58.7946C134.037 44.7388 144.252 38.686 152.077 36.0836C160.608 33.2458 168.216 33.7885 168.292 33.794L168.268 34.1132C168.193 34.1077 160.639 33.5705 152.168 36.3908C144.363 38.9895 134.154 45.0552 129.853 59.1947L129.762 59.4937L129.761 59.4946Z" fill="white"/>
<path d="M132.169 108.639C129.933 108.639 126.19 108.398 121.927 107.136C115.593 105.262 106.776 100.686 100.741 89.5381L101.022 89.3854C107.005 100.437 115.742 104.972 122.018 106.829C128.23 108.668 133.315 108.321 134.189 108.242C135.189 92.9821 140.823 83.7603 145.381 78.7064C150.341 73.2074 155.143 71.3143 155.191 71.2959L155.306 71.5948C155.258 71.6132 150.516 73.4861 145.606 78.9355C141.073 83.9654 135.468 93.1606 134.5 108.398L134.491 108.532L134.359 108.547C134.338 108.55 133.534 108.639 132.17 108.639H132.169Z" fill="white"/>
<path d="M135.57 140.641C134.936 140.641 134.269 140.616 133.57 140.56C127.957 140.109 119.135 137.486 108.981 127.56L109.205 127.331C119.29 137.19 128.035 139.793 133.595 140.24C139.074 140.682 142.607 139.177 143.214 138.894C142.199 122.462 156.071 102.229 156.212 102.025L156.475 102.208C156.335 102.41 142.465 122.642 143.54 138.981L143.547 139.086L143.454 139.134C143.421 139.151 140.478 140.64 135.57 140.64V140.641Z" fill="white"/>
</g>
</g>
<path d="M148.419 228.345C153.278 217.571 159.315 200.101 156.163 180.927C150.666 147.478 123.394 146.493 108.412 106.881C96.328 74.9322 107.694 58.7202 91.2364 33.9882C88.4812 29.8487 74.094 7.38795 57.693 10.5082C48.4507 12.2661 42.6719 21.3536 41.5873 23.06C25.191 48.8434 36.7624 104.675 62.9355 138.881C77.9732 158.534 85.0629 157.096 113.571 184.571C130.322 200.716 141.632 217.245 148.418 228.345H148.419Z" fill="url(#paint1_linear_324_838)"/>
<mask id="mask1_324_838" style="mask-type:luminance" maskUnits="userSpaceOnUse" x="34" y="10" width="124" height="219">
<path d="M148.419 228.345C153.278 217.571 159.315 200.101 156.163 180.927C150.666 147.478 123.394 146.493 108.412 106.881C96.328 74.9322 107.694 58.7202 91.2364 33.9882C88.4812 29.8487 74.094 7.38795 57.693 10.5082C48.4507 12.2661 42.6719 21.3536 41.5873 23.06C25.191 48.8434 36.7624 104.675 62.9355 138.881C77.9732 158.534 85.0629 157.096 113.571 184.571C130.322 200.716 141.632 217.245 148.418 228.345H148.419Z" fill="white"/>
</mask>
<g mask="url(#mask1_324_838)">
<g style="mix-blend-mode:soft-light">
<path d="M147.587 243.287L147.269 243.253C150.381 214.083 146.706 192.102 136.35 177.921C131.296 171.001 126.47 168.232 121.359 165.3C115.796 162.108 110.042 158.808 103.781 149.771C97.6931 140.984 96.4853 134.468 94.9564 126.218C93.5922 118.861 91.895 109.705 86.1051 96.0461C81.03 84.0739 76.6733 77.6466 72.83 71.9756C68.6352 65.7866 65.3217 60.8993 62.6467 51.1687C58.2845 35.3081 58.7453 17.4927 64.0145 -1.78247L64.3236 -1.69784C59.0691 17.5203 58.6092 35.2787 62.9557 51.0841C65.617 60.7631 68.9176 65.6311 73.0958 71.7953C76.9475 77.4783 81.3143 83.9193 86.4013 95.9201C92.205 109.611 93.9059 118.786 95.2729 126.158C96.7953 134.37 97.9976 140.857 104.046 149.588C110.265 158.566 115.987 161.848 121.52 165.022C126.661 167.971 131.516 170.755 136.611 177.731C147.016 191.978 150.709 214.034 147.589 243.285L147.587 243.287Z" fill="white"/>
<path d="M74.793 74.5991L74.5796 74.5191C56.8926 67.8931 46.173 54.5484 40.2948 44.5208C33.9281 33.6597 31.7121 24.2373 31.69 24.1435L32.0018 24.0718C32.023 24.1656 34.2317 33.5475 40.5763 44.3681C46.4039 54.3074 57.0103 67.5206 74.4793 74.1391C74.5143 72.5266 74.804 62.6121 76.7883 51.6756C78.7835 40.6766 82.9507 26.3623 91.4745 20.6314L91.653 20.8973C75.4995 31.7574 74.8004 73.946 74.7957 74.3709L74.793 74.5991Z" fill="white"/>
<path d="M88.4351 110.939C84.6442 110.939 77.7504 110.527 69.5421 108.147C58.0139 104.805 41.4566 96.7894 28.0435 77.5777L28.3065 77.3946C41.6663 96.5291 58.1528 104.512 69.6323 107.84C81.2525 111.209 90.2124 110.617 91.4119 110.517C92.6013 88.8094 104.681 62.3895 104.803 62.1246L105.094 62.2589C104.971 62.5238 92.8663 89.0008 91.7238 110.672L91.7164 110.809L91.5803 110.824C91.5481 110.828 90.4147 110.94 88.4351 110.94V110.939Z" fill="white"/>
<path d="M98.1586 164.924C89.1068 164.924 75.9375 163.315 60.6652 156.527L60.7949 156.234C77.5933 163.7 91.8371 164.881 100.826 164.556C109.722 164.235 115.358 162.42 116.306 162.094C112.566 149.764 114.533 136.26 116.848 127.087C119.366 117.113 122.827 109.967 122.862 109.896L123.15 110.037C123.012 110.32 109.424 138.605 116.656 162.147L116.7 162.291L116.559 162.344C116.501 162.366 110.621 164.523 100.836 164.876C99.9892 164.907 99.0951 164.924 98.1577 164.924H98.1586Z" fill="white"/>
</g>
</g>
<path d="M231 169.417C223.983 161.511 212.394 149.78 196.334 139.493C167.77 121.196 153.573 125.728 142.294 108.503C130.618 90.6731 140.309 77.3854 126.226 57.2639C125.042 55.5722 109.879 34.4379 94.2167 38.0098C83.2597 40.5092 77.9418 53.7573 75.4461 59.9739C65.7613 84.0996 66.7658 124.04 88.4185 148.008C108.947 170.73 137.666 167.667 146.79 166.62C162.797 164.784 167.101 158.402 183.326 157.09C203.058 155.494 220.023 163.046 230.998 169.417H231Z" fill="url(#paint2_linear_324_838)"/>
<mask id="mask2_324_838" style="mask-type:luminance" maskUnits="userSpaceOnUse" x="69" y="37" width="162" height="133">
<path d="M231 169.417C223.983 161.511 212.394 149.78 196.334 139.493C167.77 121.196 153.573 125.728 142.294 108.503C130.618 90.6731 140.309 77.3854 126.226 57.2639C125.042 55.5722 109.879 34.4379 94.2167 38.0098C83.2597 40.5092 77.9418 53.7573 75.4461 59.9739C65.7613 84.0996 66.7658 124.04 88.4185 148.008C108.947 170.73 137.666 167.667 146.79 166.62C162.797 164.784 167.101 158.402 183.326 157.09C203.058 155.494 220.023 163.046 230.998 169.417H231Z" fill="white"/>
</mask>
<g mask="url(#mask2_324_838)">
<g style="mix-blend-mode:soft-light">
<path d="M236.765 176.337C219.765 156.878 202.499 145.841 185.443 143.534C177.999 142.528 172.625 143.416 167.429 144.274C160.861 145.359 154.658 146.384 144.709 143.88C126.837 139.381 112.131 129.136 103.297 115.033C89.6255 93.2038 88.931 61.0926 101.528 33.2256L101.82 33.3581C89.2658 61.1294 89.9521 93.122 103.568 114.862C112.357 128.895 126.996 139.09 144.787 143.569C154.67 146.058 160.842 145.037 167.376 143.957C172.595 143.095 177.993 142.203 185.485 143.216C202.62 145.533 219.954 156.606 237.006 176.126L236.765 176.336V176.337Z" fill="white"/>
<path d="M97.224 101.434L96.983 101.279C96.9122 101.233 89.8335 96.6387 82.9057 88.8031C76.5069 81.5655 68.9296 70.0016 69.1706 56.0167L69.4908 56.0222C69.2516 69.9041 76.7847 81.3953 83.1458 88.5906C89.3276 95.5827 95.6234 99.9788 96.9168 100.85C97.4089 82.7613 107.746 71.0595 116.357 64.4161C125.729 57.1858 135.136 54.2284 135.23 54.199L135.325 54.5053C135.231 54.5338 125.872 57.4784 116.545 64.6764C107.946 71.3116 97.6168 83.0253 97.2305 101.148L97.224 101.434Z" fill="white"/>
<path d="M109.936 144.294C103.001 144.294 95.9038 142.878 88.8197 140.078C79.478 136.387 70.1346 130.266 61.0496 121.887L61.2667 121.651C81.7695 140.562 99.6773 144.221 111.087 143.96C122.596 143.697 129.978 139.51 130.992 138.901C123.326 122.592 126.177 107.026 129.926 96.8273C133.997 85.7537 139.976 78.4462 140.037 78.3735L140.284 78.5777C140.224 78.6504 134.274 85.923 130.224 96.9487C126.489 107.114 123.651 122.644 131.343 138.894L131.403 139.021L131.285 139.098C131.209 139.146 123.535 143.997 111.095 144.281C110.71 144.29 110.323 144.294 109.937 144.294H109.936Z" fill="white"/>
</g>
</g>
<path d="M296.282 96.1121L72.7645 86.0049C70.1361 85.8857 68 87.9444 68 90.6037V277.219C68 279.877 70.1361 281.915 72.7645 281.77L296.282 269.444C298.338 269.331 300 267.339 300 264.997V100.523C300 98.1796 298.338 96.2048 296.282 96.1121Z" fill="url(#paint3_linear_324_838)"/>
<path opacity="0.61" d="M73.0347 276.758V91.0166L73.6242 91.042L296.192 100.461V265.099L295.65 265.127L73.0347 276.759V276.758ZM74.1706 92.3644V275.397L295.055 263.856V101.713L74.1706 92.3655V92.3644Z" fill="white"/>
<g opacity="0.61">
<path d="M90.0708 253.184C88.8653 253.184 87.7117 252.689 86.8529 251.757C85.802 250.617 85.4046 249.058 85.7622 247.483C90.9914 224.453 104.265 214.818 111.711 211.124L112.163 212.317C104.907 215.916 91.9706 225.313 86.8628 247.81C86.6122 248.913 86.8937 250.009 87.6356 250.814C88.5617 251.82 89.9604 252.147 91.2862 251.668L110.006 244.893C112.82 243.875 115.136 241.691 116.361 238.9L119.824 231.015L120.84 231.598L117.377 239.483C116.015 242.585 113.453 245.008 110.348 246.132L91.6284 252.906C91.1129 253.093 90.5863 253.184 90.0708 253.184Z" fill="white"/>
<path d="M189.407 249.156C189.039 249.156 188.668 249.103 188.305 248.995L171.093 243.865C168.149 242.988 165.715 240.794 164.414 237.846L160.912 229.907L161.926 229.322L165.429 237.261C166.582 239.876 168.752 241.824 171.38 242.608L188.592 247.738C189.705 248.069 190.905 247.699 191.724 246.771C192.462 245.935 192.75 244.836 192.514 243.755C187.932 222.756 176.045 214.338 169.366 211.188L169.799 209.987C173.158 211.571 178.129 214.603 182.728 220.048C187.903 226.175 191.566 234.045 193.616 243.441C193.946 244.956 193.538 246.546 192.522 247.696C191.686 248.642 190.556 249.157 189.406 249.157L189.407 249.156Z" fill="white"/>
<path d="M125.883 245.31C124.868 245.31 123.953 244.778 123.419 243.873C122.912 243.014 122.833 241.97 123.204 241.01L126.467 232.516L127.507 233.04L124.242 241.533C124.033 242.077 124.076 242.663 124.359 243.145C124.693 243.71 125.29 244.039 125.953 244.008L156.169 242.885C156.819 242.861 157.4 242.491 157.727 241.896C157.999 241.399 158.042 240.822 157.843 240.311L154.584 232.179L155.617 231.638L158.878 239.777C159.236 240.696 159.167 241.717 158.69 242.587C158.162 243.55 157.234 244.147 156.206 244.184L125.99 245.307C125.953 245.308 125.918 245.309 125.882 245.309L125.883 245.31Z" fill="white"/>
<path d="M139.915 234.917C133.542 234.917 127.046 233.764 120.464 231.456C119.563 231.14 118.84 230.47 118.426 229.57C115.162 222.471 99.0459 185.508 102.37 154.845C105.232 128.434 127.096 112.581 136.363 106.992C137.829 106.108 138.997 105.47 139.719 105.09C140.409 104.727 140.777 104.535 141 104.451C141.034 104.434 141.068 104.42 141.111 104.414C141.277 104.37 141.344 104.411 141.463 104.482L141.459 104.492C141.863 104.658 142.662 105.129 144.451 106.281C148.497 108.89 156.361 114.515 163.543 122.871C172.297 133.056 177.343 144.069 178.541 155.604C181.602 185.056 166.51 221.348 163.454 228.324C163.073 229.194 162.41 229.874 161.588 230.239C154.572 233.358 147.327 234.917 139.917 234.917H139.915ZM141.174 105.774C138.287 107.187 106.921 123.407 103.497 155.006C100.215 185.284 116.195 221.928 119.432 228.966C119.703 229.558 120.189 230.001 120.797 230.214C134.785 235.118 148.369 234.719 161.175 229.028C161.734 228.78 162.183 228.323 162.437 227.742C165.468 220.824 180.435 184.841 177.412 155.757C174.232 125.152 144.009 107.353 141.197 105.775L141.186 105.781L141.175 105.774H141.174Z" fill="white"/>
<path d="M140.876 200.115C133.624 200.115 126.659 196.933 121.72 191.349C117.231 186.275 114.758 179.656 114.758 172.713C114.758 165.769 117.231 159.154 121.72 154.086C126.735 148.425 133.843 145.248 141.21 145.353C148.109 145.457 154.579 148.357 159.428 153.518C164.281 158.684 166.954 165.515 166.954 172.752C166.954 179.989 164.281 186.816 159.427 191.975C154.578 197.13 148.108 200.02 141.208 200.113C141.098 200.114 140.987 200.115 140.876 200.115ZM140.838 146.65C133.896 146.65 127.236 149.685 122.517 155.011C118.246 159.833 115.894 166.119 115.894 172.713C115.894 179.306 118.246 185.597 122.518 190.425C127.245 195.769 133.922 198.815 140.876 198.816C140.983 198.816 141.089 198.816 141.196 198.814C154.773 198.632 165.819 186.941 165.819 172.753C165.819 158.566 154.773 146.856 141.196 146.653C141.078 146.651 140.958 146.651 140.84 146.651L140.838 146.65Z" fill="white"/>
<path d="M140.998 194.727C135.17 194.727 129.57 192.163 125.606 187.67C122.011 183.596 120.029 178.285 120.029 172.717C120.029 167.149 122.009 161.84 125.606 157.772C129.618 153.231 135.314 150.671 141.207 150.74C146.755 150.807 151.961 153.126 155.865 157.27C159.777 161.422 161.932 166.919 161.932 172.748C161.932 178.576 159.777 184.07 155.865 188.217C151.959 192.355 146.755 194.667 141.206 194.725C141.137 194.725 141.066 194.726 140.997 194.726L140.998 194.727ZM140.967 152.038C135.447 152.038 130.152 154.456 126.405 158.696C123.026 162.519 121.166 167.499 121.166 172.717C121.166 177.935 123.027 182.918 126.406 186.747C130.204 191.051 135.591 193.484 141.197 193.427C152.005 193.313 160.797 184.037 160.797 172.749C160.797 161.461 152.005 152.17 141.196 152.039C141.12 152.039 141.043 152.038 140.967 152.038Z" fill="white"/>
<path d="M170.235 133.724L111.222 132.413L111.244 131.114L170.256 132.424L170.235 133.724Z" fill="white"/>
</g>
<path opacity="0.61" d="M73.6254 262.325L73.5801 261.027L295.602 251.066L295.646 252.365L73.6254 262.325Z" fill="white"/>
<path opacity="0.61" d="M208.985 255.628H207.849V269.297H208.985V255.628Z" fill="white"/>
<path opacity="0.61" d="M208.321 263.117L208.272 261.819L295.6 257.571L295.648 258.87L208.321 263.117Z" fill="white"/>
<path opacity="0.61" d="M224.344 254.938H223.208V261.714H224.344V254.938Z" fill="white"/>
<path opacity="0.61" d="M246.436 253.948H245.3V260.641H246.436V253.948Z" fill="white"/>
<path opacity="0.61" d="M231.122 108.61L141.272 105.309L141.286 104.789L231.136 108.09L231.122 108.61Z" fill="white"/>
<path opacity="0.61" d="M193.622 249.264L193.606 248.746L231.232 247.207L231.249 247.727L193.622 249.264Z" fill="white"/>
<path opacity="0.61" d="M170.24 210.77L170.232 210.25L231.236 209.054L231.244 209.574L170.24 210.77Z" fill="white"/>
<path opacity="0.61" d="M231.235 134.697L170.232 133.344L170.241 132.824L231.245 134.178L231.235 134.697Z" fill="white"/>
<path opacity="0.61" d="M228.632 108.379H228.177V247.452H228.632V108.379Z" fill="white"/>
<path opacity="0.61" d="M166.474 199.414L166.406 199.341L127.4 156.851L127.713 156.474L166.654 198.892L208.536 198.329L208.541 198.849L166.474 199.414Z" fill="white"/>
<path opacity="0.45" d="M286.141 113.768L242.497 112.25V108.897L286.141 110.497V113.768Z" fill="white"/>
<path opacity="0.45" d="M286.141 119.051L242.497 117.665V114.313L286.141 115.781V119.051Z" fill="white"/>
<path opacity="0.45" d="M286.141 124.335L242.497 123.082V119.728L286.141 121.064V124.335Z" fill="white"/>
<path opacity="0.45" d="M286.141 154.525L242.497 154.03V150.678L286.141 151.254V154.525Z" fill="white"/>
<path opacity="0.45" d="M286.141 159.808L242.497 159.447V156.094L286.141 156.537V159.808Z" fill="white"/>
<path opacity="0.45" d="M286.141 165.091L242.497 164.863V161.51L286.141 161.821V165.091Z" fill="white"/>
<path opacity="0.45" d="M286.141 133.643L262.541 133.092V129.777L286.141 130.372V133.643Z" fill="white"/>
<path opacity="0.45" d="M286.141 138.926L262.541 138.447V135.132L286.141 135.656V138.926Z" fill="white"/>
<path opacity="0.45" d="M286.141 144.21L262.541 143.803V140.487L286.141 140.94V144.21Z" fill="white"/>
<path opacity="0.61" d="M242.269 247.147V173.372L286.368 173.386V245.347L242.269 247.146V247.147ZM242.724 173.891V246.607L285.914 244.844V173.905L242.724 173.89V173.891Z" fill="white"/>
<path opacity="0.61" d="M242.498 184.981L242.495 184.461L286.139 184.204L286.142 184.724L242.498 184.981Z" fill="white"/>
<path opacity="0.61" d="M242.499 190.656L242.494 190.136L286.14 189.739L286.143 190.259L242.499 190.656Z" fill="white"/>
<path opacity="0.61" d="M242.499 196.33L242.494 195.81L286.138 195.274L286.144 195.794L242.499 196.33Z" fill="white"/>
<path opacity="0.61" d="M242.5 202.004L242.493 201.484L286.137 200.809L286.144 201.328L242.5 202.004Z" fill="white"/>
<path opacity="0.61" d="M242.5 207.678L242.493 207.158L286.137 206.343L286.145 206.863L242.5 207.678Z" fill="white"/>
<path opacity="0.61" d="M242.501 218.509L242.492 217.989L286.136 216.911L286.146 217.431L242.501 218.509Z" fill="white"/>
<path opacity="0.61" d="M242.502 224.183L242.491 223.664L286.135 222.446L286.146 222.964L242.502 224.183Z" fill="white"/>
<path opacity="0.61" d="M242.503 229.857L242.49 229.338L286.135 227.981L286.147 228.499L242.503 229.857Z" fill="white"/>
<path opacity="0.61" d="M242.503 235.531L242.49 235.012L286.134 233.515L286.147 234.035L242.503 235.531Z" fill="white"/>
<path opacity="0.61" d="M242.504 241.205L242.489 240.686L286.134 239.05L286.148 239.569L242.504 241.205Z" fill="white"/>
<path opacity="0.61" d="M256.597 173.637H256.142V246.44H256.597V173.637Z" fill="white"/>
<path opacity="0.45" d="M224.846 177.142L222.466 177.146V169.974L224.846 169.979V177.142Z" fill="white"/>
<path opacity="0.45" d="M224.846 233.403L222.466 233.481V226.308L224.846 226.24V233.403Z" fill="white"/>
<path opacity="0.45" d="M205.629 195.206L189.217 195.396V190.88L205.629 190.731V195.206Z" fill="white"/>
<path d="M280.738 318.418C280.738 318.418 281.022 320.676 280.831 321.433C280.641 322.189 274.074 322.736 271.845 322.473C269.617 322.21 273.173 319.933 274.593 319.506C276.013 319.078 280.738 318.418 280.738 318.418Z" fill="url(#paint4_linear_324_838)"/>
<path d="M277.432 314.651L278.124 319.182C278.124 319.182 279.89 319.976 280.738 319.192L280.831 314.45L277.432 314.653V314.651Z" fill="url(#paint5_linear_324_838)"/>
<path d="M314.448 314.448C314.448 314.448 313.054 315.482 313.426 316.721C313.797 317.959 317.048 322.92 319.365 324.328C321.681 325.735 320.954 322.802 320.281 320.975C319.607 319.148 317.884 315.123 317.211 314.448C316.538 313.774 314.447 314.448 314.447 314.448H314.448Z" fill="url(#paint6_linear_324_838)"/>
<path d="M311.941 309.47C312.614 311.348 313.263 312.891 313.77 314.029C314.891 316.548 315.504 317.492 316.197 318.312C316.803 319.026 318.235 320.549 318.62 320.295C319.011 320.039 317.964 318.187 315.944 312.765C315.65 311.979 314.724 309.472 314.724 309.472H311.943L311.941 309.47Z" fill="url(#paint7_linear_324_838)"/>
<path d="M263.682 231.03C263.201 235.749 262.74 243.072 263.43 251.961C264.329 263.541 266.644 270.869 269.548 283.217C271.323 290.762 273.715 301.869 275.879 315.759C276.381 316.047 277.858 316.802 279.761 316.519C280.826 316.362 281.622 315.938 282.092 315.634C287.771 298.284 286.093 287.533 283.353 280.835C282.185 277.98 280.769 275.727 280.011 271.338C279.01 265.531 280.249 262.285 282.014 248.834C283.272 239.247 283.054 237.766 282.217 236.328C278.87 230.58 268.628 230.692 263.682 231.032V231.03Z" fill="url(#paint8_linear_324_838)"/>
<path d="M228.371 182.482C228.371 182.482 227.574 179.357 226.248 178.532C224.921 177.707 223.047 176.825 222.617 176.462C222.188 176.1 221.686 177.183 222.924 178.012L224.162 178.841C224.188 179.07 224.153 179.248 224.111 179.373C223.915 179.96 223.246 180.363 222.42 180.438C219.244 181.103 218.003 181.136 217.52 180.993C217.448 180.973 217.171 180.882 217.055 181.006C216.869 181.203 217.204 181.827 217.347 182.044C218.206 183.356 221.189 183.928 223.421 182.901C224.237 182.527 224.55 182.124 225.144 182.225C226.09 182.386 226.67 183.633 227.014 184.665L228.372 182.483L228.371 182.482Z" fill="white"/>
<path d="M283.226 233.048C286.704 251.011 290.118 260.445 292.701 265.78C293.338 267.096 295.464 271.342 297.473 277.429C299.252 282.817 299.994 286.78 300.373 288.525C301.573 294.031 304.536 302.071 312.512 312.615C312.612 312.674 313.971 313.442 315.271 312.757C315.929 312.41 316.256 311.857 316.386 311.599C315.343 301.517 314.147 293.045 313.108 286.508C312.89 285.136 311.93 279.137 310.424 271.211C309.835 268.109 308.971 263.564 307.938 258.896C306.651 253.082 304.676 245.174 301.633 235.697C295.497 234.815 289.36 233.932 283.224 233.049L283.226 233.048Z" fill="url(#paint9_linear_324_838)"/>
<path d="M225.809 183.473C226.714 182.669 227.617 181.865 228.521 181.062C228.852 181.396 233.679 186.107 240.428 184.679C245.074 183.696 247.754 179.88 249.47 177.445C254.626 170.13 251.542 164.763 257.093 159.792C258.635 158.411 261.659 156.741 263.637 157.249C268.347 158.463 271.06 172.63 266.5 183.773C265.58 186.022 260.512 198.406 249.018 199.747C239.737 200.83 229.895 194.291 225.809 183.471V183.473Z" fill="url(#paint10_linear_324_838)"/>
<path d="M280.262 162C278.29 160.177 274.515 158.074 272.622 153.188C272.052 151.717 270.035 146.506 273.012 142.519C274.778 140.152 278.062 138.546 280.956 139.115C283.428 139.601 283.815 141.323 288.016 144.789C289.651 146.138 292.28 148.306 295.206 149.512C300.218 151.578 303.23 149.634 308.263 149.856C314.444 150.129 321.626 153.579 325.087 158.596C331.229 167.501 322.332 176.533 329.059 186.966C331.263 190.383 332.35 189.617 337.57 196.233C342.798 202.857 345.412 206.169 344.947 210.228C344.302 215.861 338.234 221.242 332.52 221.608C326.939 221.965 323.39 217.574 320.549 219.496C318.526 220.862 319.683 223.521 317.535 226.716C314.766 230.836 309.323 231.657 308.445 231.788C300.287 233.019 289.286 223.453 284.614 212.119C276.189 191.681 290.989 171.913 280.264 162.001L280.262 162Z" fill="url(#paint11_linear_324_838)"/>
<path style="mix-blend-mode:multiply" opacity="0.3" d="M283.352 280.833C282.184 277.979 280.768 275.725 280.01 271.337C279.008 265.53 280.247 262.284 282.012 248.833C283.271 239.246 283.053 237.764 282.215 236.326C280.397 233.203 276.541 231.816 272.606 231.25C272.658 231.451 272.711 231.654 272.754 231.849C274.818 241.277 266.94 247.029 270.494 257.394C272.245 262.503 275.042 263.674 275.693 269.602C276.302 275.154 274.09 276.311 274.562 281.357C275.269 288.901 280.627 290.726 282.022 296.503C282.928 300.257 282.165 305.745 275.547 313.691C275.657 314.374 275.767 315.061 275.876 315.76C276.379 316.048 277.855 316.803 279.758 316.521C280.823 316.363 281.619 315.94 282.089 315.635C287.768 298.285 286.09 287.534 283.35 280.836L283.352 280.833Z" fill="url(#paint12_linear_324_838)"/>
<path d="M262.583 170.814C254.088 177.524 255.033 190.394 249.81 191.046C248.214 191.245 248.302 190.023 244.497 188.786C238.933 186.977 236.318 188.804 232.403 187.429C230.782 186.861 228.672 185.644 226.596 182.775C226.334 183.008 226.072 183.241 225.809 183.474C229.895 194.295 239.737 200.834 249.018 199.75C260.513 198.408 265.58 186.025 266.5 183.775C268.639 178.547 269.178 172.653 268.66 167.744C266.699 168.315 264.569 169.246 262.581 170.815L262.583 170.814Z" fill="url(#paint13_linear_324_838)"/>
<path d="M256.419 160.641C256.94 159.833 258.594 157.592 265.619 155.94C269.139 155.112 275.648 153.695 284.023 155.47C295.527 157.907 302.691 164.809 305.387 167.711C303.179 169.149 297.085 173.536 294.069 181.858C293.13 184.447 290.356 193.3 294.324 201.59C296.61 206.368 300.653 209.955 303.723 212.68C308.33 216.765 310.715 217.393 312.259 221.054C313.941 225.041 312.247 226.985 314.335 229.713C316.577 232.644 319.206 231.281 323.006 234.246C326.9 237.282 325.515 239.78 329.059 243.135C334.209 248.009 341.036 246.426 341.352 248.621C341.626 250.508 336.774 253.067 332.652 254.106C324.488 256.162 317.369 252.71 315.252 251.647C309.389 248.701 310.402 246.796 305.933 244.551C298.449 240.792 293.335 244.975 276.29 245.407C267.061 245.64 262.392 245.693 259.836 242.569C257.501 239.717 258.729 236.588 260.129 223.104C260.129 223.104 260.129 223.104 260.129 223.103C260.58 218.599 261.522 209.171 261.529 203.798C261.532 200.623 260.431 195.435 258.228 185.058C258.098 184.446 256.906 178.84 255.944 171.351C255.076 164.608 255.202 162.537 256.421 160.644L256.419 160.641Z" fill="url(#paint14_linear_324_838)"/>
<path d="M329.058 245.138C325.513 241.783 326.899 239.284 323.005 236.248C319.203 233.284 316.576 234.646 314.333 231.716C312.244 228.987 313.94 227.043 312.258 223.056C310.713 219.396 308.329 218.768 303.722 214.682C300.652 211.957 296.607 208.371 294.322 203.593C290.356 195.302 293.128 186.449 294.067 183.86C297.085 175.538 303.178 171.151 305.386 169.713C305.173 169.484 304.923 169.224 304.654 168.948C290.106 170.948 281.625 179.354 280.575 181.843C278.15 187.597 281.989 189.71 282.088 206.304C282.135 214.235 281.279 217.367 283.853 220.677C286.796 224.463 290.188 223.292 294.444 228.243C297.715 232.046 297.191 234.457 300.245 236.059C303.529 237.782 305.619 235.774 309.322 236.564C315.509 237.883 316.832 245.016 320.922 248.919C324.015 251.87 329.733 253.934 341.012 251.72C341.273 251.34 341.399 250.968 341.348 250.622C341.03 248.429 334.204 250.012 329.055 245.137L329.058 245.138Z" fill="url(#paint15_linear_324_838)"/>
<path d="M284.989 184.315C283.443 187.599 290.549 195.249 298.448 198.879C300.057 199.619 311.614 204.933 316.763 199.824C321.019 195.601 318.272 186.872 317.292 183.755C312.477 168.45 297.69 160.665 291.493 157.858C286.869 169.421 289.592 174.575 290.664 176.184C291.784 177.864 294.91 181.395 298.23 184.506C300.565 186.693 302.019 187.758 301.823 188.1C301.579 188.525 298.842 187.723 288.212 182.547C286.98 182.748 285.519 183.196 284.991 184.317L284.989 184.315Z" fill="url(#paint16_linear_324_838)"/>
<path d="M279.302 146.478C279.302 146.478 280.035 152.342 282.2 153.687C284.366 155.03 287.865 156.786 288.25 157.261C288.635 157.737 274.84 159.22 268.002 155.77C270.255 155.3 270.868 155.127 270.868 155.127C271.479 154.955 272.62 154.633 273.764 153.982C274.543 153.539 275.797 152.673 276.948 151.038L276.923 147.791L279.303 146.478H279.302Z" fill="white"/>
<path d="M279.631 148.554C279.631 148.554 278.219 150.491 276.005 149.684C274.023 148.961 275.206 143.842 276.778 143.258C277.303 143.064 278.265 143.15 278.91 143.552C279.362 143.834 280.571 145.336 279.879 147.019C280.379 146.874 280.82 147.005 280.93 147.253C281.07 147.567 280.646 147.996 280.55 148.094C280.217 148.429 279.816 148.524 279.631 148.554Z" fill="white"/>
<path d="M287.676 183.548C287.676 183.548 281.196 176.917 278.559 175.937C275.922 174.957 277.503 176.389 278.559 177.219C279.614 178.048 280.317 178.319 279.777 179.577C279.237 180.836 278.257 181.951 279.802 182.938C281.347 183.925 281.95 184.302 283.156 184.451L284.362 184.602L285.945 185.446C285.945 185.446 287.979 185.205 287.677 183.548H287.676Z" fill="white"/>
</g>
<defs>
<linearGradient id="paint0_linear_324_838" x1="204.436" y1="29.1873" x2="140.237" y2="109.594" gradientUnits="userSpaceOnUse">
<stop stop-color="#FFC444"/>
<stop offset="1" stop-color="#F36F56"/>
</linearGradient>
<linearGradient id="paint1_linear_324_838" x1="118.927" y1="53.4088" x2="72.452" y2="192.078" gradientUnits="userSpaceOnUse">
<stop stop-color="#AA80F9"/>
<stop offset="1" stop-color="#6165D7"/>
</linearGradient>
<linearGradient id="paint2_linear_324_838" x1="171.008" y1="95.6607" x2="61.0074" y2="186.02" gradientUnits="userSpaceOnUse">
<stop stop-color="#FF9085"/>
<stop offset="1" stop-color="#FB6FBB"/>
</linearGradient>
<linearGradient id="paint3_linear_324_838" x1="259.79" y1="86.654" x2="50.651" y2="338.243" gradientUnits="userSpaceOnUse">
<stop stop-color="#444B8C"/>
<stop offset="1" stop-color="#26264F"/>
</linearGradient>
<linearGradient id="paint4_linear_324_838" x1="275.053" y1="303.891" x2="277.322" y2="344.745" gradientUnits="userSpaceOnUse">
<stop stop-color="#444B8C"/>
<stop offset="1" stop-color="#26264F"/>
</linearGradient>
<linearGradient id="paint5_linear_324_838" x1="279.339" y1="324.025" x2="278.134" y2="268.867" gradientUnits="userSpaceOnUse">
<stop stop-color="#FFC444"/>
<stop offset="1" stop-color="#F36F56"/>
</linearGradient>
<linearGradient id="paint6_linear_324_838" x1="316.131" y1="301.61" x2="318.401" y2="342.462" gradientUnits="userSpaceOnUse">
<stop stop-color="#444B8C"/>
<stop offset="1" stop-color="#26264F"/>
</linearGradient>
<linearGradient id="paint7_linear_324_838" x1="315.506" y1="323.234" x2="314.3" y2="268.077" gradientUnits="userSpaceOnUse">
<stop stop-color="#FFC444"/>
<stop offset="1" stop-color="#F36F56"/>
</linearGradient>
<linearGradient id="paint8_linear_324_838" x1="261.826" y1="288.174" x2="284.734" y2="257.43" gradientUnits="userSpaceOnUse">
<stop stop-color="#311944"/>
<stop offset="1" stop-color="#6B3976"/>
</linearGradient>
<linearGradient id="paint9_linear_324_838" x1="278.844" y1="291.99" x2="332.494" y2="241.956" gradientUnits="userSpaceOnUse">
<stop stop-color="#311944"/>
<stop offset="1" stop-color="#6B3976"/>
</linearGradient>
<linearGradient id="paint10_linear_324_838" x1="249.325" y1="181.588" x2="279.927" y2="281.936" gradientUnits="userSpaceOnUse">
<stop stop-color="#FFC444"/>
<stop offset="1" stop-color="#F36F56"/>
</linearGradient>
<linearGradient id="paint11_linear_324_838" x1="316.326" y1="202.414" x2="300.44" y2="179.907" gradientUnits="userSpaceOnUse">
<stop stop-color="#444B8C"/>
<stop offset="1" stop-color="#26264F"/>
</linearGradient>
<linearGradient id="paint12_linear_324_838" x1="264.748" y1="290.352" x2="287.655" y2="259.608" gradientUnits="userSpaceOnUse">
<stop stop-color="#311944"/>
<stop offset="1" stop-color="#6B3976"/>
</linearGradient>
<linearGradient id="paint13_linear_324_838" x1="225.809" y1="183.804" x2="268.844" y2="183.804" gradientUnits="userSpaceOnUse">
<stop stop-color="#FFC444"/>
<stop offset="1" stop-color="#F36F56"/>
</linearGradient>
<linearGradient id="paint14_linear_324_838" x1="278.175" y1="172.789" x2="308.777" y2="273.138" gradientUnits="userSpaceOnUse">
<stop stop-color="#FFC444"/>
<stop offset="1" stop-color="#F36F56"/>
</linearGradient>
<linearGradient id="paint15_linear_324_838" x1="299.182" y1="156.743" x2="312.295" y2="236.934" gradientUnits="userSpaceOnUse">
<stop stop-color="#FFC444"/>
<stop offset="1" stop-color="#F36F56"/>
</linearGradient>
<linearGradient id="paint16_linear_324_838" x1="295.734" y1="167.435" x2="326.336" y2="267.783" gradientUnits="userSpaceOnUse">
<stop stop-color="#FFC444"/>
<stop offset="1" stop-color="#F36F56"/>
</linearGradient>
<clipPath id="clip0_324_838">
<rect width="378" height="393" fill="white"/>
</clipPath>
</defs>
</svg>
