<svg width="378" height="393" viewBox="0 0 378 393" fill="none" xmlns="http://www.w3.org/2000/svg">
<g clip-path="url(#clip0_324_839)">
<path d="M42.6083 38.0956C24.6408 63.8763 45.7082 105.676 19.0465 125.064C-6.90722 143.94 -38.7905 113.001 -63.2484 129.249C-99.5319 153.35 -92.9056 263.635 -39.858 332.157C-23.9042 352.763 -10.5734 360.782 -4.6699 384.087C8.00705 434.13 -36.5476 463.899 -28.0678 488.649C-8.97689 544.379 284.629 591.142 402.438 423.659C457.458 345.436 465.692 232.485 416.533 146.697C327.699 -8.32258 82.9268 -19.7534 42.6083 38.0956Z" fill="#F4F7FA"/>
<path d="M206.646 242.225C201.347 226.074 195.953 201.418 202.267 174.044C209.518 142.611 225.58 136.323 240.003 102.724C260.59 54.7623 237.291 20.0191 258.603 5.36059C268.996 -1.78779 285.34 -1.79333 295.415 5.38278C324.163 25.8592 316.282 115.047 270.67 149.851C250.042 165.591 232.04 163.723 216.56 184.093C202.881 202.092 203.954 225.836 206.644 242.223L206.646 242.225Z" fill="url(#paint0_linear_324_839)"/>
<mask id="mask0_324_839" style="mask-type:luminance" maskUnits="userSpaceOnUse" x="199" y="0" width="114" height="243">
<path d="M206.646 242.225C201.347 226.074 195.953 201.418 202.267 174.044C209.518 142.611 225.58 136.323 240.003 102.724C260.59 54.7623 237.291 20.0191 258.603 5.36059C268.996 -1.78779 285.34 -1.79333 295.415 5.38278C324.163 25.8592 316.282 115.047 270.67 149.851C250.042 165.591 232.04 163.723 216.56 184.093C202.881 202.092 203.954 225.836 206.644 242.223L206.646 242.225Z" fill="white"/>
</mask>
<g mask="url(#mask0_324_839)">
<g style="mix-blend-mode:soft-light">
<path d="M203.345 201.571L202.965 201.475C204.701 194.657 207.032 187.957 209.897 181.563C216.486 166.855 223.748 158.778 232.941 148.55C238.917 141.903 245.688 134.37 253.511 123.574C268.142 103.379 272.681 96.2899 276.739 84.8849C284.774 62.3012 283.54 42.0545 282.089 31.9955C280.032 17.7265 275.244 4.1466 267.859 -8.36472L268.197 -8.56445C275.608 3.99236 280.412 17.62 282.477 31.94C283.933 42.0346 285.172 62.3523 277.109 85.0158C273.035 96.4674 268.487 103.574 253.83 123.804C245.995 134.616 239.215 142.158 233.234 148.813C224.064 159.014 216.822 167.072 210.257 181.724C207.401 188.098 205.076 194.776 203.347 201.572L203.345 201.571Z" fill="white"/>
<path d="M281.165 68.9159L281.159 68.593C280.864 51.9505 270.228 41.1791 261.356 35.0738C251.73 28.4492 242.054 25.7338 241.957 25.7072L242.062 25.3288C242.158 25.3554 251.899 28.0874 261.578 34.7498C270.467 40.8673 281.114 51.6331 281.544 68.2557C283.077 67.3624 290.562 62.7529 297.296 54.2719C304.218 45.5522 311.739 30.836 308.259 10.2442L308.646 10.1787C312.152 30.9203 304.571 45.7453 297.593 54.5282C290.036 64.0423 281.533 68.7162 281.449 68.7628L281.165 68.917V68.9159Z" fill="white"/>
<path d="M278.558 122.348C276.855 122.348 275.25 122.263 273.764 122.128C264.422 121.274 257.729 118.244 257.663 118.213L257.513 118.144L257.555 117.985C261.84 101.649 258.121 89.6142 254.248 82.3937C250.05 74.5662 244.768 70.5504 244.714 70.5104L244.95 70.1964C245.003 70.2364 250.344 74.2944 254.585 82.1917C258.484 89.4522 262.228 101.537 257.977 117.923C259.013 118.371 265.305 120.963 273.813 121.739C282.364 122.518 294.974 121.569 306.473 112.619L306.714 112.929C297.109 120.406 286.738 122.349 278.558 122.349V122.348Z" fill="white"/>
<path d="M259.322 153.563C254.34 153.563 250.246 152.871 247.081 152.009C239.259 149.879 235.245 146.277 235.205 146.241L235.101 146.147L235.157 146.018C242.402 129.423 232.296 102.275 232.194 102.003L232.561 101.865C232.664 102.138 242.772 129.292 235.575 146.042C236.249 146.613 240.163 149.724 247.209 151.637C254.355 153.578 266.279 154.648 282.495 148.723L282.629 149.092C273.477 152.435 265.677 153.563 259.322 153.563Z" fill="white"/>
</g>
</g>
<path d="M190.217 216.905C188.424 206.056 187.392 189.112 196.223 173.96C211.63 147.525 239.711 156.294 266.59 127.973C288.269 105.13 281.437 87.3772 305.459 72.196C309.48 69.6549 330.725 55.6722 346.525 64.0945C355.427 68.8404 358.653 78.5832 359.259 80.4119C368.411 108.056 340.254 151.335 303.554 171.13C282.469 182.503 275.666 178.787 238.56 192.051C216.756 199.845 200.386 209.88 190.216 216.906L190.217 216.905Z" fill="url(#paint1_linear_324_839)"/>
<mask id="mask1_324_839" style="mask-type:luminance" maskUnits="userSpaceOnUse" x="189" y="61" width="172" height="156">
<path d="M190.217 216.905C188.424 206.056 187.392 189.112 196.223 173.96C211.63 147.525 239.711 156.294 266.59 127.973C288.269 105.13 281.437 87.3772 305.459 72.196C309.48 69.6549 330.725 55.6722 346.525 64.0945C355.427 68.8404 358.653 78.5832 359.259 80.4119C368.411 108.056 340.254 151.335 303.554 171.13C282.469 182.503 275.666 178.787 238.56 192.051C216.756 199.845 200.386 209.88 190.216 216.906L190.217 216.905Z" fill="white"/>
</mask>
<g mask="url(#mask1_324_839)">
<g style="mix-blend-mode:soft-light">
<path d="M187.044 229.953L186.661 229.873C192.059 203.943 202.299 186.52 217.095 178.091C224.338 173.965 230.105 173.312 236.21 172.622C242.776 171.878 249.567 171.11 258.529 165.69C267.24 160.422 270.363 155.35 274.316 148.929C277.873 143.154 282.298 135.966 292.232 126.392C300.938 118.001 307.279 114.073 312.872 110.609C318.932 106.855 323.718 103.89 329.26 96.6282C338.311 84.7661 343.043 69.5572 343.321 51.4221L343.713 51.4277C343.433 69.6482 338.675 84.9358 329.571 96.8657C323.985 104.185 319.172 107.167 313.078 110.942C307.5 114.396 301.18 118.312 292.504 126.674C282.605 136.214 278.195 143.378 274.65 149.135C270.669 155.601 267.524 160.708 258.732 166.026C249.695 171.49 242.862 172.263 236.254 173.011C230.19 173.697 224.462 174.346 217.289 178.432C202.595 186.803 192.42 204.137 187.046 229.953H187.044Z" fill="white"/>
<path d="M312.799 112.522C312.051 112.522 311.299 112.511 310.535 112.487L310.273 112.48L310.355 112.23C310.474 111.868 322.115 75.8733 308.855 60.994L309.148 60.7332C313.021 65.0797 317.185 74.0801 315.025 92.2773C313.855 102.134 311.292 110.564 310.807 112.103C330.522 112.637 345.197 105.174 354.041 98.8031C363.672 91.8667 368.669 84.6928 368.717 84.6207L369.04 84.8426C368.99 84.9147 363.964 92.1352 354.283 99.1116C345.69 105.305 331.63 112.523 312.798 112.523L312.799 112.522Z" fill="white"/>
<path d="M314.247 143.189C311.207 143.189 308.379 143.032 305.814 142.784C292.021 141.456 282.665 137.335 282.573 137.292L282.419 137.224L282.463 137.061C287.648 118.292 283.074 91.5881 283.027 91.3207L283.413 91.253C283.46 91.5204 288.021 118.157 282.886 137.001C284.154 137.538 293.097 141.167 305.866 142.395C318.534 143.613 337.666 142.647 356.876 131.129L357.078 131.466C341.662 140.708 326.294 143.188 314.247 143.188V143.189Z" fill="white"/>
<path d="M297.903 186.975C279.878 186.975 265.953 183.167 257.293 179.879C247.426 176.134 242.067 172.233 242.015 172.194L241.848 172.072L241.979 171.913C256.23 154.517 250.678 125.775 250.62 125.487L251.005 125.41C251.063 125.7 256.616 154.444 242.417 171.998C244.493 173.437 265.475 187.315 300.67 186.553L300.679 186.945C299.743 186.965 298.818 186.975 297.904 186.975H297.903Z" fill="white"/>
</g>
</g>
<path d="M208.999 215.006C215.033 210.669 224.909 204.393 238.192 199.684C261.819 191.308 272.647 196.25 282.648 186.26C293.001 175.921 286.296 165.737 298.691 154.191C299.733 153.221 313.043 141.144 325.083 145.641C333.507 148.786 336.787 158.355 338.325 162.845C344.297 180.268 340.825 206.818 322.236 219.914C304.613 232.33 282.3 226.412 275.216 224.483C262.788 221.099 259.843 216.255 247.208 213.193C231.844 209.468 218.033 212.227 208.999 215.005V215.006Z" fill="url(#paint2_linear_324_839)"/>
<path d="M209 215.006C215.033 210.669 224.909 204.393 238.192 199.684C261.819 191.308 272.647 196.25 282.648 186.26C293.001 175.921 286.296 165.737 298.692 154.191C299.734 153.221 313.043 141.144 325.083 145.641C333.507 148.786 336.787 158.355 338.325 162.845C344.297 180.268 340.825 206.818 322.236 219.914C304.613 232.33 282.3 226.412 275.216 224.483C262.788 221.099 259.843 216.255 247.208 213.193C231.844 209.468 218.033 212.227 209 215.005V215.006Z" fill="url(#paint3_linear_324_839)"/>
<mask id="mask2_324_839" style="mask-type:luminance" maskUnits="userSpaceOnUse" x="208" y="144" width="133" height="84">
<path d="M209 215.006C215.033 210.669 224.909 204.393 238.192 199.684C261.819 191.308 272.647 196.25 282.648 186.26C293.001 175.921 286.296 165.737 298.692 154.191C299.734 153.221 313.043 141.144 325.083 145.641C333.507 148.786 336.787 158.355 338.325 162.845C344.297 180.268 340.825 206.818 322.236 219.914C304.613 232.33 282.3 226.412 275.216 224.483C262.788 221.099 259.843 216.255 247.208 213.193C231.844 209.468 218.033 212.227 209 215.005V215.006Z" fill="white"/>
</mask>
<g mask="url(#mask2_324_839)">
<g style="mix-blend-mode:soft-light">
<path d="M204.042 218.924L203.81 218.608C218.508 207.853 232.861 202.787 246.465 203.548C252.414 203.881 256.589 205.204 260.626 206.485C265.672 208.086 270.439 209.598 278.348 209.268C292.581 208.673 304.725 203.844 312.544 195.669C324.654 183.008 327.333 161.768 319.371 141.558L319.736 141.414C327.754 161.766 325.043 183.169 312.827 195.94C304.938 204.189 292.699 209.062 278.364 209.66C270.382 209.993 265.587 208.47 260.506 206.859C256.492 205.586 252.341 204.27 246.442 203.939C232.928 203.184 218.663 208.225 204.04 218.924H204.042Z" fill="white"/>
<path d="M318.385 187.724L318.408 187.423C319.321 175.298 312.019 166.1 305.733 160.519C298.909 154.46 291.78 151.238 291.709 151.207L291.869 150.848C291.941 150.88 299.124 154.127 305.993 160.226C312.292 165.819 319.6 175.012 318.819 187.147C321.475 186.118 341.855 177.686 343.191 161.013L343.581 161.044C342.14 179.046 318.902 187.54 318.668 187.623L318.384 187.724H318.385Z" fill="white"/>
<path d="M313.899 215.313C310.404 215.313 307.315 214.959 304.685 214.454C294.94 212.586 289.24 208.305 289.183 208.262L289.031 208.145L289.143 207.99C296.243 198.201 295.062 187.474 292.821 180.2C290.389 172.302 286.225 166.658 286.182 166.602L286.496 166.368C286.539 166.424 290.744 172.124 293.195 180.084C295.45 187.406 296.641 198.186 289.574 208.061C290.541 208.746 296.001 212.394 304.778 214.072C313.695 215.777 327.959 215.741 345.277 205.885L345.471 206.225C333.142 213.242 322.342 215.311 313.897 215.311L313.899 215.313Z" fill="white"/>
</g>
</g>
<path d="M360.746 251.41L98.787 249.128V255.878C98.787 257.71 99.9297 259.268 101.477 259.546L175.551 272.839C176.43 272.997 177.321 273.039 178.208 272.964L357.899 257.808C359.503 257.673 360.746 256.111 360.746 254.227V251.41Z" fill="url(#paint4_linear_324_839)"/>
<path d="M276.417 240.466L101.669 252.816C98.5428 253.037 96 250.689 96 247.571V122.647C96 119.529 98.5428 117.001 101.669 117.001H276.417C278.993 117.001 281.076 119.286 281.076 122.105V235.034C281.076 237.852 278.993 240.284 276.417 240.467V240.466Z" fill="url(#paint5_linear_324_839)"/>
<path d="M279.204 240.466L104.456 252.815C101.33 253.036 98.787 250.688 98.787 247.57V122.646C98.787 119.528 101.33 117 104.456 117H279.204C281.78 117 283.863 119.285 283.863 122.104V235.033C283.863 237.852 281.78 240.283 279.204 240.466Z" fill="url(#paint6_linear_324_839)"/>
<path d="M273.759 232.505L111 243.232C108.455 243.4 106.387 241.473 106.387 238.927V129.556C106.387 127.011 108.455 124.939 111 124.928L273.759 124.254C275.884 124.246 277.603 126.118 277.603 128.437V228.055C277.603 230.373 275.884 232.366 273.759 232.506V232.505Z" fill="white"/>
<path d="M198.001 120.418C198.001 121.578 197.102 122.522 195.991 122.526C194.879 122.529 193.976 121.588 193.976 120.425C193.976 119.262 194.878 118.318 195.991 118.317C197.102 118.317 198.001 119.256 198.001 120.418Z" fill="white"/>
<g style="mix-blend-mode:soft-light" opacity="0.48">
<path d="M237.101 206.204C223.63 198.956 213.037 208.141 202.814 199.079C196.617 193.585 199.659 189.488 192.033 181.278C183.587 172.184 178.088 175.241 169.599 167.058C158.865 156.709 164.234 148.658 154.989 141.229C143.773 132.215 131.678 140.558 121.001 131.914C116.396 128.186 113.87 122.765 112.55 117.002H102.104C100.273 117.002 98.787 118.486 98.787 120.316V249.811C98.787 251.641 100.274 253.02 102.104 252.889L280.201 240.247C281.075 240.185 281.85 239.674 282.347 238.935C269.31 238.46 261.301 234.089 256.181 229.57C246.165 220.731 247.903 212.016 237.102 206.204H237.101Z" fill="white"/>
</g>
<path d="M274.844 239.906L98.7864 252.905L175.55 266.68C176.429 266.838 177.321 266.88 178.208 266.805L360.745 251.409L277.644 239.994C276.715 239.866 275.777 239.836 274.844 239.906V239.906Z" fill="url(#paint7_linear_324_839)"/>
<path style="mix-blend-mode:multiply" opacity="0.3" d="M124.476 253.232L271.049 242.249L316.412 248.429L171.102 260.17L124.476 253.232Z" fill="url(#paint8_linear_324_839)"/>
<path d="M267.008 164.417L113.734 166.438V142.335H267.008V164.417Z" fill="#D8DEE8"/>
<path d="M218.407 207.41L121.3 211.077V170.635L218.407 169.126V207.41Z" fill="#D8DEE8"/>
<path d="M260.607 179.674L224.079 180.485V169.037L260.607 168.469V179.674Z" fill="#D8DEE8"/>
<path d="M260.607 205.816L224.079 207.195V184.539L260.607 183.642V205.816Z" fill="#D8DEE8"/>
<path d="M260.608 210.951L121.3 216.638V226.242L260.608 219.821V210.951Z" fill="#D8DEE8"/>
<path d="M303.665 157.33L172.092 158.982C171.346 158.991 170.737 158.39 170.737 157.644V136.073C170.737 135.334 171.336 134.734 172.075 134.734H303.648C304.387 134.734 304.987 135.334 304.987 136.073V155.992C304.987 156.725 304.398 157.321 303.665 157.33Z" fill="url(#paint9_linear_324_839)"/>
<path d="M274.647 201.35L191.139 204.392V163.942L274.647 162.666V201.35Z" fill="url(#paint10_linear_324_839)"/>
<path d="M311.472 173.475L279.579 174.165V162.591L311.472 162.104V173.475Z" fill="url(#paint11_linear_324_839)"/>
<path d="M311.472 200.008L279.579 201.17V178.263L311.472 177.503V200.008Z" fill="url(#paint12_linear_324_839)"/>
<path d="M315.143 204.234L195.319 208.891V218.477L315.143 213.217V204.234Z" fill="url(#paint13_linear_324_839)"/>
<path d="M177.537 139.248C177.68 138.365 177.081 137.533 176.198 137.39C175.315 137.246 174.483 137.846 174.339 138.729C174.196 139.612 174.796 140.444 175.679 140.587C176.562 140.731 177.394 140.131 177.537 139.248Z" fill="url(#paint14_linear_324_839)"/>
<path d="M182.836 139.354C183.042 138.483 182.503 137.61 181.632 137.405C180.761 137.199 179.889 137.739 179.683 138.609C179.478 139.48 180.017 140.352 180.888 140.558C181.758 140.763 182.631 140.224 182.836 139.354Z" fill="url(#paint15_linear_324_839)"/>
<path d="M188.184 139.248C188.327 138.365 187.727 137.533 186.844 137.39C185.961 137.246 185.129 137.846 184.986 138.729C184.843 139.612 185.442 140.444 186.325 140.587C187.208 140.731 188.04 140.131 188.184 139.248Z" fill="url(#paint16_linear_324_839)"/>
<path d="M67.664 331.227L61.6054 327.586H58.8711C58.8711 327.586 57.9395 331.054 58.0455 331.227C59.2641 333.223 64.9364 334.742 68.4761 334.868C69.0635 334.889 69.884 334.892 70.0961 334.466C70.4546 333.744 68.8514 332.231 67.6648 331.227H67.664Z" fill="url(#paint17_linear_324_839)"/>
<path d="M61.4982 323.614C61.4881 325.735 61.579 327.232 62.11 327.89C62.4837 328.354 58.8909 329.396 58.8716 327.587C58.859 326.397 58.6713 324.354 58.4811 323.755C59.4868 323.709 60.4925 323.661 61.499 323.615L61.4982 323.614Z" fill="url(#paint18_linear_324_839)"/>
<path d="M108.174 326.449L102.115 322.808H99.3808C99.3808 322.808 98.4491 326.275 98.5552 326.449C99.7738 328.445 105.446 329.964 108.986 330.089C109.573 330.11 110.394 330.113 110.606 329.687C110.964 328.966 109.361 327.453 108.174 326.449H108.174Z" fill="url(#paint19_linear_324_839)"/>
<path d="M100.275 318.862C101.158 320.55 102.089 322.454 102.62 323.112C102.994 323.576 100.008 324.506 99.3815 322.809C98.8732 321.433 97.4484 319.602 97.2582 319.002C98.2639 318.956 99.2696 318.909 100.276 318.863L100.275 318.862Z" fill="url(#paint20_linear_324_839)"/>
<path d="M99.0283 219.536C96.6837 235.126 95.1529 254.516 96.5356 276.664C97.5573 293.023 99.96 307.548 102.767 319.874C100.897 320.359 99.0283 320.844 97.1583 321.329C94.8305 320.789 91.5307 319.623 89.2643 316.758C86.2843 312.992 87.6434 309.52 85.5252 303.255C83.5028 297.275 81.0867 296.957 78.6696 291.829C75.5171 285.14 77.4426 281.044 77.2154 272.094C76.8316 256.953 70.9953 255.78 69.1135 236.985C68.1288 227.146 67.6424 221.495 71.1905 217.873C76.1592 212.801 87.0846 213.7 99.0275 219.535L99.0283 219.536Z" fill="url(#paint21_linear_324_839)"/>
<path d="M86.1481 220.574C79.7445 235.475 73.0893 254.56 68.6979 277.288C65.1886 295.451 63.9136 311.856 63.7124 325.691H57.4805C55.6778 323.068 53.3088 319.002 51.8714 313.642C50.4382 308.298 51.3395 306.922 50.4171 298.477C49.1598 286.969 47.5128 286.439 47.7165 279.573C47.9504 271.682 50.3489 271.713 51.2478 263.785C52.5783 252.055 47.7342 248.436 47.9235 237.609C48.0085 232.745 49.1278 225.419 54.5712 216.42C65.0968 217.805 75.6225 219.189 86.1481 220.574Z" fill="url(#paint22_linear_324_839)"/>
<path d="M167.999 218.752L170.442 220.917C170.442 220.917 175.805 220.706 177.737 221.196C179.668 221.688 183 223.362 183 223.362C183 223.362 182.167 224.591 180.986 224.126C179.804 223.66 177.98 223.03 177.629 223.201C177.278 223.372 176.452 225.596 173.64 225.968C170.827 226.34 169.519 223.029 169.519 223.029L166.856 220.769L168 218.752H167.999Z" fill="url(#paint23_linear_324_839)"/>
<path d="M140.004 161.733C140.994 161.854 142.934 162.452 147.327 170.614C153.428 181.947 153.416 188.395 156.675 195.387C159.108 200.607 163.932 207.343 174.527 213.343C173.726 214.286 172.926 215.229 172.126 216.171C167.83 216.515 161.065 216.531 153.294 214.2C150.871 213.474 146.447 212.113 141.711 209.038C138.175 206.741 127.302 199.68 125.67 187.908C123.887 175.041 133.786 160.97 140.004 161.734V161.733Z" fill="url(#paint24_linear_324_839)"/>
<path d="M84.2263 147.242C90.5987 145.201 95.5868 145.766 104.481 146.775C117.46 148.247 125.781 152.55 132.993 156.279C140.081 159.944 141.958 162.013 142.965 164.381C145.313 169.904 142.453 175.936 140.628 179.65C135.97 189.132 131.647 188.802 121.776 200.216C113.092 210.257 108.749 215.278 105.884 222.652C104.616 225.914 103.378 230.138 99.3394 232.624C95.4193 235.037 90.969 234.514 88.4333 234.182C77.7789 232.787 76.8347 225.912 69.8924 226.391C64.3607 226.774 63.1606 231.265 53.6886 232.779C49.4546 233.456 48.22 232.794 47.6124 232.312C45.3073 230.481 45.5758 226.105 47.7681 217.199C51.1387 203.505 54.1431 199.066 56.9607 188.219C59.8869 176.954 57.6331 177.945 60.0771 171.548C60.8985 169.399 67.6269 152.56 84.2271 147.242H84.2263Z" fill="url(#paint25_linear_324_839)"/>
<path d="M85.5336 204.014L107.993 179.363C108.535 178.647 109.429 178.29 110.315 178.435L136.036 182.639C137.139 182.819 137.646 184.113 136.961 184.995L116.052 211.897C115.491 212.618 114.572 212.963 113.675 212.788L87.0013 207.854C85.2424 207.511 84.4522 205.443 85.5336 204.014Z" fill="url(#paint26_linear_324_839)"/>
<path d="M84.5897 196.078L89.3977 193.98C89.3977 193.98 91.2332 191.358 92.7194 190.921C94.2056 190.484 99.5379 191.096 99.5379 191.096C99.5379 191.096 99.0136 193.194 97.9641 193.544C96.9155 193.894 93.6805 194.155 93.1562 195.205C92.6319 196.254 90.7089 197.04 90.0095 196.691C89.3102 196.341 84.8523 197.827 84.8523 197.827L84.5897 196.079V196.078Z" fill="url(#paint27_linear_324_839)"/>
<path style="mix-blend-mode:multiply" opacity="0.3" d="M86.2524 228.573C84.0365 225.866 85.2315 222.62 82.2018 219.847C77.2651 215.33 68.3317 218.672 67.868 217.043C67.3117 215.091 80.6929 212.261 82.2018 204.578C82.886 201.095 80.3663 200.503 80.6441 195.854C80.9041 191.495 83.6258 187.903 89.0573 180.896C93.346 175.365 94.5066 174.914 94.6665 172.794C95.1479 166.422 87.0981 161.988 83.7604 159.707C79.6779 156.918 75.4119 155.472 71.4296 154.811C63.9976 161.656 60.643 170.071 60.0783 171.549C57.6344 177.946 59.8881 176.956 56.962 188.22C54.1443 199.066 51.1399 203.506 47.7694 217.2C45.577 226.106 45.3086 230.482 47.6137 232.313C48.2213 232.796 49.4567 233.457 53.6899 232.78C63.1619 231.266 64.362 226.774 69.8937 226.392C76.8359 225.912 77.7802 232.788 88.4346 234.183C90.9703 234.514 95.4214 235.038 99.3406 232.625C100.223 232.082 100.966 231.452 101.61 230.771C92.1897 232.502 88.1122 230.844 86.2532 228.574L86.2524 228.573Z" fill="url(#paint28_linear_324_839)"/>
<path d="M129.773 140.491C128.35 143.911 123.022 152.54 111.506 148.312C108.424 147.18 107.898 147.579 107.72 147.816C106.85 148.975 113.024 156.68 121.76 159.029C127.089 160.461 132.789 159.743 133.092 158.26C133.396 156.766 129.589 156.902 129.151 153.787C128.847 151.619 133.232 149.021 135.488 147.556C135.12 144.721 130.144 143.332 129.775 140.492L129.773 140.491Z" fill="url(#paint29_linear_324_839)"/>
<path d="M139.353 147.252C141.327 146.604 142.926 144.371 142.633 142.177C142.381 140.289 140.791 139.087 139.838 138.366C137.075 136.277 132.573 135.133 129.611 136.798C127.855 137.785 127.497 141.807 127.394 142.506C127.277 143.297 127.675 143.83 127.861 144.591C128.118 145.648 128.511 147.316 129.124 150.079C129.601 149.656 130.231 149.155 131.018 148.676C131.321 148.491 132.519 147.779 133.861 147.398C136.549 146.634 137.479 147.866 139.351 147.252H139.353Z" fill="url(#paint30_linear_324_839)"/>
<path d="M127.575 147.138C127.575 147.138 127.598 151.178 131.651 153.272C135.272 155.143 140.485 148.465 139.263 145.656C138.855 144.718 137.508 143.624 136.096 143.204C135.261 142.956 134.84 143.077 133.484 142.647C132.23 142.249 131.997 141.959 131.504 142.009C130.887 142.073 130.079 142.647 129.383 145.101C129.123 144.1 128.478 143.39 127.75 143.291C127.634 143.275 127.295 143.278 127.011 143.418C125.983 143.926 126.112 145.436 127.576 147.139L127.575 147.138Z" fill="url(#paint31_linear_324_839)"/>
<path d="M104.793 149.424C100.582 142.315 80.7558 144.915 67.3999 152.696C63.0506 155.23 49.7864 162.956 48.859 176.378C48.758 177.836 48.4988 183.764 51.9754 189.31C57.8218 198.638 71.6465 202.754 86.253 199.125C86.0973 197.567 85.9416 196.009 85.7859 194.451C84.542 194.494 79.591 194.522 75.1912 190.867C74.3101 190.135 69.0729 185.785 69.8935 181.831C71.272 175.192 87.8293 178.812 98.5619 167.652C103.374 162.649 107.566 154.102 104.794 149.423L104.793 149.424Z" fill="url(#paint32_linear_324_839)"/>
</g>
<defs>
<linearGradient id="paint0_linear_324_839" x1="220.045" y1="14.5696" x2="277.346" y2="196.885" gradientUnits="userSpaceOnUse">
<stop stop-color="#E38DDD"/>
<stop offset="1" stop-color="#9571F6"/>
</linearGradient>
<linearGradient id="paint1_linear_324_839" x1="347.77" y1="470.515" x2="337.223" y2="423.988" gradientUnits="userSpaceOnUse">
<stop stop-color="#AA80F9"/>
<stop offset="1" stop-color="#6165D7"/>
</linearGradient>
<linearGradient id="paint2_linear_324_839" x1="343.213" y1="173.95" x2="150.739" y2="245.647" gradientUnits="userSpaceOnUse">
<stop stop-color="#FF9085"/>
<stop offset="1" stop-color="#FB6FBB"/>
</linearGradient>
<linearGradient id="paint3_linear_324_839" x1="209" y1="186.116" x2="341" y2="186.116" gradientUnits="userSpaceOnUse">
<stop stop-color="#FF9085"/>
<stop offset="1" stop-color="#FB6FBB"/>
</linearGradient>
<linearGradient id="paint4_linear_324_839" x1="209.437" y1="261.479" x2="191.035" y2="269.208" gradientUnits="userSpaceOnUse">
<stop stop-color="#40447E"/>
<stop offset="1" stop-color="#3C3B6B"/>
</linearGradient>
<linearGradient id="paint5_linear_324_839" x1="184.865" y1="180.375" x2="164.893" y2="188.762" gradientUnits="userSpaceOnUse">
<stop stop-color="#40447E"/>
<stop offset="1" stop-color="#3C3B6B"/>
</linearGradient>
<linearGradient id="paint6_linear_324_839" x1="98.7861" y1="184.916" x2="283.862" y2="184.916" gradientUnits="userSpaceOnUse">
<stop stop-color="#40447E"/>
<stop offset="1" stop-color="#3C3B6B"/>
</linearGradient>
<linearGradient id="paint7_linear_324_839" x1="98.7864" y1="253.356" x2="360.746" y2="253.356" gradientUnits="userSpaceOnUse">
<stop stop-color="#40447E"/>
<stop offset="1" stop-color="#3C3B6B"/>
</linearGradient>
<linearGradient id="paint8_linear_324_839" x1="124.476" y1="251.21" x2="316.412" y2="251.21" gradientUnits="userSpaceOnUse">
<stop stop-color="#40447E"/>
<stop offset="1" stop-color="#3C3B6B"/>
</linearGradient>
<linearGradient id="paint9_linear_324_839" x1="266.978" y1="108.003" x2="215.951" y2="174.651" gradientUnits="userSpaceOnUse">
<stop stop-color="#FF9085"/>
<stop offset="1" stop-color="#FB6FBB"/>
</linearGradient>
<linearGradient id="paint10_linear_324_839" x1="219.452" y1="196.663" x2="268.05" y2="145.982" gradientUnits="userSpaceOnUse">
<stop stop-color="#E38DDD"/>
<stop offset="1" stop-color="#9571F6"/>
</linearGradient>
<linearGradient id="paint11_linear_324_839" x1="296.02" y1="167.134" x2="254.364" y2="242.808" gradientUnits="userSpaceOnUse">
<stop stop-color="#FFC444"/>
<stop offset="1" stop-color="#F36F56"/>
</linearGradient>
<linearGradient id="paint12_linear_324_839" x1="304.935" y1="172.041" x2="263.28" y2="247.714" gradientUnits="userSpaceOnUse">
<stop stop-color="#FFC444"/>
<stop offset="1" stop-color="#F36F56"/>
</linearGradient>
<linearGradient id="paint13_linear_324_839" x1="231.201" y1="221.052" x2="294.613" y2="194.669" gradientUnits="userSpaceOnUse">
<stop stop-color="#E38DDD"/>
<stop offset="1" stop-color="#9571F6"/>
</linearGradient>
<linearGradient id="paint14_linear_324_839" x1="176.444" y1="137.447" x2="175.44" y2="140.528" gradientUnits="userSpaceOnUse">
<stop offset="0.49" stop-color="#EBEFF2"/>
<stop offset="1" stop-color="white"/>
</linearGradient>
<linearGradient id="paint15_linear_324_839" x1="181.759" y1="137.442" x2="180.755" y2="140.523" gradientUnits="userSpaceOnUse">
<stop offset="0.49" stop-color="#EBEFF2"/>
<stop offset="1" stop-color="white"/>
</linearGradient>
<linearGradient id="paint16_linear_324_839" x1="187.09" y1="63.8625" x2="186.086" y2="63.8625" gradientUnits="userSpaceOnUse">
<stop offset="0.49" stop-color="#EBEFF2"/>
<stop offset="1" stop-color="white"/>
</linearGradient>
<linearGradient id="paint17_linear_324_839" x1="70.1458" y1="331.23" x2="58.0363" y2="331.23" gradientUnits="userSpaceOnUse">
<stop stop-color="#311944"/>
<stop offset="1" stop-color="#6B3976"/>
</linearGradient>
<linearGradient id="paint18_linear_324_839" x1="61.802" y1="330.543" x2="51.7804" y2="300.476" gradientUnits="userSpaceOnUse">
<stop stop-color="#FFC444"/>
<stop offset="1" stop-color="#F36F56"/>
</linearGradient>
<linearGradient id="paint19_linear_324_839" x1="110.656" y1="326.453" x2="98.5468" y2="326.453" gradientUnits="userSpaceOnUse">
<stop stop-color="#311944"/>
<stop offset="1" stop-color="#6B3976"/>
</linearGradient>
<linearGradient id="paint20_linear_324_839" x1="101.668" y1="326.227" x2="90.6308" y2="293.117" gradientUnits="userSpaceOnUse">
<stop stop-color="#FFC444"/>
<stop offset="1" stop-color="#F36F56"/>
</linearGradient>
<linearGradient id="paint21_linear_324_839" x1="74.1764" y1="201.06" x2="100.975" y2="302.021" gradientUnits="userSpaceOnUse">
<stop stop-color="#311944"/>
<stop offset="1" stop-color="#6B3976"/>
</linearGradient>
<linearGradient id="paint22_linear_324_839" x1="41.1648" y1="271.056" x2="79.6141" y2="271.056" gradientUnits="userSpaceOnUse">
<stop stop-color="#311944"/>
<stop offset="1" stop-color="#6B3976"/>
</linearGradient>
<linearGradient id="paint23_linear_324_839" x1="178.067" y1="211.332" x2="166.642" y2="250.387" gradientUnits="userSpaceOnUse">
<stop stop-color="#FFC444"/>
<stop offset="1" stop-color="#F36F56"/>
</linearGradient>
<linearGradient id="paint24_linear_324_839" x1="99.7" y1="240.153" x2="167.276" y2="177.04" gradientUnits="userSpaceOnUse">
<stop stop-color="#AA80F9"/>
<stop offset="1" stop-color="#6165D7"/>
</linearGradient>
<linearGradient id="paint25_linear_324_839" x1="71.3139" y1="207.01" x2="137.375" y2="145.311" gradientUnits="userSpaceOnUse">
<stop stop-color="#AA80F9"/>
<stop offset="1" stop-color="#6165D7"/>
</linearGradient>
<linearGradient id="paint26_linear_324_839" x1="123.188" y1="181.137" x2="99.2345" y2="209.822" gradientUnits="userSpaceOnUse">
<stop stop-color="#444B8C"/>
<stop offset="1" stop-color="#26264F"/>
</linearGradient>
<linearGradient id="paint27_linear_324_839" x1="94.0634" y1="186.757" x2="82.6381" y2="225.812" gradientUnits="userSpaceOnUse">
<stop stop-color="#FFC444"/>
<stop offset="1" stop-color="#F36F56"/>
</linearGradient>
<linearGradient id="paint28_linear_324_839" x1="71.3118" y1="207.008" x2="137.373" y2="145.308" gradientUnits="userSpaceOnUse">
<stop stop-color="#AA80F9"/>
<stop offset="1" stop-color="#6165D7"/>
</linearGradient>
<linearGradient id="paint29_linear_324_839" x1="108.487" y1="163.578" x2="139.055" y2="136.799" gradientUnits="userSpaceOnUse">
<stop stop-color="#FFC444"/>
<stop offset="1" stop-color="#F36F56"/>
</linearGradient>
<linearGradient id="paint30_linear_324_839" x1="117.349" y1="154.622" x2="138.827" y2="138.984" gradientUnits="userSpaceOnUse">
<stop stop-color="#311944"/>
<stop offset="1" stop-color="#6B3976"/>
</linearGradient>
<linearGradient id="paint31_linear_324_839" x1="134.01" y1="144.062" x2="116.653" y2="174.553" gradientUnits="userSpaceOnUse">
<stop stop-color="#FFC444"/>
<stop offset="1" stop-color="#F36F56"/>
</linearGradient>
<linearGradient id="paint32_linear_324_839" x1="57.8404" y1="192.583" x2="123.902" y2="130.885" gradientUnits="userSpaceOnUse">
<stop stop-color="#AA80F9"/>
<stop offset="1" stop-color="#6165D7"/>
</linearGradient>
<clipPath id="clip0_324_839">
<rect width="378" height="393" fill="white"/>
</clipPath>
</defs>
</svg>
