<svg width="514" height="559" viewBox="0 0 514 559" fill="none" xmlns="http://www.w3.org/2000/svg">
<path d="M202.842 329.377C232.023 295.489 226.798 236.912 207.755 224.712C197.85 218.365 188.307 227.19 178.883 219.08C168.442 210.094 174.996 194.818 168.511 165.512C165.159 150.369 159.083 122.91 142.486 116.121C126.027 109.388 115.632 129.694 97.5559 123.512C80.4626 117.667 83.2601 97.2887 61.2206 83.4187C59.1704 82.1283 35.9414 67.9155 21.1455 78.4486C6.11366 89.149 5.09691 121.609 16.9038 139.552C27.6308 155.854 45.7873 155.382 46.5531 166.074C47.397 177.857 25.6233 182.291 25.417 194.486C25.1215 212.112 70.3974 215.711 75.9663 242.358C79.2396 258.027 65.0516 263.807 65.1891 284.396C65.3638 310.968 89.2137 333.966 108.262 344.021C135.867 358.595 177.554 358.75 202.846 329.377H202.842Z" fill="url(#paint0_linear_248_205)"/>
<mask id="mask0_248_205" style="mask-type:luminance" maskUnits="userSpaceOnUse" x="8" y="74" width="216" height="280">
<path d="M202.842 329.377C232.023 295.489 226.798 236.912 207.755 224.712C197.85 218.365 188.307 227.19 178.883 219.08C168.442 210.094 174.996 194.818 168.511 165.512C165.159 150.369 159.083 122.91 142.486 116.121C126.027 109.388 115.632 129.694 97.5559 123.512C80.4626 117.667 83.2601 97.2887 61.2206 83.4187C59.1704 82.1283 35.9414 67.9155 21.1455 78.4486C6.11366 89.149 5.09691 121.609 16.9038 139.552C27.6308 155.854 45.7873 155.382 46.5531 166.074C47.397 177.857 25.6233 182.291 25.417 194.486C25.1215 212.112 70.3974 215.711 75.9663 242.358C79.2396 258.027 65.0516 263.807 65.1891 284.396C65.3638 310.968 89.2137 333.966 108.262 344.021C135.867 358.595 177.554 358.75 202.846 329.377H202.842Z" fill="white"/>
</mask>
<g mask="url(#mask0_248_205)">
<g style="mix-blend-mode:soft-light" opacity="0.7">
<path d="M189.818 357.938L191.043 357.311C168.689 305.823 144.956 258.658 120.504 217.122C100.937 183.886 80.8678 154.16 60.8545 128.769C26.746 85.4995 4.29764 69.6072 4.07459 69.4519L3.34223 70.6879C3.56343 70.8431 25.8947 86.6629 59.8879 129.805C91.2658 169.627 139.278 241.532 189.818 357.938Z" fill="white"/>
<path d="M63.9884 133.041C63.5646 87.4896 43.9341 54.352 43.7352 54.0233L42.6013 54.8258C42.7984 55.1524 62.2132 87.9493 62.6333 133.056L63.9884 133.041Z" fill="white"/>
<path d="M124.12 223C137.914 175.684 138.776 143.982 137.07 125.72C135.211 105.828 130.122 97.2827 129.908 96.9279L128.778 97.7384C128.83 97.8231 133.932 106.435 135.739 126.033C137.408 144.141 136.523 175.585 122.83 222.558L124.121 223.002L124.12 223Z" fill="white"/>
<path d="M171.132 314.104C211.768 239.38 204.811 188.786 204.736 188.282L203.398 188.518C203.417 188.645 205.184 201.765 201.662 224.222C198.56 243.998 190.545 275.514 169.964 313.356L171.132 314.102V314.104Z" fill="white"/>
<path d="M101.991 213.108C106.681 213.001 111.445 212.616 116.257 211.9L116.073 210.445C84.6244 215.128 55.161 205.499 35.9822 196.595C15.1919 186.943 1.69164 176.055 1.55967 175.946L0.747389 177.121C0.883079 177.23 14.5116 188.225 35.4506 197.946C51.8561 205.561 75.7358 213.705 101.993 213.108H101.991Z" fill="white"/>
<path d="M154.639 297.975C157.17 297.917 159.736 297.764 162.334 297.502L162.21 296.038C129.255 299.351 101.513 285.319 84.0408 272.966C65.0943 259.569 53.8246 245.223 53.7131 245.08L52.6777 246.028C52.7911 246.173 64.191 260.684 83.301 274.197C99.5782 285.706 124.688 298.655 154.639 297.975Z" fill="white"/>
</g>
</g>
<path d="M200.868 355.98C153.49 350.407 118.593 296.822 126.484 271.484C130.588 258.303 144.568 258.22 147.083 243.931C149.869 228.099 134.084 220.377 119.893 190.508C112.56 175.075 99.266 147.091 108.723 128.255C118.103 109.574 140.507 118.512 151.622 99.0187C162.131 80.5859 146.094 65.5867 155.397 36.4736C156.263 33.7657 166.34 3.42269 185.9 0.634174C205.772 -2.20072 228.413 24.4062 230.486 48.8798C232.369 71.1134 216.72 85.0539 223.25 94.6857C230.445 105.301 251.804 91.8508 260.161 101.987C272.239 116.637 236.425 155.426 249.603 182.321C257.354 198.137 277.481 191.709 281.766 214.187C288.673 250.419 285.136 261.17 275.801 284.702C262.273 318.806 241.932 360.813 200.866 355.984L200.868 355.98Z" fill="url(#paint1_linear_248_205)"/>
<mask id="mask1_248_205" style="mask-type:luminance" maskUnits="userSpaceOnUse" x="105" y="0" width="181" height="357">
<path d="M200.868 355.98C153.49 350.407 118.593 296.822 126.484 271.484C130.588 258.303 144.568 258.22 147.083 243.931C149.869 228.099 134.084 220.377 119.893 190.508C112.56 175.075 99.266 147.091 108.723 128.255C118.103 109.574 140.507 118.512 151.622 99.0187C162.131 80.5859 146.094 65.5867 155.397 36.4736C156.263 33.7657 166.34 3.42269 185.9 0.634174C205.772 -2.20072 228.413 24.4062 230.486 48.8798C232.369 71.1134 216.72 85.0539 223.25 94.6857C230.445 105.301 251.804 91.8508 260.161 101.987C272.239 116.637 236.425 155.426 249.603 182.321C257.354 198.137 277.481 191.709 281.766 214.187C288.673 250.419 285.136 261.17 275.801 284.702C262.273 318.806 241.932 360.813 200.866 355.984L200.868 355.98Z" fill="white"/>
</mask>
<g mask="url(#mask1_248_205)">
<g style="mix-blend-mode:soft-light" opacity="0.7">
<path d="M231.031 369.812L229.575 370.251C213.898 309.128 202.287 250.563 195.061 196.183C189.281 152.67 186.277 111.723 186.138 74.4806C185.9 11.014 194.192 -20.1315 194.275 -20.438L195.723 -19.9742C195.64 -19.6678 187.401 11.3225 187.649 74.5915C187.877 132.991 195.589 231.616 231.031 369.812Z" fill="white"/>
<path d="M186.359 80.5636C156.148 41.7663 150.488 -1.71281 150.434 -2.14833L151.931 -2.36609C151.983 -1.93662 157.6 41.0889 187.513 79.5071L186.359 80.5636Z" fill="white"/>
<path d="M195.952 204.001C152.553 174.94 130.551 148.853 119.737 132.086C107.956 113.822 106.519 102.588 106.463 102.12L107.961 101.91C107.974 102.023 109.446 113.322 121.071 131.295C131.813 147.901 153.661 173.754 196.745 202.605L195.952 204.001Z" fill="white"/>
<path d="M217.395 318.046C132.938 287.037 104.861 238.824 104.588 238.34L105.874 237.483C105.943 237.604 113.255 250.079 131.298 266.259C147.187 280.508 175.106 300.79 217.876 316.493L217.393 318.046H217.395Z" fill="white"/>
<path d="M208 178.174C203.969 181.787 199.69 185.223 195.143 188.419L194.322 187.044C224.019 166.167 242.434 134.77 252.654 112.109C263.73 87.5421 267.823 67.6898 267.864 67.4922L269.34 67.843C269.299 68.0426 265.167 88.0865 254.012 112.826C245.271 132.211 230.573 157.943 208.002 178.172L208 178.174Z" fill="white"/>
<path d="M220.497 291.402C218.32 293.354 216.051 295.248 213.681 297.078L212.805 295.744C242.854 272.522 256.862 238.767 263.325 214.54C270.332 188.268 270.223 167.256 270.221 167.046L271.732 167.03C271.732 167.242 271.845 188.495 264.777 214.995C258.756 237.566 246.243 268.326 220.497 291.4V291.402Z" fill="white"/>
</g>
</g>
<path d="M309.018 27.5825L210.892 46.7727L258.916 335.717L357.042 316.527L309.018 27.5825Z" fill="url(#paint2_linear_248_205)"/>
<path d="M297.465 42.8653L223.45 57.3401L231.53 105.951L305.544 91.4765L297.465 42.8653Z" fill="url(#paint3_linear_248_205)"/>
<path d="M306.922 99.7602L232.908 114.235L240.987 162.848L315.002 148.373L306.922 99.7602Z" fill="url(#paint4_linear_248_205)"/>
<path d="M316.377 156.653L242.363 171.128L250.442 219.739L324.457 205.264L316.377 156.653Z" fill="url(#paint5_linear_248_205)"/>
<path d="M325.835 213.548L251.82 228.023L259.9 276.636L333.914 262.161L325.835 213.548Z" fill="url(#paint6_linear_248_205)"/>
<g style="mix-blend-mode:multiply" opacity="0.3">
<path d="M309.019 27.5879L256.854 37.7883C264.36 46.3091 271.106 56.9873 274.74 70.1375C281.658 95.1616 272.424 111.419 271.271 145.296C270.07 180.652 278.965 197.204 285.935 230.083C291.021 254.071 295.121 286.961 292.279 329.198L357.037 316.535L309.019 27.5879Z" fill="url(#paint7_linear_248_205)"/>
</g>
<path d="M422.607 67.3843L328.123 32.8328L241.657 311.051L336.141 345.603L422.607 67.3843Z" fill="url(#paint8_linear_248_205)"/>
<path d="M405.689 74.7262L334.422 48.6648L319.876 95.4715L391.143 121.533L405.689 74.7262Z" fill="url(#paint9_linear_248_205)"/>
<path d="M388.665 129.506L317.398 103.445L302.852 150.251L374.119 176.313L388.665 129.506Z" fill="url(#paint10_linear_248_205)"/>
<path d="M371.641 184.288L300.374 158.227L285.827 205.033L357.094 231.095L371.641 184.288Z" fill="url(#paint11_linear_248_205)"/>
<path d="M354.615 239.07L283.348 213.008L268.801 259.815L340.068 285.877L354.615 239.07Z" fill="url(#paint12_linear_248_205)"/>
<g style="mix-blend-mode:multiply" opacity="0.3">
<path d="M422.62 67.361L360.39 44.6093C365.955 62.8324 365.107 76.4847 362.829 86.2516C356.423 113.697 336.821 118.653 323.733 151.281C311.461 181.876 318.354 203.301 317.255 229.166C316.209 253.774 307.772 286.037 277.886 324.276L336.17 345.586L422.62 67.361Z" fill="url(#paint13_linear_248_205)"/>
</g>
<path d="M514 159.996L446.6 80.2924L247.139 278.761L314.539 358.465L514 159.996Z" fill="url(#paint14_linear_248_205)"/>
<path d="M495.921 157.573L445.082 97.4545L411.525 130.844L462.364 190.963L495.921 157.573Z" fill="url(#paint15_linear_248_205)"/>
<path d="M456.644 196.656L405.805 136.537L372.249 169.927L423.087 230.046L456.644 196.656Z" fill="url(#paint16_linear_248_205)"/>
<path d="M417.367 235.735L366.528 175.617L332.972 209.006L383.81 269.125L417.367 235.735Z" fill="url(#paint17_linear_248_205)"/>
<path d="M378.092 274.815L327.253 214.696L293.696 248.086L344.535 308.205L378.092 274.815Z" fill="url(#paint18_linear_248_205)"/>
<g style="mix-blend-mode:multiply" opacity="0.3">
<path d="M513.986 160.007L470.73 108.852C469.065 135.296 460.916 150.242 453.388 159.185C435.791 180.092 416.354 174.416 390.61 196.466C366.47 217.143 363.215 239.558 350.981 261.793C340.135 281.505 320.733 303.784 283.351 321.61L314.517 358.468L513.984 160.007H513.986Z" fill="url(#paint19_linear_248_205)"/>
</g>
<path d="M303.591 311.552C307.732 307.06 307.732 299.777 303.591 295.285C299.45 290.793 292.736 290.793 288.594 295.285C284.453 299.777 284.453 307.06 288.594 311.552C292.736 316.045 299.45 316.045 303.591 311.552Z" fill="url(#paint20_linear_248_205)"/>
<path d="M330.867 530.981C324.058 528.532 318.969 522.263 317.534 514.559L307.623 461.351L222.846 464.617L212.413 520.047C210.952 527.81 216.802 535.599 223.538 538.458L259.007 553.511C265.604 556.312 272.695 557.427 279.743 556.772L354.702 549.815C356.893 549.612 358.65 547.743 358.907 545.347C359.161 542.95 360.697 540.258 358.607 539.506L330.869 530.981H330.867Z" fill="#97A6B7"/>
<path d="M331.707 527.745C324.904 525.326 319.82 519.136 318.387 511.528L308.487 458.99L225.776 462.218L215.352 516.95C213.893 524.616 217.755 532.302 224.484 535.125L259.918 549.989C266.509 552.753 273.593 553.854 280.634 553.209L355.516 546.339C357.706 546.138 359.46 544.293 359.715 541.926C359.97 539.559 358.654 537.325 356.566 536.583L331.707 527.741V527.745Z" fill="url(#paint21_linear_248_205)"/>
<path d="M49.6145 496.714C40.421 497.309 32.9004 490.839 32.9004 482.29V174.137C32.9004 165.588 40.421 158.985 49.6145 159.416L474.779 179.4C481.528 179.716 486.994 185.89 486.994 193.161V455.244C486.994 462.514 481.53 468.785 474.779 469.22L49.6145 496.714Z" fill="url(#paint22_linear_248_205)"/>
<path d="M53.4361 496.714C44.2426 497.309 36.722 490.839 36.722 482.29V174.137C36.722 165.588 44.2426 158.985 53.4361 159.416L478.6 179.4C485.349 179.716 490.816 185.89 490.816 193.161V455.244C490.816 462.514 485.351 468.785 478.6 469.22L53.4361 496.714Z" fill="url(#paint23_linear_248_205)"/>
<g style="mix-blend-mode:multiply" opacity="0.3">
<path d="M478.6 185.568L53.4361 166.594C48.5215 166.375 44.5252 169.897 44.5252 174.464V481.824C44.5252 486.389 48.5215 489.841 53.4361 489.537L478.6 463.053C482.217 462.827 485.143 459.482 485.143 455.58V192.923C485.143 189.022 482.217 185.729 478.6 185.568Z" fill="#D8DEE8"/>
</g>
<path d="M480.717 192.758V437.66C480.717 439.182 479.792 440.482 478.383 440.559L53.2651 463.359C51.3506 463.462 49.845 462.097 49.845 460.327V174.69C49.845 172.92 51.4602 171.536 53.3748 171.619L478.351 189.882C479.76 189.947 480.716 191.233 480.716 192.756L480.717 192.758Z" fill="#D8DEE8"/>
<path opacity="0.7" d="M481.113 193.052L481.351 234.281L49.845 225.234V174.678C49.845 172.913 51.4342 171.536 53.3153 171.619L478.558 190.135C479.993 190.201 481.104 191.506 481.115 193.05L481.113 193.052Z" fill="white"/>
<g opacity="0.5">
<path d="M326.469 351.135L75.206 355.77L75.1001 245.238L325.464 249.008L326.469 351.135Z" fill="white"/>
<path d="M463.79 348.602L340.888 350.869L339.834 249.224L462.355 251.071L463.79 348.602Z" fill="white"/>
<path d="M464.862 421.436L75.2841 438.377L75.2191 370.267L463.977 361.39L464.862 421.436Z" fill="white"/>
</g>
<path d="M231.941 337.487C232.952 341.017 231.343 344.429 228.432 345.409L23.8166 414.359C20.9058 415.339 17.7979 413.519 16.7867 409.988L0.310576 352.453C-0.700595 348.923 0.838467 345.265 3.7493 344.285L208.365 275.335C211.276 274.355 214.454 276.421 215.465 279.952L231.941 337.487Z" fill="url(#paint24_linear_248_205)"/>
<path d="M221.337 277.974L237.815 335.509C238.824 339.035 237.215 342.449 234.306 343.429L29.6922 412.379C26.7832 413.359 23.6735 411.537 22.6623 408.01L6.18429 350.475C5.17312 346.943 6.71218 343.287 9.62302 342.305L214.237 273.355C217.145 272.375 220.326 274.439 221.337 277.972V277.974Z" fill="url(#paint25_linear_248_205)"/>
<path style="mix-blend-mode:multiply" opacity="0.2" d="M233.073 318.959L237.813 335.511C238.822 339.037 237.213 342.451 234.304 343.431L29.6903 412.381C26.7813 413.361 23.6716 411.539 22.6604 408.012L6.18243 350.478C5.17126 346.945 6.71032 343.289 9.62116 342.308L35.7815 333.492C42.5939 333.095 49.5754 334.236 55.6666 338.273C76.26 351.921 77.9477 370.084 131.123 349.308C169.862 334.172 210.649 318.027 233.073 318.961V318.959Z" fill="url(#paint26_linear_248_205)"/>
<path d="M75.8789 546.728C76.3473 546.293 76.8752 546.448 79.2414 546.894C82.1504 547.442 82.7564 547.474 83.7248 548.101C83.9627 548.255 85.5575 549.289 85.3791 549.908C85.2434 550.38 84.1839 550.267 80.3084 550.16C76.8789 550.065 75.9942 550.106 75.5425 549.349C75.0834 548.579 75.2618 547.301 75.8789 546.728Z" fill="#26264F"/>
<path d="M76.3845 544.067L76.8901 547.678C77.5295 548.047 78.1503 548.073 78.747 547.678L78.7042 544.519L76.3845 544.067Z" fill="url(#paint27_linear_248_205)"/>
<path d="M72.8417 410.845C72.6261 415.972 72.6298 423.741 74.0239 432.992C76.6559 450.461 81.156 452.721 82.0259 466.097C82.7601 477.384 80.2861 487.02 77.3529 498.448C74.2674 510.47 71.8324 513.962 71.4904 522.68C71.1149 532.296 73.6019 540.242 75.7079 545.377C76.8882 545.438 78.0704 545.498 79.2507 545.561C80.682 538.752 83.3642 528.62 88.7007 517.373C94.4611 505.229 100.4 497.932 102.537 494.859C110.129 483.951 114.647 461.903 99.1619 412.492C90.3866 411.944 81.6132 411.393 72.838 410.845H72.8417Z" fill="url(#paint28_linear_248_205)"/>
<path d="M129.999 544.613L131.226 550.255C131.226 550.255 132.023 551.053 133.423 550.255V544.886L129.999 544.611V544.613Z" fill="url(#paint29_linear_248_205)"/>
<path d="M130.592 550.013C131.06 549.577 131.588 549.733 133.954 550.178C136.863 550.727 137.469 550.759 138.438 551.386C138.676 551.539 140.27 552.574 140.092 553.193C139.956 553.664 138.897 553.551 135.021 553.445C131.592 553.35 130.707 553.39 130.255 552.634C129.796 551.864 129.975 550.585 130.592 550.013Z" fill="#26264F"/>
<path style="mix-blend-mode:multiply" opacity="0.3" d="M99.1656 412.492C90.3903 411.944 81.6169 411.393 72.8417 410.845C72.6261 415.972 72.6298 423.741 74.0239 432.992C74.864 438.567 75.8938 442.585 76.9366 445.918C77.6243 446.676 78.3511 447.412 79.1708 448.092C86.0092 453.772 91.8253 451.463 94.6097 456.602C97.3589 461.675 92.5428 465.486 93.0911 478.568C93.4406 486.911 95.4629 486.871 94.6097 491.472C92.8272 501.086 84.0742 500.868 80.4348 511.514C78.1466 518.212 80.879 520.442 78.4106 527.987C77.1299 531.901 75.1596 535.044 73.1224 537.542C73.8975 540.579 74.8324 543.234 75.7116 545.375C76.8919 545.436 78.0741 545.496 79.2544 545.559C80.6876 538.75 83.3679 528.618 88.7044 517.371C94.4648 505.227 100.404 497.93 102.541 494.857C110.132 483.949 114.651 461.901 99.1656 412.49V412.492Z" fill="url(#paint30_linear_248_205)"/>
<path d="M86.5092 408.282C84.0928 413.761 83.6542 418.202 83.643 421.072C83.5835 436.627 95.9499 450.777 114.229 471.225C118.733 476.263 120.917 478.419 122.573 482.909C125.997 492.194 122.53 499.049 121.945 513.163C121.398 526.364 122.61 532.062 123.716 535.951C125.157 541.008 127.082 544.92 128.525 547.482C130.549 547.573 132.575 547.666 134.599 547.757C139.41 539.47 146.594 524.436 147.588 504.644C148.417 488.149 144.574 475.808 139.624 459.915C136.094 448.586 130.211 432.984 120.172 415.694C108.95 413.222 97.7288 410.752 86.5074 408.28L86.5092 408.282Z" fill="url(#paint31_linear_248_205)"/>
<path d="M50.5643 398.751V400.616L53.464 401.318C53.8488 401.411 54.2242 401.544 54.5848 401.713L55.8302 402.298C58.3005 403.457 61.15 403.141 63.3508 401.459L50.5662 398.753L50.5643 398.751Z" fill="url(#paint32_linear_248_205)"/>
<path d="M200.785 342.289C200.545 341.067 199.586 342.356 199.017 341.884C197.838 340.906 195.798 344.378 194.461 345.717C193.006 347.175 193.337 348.818 192.437 351.863C191.95 353.51 191.035 355.794 189.147 358.315L192.437 362.158L196.288 355.835C197.028 355.145 198.099 353.945 198.82 352.141C199.097 351.449 199.27 350.796 199.381 350.223L200.249 347.395C200.575 345.269 201.013 343.445 200.786 342.289H200.785Z" fill="url(#paint33_linear_248_205)"/>
<path d="M51.7557 396.719C51.6125 398.743 51.4713 400.768 51.3282 402.792C49.2426 403.096 36.2535 404.77 26.7757 395.104C15.2327 383.331 18.9874 365.023 19.6882 361.607C24.5879 337.727 48.053 328.458 50.7705 327.437C60.57 323.756 68.6073 324.601 83.7247 326.189C94.9591 327.371 106.186 328.552 118.406 334.285C145.066 346.794 148.572 367.305 165.483 367.741C171.275 367.89 179.87 365.702 190.582 353.699C192.191 354.889 193.803 356.077 195.413 357.266C194.628 360.952 190.359 379.326 174.843 388.513C157.782 398.614 134.053 393.505 118.131 374.653C116.876 390.015 119.519 400.897 122.45 408.282C124.774 414.138 127.073 417.273 125.74 420.638C123.335 426.709 111.855 426.578 96.632 426.405C81.6596 426.233 74.0925 426.052 70.1296 421.322C66.0942 416.505 68.1946 412.131 65.9697 394.515C64.0645 379.425 62.6592 368.293 57.3654 366.569C52.501 364.985 43.6477 371.118 42.7258 380.49C42.0603 387.256 45.7035 393.91 51.7538 396.719H51.7557Z" fill="url(#paint34_linear_248_205)"/>
<path d="M51.7557 396.719C51.6125 398.743 51.4713 400.768 51.3282 402.792C49.2426 403.096 36.2535 404.77 26.7757 395.104C15.2327 383.331 18.9874 365.023 19.6882 361.607C24.5879 337.727 48.053 328.458 50.7705 327.437C60.57 323.756 68.6073 324.601 83.7247 326.189C94.9591 327.371 106.186 328.552 118.406 334.285C145.066 346.794 148.572 367.305 165.483 367.741C171.275 367.89 179.87 365.702 190.582 353.699C192.191 354.889 193.803 356.077 195.413 357.266C194.628 360.952 190.359 379.326 174.843 388.513C157.782 398.614 134.053 393.505 118.131 374.653C116.876 390.015 119.519 400.897 122.45 408.282C124.774 414.138 127.073 417.273 125.74 420.638C123.335 426.709 111.855 426.578 96.632 426.405C81.6596 426.233 74.0925 426.052 70.1296 421.322C65.3879 415.664 69.0329 410.238 65.9697 394.515C65.4883 392.041 60.635 367.957 52.568 367.477C48.2389 367.219 43.3912 373.784 42.7239 380.49C42.0473 387.291 45.6979 393.942 51.752 396.719H51.7557Z" fill="url(#paint35_linear_248_205)"/>
<path d="M69.9308 314.11C70.6502 321.911 69.3212 324.677 67.7691 325.617C65.6538 326.899 60.9455 326.109 58.715 327.837C58.6091 327.917 58.4195 328.067 58.4306 328.26C58.4734 329.071 62.2653 329.557 67.2747 330.857C73.0963 332.367 84.4144 331.819 86.7286 330.857C86.8903 330.789 87.2156 330.641 87.2379 330.401C87.3289 329.432 82.2266 329.813 79.234 326.532C76.9942 324.078 77.8381 321.659 74.6094 317.677C73.8529 316.743 73.1428 316.058 72.6521 315.618C71.745 315.114 70.8379 314.612 69.9308 314.108V314.11Z" fill="url(#paint36_linear_248_205)"/>
<path d="M75.0295 321.26C75.5648 320.941 79.9199 320.366 80.5184 317.826C81.3325 314.378 78.4775 310.182 78.1206 309.507C76.6299 306.68 76.2562 306.299 75.5629 305.819L74.6019 305.208C74.6019 305.208 74.5462 305.186 74.4886 305.164C73.8752 304.944 71.7989 304.926 71.3807 305.034C70.0442 305.379 68.7375 311.347 69.3212 319.725C69.2728 320.046 69.2245 320.37 69.1799 320.695C69.0628 321.544 75.0685 321.556 75.0295 321.258V321.26Z" fill="url(#paint37_linear_248_205)"/>
<path d="M79.1243 304.676C78.6225 306.256 76.6336 307.892 75.7451 308.619C75.615 308.726 75.2395 309.087 74.8993 309.668C74.8492 309.753 74.8064 309.851 74.7692 309.978C74.2785 311.63 76.7191 313.497 76.2711 314.243C75.9458 314.783 74.299 314.112 74.1149 314.576C73.9421 315.013 75.3157 315.874 75.1187 316.396C74.97 316.791 74.128 316.455 73.6149 317.066C73.3584 317.37 73.4402 317.604 73.1818 318.523C73.035 319.044 72.8268 319.612 72.6632 319.931C71.8677 321.477 69.5331 322.092 69.0702 321.491C68.942 321.324 69.0461 321.179 68.9067 320.61C68.9067 320.61 68.7765 320.084 68.4252 319.481C67.9215 318.618 66.7375 318.021 65.5367 317.128C63.3136 315.473 62.6872 314.031 62.4995 313.543C62.479 313.489 62.4604 313.438 62.4437 313.392C62.4121 313.309 62.3842 313.227 62.3601 313.144C61.8582 311.38 63.1445 309.478 63.8378 308.593C64.8304 307.337 66.5014 305.472 68.9494 303.811C69.6149 303.359 76.0945 299.02 78.47 301.165C79.3176 301.931 79.4682 303.601 79.1262 304.676H79.1243Z" fill="#26264F"/>
<path d="M75.3956 313.654C74.7897 312.793 73.7748 313.64 73.7934 314.773C73.812 315.906 74.8473 317.058 75.8232 316.81C76.8009 316.562 76.2098 314.811 75.3956 313.652V313.654Z" fill="url(#paint38_linear_248_205)"/>
<path style="mix-blend-mode:multiply" opacity="0.3" d="M121.945 419.539C118.534 421.301 113.789 421.201 111.062 418.44C106.822 414.152 111.171 406.218 106.759 403.064C102.727 400.183 98.8013 403.984 95.1153 401.417C88.7695 396.997 96.0094 382.661 89.2937 374.51C83.7601 367.791 75.7116 373.725 69.0442 366.822C61.5701 359.081 67.4717 347.255 60.6909 342.112C55.0216 337.811 44.7742 341.439 38.67 346.231C28.4059 354.288 27.7386 367.293 22.9764 367.098C21.9206 367.053 20.6474 366.348 19.231 364.081C18.2068 370.358 16.9484 385.081 26.7739 395.102C36.2499 404.766 49.2409 403.094 51.3264 402.79C51.4695 400.766 51.6108 398.741 51.7539 396.717C45.7018 393.94 42.0511 387.289 42.7259 380.488C43.3932 373.782 48.239 367.217 52.5699 367.475C60.637 367.957 65.4902 392.039 65.9717 394.513C69.0331 410.236 65.3899 415.662 70.1316 421.32C74.0945 426.05 81.6615 426.231 96.634 426.403C111.855 426.578 123.337 426.709 125.742 420.636C126.315 419.188 126.192 417.771 125.709 416.176C124.7 417.591 123.439 418.767 121.945 419.539Z" fill="url(#paint39_linear_248_205)"/>
<path d="M443.605 309.757C443.605 315.027 440.027 319.721 436.019 319.721H296.93C292.922 319.721 289.569 315.027 289.569 309.757V217.518C289.569 212.247 292.922 208.328 296.93 208.328H436.019C440.027 208.328 443.605 212.249 443.605 217.518V309.757Z" fill="url(#paint40_linear_248_205)"/>
<path d="M447.457 217.52V309.759C447.457 313.295 446.02 316.584 443.849 318.29C442.784 319.128 441.572 319.721 440.252 319.721H301.162C297.153 319.721 293.418 315.027 293.418 309.759V217.52C293.418 212.245 297.153 208.325 301.162 208.325H440.252C444.261 208.325 447.457 212.245 447.457 217.52Z" fill="url(#paint41_linear_248_205)"/>
<path d="M425.534 302.431L398.565 261.237C398.294 260.821 397.833 260.573 397.34 260.573C396.848 260.573 396.387 260.823 396.115 261.237L380.606 284.918L355.204 246.117C354.932 245.701 354.471 245.453 353.979 245.453C353.486 245.453 353.025 245.703 352.754 246.117L315.88 302.431C315.582 302.885 315.556 303.655 315.813 304.133C316.069 304.611 316.566 305.099 317.105 305.099H424.307C424.846 305.099 425.343 304.613 425.599 304.133C425.856 303.655 425.83 302.885 425.532 302.431H425.534Z" fill="white"/>
<path d="M394.08 247.988C400.498 247.988 405.701 242.344 405.701 235.382C405.701 228.42 400.498 222.776 394.08 222.776C387.662 222.776 382.459 228.42 382.459 235.382C382.459 242.344 387.662 247.988 394.08 247.988Z" fill="white"/>
<g style="mix-blend-mode:multiply" opacity="0.2">
<path d="M443.875 318.29C442.81 319.128 441.57 319.721 440.252 319.721H301.162C297.153 319.721 293.418 315.027 293.418 309.759V217.52C293.418 212.245 297.153 208.325 301.162 208.325H302.565C305.155 213.199 308.359 219.78 312.339 225.613C348.823 279.063 406.497 263.642 439.819 312.021C441.324 314.205 442.666 316.267 443.877 318.287L443.875 318.29Z" fill="url(#paint42_linear_248_205)"/>
</g>
<path d="M443.616 301.125V291.963C443.616 291.963 442.402 290.007 441.765 285.164C441.127 280.321 442.285 282.242 442.854 284.257C443.012 284.819 443.341 285.295 443.733 285.69C444.717 286.684 446.334 286.033 446.523 284.591L447.323 278.524C447.323 278.524 450.566 282.121 448.219 291.12C447.484 293.937 448.219 300.734 448.219 300.734L443.616 301.127V301.125Z" fill="url(#paint43_linear_248_205)"/>
<path d="M295.697 308.418L293.569 299.498C293.569 299.498 295.615 296.074 294.632 292.58C293.651 289.086 294.24 290.33 293.448 292.58C292.656 294.83 291.093 291.019 289.872 287.549C288.651 284.079 288.024 289.414 288.322 292.58C288.619 295.745 288.729 297.631 290.472 299.939C292.216 302.25 291.866 310.464 291.866 310.464L295.695 308.418H295.697Z" fill="url(#paint44_linear_248_205)"/>
<path d="M416.454 554.005C416.523 552.039 420.889 552.434 423.75 552.733C426.612 553.031 427.871 554.275 428.319 555.441C428.767 556.604 428.43 559.477 425.787 558.274C423.618 557.286 416.395 555.745 416.454 554.007V554.005Z" fill="#26264F"/>
<path d="M421.714 546.392L423.75 554.007C423.75 554.007 425.787 555.525 426.456 554.769L425.698 545.992L421.714 546.392Z" fill="url(#paint45_linear_248_205)"/>
<path d="M407.335 541.885L414.075 545.075L412.943 548.775L406.194 546.87L407.335 541.885Z" fill="url(#paint46_linear_248_205)"/>
<path d="M406.95 556.243C406.95 556.243 411.441 557.503 413.428 554.624C414.705 552.773 415.768 549.63 416.365 547.62C416.688 546.529 416.179 545.357 415.199 544.932C413.774 544.315 411.837 543.651 411.01 544.156C409.627 544.998 410.922 550.604 410.318 552.063C409.714 553.523 406.777 554.461 406.95 556.241V556.243Z" fill="#26264F"/>
<path d="M396.476 427.911C397.491 445.576 399.734 466.039 404.199 488.468C408.854 511.847 414.9 532.227 420.969 549.265C421.555 549.569 422.597 550.009 423.956 550.051C425.545 550.102 426.761 549.58 427.369 549.265C428.471 540.159 429.04 532.473 429.354 526.765C430.189 511.692 430.566 503.969 428.674 495.001C426.899 486.583 425.471 487.24 423.618 477.937C421.969 469.664 421.934 463.301 421.93 453.981C421.928 447.584 422.198 438.942 423.337 428.689C414.383 428.431 405.43 428.171 396.476 427.911Z" fill="url(#paint47_linear_248_205)"/>
<path style="mix-blend-mode:multiply" opacity="0.3" d="M421.852 543.041C420.068 536.806 423.586 533.957 423.175 526.047C422.675 516.381 417.186 516.093 415.452 505.223C414.058 496.489 417.452 495.735 416.556 485.117C415.605 473.834 411.506 471.545 412.363 464.773C412.841 461.006 414.865 455.871 421.964 450.276C422.058 444.386 422.404 437.091 423.337 428.689C414.383 428.431 405.43 428.171 396.476 427.911C397.491 445.576 399.734 466.039 404.199 488.468C408.854 511.847 414.9 532.227 420.969 549.265C421.555 549.569 422.597 550.009 423.956 550.051C424.677 550.073 425.307 549.973 425.852 549.832C424.159 548.051 422.649 545.823 421.852 543.041Z" fill="url(#paint48_linear_248_205)"/>
<path d="M374.632 424.8C374.306 429.056 373.667 435.502 372.293 443.243C369.197 460.696 365.641 466.287 364.702 477.699C363.609 491.006 366.959 501.481 368.232 505.463C376.929 532.659 400.813 545.319 407.132 548.418C407.846 545.908 408.56 543.397 409.274 540.887C407.684 538.581 405.329 534.869 403.108 529.949C399.316 521.551 399.062 516.603 396.476 508.334C391.811 493.416 388.264 495.529 387.413 487.932C386.063 475.892 395.019 471.033 403.095 448.017C405.409 441.422 406.762 435.869 407.508 432.46C396.549 429.907 385.589 427.352 374.63 424.8H374.632Z" fill="url(#paint49_linear_248_205)"/>
<path d="M442.152 297.461C444.432 297.062 446.711 296.663 448.992 296.264C451.854 300.631 460.104 314.438 458.481 332.885C458.096 337.257 456.433 351.764 445.127 363.303C437.033 371.566 428.034 374.163 423.911 375.058C423.904 396.542 424.28 410.091 424.96 418.198C425.042 419.176 425.744 427.381 424.72 437.96C424.408 441.184 424.244 442.815 423.837 443.704C418.194 456.056 385.846 446.267 377.108 442.172C374.836 441.107 372.528 439.625 371.541 437.002C370.273 433.633 371.489 430.578 371.981 427.907C373.193 421.348 369.6 416.396 362.39 403.671C359.341 398.29 354.916 390.212 349.747 379.726C343.763 381.619 329.661 385.012 315.856 377.869C295.571 367.372 283.994 338.299 289.896 306.793C291.955 306.154 294.015 305.516 296.074 304.877C297.437 310.991 300.065 319.223 305.448 327.526C308.714 332.563 311.435 336.759 316.153 339.104C323.562 342.787 330.144 339.047 339.763 336.47C354.921 332.412 367.596 333.926 382.992 335.767C399.812 337.777 404.422 341.525 416.722 339.005C422.192 337.884 429.04 336.384 434.646 330.486C445.676 318.884 442.607 300.042 442.148 297.455L442.152 297.461Z" fill="url(#paint50_linear_248_205)"/>
<path d="M379.308 321.469C379.308 321.469 378.299 325.849 379.721 327.812C381.141 329.774 385.887 337.297 387.431 337.666C388.31 337.876 390.515 338.237 392.251 338.511C393.164 338.654 393.357 340.017 392.511 340.416C390.786 341.229 387.743 342.045 382.52 341.985C374.97 341.896 368.897 338.781 366.249 337.166C365.873 336.936 366.05 336.317 366.481 336.353L369.879 336.63C372.79 336.868 375.182 334.176 374.857 331.03L374.645 328.982L379.308 321.473V321.469Z" fill="url(#paint51_linear_248_205)"/>
<path d="M376.191 330.286C375.725 330.008 371.929 329.508 371.405 327.294C370.695 324.288 373.186 320.63 373.494 320.042C374.793 317.578 375.119 317.245 375.723 316.826L376.561 316.293C376.561 316.293 376.609 316.273 376.66 316.255C377.195 316.064 379.005 316.047 379.37 316.142C380.535 316.443 381.673 321.645 381.165 328.95C381.208 329.23 381.249 329.512 381.288 329.796C381.39 330.536 376.154 330.546 376.189 330.286H376.191Z" fill="url(#paint52_linear_248_205)"/>
<path d="M372.621 315.828C372.455 316.721 374.635 318.499 375.567 319.265C375.68 319.358 376.007 319.673 376.305 320.181C376.347 320.255 376.385 320.34 376.418 320.451C376.846 321.891 374.717 323.52 375.109 324.169C375.392 324.641 376.829 324.054 376.989 324.459C377.139 324.84 375.942 325.593 376.113 326.048C376.243 326.393 376.978 326.099 377.425 326.633C377.649 326.897 377.578 327.103 377.803 327.903C377.931 328.355 378.111 328.853 378.254 329.129C378.95 330.476 380.983 331.012 381.387 330.49C381.5 330.345 381.407 330.218 381.53 329.722C381.53 329.722 381.643 329.262 381.95 328.736C382.388 327.984 383.42 327.464 384.466 326.683C386.405 325.24 386.95 323.984 387.115 323.558C387.134 323.51 387.151 323.467 387.164 323.427C387.191 323.354 387.216 323.282 387.236 323.209C387.645 321.76 385.948 319.241 385.948 319.241C384.585 317.253 382.866 315.92 381.491 315.072C378.976 314.535 376.929 314.602 375.511 314.773C374.357 314.912 372.749 315.12 372.619 315.826L372.621 315.828Z" fill="#26264F"/>
<path d="M371.838 323.348C371.838 323.348 373.446 325.441 375.569 322.927L376.617 323.262C376.617 323.262 374.054 329.379 373.505 329.379C372.957 329.379 371.357 328.984 371.357 328.984C370.756 328.712 370.418 328.014 370.557 327.325C370.808 326.066 371.468 324.234 371.838 323.346V323.348Z" fill="#26264F"/>
<path d="M376.078 323.655C376.606 322.905 377.491 323.643 377.476 324.631C377.461 325.619 376.557 326.623 375.706 326.407C374.855 326.191 375.368 324.665 376.078 323.655Z" fill="url(#paint53_linear_248_205)"/>
<path style="mix-blend-mode:multiply" opacity="0.3" d="M415.233 440.117C404.274 444.307 391.502 438.182 388.312 429.824C385.955 423.646 390.993 417.755 387.429 411.393C383.998 405.268 377.803 408.012 373.528 401.82C368.87 395.07 374.351 389.091 370.217 380.038C367.107 373.229 359.661 367.1 352.343 367.114C343.646 367.13 340.399 375.814 332.925 374.056C329.021 373.137 329.112 370.58 323.657 366.396C314.19 359.135 307.842 362.176 300.047 357.061C297.757 355.557 295.199 353.252 292.822 349.546C297.478 362.376 305.536 372.53 315.857 377.871C329.662 385.014 343.765 381.621 349.748 379.728C354.918 390.214 359.343 398.292 362.392 403.673C369.6 416.398 373.195 421.35 371.983 427.909C371.489 430.58 370.273 433.635 371.542 437.004C372.529 439.628 374.838 441.107 377.109 442.174C385.848 446.269 418.196 456.058 423.839 443.706C424.246 442.817 424.41 441.186 424.722 437.962C424.917 435.954 425.047 434.032 425.135 432.228C422.88 435.363 419.694 438.412 415.235 440.115L415.233 440.117Z" fill="url(#paint54_linear_248_205)"/>
<path d="M290.669 502.481C290.669 473.88 266.349 451.552 237.38 452.574C220.883 453.157 206.53 461.224 197.569 473.132C197.569 473.128 197.567 473.126 197.565 473.122C197.509 473.197 197.457 473.273 197.402 473.348C197.247 473.555 197.097 473.769 196.944 473.979C196.667 474.364 196.394 474.749 196.128 475.142C195.972 475.374 195.816 475.606 195.664 475.842C195.407 476.233 195.158 476.628 194.915 477.026C194.775 477.253 194.634 477.481 194.496 477.711C194.223 478.171 193.961 478.637 193.703 479.106C193.61 479.276 193.511 479.443 193.42 479.614C193.08 480.25 192.753 480.895 192.441 481.544C192.357 481.717 192.283 481.893 192.201 482.066C191.974 482.554 191.751 483.046 191.539 483.542C191.435 483.786 191.336 484.032 191.238 484.276C191.059 484.716 190.885 485.157 190.719 485.603C190.623 485.861 190.528 486.121 190.435 486.381C190.273 486.839 190.119 487.298 189.972 487.762C189.894 488.004 189.814 488.246 189.74 488.488C189.563 489.071 189.398 489.658 189.243 490.25C189.212 490.373 189.173 490.494 189.141 490.619C188.959 491.333 188.796 492.053 188.647 492.777C188.602 492.99 188.567 493.206 188.526 493.42C188.426 493.94 188.331 494.46 188.247 494.987C188.204 495.255 188.167 495.523 188.13 495.791C188.061 496.277 188 496.765 187.946 497.255C187.916 497.529 187.887 497.805 187.861 498.082C187.812 498.598 187.775 499.118 187.743 499.64C187.729 499.882 187.71 500.124 187.699 500.368C187.664 501.13 187.641 501.894 187.641 502.667C187.641 521.021 197.889 537.21 213.251 545.878C214.664 546.674 216.121 547.41 217.618 548.075C218.367 548.41 219.127 548.727 219.896 549.027C225.304 551.134 231.19 552.384 237.38 552.58C238.233 552.606 239.081 552.612 239.927 552.598C240.211 552.594 240.494 552.576 240.778 552.568C241.336 552.549 241.895 552.531 242.449 552.497C242.787 552.475 243.124 552.443 243.46 552.414C243.955 552.374 244.451 552.334 244.942 552.279C245.302 552.239 245.659 552.191 246.016 552.142C246.481 552.082 246.945 552.019 247.406 551.947C247.774 551.888 248.141 551.824 248.505 551.757C248.951 551.676 249.395 551.594 249.838 551.501C250.207 551.424 250.575 551.344 250.944 551.259C251.377 551.16 251.808 551.055 252.235 550.944C252.603 550.85 252.97 550.753 253.334 550.652C253.758 550.533 254.178 550.408 254.598 550.279C254.958 550.168 255.319 550.057 255.678 549.938C255.81 549.894 255.945 549.858 256.077 549.813C256.074 549.809 256.072 549.807 256.068 549.803C276.109 542.994 290.665 524.533 290.665 502.483L290.669 502.481Z" fill="url(#paint55_linear_248_205)"/>
<path d="M286.69 502.489C286.69 531.016 262.492 553.376 233.67 552.463C205.92 551.584 184.173 529.306 184.173 502.673C184.173 476.04 205.92 453.685 233.67 452.705C262.492 451.689 286.69 473.961 286.69 502.489Z" fill="url(#paint56_linear_248_205)"/>
<path d="M220.666 516.305L200.089 504.945V501.288L220.666 488.363V494.589L206.43 502.838L220.666 510.105V516.305Z" fill="white"/>
<path d="M242.555 483.32L230.852 521.684L224.973 521.62L236.583 483.409L242.553 483.322L242.555 483.32Z" fill="white"/>
<path d="M246.904 510.191L261.942 502.747L246.904 494.402V488.065L268.836 501.102V504.933L246.904 516.502V510.191Z" fill="white"/>
<g style="mix-blend-mode:multiply" opacity="0.3">
<path d="M246.204 540.046C239.949 525.11 246.272 511.308 237.828 501.727C229.345 492.103 218.465 501.1 206.933 493.4C202.523 490.456 197.651 484.82 194.05 473.199C187.838 481.469 184.173 491.67 184.173 502.671C184.173 529.302 205.92 551.582 233.67 552.461C240.176 552.666 246.453 551.682 252.278 549.698C249.401 546.444 247.501 543.139 246.206 540.046H246.204Z" fill="url(#paint57_linear_248_205)"/>
</g>
<defs>
<linearGradient id="paint0_linear_248_205" x1="132.452" y1="185.558" x2="497.052" y2="-96.2363" gradientUnits="userSpaceOnUse">
<stop stop-color="#E38DDD"/>
<stop offset="1" stop-color="#9571F6"/>
</linearGradient>
<linearGradient id="paint1_linear_248_205" x1="105.446" y1="178.394" x2="285.383" y2="178.394" gradientUnits="userSpaceOnUse">
<stop stop-color="#FF9085"/>
<stop offset="1" stop-color="#FB6FBB"/>
</linearGradient>
<linearGradient id="paint2_linear_248_205" x1="250.838" y1="155.668" x2="333.143" y2="210.501" gradientUnits="userSpaceOnUse">
<stop stop-color="white"/>
<stop offset="1" stop-color="#F4F7FA"/>
</linearGradient>
<linearGradient id="paint3_linear_248_205" x1="245.683" y1="22.4794" x2="340.181" y2="243.949" gradientUnits="userSpaceOnUse">
<stop stop-color="#FFC444"/>
<stop offset="1" stop-color="#F36F56"/>
</linearGradient>
<linearGradient id="paint4_linear_248_205" x1="229.31" y1="8.14137" x2="323.808" y2="229.613" gradientUnits="userSpaceOnUse">
<stop stop-color="#FFC444"/>
<stop offset="1" stop-color="#F36F56"/>
</linearGradient>
<linearGradient id="paint5_linear_248_205" x1="219.476" y1="11.846" x2="313.974" y2="233.318" gradientUnits="userSpaceOnUse">
<stop stop-color="#FFC444"/>
<stop offset="1" stop-color="#F36F56"/>
</linearGradient>
<linearGradient id="paint6_linear_248_205" x1="215.356" y1="31.3013" x2="309.854" y2="252.773" gradientUnits="userSpaceOnUse">
<stop stop-color="#FFC444"/>
<stop offset="1" stop-color="#F36F56"/>
</linearGradient>
<linearGradient id="paint7_linear_248_205" x1="308.976" y1="25.283" x2="306.231" y2="200.617" gradientUnits="userSpaceOnUse">
<stop stop-color="#FFC444"/>
<stop offset="1" stop-color="#F36F56"/>
</linearGradient>
<linearGradient id="paint8_linear_248_205" x1="348.809" y1="51.6758" x2="324.46" y2="222.282" gradientUnits="userSpaceOnUse">
<stop stop-color="white"/>
<stop offset="1" stop-color="#F4F7FA"/>
</linearGradient>
<linearGradient id="paint9_linear_248_205" x1="368.566" y1="41.0516" x2="337.486" y2="242.917" gradientUnits="userSpaceOnUse">
<stop stop-color="#E38DDD"/>
<stop offset="1" stop-color="#9571F6"/>
</linearGradient>
<linearGradient id="paint10_linear_248_205" x1="358.904" y1="39.561" x2="327.825" y2="241.429" gradientUnits="userSpaceOnUse">
<stop stop-color="#E38DDD"/>
<stop offset="1" stop-color="#9571F6"/>
</linearGradient>
<linearGradient id="paint11_linear_248_205" x1="349.244" y1="38.0731" x2="318.163" y2="239.941" gradientUnits="userSpaceOnUse">
<stop stop-color="#E38DDD"/>
<stop offset="1" stop-color="#9571F6"/>
</linearGradient>
<linearGradient id="paint12_linear_248_205" x1="344.438" y1="-0.530691" x2="313.358" y2="201.335" gradientUnits="userSpaceOnUse">
<stop stop-color="#E38DDD"/>
<stop offset="1" stop-color="#9571F6"/>
</linearGradient>
<linearGradient id="paint13_linear_248_205" x1="367.407" y1="54.2645" x2="343.088" y2="224.877" gradientUnits="userSpaceOnUse">
<stop stop-color="#E38DDD"/>
<stop offset="1" stop-color="#9571F6"/>
</linearGradient>
<linearGradient id="paint14_linear_248_205" x1="358.917" y1="187.719" x2="419.388" y2="262.851" gradientUnits="userSpaceOnUse">
<stop stop-color="white"/>
<stop offset="1" stop-color="#F4F7FA"/>
</linearGradient>
<linearGradient id="paint15_linear_248_205" x1="458.188" y1="137.808" x2="332.853" y2="291.594" gradientUnits="userSpaceOnUse">
<stop stop-color="#FF9085"/>
<stop offset="1" stop-color="#FB6FBB"/>
</linearGradient>
<linearGradient id="paint16_linear_248_205" x1="457.326" y1="121.422" x2="331.993" y2="275.209" gradientUnits="userSpaceOnUse">
<stop stop-color="#FF9085"/>
<stop offset="1" stop-color="#FB6FBB"/>
</linearGradient>
<linearGradient id="paint17_linear_248_205" x1="453.577" y1="109.199" x2="328.244" y2="262.985" gradientUnits="userSpaceOnUse">
<stop stop-color="#FF9085"/>
<stop offset="1" stop-color="#FB6FBB"/>
</linearGradient>
<linearGradient id="paint18_linear_248_205" x1="452.653" y1="92.9052" x2="327.32" y2="246.691" gradientUnits="userSpaceOnUse">
<stop stop-color="#FF9085"/>
<stop offset="1" stop-color="#FB6FBB"/>
</linearGradient>
<linearGradient id="paint19_linear_248_205" x1="427.438" y1="78.7628" x2="398.033" y2="219.575" gradientUnits="userSpaceOnUse">
<stop stop-color="#FF9085"/>
<stop offset="1" stop-color="#FB6FBB"/>
</linearGradient>
<linearGradient id="paint20_linear_248_205" x1="285.68" y1="305.461" x2="306.651" y2="301.976" gradientUnits="userSpaceOnUse">
<stop stop-color="#E38DDD"/>
<stop offset="1" stop-color="#9571F6"/>
</linearGradient>
<linearGradient id="paint21_linear_248_205" x1="277.836" y1="630.731" x2="290.251" y2="520.091" gradientUnits="userSpaceOnUse">
<stop stop-color="#444B8C"/>
<stop offset="1" stop-color="#26264F"/>
</linearGradient>
<linearGradient id="paint22_linear_248_205" x1="204.474" y1="321.447" x2="92.6683" y2="333.382" gradientUnits="userSpaceOnUse">
<stop stop-color="#444B8C"/>
<stop offset="0.39" stop-color="#383C74"/>
<stop offset="1" stop-color="#26264F"/>
</linearGradient>
<linearGradient id="paint23_linear_248_205" x1="394.381" y1="99.1679" x2="59.7838" y2="568.51" gradientUnits="userSpaceOnUse">
<stop stop-color="#444B8C"/>
<stop offset="1" stop-color="#26264F"/>
</linearGradient>
<linearGradient id="paint24_linear_248_205" x1="8.52064" y1="381.088" x2="226.548" y2="318.639" gradientUnits="userSpaceOnUse">
<stop stop-color="#AB316D"/>
<stop offset="1" stop-color="#792D3D"/>
</linearGradient>
<linearGradient id="paint25_linear_248_205" x1="14.3926" y1="379.11" x2="232.42" y2="316.661" gradientUnits="userSpaceOnUse">
<stop stop-color="#FF9085"/>
<stop offset="1" stop-color="#FB6FBB"/>
</linearGradient>
<linearGradient id="paint26_linear_248_205" x1="14.3926" y1="379.11" x2="232.42" y2="316.661" gradientUnits="userSpaceOnUse">
<stop stop-color="#FF9085"/>
<stop offset="1" stop-color="#FB6FBB"/>
</linearGradient>
<linearGradient id="paint27_linear_248_205" x1="78.5165" y1="539.151" x2="75.6978" y2="556.106" gradientUnits="userSpaceOnUse">
<stop stop-color="#311944"/>
<stop offset="1" stop-color="#A03976"/>
</linearGradient>
<linearGradient id="paint28_linear_248_205" x1="71.4532" y1="478.205" x2="109.512" y2="478.205" gradientUnits="userSpaceOnUse">
<stop stop-color="#AB316D"/>
<stop offset="1" stop-color="#792D3D"/>
</linearGradient>
<linearGradient id="paint29_linear_248_205" x1="133.806" y1="539.272" x2="128.072" y2="558.25" gradientUnits="userSpaceOnUse">
<stop stop-color="#311944"/>
<stop offset="1" stop-color="#A03976"/>
</linearGradient>
<linearGradient id="paint30_linear_248_205" x1="71.4532" y1="478.205" x2="109.512" y2="478.205" gradientUnits="userSpaceOnUse">
<stop stop-color="#AB316D"/>
<stop offset="1" stop-color="#792D3D"/>
</linearGradient>
<linearGradient id="paint31_linear_248_205" x1="83.643" y1="478.021" x2="147.702" y2="478.021" gradientUnits="userSpaceOnUse">
<stop stop-color="#AB316D"/>
<stop offset="1" stop-color="#792D3D"/>
</linearGradient>
<linearGradient id="paint32_linear_248_205" x1="90.7342" y1="309.25" x2="47.7195" y2="407.584" gradientUnits="userSpaceOnUse">
<stop stop-color="#311944"/>
<stop offset="1" stop-color="#A03976"/>
</linearGradient>
<linearGradient id="paint33_linear_248_205" x1="193.959" y1="393.69" x2="195.661" y2="333.784" gradientUnits="userSpaceOnUse">
<stop stop-color="#311944"/>
<stop offset="1" stop-color="#A03976"/>
</linearGradient>
<linearGradient id="paint34_linear_248_205" x1="121.764" y1="323.55" x2="65.5208" y2="444.891" gradientUnits="userSpaceOnUse">
<stop stop-color="#AA80F9"/>
<stop offset="1" stop-color="#6165D7"/>
</linearGradient>
<linearGradient id="paint35_linear_248_205" x1="121.764" y1="323.55" x2="65.5208" y2="444.891" gradientUnits="userSpaceOnUse">
<stop stop-color="#AA80F9"/>
<stop offset="1" stop-color="#6165D7"/>
</linearGradient>
<linearGradient id="paint36_linear_248_205" x1="58.4288" y1="322.953" x2="87.2379" y2="322.953" gradientUnits="userSpaceOnUse">
<stop stop-color="#311944"/>
<stop offset="1" stop-color="#A03976"/>
</linearGradient>
<linearGradient id="paint37_linear_248_205" x1="62.0478" y1="332.736" x2="79.6649" y2="309.725" gradientUnits="userSpaceOnUse">
<stop stop-color="#311944"/>
<stop offset="1" stop-color="#A03976"/>
</linearGradient>
<linearGradient id="paint38_linear_248_205" x1="63.1519" y1="333.581" x2="80.7708" y2="310.572" gradientUnits="userSpaceOnUse">
<stop stop-color="#311944"/>
<stop offset="1" stop-color="#A03976"/>
</linearGradient>
<linearGradient id="paint39_linear_248_205" x1="103.017" y1="314.862" x2="46.7734" y2="436.201" gradientUnits="userSpaceOnUse">
<stop stop-color="#AA80F9"/>
<stop offset="1" stop-color="#6165D7"/>
</linearGradient>
<linearGradient id="paint40_linear_248_205" x1="390.231" y1="243.09" x2="294.357" y2="314.569" gradientUnits="userSpaceOnUse">
<stop stop-color="#AA80F9"/>
<stop offset="1" stop-color="#6165D7"/>
</linearGradient>
<linearGradient id="paint41_linear_248_205" x1="357.959" y1="274.397" x2="564.301" y2="128.774" gradientUnits="userSpaceOnUse">
<stop stop-color="#AA80F9"/>
<stop offset="1" stop-color="#6165D7"/>
</linearGradient>
<linearGradient id="paint42_linear_248_205" x1="293.418" y1="264.023" x2="443.875" y2="264.023" gradientUnits="userSpaceOnUse">
<stop stop-color="#AA80F9"/>
<stop offset="1" stop-color="#6165D7"/>
</linearGradient>
<linearGradient id="paint43_linear_248_205" x1="446.886" y1="296.733" x2="454.131" y2="344.201" gradientUnits="userSpaceOnUse">
<stop stop-color="#FFC444"/>
<stop offset="1" stop-color="#F36F56"/>
</linearGradient>
<linearGradient id="paint44_linear_248_205" x1="295.026" y1="319.911" x2="302.271" y2="367.379" gradientUnits="userSpaceOnUse">
<stop stop-color="#FFC444"/>
<stop offset="1" stop-color="#F36F56"/>
</linearGradient>
<linearGradient id="paint45_linear_248_205" x1="419.281" y1="532.429" x2="430.074" y2="562.042" gradientUnits="userSpaceOnUse">
<stop stop-color="#FFC444"/>
<stop offset="1" stop-color="#F36F56"/>
</linearGradient>
<linearGradient id="paint46_linear_248_205" x1="407.324" y1="536.897" x2="418.037" y2="566.29" gradientUnits="userSpaceOnUse">
<stop stop-color="#FFC444"/>
<stop offset="1" stop-color="#F36F56"/>
</linearGradient>
<linearGradient id="paint47_linear_248_205" x1="445.046" y1="516.974" x2="397.187" y2="467.228" gradientUnits="userSpaceOnUse">
<stop stop-color="#444B8C"/>
<stop offset="1" stop-color="#3E4177"/>
</linearGradient>
<linearGradient id="paint48_linear_248_205" x1="445.046" y1="516.974" x2="397.187" y2="467.228" gradientUnits="userSpaceOnUse">
<stop stop-color="#444B8C"/>
<stop offset="1" stop-color="#3E4177"/>
</linearGradient>
<linearGradient id="paint49_linear_248_205" x1="389.92" y1="486.413" x2="324.866" y2="475.238" gradientUnits="userSpaceOnUse">
<stop stop-color="#444B8C"/>
<stop offset="1" stop-color="#3E4177"/>
</linearGradient>
<linearGradient id="paint50_linear_248_205" x1="358.931" y1="269.171" x2="405.787" y2="427.762" gradientUnits="userSpaceOnUse">
<stop stop-color="#FF9085"/>
<stop offset="1" stop-color="#FB6FBB"/>
</linearGradient>
<linearGradient id="paint51_linear_248_205" x1="377.355" y1="331.099" x2="385.769" y2="353.978" gradientUnits="userSpaceOnUse">
<stop stop-color="#FFC444"/>
<stop offset="1" stop-color="#F36F56"/>
</linearGradient>
<linearGradient id="paint52_linear_248_205" x1="469.102" y1="620.714" x2="477.516" y2="643.596" gradientUnits="userSpaceOnUse">
<stop stop-color="#FFC444"/>
<stop offset="1" stop-color="#F36F56"/>
</linearGradient>
<linearGradient id="paint53_linear_248_205" x1="626.131" y1="761.753" x2="647.167" y2="793.009" gradientUnits="userSpaceOnUse">
<stop stop-color="#FFC444"/>
<stop offset="1" stop-color="#F36F56"/>
</linearGradient>
<linearGradient id="paint54_linear_248_205" x1="330.523" y1="277.563" x2="377.38" y2="436.156" gradientUnits="userSpaceOnUse">
<stop stop-color="#FF9085"/>
<stop offset="1" stop-color="#FB6FBB"/>
</linearGradient>
<linearGradient id="paint55_linear_248_205" x1="170.78" y1="353.685" x2="257.208" y2="513.575" gradientUnits="userSpaceOnUse">
<stop stop-color="#311944"/>
<stop offset="1" stop-color="#893976"/>
</linearGradient>
<linearGradient id="paint56_linear_248_205" x1="215.493" y1="462.395" x2="299.067" y2="605.29" gradientUnits="userSpaceOnUse">
<stop stop-color="#FF9085"/>
<stop offset="1" stop-color="#FB6FBB"/>
</linearGradient>
<linearGradient id="paint57_linear_248_205" x1="195.212" y1="472.271" x2="276.765" y2="623.142" gradientUnits="userSpaceOnUse">
<stop stop-color="#FF9085"/>
<stop offset="1" stop-color="#FB6FBB"/>
</linearGradient>
</defs>
</svg>
