<svg width="36" height="25" viewBox="0 0 36 25" fill="none" xmlns="http://www.w3.org/2000/svg">
<path d="M31.16 17.12C31.16 19.8506 30.5413 21.856 29.304 23.136C28.1093 24.3733 26.232 24.992 23.672 24.992C19.7893 24.992 17.848 23.0933 17.848 19.296C17.848 12.8533 19.384 8.11731 22.456 5.08798C25.5707 2.01598 29.9653 0.47998 35.64 0.47998L34.872 5.08798C33.336 5.08798 31.544 5.74932 29.496 7.07198C27.4907 8.35198 26.2747 10.1653 25.848 12.512C29.3893 12.512 31.16 14.048 31.16 17.12ZM13.88 17.12C13.88 19.8506 13.2613 21.856 12.024 23.136C10.8293 24.3733 8.95199 24.992 6.39199 24.992C2.50933 24.992 0.567993 23.0933 0.567993 19.296C0.567993 12.8533 2.10399 8.11731 5.17599 5.08798C8.29066 2.01598 12.6853 0.47998 18.36 0.47998L17.592 5.08798C16.056 5.08798 14.264 5.74932 12.216 7.07198C10.2107 8.35198 8.99466 10.1653 8.56799 12.512C12.1093 12.512 13.88 14.048 13.88 17.12Z" fill="#4D5CA8"/>
</svg>
