<svg width="467" height="513" viewBox="0 0 467 513" fill="none" xmlns="http://www.w3.org/2000/svg">
<path d="M160 0H457C462.523 0 467 4.47715 467 10V186C467 191.523 462.523 196 457 196H160C154.477 196 150 191.523 150 186V10C150 4.47715 154.477 0 160 0Z" fill="url(#paint0_linear_340_1063)"/>
<path d="M55.0389 245.482C47.8962 252.625 6.66997 288.292 1.12656 352.919C-4.41685 417.546 11.437 438.555 28.0827 447.281C44.7285 456.008 65.7531 461.955 74.8679 441.334C83.9827 420.713 103.02 315.652 100.24 293.463C97.4608 271.274 55.0389 245.498 55.0389 245.498V245.482Z" fill="url(#paint1_linear_340_1063)"/>
<path d="M241.861 361.825C241.861 369.477 253.616 511.781 253.616 511.781C253.616 511.781 57.3973 514.524 57.7865 511.781C58.1758 509.037 80.0523 326.801 80.0523 326.801L241.845 361.825H241.861Z" fill="url(#paint2_linear_340_1063)"/>
<path d="M358.947 79.5107L353.434 91.5364L345.766 82.1324L358.947 79.5107Z" fill="#FD7EA3"/>
<path d="M358.947 140.361C358.947 140.361 358.87 110.383 356.889 102.758C354.908 95.1326 349.864 83.6457 347.109 81.9766C344.355 80.3076 343.318 76.6422 340.316 78.524C337.314 80.4058 337.561 82.6966 334.946 85.8383C332.331 88.9801 323.742 98.9944 323.263 102.66C322.783 106.325 328.385 146.104 328.787 146.317C329.189 146.529 358.932 140.361 358.932 140.361H358.947Z" fill="white"/>
<path d="M191.419 199.101C194.509 199.831 205.689 188.791 251.682 249.458C297.675 310.125 336.122 292.268 340.889 252.625C345.656 212.983 325.827 143.201 325.827 143.201C325.827 143.201 363.886 136.462 365.081 138.046C366.277 139.63 429.289 220.902 418.202 312.081C407.115 403.26 376.976 419.502 321.076 424.673C248.126 431.412 202.537 409.207 186.279 387.81C166.093 361.226 83.5943 173.729 191.435 199.101H191.419Z" fill="url(#paint3_linear_340_1063)"/>
<path d="M189.106 107.425L189.214 113.993C189.354 113.046 189.432 112.068 189.432 111.09C189.432 109.832 189.323 108.621 189.106 107.425Z" fill="white"/>
<path d="M149.79 111.09C149.79 122.037 158.671 130.903 169.618 130.903C170.938 130.903 172.212 130.779 173.454 130.53C175.395 136.85 178.578 142.037 181.715 145.701C188.267 153.341 187.056 149.738 189.432 147.363C191.823 144.987 190.628 140.22 189.432 127.145L189.215 113.993L189.106 107.425C189.106 107.425 189.106 107.41 189.09 107.394C188.764 105.608 188.19 103.885 187.398 102.301C184.152 95.7638 177.413 91.2607 169.618 91.2607C158.671 91.2607 149.79 100.143 149.79 111.09Z" fill="white"/>
<path d="M176.249 92.0527C176.249 92.0527 166.218 80.7485 137.678 98.1861C109.138 115.624 95.7995 140.996 112.057 173.496C112.057 198.34 84.4176 189.986 69.3557 199.893C54.2938 209.8 23.4385 237.051 28.9819 317.127C34.5254 397.204 74.4782 446.303 126.807 450.666C179.135 455.029 256.448 413.291 238.607 344.301C220.765 275.311 172.6 286.817 192.025 251.135C211.45 215.452 218.67 189.971 202.009 168.154C185.348 146.338 162.755 140.406 176.233 92.0371L176.249 92.0527Z" fill="url(#paint4_linear_340_1063)"/>
<path d="M332.955 95.4221V95.919V109.397L310.564 130.81L303.825 123.574L332.955 95.4221Z" fill="#FD7EA3"/>
<defs>
<linearGradient id="paint0_linear_340_1063" x1="467" y1="98" x2="150" y2="98" gradientUnits="userSpaceOnUse">
<stop stop-color="#383B72"/>
<stop offset="1" stop-color="#6A70D8"/>
</linearGradient>
<linearGradient id="paint1_linear_340_1063" x1="50.2564" y1="245.482" x2="50.2564" y2="455.309" gradientUnits="userSpaceOnUse">
<stop stop-color="#FFF33B"/>
<stop offset="0.04" stop-color="#FEE62D"/>
<stop offset="0.12" stop-color="#FDD51B"/>
<stop offset="0.2" stop-color="#FDCA0F"/>
<stop offset="0.28" stop-color="#FDC70C"/>
<stop offset="0.67" stop-color="#F3903F"/>
<stop offset="0.89" stop-color="#ED683C"/>
<stop offset="1" stop-color="#E93E3A"/>
</linearGradient>
<linearGradient id="paint2_linear_340_1063" x1="155.709" y1="326.801" x2="155.709" y2="513.002" gradientUnits="userSpaceOnUse">
<stop stop-color="#FFC545"/>
<stop offset="1" stop-color="#F36F56"/>
</linearGradient>
<linearGradient id="paint3_linear_340_1063" x1="363.855" y1="137.316" x2="208.531" y2="406.35" gradientUnits="userSpaceOnUse">
<stop stop-color="#FFF33B"/>
<stop offset="0.04" stop-color="#FEE62D"/>
<stop offset="0.12" stop-color="#FDD51B"/>
<stop offset="0.2" stop-color="#FDCA0F"/>
<stop offset="0.28" stop-color="#FDC70C"/>
<stop offset="0.67" stop-color="#F3903F"/>
<stop offset="0.89" stop-color="#ED683C"/>
<stop offset="1" stop-color="#E93E3A"/>
</linearGradient>
<linearGradient id="paint4_linear_340_1063" x1="126.201" y1="78" x2="126.201" y2="396.024" gradientUnits="userSpaceOnUse">
<stop offset="0.33" stop-color="#26264F"/>
<stop offset="1" stop-color="#444C8C"/>
</linearGradient>
</defs>
</svg>
