<svg width="1208" height="638" viewBox="0 0 1208 638" fill="none" xmlns="http://www.w3.org/2000/svg">
<g clip-path="url(#clip0_84_3)" filter="url(#filter0_d_84_3)">
<rect width="1200" height="630" transform="translate(4)" fill="#D8DBFF"/>
<path d="M1204 1063V-17.5V-28H605V1063H1204Z" fill="#A8B0FF"/>
<path d="M183.264 89.92C188.853 89.92 192.843 91.328 195.232 94.144C196.981 96.2773 197.856 98.944 197.856 102.144C197.856 103.296 197.749 104.512 197.536 105.792L195.04 120.064C194.187 124.885 192.096 128.747 188.768 131.648C185.44 134.549 181.131 136 175.84 136H157.216L165.344 89.92H183.264ZM179.232 99.904H175.072L170.528 126.016H176.608C178.613 126.016 180.171 125.483 181.28 124.416C182.432 123.307 183.221 121.515 183.648 119.04L185.504 108.544C185.675 107.605 185.76 106.752 185.76 105.984C185.76 101.931 183.584 99.904 179.232 99.904ZM212.445 122.24C212.317 123.008 212.253 123.776 212.253 124.544C212.253 126.592 213.405 127.616 215.708 127.616C217.586 127.616 219.143 126.955 220.381 125.632L223.965 105.216H234.845L229.213 137.024C228.274 142.443 226.119 146.731 222.749 149.888C219.421 153.045 215.602 154.624 211.293 154.624C206.983 154.624 203.869 153.835 201.949 152.256C200.071 150.677 199.133 148.608 199.133 146.048C199.133 142.421 201.373 139.2 205.853 136.384C203.421 135.787 201.885 134.571 201.245 132.736C200.861 131.712 200.669 130.56 200.669 129.28C200.669 128 200.775 126.699 200.989 125.376L204.573 105.216H215.453L212.445 122.24ZM212.765 145.472C215.538 145.472 217.351 142.955 218.205 137.92L218.845 134.208C212.914 136.981 209.949 139.776 209.949 142.592C209.949 143.445 210.183 144.128 210.653 144.64C211.165 145.195 211.869 145.472 212.765 145.472ZM257.329 116.352C257.329 114.517 256.433 113.6 254.641 113.6C252.891 113.6 251.441 114.261 250.289 115.584L246.705 136H235.825L241.265 105.216H251.377L250.673 108.992C253.19 105.877 256.369 104.32 260.209 104.32C264.049 104.32 266.545 105.259 267.697 107.136C268.422 108.331 268.785 109.696 268.785 111.232C268.785 112.768 268.678 114.197 268.465 115.52L266.737 125.376C266.694 125.632 266.673 125.867 266.673 126.08C266.673 127.232 267.313 127.808 268.593 127.808C269.574 127.808 270.449 127.595 271.217 127.168L270.897 134.4C268.891 136.064 266.609 136.896 264.049 136.896C258.246 136.896 255.345 134.464 255.345 129.6C255.345 128.747 255.43 127.829 255.601 126.848L257.137 118.336C257.265 117.568 257.329 116.907 257.329 116.352ZM304.987 126.144C304.987 127.253 305.541 127.808 306.651 127.808C307.803 127.808 308.763 127.595 309.531 127.168L309.211 134.4C307.163 136.064 304.859 136.896 302.299 136.896C297.605 136.896 295.003 135.189 294.491 131.776C292.357 135.189 289.221 136.896 285.083 136.896C278.085 136.896 274.587 133.888 274.587 127.872C274.587 126.848 274.693 125.717 274.907 124.48L276.251 116.992C276.933 113.152 278.491 110.101 280.923 107.84C283.397 105.536 286.597 104.384 290.523 104.384C294.491 104.384 297.179 105.301 298.587 107.136L298.907 105.216H308.635L305.051 125.376C305.008 125.632 304.987 125.888 304.987 126.144ZM286.043 123.072C285.957 123.456 285.915 123.989 285.915 124.672C285.915 125.355 286.235 126.037 286.875 126.72C287.515 127.36 288.581 127.68 290.075 127.68C291.611 127.68 292.933 127.083 294.043 125.888L295.963 115.136C295.493 114.069 294.384 113.536 292.635 113.536C289.349 113.536 287.429 115.115 286.875 118.272L286.043 123.072ZM366.463 127.808C367.444 127.808 368.319 127.595 369.087 127.168L368.767 134.4C366.761 136.064 364.479 136.896 361.919 136.896C356.116 136.896 353.215 134.464 353.215 129.6C353.215 128.747 353.3 127.829 353.471 126.848L354.815 118.976C354.943 118.208 355.007 117.44 355.007 116.672C355.007 114.624 353.876 113.6 351.615 113.6C349.396 113.6 347.647 114.475 346.367 116.224L342.911 136H332.031L335.039 118.976C335.167 118.208 335.231 117.44 335.231 116.672C335.231 114.624 334.079 113.6 331.775 113.6C329.94 113.6 328.361 114.304 327.039 115.712L323.455 136H312.575L318.015 105.216H328.127L327.423 109.056C329.983 105.899 333.225 104.32 337.151 104.32C342.697 104.32 345.855 106.155 346.623 109.824C349.183 106.155 352.596 104.32 356.863 104.32C361.172 104.32 363.967 105.28 365.247 107.2C366.1 108.523 366.527 109.973 366.527 111.552C366.527 113.131 366.42 114.56 366.207 115.84L364.607 125.376C364.564 125.632 364.543 125.867 364.543 126.08C364.543 127.232 365.183 127.808 366.463 127.808ZM386.35 127.808C387.331 127.808 388.206 127.595 388.974 127.168L388.654 134.4C386.648 136.064 384.366 136.896 381.806 136.896C377.923 136.896 375.406 136 374.254 134.208C373.486 133.013 373.102 131.755 373.102 130.432C373.102 129.067 373.187 127.872 373.358 126.848L377.198 105.216H388.078L384.494 125.376C384.451 125.632 384.43 125.867 384.43 126.08C384.43 127.232 385.07 127.808 386.35 127.808ZM378.478 94.784C378.478 92.0533 379.075 90.0693 380.27 88.832C381.507 87.552 383.406 86.912 385.966 86.912C389.55 86.912 391.342 88.4907 391.342 91.648C391.342 94.336 390.723 96.2987 389.486 97.536C388.291 98.7733 386.392 99.392 383.79 99.392C380.248 99.392 378.478 97.856 378.478 94.784ZM405.836 136.896C396.961 136.896 392.524 133.824 392.524 127.68C392.524 126.827 392.609 125.909 392.78 124.928L394.124 116.992C394.807 112.896 396.663 109.76 399.692 107.584C402.764 105.408 406.647 104.299 411.34 104.256C420.428 104.256 424.972 107.413 424.972 113.728C424.972 115.093 424.801 116.331 424.46 117.44C424.161 118.507 423.841 119.232 423.5 119.616L422.988 120.256H412.108C413.175 119.317 413.708 118.208 413.708 116.928C413.708 114.624 412.556 113.472 410.252 113.472C408.887 113.472 407.713 113.877 406.732 114.688C405.751 115.499 405.111 116.736 404.812 118.4L403.98 123.072C403.895 123.499 403.852 123.904 403.852 124.288C403.852 126.549 405.26 127.68 408.076 127.68C409.015 127.68 409.847 127.381 410.572 126.784C411.34 126.187 411.788 125.525 411.916 124.8L422.54 124.928C421.132 132.907 415.564 136.896 405.836 136.896Z" fill="#252D3B"/>
<path d="M353.82 152.828L350.363 163H349.777L347.41 156.367L345.043 163H344.445L341 152.828H342.066L344.762 161.184L347.152 154.562H347.68L350.07 161.184L352.754 152.828H353.82ZM355.625 156.133H364.555C364.336 155.422 363.965 154.805 363.441 154.281C362.52 153.359 361.41 152.898 360.113 152.898C358.816 152.898 357.707 153.359 356.785 154.281C356.238 154.836 355.852 155.453 355.625 156.133ZM355.449 157.082C355.426 157.246 355.414 157.422 355.414 157.609C355.414 158.906 355.871 160.012 356.785 160.926C357.707 161.84 358.816 162.297 360.113 162.297C361.41 162.297 362.52 161.836 363.441 160.914C363.598 160.758 363.746 160.594 363.887 160.422L364.883 160.773C364.766 160.969 364.52 161.25 364.145 161.617C363.035 162.734 361.691 163.293 360.113 163.293C358.551 163.293 357.211 162.738 356.094 161.629C354.984 160.512 354.43 159.172 354.43 157.609C354.43 156.031 354.984 154.688 356.094 153.578C357.211 152.469 358.551 151.914 360.113 151.914C361.691 151.914 363.035 152.469 364.145 153.578C365.121 154.562 365.609 155.73 365.609 157.082H355.449ZM367.191 146.43H368.129V154.258C368.301 154.023 368.496 153.797 368.715 153.578C369.824 152.469 371.164 151.914 372.734 151.914C374.305 151.914 375.645 152.469 376.754 153.578C377.863 154.688 378.418 156.031 378.418 157.609C378.418 159.172 377.863 160.512 376.754 161.629C375.645 162.738 374.305 163.293 372.734 163.293C371.164 163.293 369.824 162.734 368.715 161.617C368.496 161.398 368.301 161.172 368.129 160.938V163H367.191V146.43ZM368.129 156.637V158.582C368.301 159.465 368.727 160.242 369.406 160.914C370.328 161.836 371.438 162.297 372.734 162.297C374.031 162.297 375.137 161.84 376.051 160.926C376.973 160.012 377.434 158.906 377.434 157.609C377.434 156.312 376.973 155.203 376.051 154.281C375.137 153.359 374.031 152.898 372.734 152.898C371.438 152.898 370.328 153.359 369.406 154.281C368.727 154.961 368.301 155.746 368.129 156.637ZM383.094 157.539C382.305 157.109 381.758 156.742 381.453 156.438C380.977 155.961 380.738 155.387 380.738 154.715C380.738 154.043 380.977 153.469 381.453 152.992C381.93 152.508 382.504 152.266 383.176 152.266C383.848 152.266 384.406 152.488 384.852 152.934C385.281 153.363 385.496 153.855 385.496 154.41V154.457L384.688 154.785C384.617 154.262 384.453 153.867 384.195 153.602C383.938 153.336 383.598 153.203 383.176 153.203C382.762 153.203 382.406 153.352 382.109 153.648C381.812 153.945 381.664 154.301 381.664 154.715C381.664 155.129 381.812 155.484 382.109 155.781C382.281 155.961 382.645 156.227 383.199 156.578C384.082 157.055 384.711 157.48 385.086 157.855C385.672 158.449 385.965 159.156 385.965 159.977C385.965 160.82 385.672 161.539 385.086 162.133C384.5 162.719 383.789 163.012 382.953 163.012C382.117 163.012 381.406 162.719 380.82 162.133C380.234 161.539 379.941 160.891 379.941 160.188L380.867 159.953C380.867 160.555 381.07 161.062 381.477 161.477C381.891 161.883 382.383 162.086 382.953 162.086C383.523 162.086 384.016 161.883 384.43 161.477C384.844 161.062 385.051 160.562 385.051 159.977C385.051 159.406 384.844 158.918 384.43 158.512C384.211 158.293 383.766 157.969 383.094 157.539ZM389.164 152.828V163H388.238V152.828H389.164ZM388.707 149.23C388.957 149.23 389.172 149.32 389.352 149.5C389.539 149.68 389.633 149.895 389.633 150.145C389.633 150.41 389.539 150.633 389.352 150.812C389.172 150.992 388.957 151.082 388.707 151.082C388.449 151.082 388.227 150.992 388.039 150.812C387.859 150.633 387.77 150.41 387.77 150.145C387.77 149.895 387.859 149.68 388.039 149.5C388.227 149.32 388.449 149.23 388.707 149.23ZM393.02 152.828V148.504H393.945V152.828H396.02V153.766H393.945V163H393.02V153.766H390.945V152.828H393.02ZM398.211 156.133H407.141C406.922 155.422 406.551 154.805 406.027 154.281C405.105 153.359 403.996 152.898 402.699 152.898C401.402 152.898 400.293 153.359 399.371 154.281C398.824 154.836 398.438 155.453 398.211 156.133ZM398.035 157.082C398.012 157.246 398 157.422 398 157.609C398 158.906 398.457 160.012 399.371 160.926C400.293 161.84 401.402 162.297 402.699 162.297C403.996 162.297 405.105 161.836 406.027 160.914C406.184 160.758 406.332 160.594 406.473 160.422L407.469 160.773C407.352 160.969 407.105 161.25 406.73 161.617C405.621 162.734 404.277 163.293 402.699 163.293C401.137 163.293 399.797 162.738 398.68 161.629C397.57 160.512 397.016 159.172 397.016 157.609C397.016 156.031 397.57 154.688 398.68 153.578C399.797 152.469 401.137 151.914 402.699 151.914C404.277 151.914 405.621 152.469 406.73 153.578C407.707 154.562 408.195 155.73 408.195 157.082H398.035ZM412.414 157.539C411.625 157.109 411.078 156.742 410.773 156.438C410.297 155.961 410.059 155.387 410.059 154.715C410.059 154.043 410.297 153.469 410.773 152.992C411.25 152.508 411.824 152.266 412.496 152.266C413.168 152.266 413.727 152.488 414.172 152.934C414.602 153.363 414.816 153.855 414.816 154.41V154.457L414.008 154.785C413.938 154.262 413.773 153.867 413.516 153.602C413.258 153.336 412.918 153.203 412.496 153.203C412.082 153.203 411.727 153.352 411.43 153.648C411.133 153.945 410.984 154.301 410.984 154.715C410.984 155.129 411.133 155.484 411.43 155.781C411.602 155.961 411.965 156.227 412.52 156.578C413.402 157.055 414.031 157.48 414.406 157.855C414.992 158.449 415.285 159.156 415.285 159.977C415.285 160.82 414.992 161.539 414.406 162.133C413.82 162.719 413.109 163.012 412.273 163.012C411.438 163.012 410.727 162.719 410.141 162.133C409.555 161.539 409.262 160.891 409.262 160.188L410.188 159.953C410.188 160.555 410.391 161.062 410.797 161.477C411.211 161.883 411.703 162.086 412.273 162.086C412.844 162.086 413.336 161.883 413.75 161.477C414.164 161.062 414.371 160.562 414.371 159.977C414.371 159.406 414.164 158.918 413.75 158.512C413.531 158.293 413.086 157.969 412.414 157.539Z" fill="black"/>
<g filter="url(#filter1_d_84_3)">
<path d="M197.086 194.504C195.716 194.712 194.374 195.011 193.069 195.375L192.768 202.591L186.366 205.814L180.379 201.767C178.174 203.49 176.193 205.46 174.459 207.625L178.471 213.641L175.195 220.012L167.96 220.258C167.231 222.823 166.776 225.496 166.64 228.23L173.42 230.776L174.463 237.866L168.718 242.282C169.678 244.939 170.927 247.436 172.435 249.739L179.414 247.815L184.436 252.933L182.402 259.869C184.695 261.422 187.171 262.716 189.791 263.709L194.301 258.067L201.369 259.245L203.809 266.049C205.236 266.002 206.685 265.878 208.144 265.652C209.476 265.437 210.772 265.156 212.043 264.816L212.365 257.593L218.777 254.392L224.756 258.472C226.961 256.744 228.967 254.778 230.706 252.612L226.713 246.581L230.008 240.219L237.25 240.002C238.005 237.354 238.48 234.602 238.613 231.785L231.82 229.259L230.748 222.175L236.481 217.749C235.509 215.097 234.246 212.604 232.733 210.304L225.76 212.247L220.715 207.152L222.731 200.213C220.423 198.662 217.945 197.371 215.328 196.389L210.843 202.058L203.757 200.907L201.306 194.1C199.905 194.158 198.495 194.284 197.088 194.507L197.086 194.504ZM213.353 218.028C220.003 223.943 220.629 234.137 214.676 240.814C208.726 247.457 198.534 248.058 191.886 242.12C185.208 236.216 184.612 226.012 190.542 219.36C196.482 212.674 206.699 212.099 213.355 218.028L213.353 218.028Z" fill="#4972A8"/>
<path d="M184.969 214.375C176.29 224.114 177.147 239.061 186.891 247.734C196.643 256.395 211.577 255.533 220.27 245.771C228.946 236.036 228.078 221.1 218.336 212.436C208.592 203.762 193.644 204.636 184.97 214.375L184.969 214.375ZM216.795 214.165C225.582 221.98 226.365 235.452 218.539 244.234C210.699 253.039 197.228 253.818 188.431 246.005C179.642 238.182 178.869 224.699 186.698 215.916C194.521 207.131 208.005 206.343 216.795 214.166L216.795 214.165Z" fill="#D8D9DA"/>
<path d="M229.876 240.471L230.008 240.217L237.172 239.887L237.248 240C238.004 237.352 238.479 234.599 238.611 231.783L238.503 231.861L231.82 229.256L230.747 222.171L236.349 217.691L236.48 217.746C235.508 215.093 234.245 212.601 232.732 210.3L232.697 210.423L225.761 212.242L220.716 207.147L222.611 200.229L222.73 200.207C220.422 198.656 217.944 197.365 215.327 196.383L215.376 196.503L210.842 202.052L203.756 200.901L201.228 194.195L201.305 194.094C199.904 194.152 198.494 194.278 197.087 194.501C195.717 194.71 194.374 195.008 193.07 195.372L193.181 195.435L193.064 197.463C213.873 208.386 224.486 226.071 229.878 240.469L229.876 240.471Z" fill="#184892"/>
<path d="M218.336 212.435C214.994 209.459 211.037 207.608 206.934 206.853C208.281 208.007 209.565 209.191 210.788 210.398C212.932 211.286 214.966 212.536 216.796 214.164C220.795 217.72 223.13 222.45 223.756 227.375C224.625 228.896 225.43 230.413 226.174 231.917C226.727 224.81 224.071 217.536 218.336 212.435Z" fill="#37638F"/>
<path d="M177.832 247.757L172.158 249.147C172.158 249.147 169.943 245.965 169.189 243.42C169.189 243.42 171.256 247.436 177.832 247.756L177.832 247.757Z" fill="#184892"/>
</g>
<g filter="url(#filter2_d_84_3)">
<path d="M121 263C121 249.193 132.193 238 146 238H426C439.807 238 451 249.193 451 263V267H121V263Z" fill="white"/>
<circle cx="143.5" cy="254.5" r="6.5" fill="#50DDBF"/>
<circle cx="162.5" cy="254.5" r="6.5" fill="#CDDF3A"/>
<circle cx="181.5" cy="254.5" r="6.5" fill="#DF4B3A"/>
<path d="M121 267H451V448C451 461.807 439.807 473 426 473H146C132.193 473 121 461.807 121 448V267Z" fill="#7D65B3"/>
<rect x="139" y="280" width="33" height="16" rx="8" fill="#D9D9D9"/>
<rect x="186" y="280" width="70" height="5" rx="2.5" fill="#CDDF3A"/>
<rect x="228" y="306" width="70" height="5" rx="2.5" fill="url(#paint0_linear_84_3)"/>
<rect x="228" y="316" width="70" height="5" rx="2.5" fill="url(#paint1_linear_84_3)"/>
<rect x="228" y="326" width="70" height="5" rx="2.5" fill="url(#paint2_linear_84_3)"/>
<rect x="228" y="336" width="70" height="5" rx="2.5" fill="url(#paint3_linear_84_3)"/>
<rect x="317" y="371" width="70" height="5" rx="2.5" fill="#CDDF3A"/>
<rect x="186" y="371" width="125" height="5" rx="2.5" fill="#D9D9D9"/>
<rect x="302" y="395" width="125" height="5" rx="2.5" fill="url(#paint4_linear_84_3)"/>
<rect x="302" y="405" width="125" height="5" rx="2.5" fill="#D9D9D9"/>
<rect x="263" y="280" width="39" height="5" rx="2.5" fill="#CDDF3A"/>
<rect x="323" y="293" width="39" height="5" rx="2.5" fill="#D9D9D9"/>
<rect x="202" y="293" width="39" height="5" rx="2.5" fill="#D9D9D9"/>
<rect x="256" y="395" width="39" height="5" rx="2.5" fill="url(#paint5_linear_84_3)"/>
<rect x="256" y="405" width="39" height="5" rx="2.5" fill="#D9D9D9"/>
<rect x="309" y="280" width="70" height="5" rx="2.5" fill="#D9D9D9"/>
<rect x="247" y="293" width="70" height="5" rx="2.5" fill="#D9D9D9"/>
<rect x="206" y="384" width="70" height="5" rx="2.5" fill="#D9D9D9"/>
<rect x="282" y="384" width="70" height="5" rx="2.5" fill="#D9D9D9"/>
<rect x="307" y="304" width="70" height="5" rx="2.5" fill="#D9D9D9"/>
<rect x="307" y="315" width="70" height="5" rx="2.5" fill="#D9D9D9"/>
<rect x="307" y="326" width="70" height="5" rx="2.5" fill="#DF4B3A"/>
<rect x="307" y="336" width="70" height="5" rx="2.5" fill="#D9D9D9"/>
<rect x="139" y="308" width="33" height="16" rx="8" fill="#D9D9D9"/>
<rect x="139" y="336" width="33" height="16" rx="8" fill="#D9D9D9"/>
<rect x="139" y="364" width="33" height="16" rx="8" fill="#D9D9D9"/>
<rect x="139" y="392" width="33" height="16" rx="8" fill="#D9D9D9"/>
<rect x="139" y="420" width="33" height="16" rx="8" fill="#D9D9D9"/>
<rect x="139" y="448" width="33" height="16" rx="8" fill="#D9D9D9"/>
</g>
<path d="M416.5 486.996C432.792 486.996 446 473.789 446 457.498C446 441.207 432.792 428 416.5 428C400.208 428 387 441.207 387 457.498C387 473.789 400.208 486.996 416.5 486.996Z" fill="url(#paint6_linear_84_3)"/>
<path d="M408.588 463.898L396.994 457.998V456.098L408.588 449.385V452.62L400.566 456.903L408.588 460.679V463.899V463.898Z" fill="white"/>
<path d="M420.922 446.765L414.327 466.693L411.015 466.659L417.558 446.81L420.922 446.765Z" fill="white"/>
<path d="M423.374 460.722L431.848 456.855L423.374 452.519V449.227L435.731 455.999V457.989L423.374 463.999V460.722Z" fill="white"/>
<g filter="url(#filter3_d_84_3)">
<path d="M438.5 274.994C458.658 274.994 475 258.654 475 238.497C475 218.34 458.658 202 438.5 202C418.342 202 402 218.34 402 238.497C402 258.654 418.342 274.994 438.5 274.994Z" fill="url(#paint7_linear_84_3)"/>
<path d="M423.843 253.07C422.723 253.05 421.749 252.911 420.922 252.654V248.366C421.77 248.597 422.546 248.717 423.25 248.726C424.339 248.738 425.121 248.395 425.593 247.691C426.065 246.988 426.303 245.882 426.303 244.375V221.445L431.332 221.327V244.372C431.332 247.248 430.696 249.429 429.426 250.915C428.16 252.395 426.296 253.112 423.843 253.07Z" fill="url(#paint8_linear_84_3)"/>
<path d="M455.873 243.11C455.873 245.786 454.91 247.884 452.994 249.4C451.086 250.908 448.448 251.634 445.091 251.584C442.025 251.539 439.332 250.916 437.005 249.722V244.021C438.918 244.904 440.542 245.532 441.878 245.9C443.218 246.269 444.448 246.459 445.565 246.469C446.911 246.481 447.946 246.228 448.669 245.711C449.393 245.193 449.755 244.419 449.755 243.386C449.755 242.809 449.595 242.297 449.275 241.846C448.956 241.395 448.489 240.962 447.872 240.548C447.256 240.134 446.005 239.472 444.123 238.566C442.368 237.731 441.057 236.933 440.185 236.167C439.315 235.403 438.623 234.516 438.105 233.501C437.589 232.487 437.331 231.301 437.331 229.941C437.331 227.379 438.181 225.35 439.883 223.85C441.594 222.342 443.972 221.551 447.026 221.481C448.536 221.446 449.982 221.594 451.363 221.926C452.749 222.259 454.202 222.74 455.727 223.369L453.706 228.282C452.136 227.659 450.843 227.228 449.823 226.989C448.806 226.751 447.808 226.639 446.829 226.656C445.669 226.675 444.781 226.963 444.162 227.518C443.545 228.073 443.238 228.789 443.238 229.667C443.238 230.214 443.364 230.687 443.612 231.089C443.86 231.493 444.258 231.882 444.802 232.256C445.348 232.631 446.643 233.304 448.696 234.278C451.427 235.577 453.31 236.89 454.331 238.215C455.355 239.544 455.87 241.176 455.87 243.107L455.873 243.11Z" fill="url(#paint9_linear_84_3)"/>
</g>
<g filter="url(#filter4_d_84_3)">
<path d="M168.25 499.322C181.919 485.64 181.919 463.457 168.25 449.774C154.581 436.092 132.419 436.092 118.75 449.774C105.081 463.457 105.081 485.64 118.75 499.322C132.419 513.005 154.581 513.005 168.25 499.322Z" fill="url(#paint10_linear_84_3)"/>
<path d="M128.081 467.557C126.657 467.543 125.562 468.123 124.792 469.292C124.023 470.458 123.642 472.089 123.647 474.188C123.656 478.554 125.133 480.794 128.106 480.911C129.365 480.961 130.899 480.672 132.714 480.042L132.718 483.591C131.226 484.204 129.572 484.467 127.757 484.382C125.174 484.261 123.218 483.307 121.869 481.526C120.528 479.756 119.857 477.272 119.849 474.067C119.845 472.047 120.167 470.283 120.818 468.771C121.471 467.254 122.417 466.09 123.656 465.281C124.903 464.467 126.373 464.059 128.074 464.064C129.819 464.068 131.587 464.541 133.379 465.488L132.133 468.924C131.453 468.561 130.769 468.243 130.086 467.973C129.402 467.702 128.734 467.565 128.08 467.557H128.081Z" fill="#E9F1FF"/>
<path d="M149.213 479.365C149.213 481.232 148.579 482.676 147.313 483.694C146.056 484.706 144.317 485.158 142.107 485.055C140.089 484.96 138.318 484.472 136.789 483.593L136.784 479.627C138.041 480.28 139.111 480.748 139.989 481.031C140.87 481.315 141.68 481.473 142.416 481.501C143.303 481.536 143.985 481.38 144.46 481.036C144.937 480.69 145.176 480.157 145.176 479.437C145.176 479.036 145.07 478.674 144.86 478.354C144.65 478.035 144.34 477.724 143.934 477.422C143.528 477.12 142.703 476.635 141.464 475.968C140.308 475.353 139.444 474.771 138.872 474.221C138.299 473.673 137.842 473.04 137.501 472.325C137.16 471.61 136.991 470.779 136.989 469.83C136.988 468.045 137.545 466.645 138.663 465.629C139.788 464.607 141.354 464.097 143.37 464.102C144.365 464.105 145.32 464.233 146.232 464.489C147.147 464.746 148.108 465.109 149.116 465.575L147.781 468.973C146.744 468.508 145.889 468.185 145.217 468C144.545 467.815 143.886 467.719 143.241 467.713C142.476 467.705 141.89 467.89 141.484 468.267C141.078 468.644 140.876 469.137 140.876 469.75C140.876 470.13 140.958 470.463 141.123 470.749C141.288 471.035 141.549 471.313 141.908 471.585C142.268 471.857 143.123 472.351 144.476 473.069C146.278 474.027 147.52 474.98 148.196 475.923C148.873 476.87 149.213 478.019 149.213 479.368V479.365Z" fill="#E9F1FF"/>
<path d="M166.277 479.951C166.276 481.885 165.592 483.38 164.236 484.431C162.886 485.477 161.02 485.942 158.653 485.831C156.492 485.729 154.595 485.221 152.958 484.309V480.206C154.304 480.882 155.448 481.369 156.39 481.664C157.334 481.959 158.201 482.122 158.99 482.153C159.94 482.19 160.672 482.031 161.182 481.674C161.695 481.316 161.951 480.765 161.951 480.02C161.951 479.605 161.838 479.229 161.613 478.899C161.387 478.568 161.057 478.246 160.622 477.932C160.187 477.62 159.304 477.117 157.976 476.425C156.738 475.787 155.814 475.183 155.2 474.614C154.587 474.046 154.1 473.391 153.734 472.65C153.37 471.91 153.189 471.05 153.189 470.069C153.189 468.222 153.788 466.774 154.989 465.723C156.195 464.665 157.874 464.138 160.033 464.143C161.1 464.146 162.124 464.279 163.1 464.544C164.082 464.81 165.112 465.185 166.192 465.67L164.756 469.189C163.645 468.708 162.728 468.372 162.008 468.178C161.289 467.987 160.582 467.888 159.891 467.88C159.07 467.873 158.443 468.063 158.007 468.453C157.572 468.843 157.354 469.354 157.354 469.987C157.354 470.381 157.442 470.725 157.616 471.022C157.792 471.318 158.072 471.606 158.457 471.887C158.843 472.168 159.757 472.681 161.207 473.425C163.137 474.418 164.469 475.407 165.193 476.384C165.918 477.365 166.28 478.556 166.279 479.952L166.277 479.951Z" fill="#E9F1FF"/>
</g>
<path d="M793.44 122.88C793.44 125.824 795.552 127.296 799.776 127.296C804.043 127.296 806.176 125.973 806.176 123.328C806.176 121.92 805.451 120.768 804 119.872C802.549 118.976 800.779 118.229 798.688 117.632C796.64 117.035 794.571 116.352 792.48 115.584C790.432 114.773 788.683 113.536 787.232 111.872C785.781 110.165 785.056 108.053 785.056 105.536C785.056 94.8267 791.947 89.472 805.728 89.472C810.763 89.472 814.56 90.432 817.12 92.352C819.723 94.2293 821.024 96.8533 821.024 100.224C821.024 101.461 820.853 102.656 820.512 103.808C820.213 104.917 819.893 105.707 819.552 106.176L819.04 106.944H807.712C808.651 105.963 809.12 104.725 809.12 103.232C809.12 100.459 807.307 99.072 803.68 99.072C799.115 99.072 796.832 100.523 796.832 103.424C796.832 104.875 797.557 106.027 799.008 106.88C800.459 107.733 802.208 108.416 804.256 108.928C806.347 109.397 808.437 109.995 810.528 110.72C812.619 111.445 814.389 112.661 815.84 114.368C817.291 116.032 818.016 118.208 818.016 120.896C818.016 126.315 816.395 130.347 813.152 132.992C809.909 135.595 804.917 136.896 798.176 136.896C791.435 136.896 786.827 135.701 784.352 133.312C782.517 131.52 781.6 129.045 781.6 125.888C781.6 124.693 781.728 123.392 781.984 121.984L782.176 120.96H793.696L793.568 121.728C793.483 122.155 793.44 122.539 793.44 122.88ZM836.604 136.896C831.655 136.896 828.092 135.787 825.916 133.568C824.295 131.947 823.484 129.771 823.484 127.04C823.484 126.144 823.569 125.184 823.74 124.16L828.092 99.392L839.804 94.528L837.948 105.216H855.612L854.012 114.24H836.348L835.068 121.472C834.897 122.283 834.812 123.008 834.812 123.648C834.812 126.336 836.092 127.68 838.652 127.68C840.017 127.68 841.148 127.104 842.044 125.952C842.983 124.8 843.623 123.264 843.964 121.344H854.588C852.796 131.712 846.801 136.896 836.604 136.896ZM888.049 126.144C888.049 127.253 888.604 127.808 889.713 127.808C890.865 127.808 891.825 127.595 892.593 127.168L892.273 134.4C890.225 136.064 887.921 136.896 885.361 136.896C880.668 136.896 878.065 135.189 877.553 131.776C875.42 135.189 872.284 136.896 868.145 136.896C861.148 136.896 857.649 133.888 857.649 127.872C857.649 126.848 857.756 125.717 857.969 124.48L859.313 116.992C859.996 113.152 861.553 110.101 863.985 107.84C866.46 105.536 869.66 104.384 873.585 104.384C877.553 104.384 880.241 105.301 881.649 107.136L881.969 105.216H891.697L888.113 125.376C888.07 125.632 888.049 125.888 888.049 126.144ZM869.105 123.072C869.02 123.456 868.977 123.989 868.977 124.672C868.977 125.355 869.297 126.037 869.937 126.72C870.577 127.36 871.644 127.68 873.137 127.68C874.673 127.68 875.996 127.083 877.105 125.888L879.025 115.136C878.556 114.069 877.446 113.536 875.697 113.536C872.412 113.536 870.492 115.115 869.937 118.272L869.105 123.072ZM910.229 136.896C905.28 136.896 901.717 135.787 899.541 133.568C897.92 131.947 897.109 129.771 897.109 127.04C897.109 126.144 897.194 125.184 897.365 124.16L901.717 99.392L913.429 94.528L911.573 105.216H929.237L927.637 114.24H909.973L908.693 121.472C908.522 122.283 908.437 123.008 908.437 123.648C908.437 126.336 909.717 127.68 912.277 127.68C913.642 127.68 914.773 127.104 915.669 125.952C916.608 124.8 917.248 123.264 917.589 121.344H928.213C926.421 131.712 920.426 136.896 910.229 136.896ZM945.162 127.808C946.143 127.808 947.018 127.595 947.786 127.168L947.466 134.4C945.461 136.064 943.178 136.896 940.618 136.896C936.735 136.896 934.218 136 933.066 134.208C932.298 133.013 931.914 131.755 931.914 130.432C931.914 129.067 931.999 127.872 932.17 126.848L936.01 105.216H946.89L943.306 125.376C943.263 125.632 943.242 125.867 943.242 126.08C943.242 127.232 943.882 127.808 945.162 127.808ZM937.29 94.784C937.29 92.0533 937.887 90.0693 939.082 88.832C940.319 87.552 942.218 86.912 944.778 86.912C948.362 86.912 950.154 88.4907 950.154 91.648C950.154 94.336 949.535 96.2987 948.298 97.536C947.103 98.7733 945.205 99.392 942.602 99.392C939.061 99.392 937.29 97.856 937.29 94.784ZM964.649 136.896C955.774 136.896 951.337 133.824 951.337 127.68C951.337 126.827 951.422 125.909 951.593 124.928L952.937 116.992C953.619 112.896 955.475 109.76 958.505 107.584C961.577 105.408 965.459 104.299 970.153 104.256C979.241 104.256 983.785 107.413 983.785 113.728C983.785 115.093 983.614 116.331 983.273 117.44C982.974 118.507 982.654 119.232 982.312 119.616L981.801 120.256H970.921C971.987 119.317 972.521 118.208 972.521 116.928C972.521 114.624 971.369 113.472 969.065 113.472C967.699 113.472 966.526 113.877 965.545 114.688C964.563 115.499 963.923 116.736 963.625 118.4L962.793 123.072C962.707 123.499 962.665 123.904 962.665 124.288C962.665 126.549 964.073 127.68 966.889 127.68C967.827 127.68 968.659 127.381 969.385 126.784C970.153 126.187 970.601 125.525 970.729 124.8L981.353 124.928C979.945 132.907 974.377 136.896 964.649 136.896Z" fill="#252D3B"/>
<path d="M922.82 152.828L919.363 163H918.777L916.41 156.367L914.043 163H913.445L910 152.828H911.066L913.762 161.184L916.152 154.562H916.68L919.07 161.184L921.754 152.828H922.82ZM924.625 156.133H933.555C933.336 155.422 932.965 154.805 932.441 154.281C931.52 153.359 930.41 152.898 929.113 152.898C927.816 152.898 926.707 153.359 925.785 154.281C925.238 154.836 924.852 155.453 924.625 156.133ZM924.449 157.082C924.426 157.246 924.414 157.422 924.414 157.609C924.414 158.906 924.871 160.012 925.785 160.926C926.707 161.84 927.816 162.297 929.113 162.297C930.41 162.297 931.52 161.836 932.441 160.914C932.598 160.758 932.746 160.594 932.887 160.422L933.883 160.773C933.766 160.969 933.52 161.25 933.145 161.617C932.035 162.734 930.691 163.293 929.113 163.293C927.551 163.293 926.211 162.738 925.094 161.629C923.984 160.512 923.43 159.172 923.43 157.609C923.43 156.031 923.984 154.688 925.094 153.578C926.211 152.469 927.551 151.914 929.113 151.914C930.691 151.914 932.035 152.469 933.145 153.578C934.121 154.562 934.609 155.73 934.609 157.082H924.449ZM936.191 146.43H937.129V154.258C937.301 154.023 937.496 153.797 937.715 153.578C938.824 152.469 940.164 151.914 941.734 151.914C943.305 151.914 944.645 152.469 945.754 153.578C946.863 154.688 947.418 156.031 947.418 157.609C947.418 159.172 946.863 160.512 945.754 161.629C944.645 162.738 943.305 163.293 941.734 163.293C940.164 163.293 938.824 162.734 937.715 161.617C937.496 161.398 937.301 161.172 937.129 160.938V163H936.191V146.43ZM937.129 156.637V158.582C937.301 159.465 937.727 160.242 938.406 160.914C939.328 161.836 940.438 162.297 941.734 162.297C943.031 162.297 944.137 161.84 945.051 160.926C945.973 160.012 946.434 158.906 946.434 157.609C946.434 156.312 945.973 155.203 945.051 154.281C944.137 153.359 943.031 152.898 941.734 152.898C940.438 152.898 939.328 153.359 938.406 154.281C937.727 154.961 937.301 155.746 937.129 156.637ZM952.094 157.539C951.305 157.109 950.758 156.742 950.453 156.438C949.977 155.961 949.738 155.387 949.738 154.715C949.738 154.043 949.977 153.469 950.453 152.992C950.93 152.508 951.504 152.266 952.176 152.266C952.848 152.266 953.406 152.488 953.852 152.934C954.281 153.363 954.496 153.855 954.496 154.41V154.457L953.688 154.785C953.617 154.262 953.453 153.867 953.195 153.602C952.938 153.336 952.598 153.203 952.176 153.203C951.762 153.203 951.406 153.352 951.109 153.648C950.812 153.945 950.664 154.301 950.664 154.715C950.664 155.129 950.812 155.484 951.109 155.781C951.281 155.961 951.645 156.227 952.199 156.578C953.082 157.055 953.711 157.48 954.086 157.855C954.672 158.449 954.965 159.156 954.965 159.977C954.965 160.82 954.672 161.539 954.086 162.133C953.5 162.719 952.789 163.012 951.953 163.012C951.117 163.012 950.406 162.719 949.82 162.133C949.234 161.539 948.941 160.891 948.941 160.188L949.867 159.953C949.867 160.555 950.07 161.062 950.477 161.477C950.891 161.883 951.383 162.086 951.953 162.086C952.523 162.086 953.016 161.883 953.43 161.477C953.844 161.062 954.051 160.562 954.051 159.977C954.051 159.406 953.844 158.918 953.43 158.512C953.211 158.293 952.766 157.969 952.094 157.539ZM958.164 152.828V163H957.238V152.828H958.164ZM957.707 149.23C957.957 149.23 958.172 149.32 958.352 149.5C958.539 149.68 958.633 149.895 958.633 150.145C958.633 150.41 958.539 150.633 958.352 150.812C958.172 150.992 957.957 151.082 957.707 151.082C957.449 151.082 957.227 150.992 957.039 150.812C956.859 150.633 956.77 150.41 956.77 150.145C956.77 149.895 956.859 149.68 957.039 149.5C957.227 149.32 957.449 149.23 957.707 149.23ZM962.02 152.828V148.504H962.945V152.828H965.02V153.766H962.945V163H962.02V153.766H959.945V152.828H962.02ZM967.211 156.133H976.141C975.922 155.422 975.551 154.805 975.027 154.281C974.105 153.359 972.996 152.898 971.699 152.898C970.402 152.898 969.293 153.359 968.371 154.281C967.824 154.836 967.438 155.453 967.211 156.133ZM967.035 157.082C967.012 157.246 967 157.422 967 157.609C967 158.906 967.457 160.012 968.371 160.926C969.293 161.84 970.402 162.297 971.699 162.297C972.996 162.297 974.105 161.836 975.027 160.914C975.184 160.758 975.332 160.594 975.473 160.422L976.469 160.773C976.352 160.969 976.105 161.25 975.73 161.617C974.621 162.734 973.277 163.293 971.699 163.293C970.137 163.293 968.797 162.738 967.68 161.629C966.57 160.512 966.016 159.172 966.016 157.609C966.016 156.031 966.57 154.688 967.68 153.578C968.797 152.469 970.137 151.914 971.699 151.914C973.277 151.914 974.621 152.469 975.73 153.578C976.707 154.562 977.195 155.73 977.195 157.082H967.035ZM981.414 157.539C980.625 157.109 980.078 156.742 979.773 156.438C979.297 155.961 979.059 155.387 979.059 154.715C979.059 154.043 979.297 153.469 979.773 152.992C980.25 152.508 980.824 152.266 981.496 152.266C982.168 152.266 982.727 152.488 983.172 152.934C983.602 153.363 983.816 153.855 983.816 154.41V154.457L983.008 154.785C982.938 154.262 982.773 153.867 982.516 153.602C982.258 153.336 981.918 153.203 981.496 153.203C981.082 153.203 980.727 153.352 980.43 153.648C980.133 153.945 979.984 154.301 979.984 154.715C979.984 155.129 980.133 155.484 980.43 155.781C980.602 155.961 980.965 156.227 981.52 156.578C982.402 157.055 983.031 157.48 983.406 157.855C983.992 158.449 984.285 159.156 984.285 159.977C984.285 160.82 983.992 161.539 983.406 162.133C982.82 162.719 982.109 163.012 981.273 163.012C980.438 163.012 979.727 162.719 979.141 162.133C978.555 161.539 978.262 160.891 978.262 160.188L979.188 159.953C979.188 160.555 979.391 161.062 979.797 161.477C980.211 161.883 980.703 162.086 981.273 162.086C981.844 162.086 982.336 161.883 982.75 161.477C983.164 161.062 983.371 160.562 983.371 159.977C983.371 159.406 983.164 158.918 982.75 158.512C982.531 158.293 982.086 157.969 981.414 157.539Z" fill="black"/>
<path d="M826.751 500.638L808.879 513.819C808.879 515.6 810.329 517.038 812.098 517.038H967.925C969.694 517.038 971.132 515.6 971.132 513.819L953.26 500.638H826.751Z" fill="#9EABD3"/>
<path d="M952.758 496.518H827.254V505.454H952.758V496.518Z" fill="#184892"/>
<path d="M827.254 496.518L843.882 484.889H936.118L952.758 496.518H827.254Z" fill="#A4DEF6"/>
<path d="M735.428 238.011H1044.57C1047.01 238.011 1049 239.997 1049 242.439V442.023C1049 444.465 1047.01 446.462 1044.56 446.462H735.428C732.986 446.462 731 444.476 731 442.034V242.439C731 239.997 732.986 238 735.439 238L735.428 238.011Z" fill="#184892"/>
<path d="M1039.09 251.626H740.917V432.847H1039.09V251.626Z" fill="#6A54A1"/>
<g style="mix-blend-mode:soft-light" opacity="0.3">
<path d="M740.917 251.626V432.847H1039.09L740.917 251.626Z" fill="white"/>
</g>
<path d="M863.432 446.462V488.62C863.432 491.04 875.335 492.991 890 492.991C904.665 492.991 916.568 491.04 916.568 488.62V446.462H863.432Z" fill="#184892"/>
<path opacity="0.53" d="M835.421 280.971L759.986 280.502C759.433 280.498 758.986 280.097 758.991 279.606L759.025 275.325C759.029 274.835 759.481 274.439 760.034 274.443L835.47 274.912C836.023 274.915 836.469 275.317 836.464 275.807L836.43 280.088C836.427 280.579 835.974 280.975 835.421 280.971Z" fill="#BDD0FB"/>
<path opacity="0.53" d="M883.936 281.404L858.686 281.247C858.155 281.244 857.727 280.86 857.731 280.388L857.765 276.035C857.769 275.564 858.202 275.185 858.733 275.188L883.983 275.345C884.514 275.348 884.941 275.733 884.938 276.204L884.904 280.557C884.9 281.028 884.467 281.407 883.936 281.404Z" fill="#BDD0FB"/>
<path opacity="0.53" d="M942.633 281.768L892.025 281.453C891.181 281.448 890.502 280.837 890.508 280.088L890.535 276.742C890.541 275.992 891.229 275.39 892.074 275.396L942.682 275.71C943.526 275.715 944.205 276.326 944.199 277.076L944.172 280.422C944.166 281.171 943.478 281.773 942.633 281.768Z" fill="#BDD0FB"/>
<path opacity="0.53" d="M758.819 286.438L758.793 289.785C758.787 290.534 759.467 291.145 760.311 291.15L778.014 291.26C778.858 291.265 779.547 290.662 779.553 289.913L779.579 286.566C779.585 285.818 778.905 285.206 778.062 285.201L760.358 285.091C759.514 285.086 758.825 285.689 758.819 286.438Z" fill="#BDD0FB"/>
<path opacity="0.53" d="M835.491 291.63L781.176 291.293C780.624 291.29 780.177 290.888 780.182 290.398L780.216 286.117C780.219 285.626 780.672 285.23 781.225 285.234L835.54 285.571C836.093 285.575 836.539 285.976 836.534 286.467L836.501 290.748C836.497 291.238 836.044 291.635 835.491 291.63Z" fill="#BDD0FB"/>
<path opacity="0.53" d="M884.07 292.064L858.82 291.907C858.289 291.904 857.862 291.52 857.865 291.049L857.899 286.696C857.903 286.224 858.336 285.845 858.867 285.849L884.117 286.005C884.648 286.009 885.076 286.393 885.072 286.864L885.038 291.217C885.034 291.688 884.601 292.067 884.07 292.064Z" fill="#BDD0FB"/>
<path opacity="0.53" d="M986.485 292.699L910.926 292.23C910.081 292.225 909.402 291.614 909.408 290.865L909.435 287.519C909.441 286.769 910.13 286.167 910.974 286.172L986.533 286.642C987.378 286.647 988.056 287.258 988.05 288.007L988.024 291.353C988.018 292.102 987.329 292.705 986.485 292.699Z" fill="#BDD0FB"/>
<path opacity="0.53" d="M758.719 297.079L758.693 300.426C758.687 301.175 759.366 301.786 760.21 301.792L777.914 301.901C778.758 301.907 779.447 301.304 779.452 300.555L779.479 297.208C779.485 296.459 778.805 295.848 777.961 295.843L760.258 295.733C759.414 295.728 758.725 296.331 758.719 297.079Z" fill="#BDD0FB"/>
<path opacity="0.53" d="M835.38 302.273L781.065 301.936C780.512 301.933 780.066 301.531 780.071 301.04L780.105 296.759C780.108 296.269 780.561 295.873 781.114 295.877L835.429 296.214C835.982 296.217 836.428 296.619 836.423 297.109L836.389 301.39C836.386 301.881 835.933 302.277 835.38 302.273Z" fill="#BDD0FB"/>
<path opacity="0.53" d="M883.966 302.707L858.716 302.55C858.185 302.547 857.758 302.162 857.761 301.691L857.795 297.338C857.799 296.867 858.232 296.488 858.763 296.491L884.013 296.648C884.545 296.651 884.972 297.035 884.968 297.507L884.934 301.86C884.93 302.331 884.497 302.71 883.966 302.707Z" fill="#BDD0FB"/>
<path opacity="0.53" d="M1019.85 303.55L920.461 302.933C919.617 302.927 918.938 302.317 918.944 301.567L918.971 298.221C918.977 297.472 919.665 296.87 920.51 296.875L1019.89 297.492C1020.74 297.498 1021.42 298.108 1021.41 298.858L1021.39 302.204C1021.38 302.953 1020.69 303.555 1019.85 303.55Z" fill="#BDD0FB"/>
<path opacity="0.53" d="M758.803 307.739L758.777 311.086C758.771 311.835 759.45 312.446 760.294 312.451L777.997 312.561C778.841 312.566 779.53 311.963 779.536 311.215L779.562 307.868C779.568 307.119 778.889 306.508 778.045 306.502L760.342 306.393C759.498 306.388 758.809 306.99 758.803 307.739Z" fill="#BDD0FB"/>
<path opacity="0.53" d="M835.592 312.932L781.277 312.595C780.724 312.592 780.278 312.19 780.282 311.7L780.316 307.419C780.32 306.928 780.772 306.532 781.325 306.536L835.64 306.873C836.193 306.876 836.64 307.278 836.635 307.769L836.601 312.05C836.597 312.54 836.145 312.936 835.592 312.932Z" fill="#BDD0FB"/>
<path opacity="0.53" d="M884.1 313.366L858.85 313.209C858.319 313.206 857.892 312.822 857.896 312.35L857.93 307.997C857.933 307.526 858.366 307.147 858.898 307.15L884.148 307.307C884.679 307.31 885.106 307.695 885.102 308.166L885.068 312.519C885.065 312.99 884.632 313.369 884.1 313.366Z" fill="#BDD0FB"/>
<path opacity="0.53" d="M1020.3 314.212L920.916 313.594C920.072 313.589 919.393 312.978 919.399 312.229L919.425 308.883C919.432 308.134 920.12 307.531 920.964 307.537L1020.35 308.154C1021.19 308.159 1021.87 308.77 1021.87 309.519L1021.84 312.865C1021.83 313.615 1021.15 314.217 1020.3 314.212Z" fill="#BDD0FB"/>
<path opacity="0.53" d="M758.653 318.798L758.627 322.145C758.621 322.893 759.3 323.505 760.144 323.51L777.847 323.62C778.691 323.625 779.38 323.022 779.386 322.273L779.412 318.926C779.418 318.177 778.739 317.566 777.895 317.561L760.192 317.451C759.348 317.446 758.659 318.049 758.653 318.798Z" fill="#BDD0FB"/>
<path opacity="0.53" d="M835.392 323.992L781.077 323.654C780.524 323.651 780.079 323.25 780.083 322.759L780.117 318.478C780.12 317.988 780.573 317.591 781.126 317.596L835.441 317.933C835.994 317.936 836.44 318.338 836.435 318.828L836.401 323.109C836.398 323.6 835.945 323.996 835.392 323.992Z" fill="#BDD0FB"/>
<path opacity="0.53" d="M883.931 324.425L858.681 324.268C858.15 324.265 857.723 323.881 857.726 323.409L857.76 319.056C857.764 318.585 858.197 318.206 858.728 318.209L883.978 318.366C884.509 318.369 884.937 318.754 884.933 319.225L884.899 323.578C884.895 324.049 884.462 324.428 883.931 324.425Z" fill="#BDD0FB"/>
<path opacity="0.53" d="M1020.01 325.27L920.626 324.652C919.781 324.647 919.103 324.036 919.109 323.287L919.135 319.941C919.141 319.192 919.83 318.589 920.674 318.595L1020.06 319.212C1020.9 319.217 1021.58 319.828 1021.58 320.577L1021.55 323.924C1021.54 324.673 1020.86 325.275 1020.01 325.27Z" fill="#BDD0FB"/>
<path opacity="0.53" d="M758.735 329.457L758.709 332.804C758.703 333.553 759.383 334.164 760.226 334.17L777.93 334.279C778.774 334.285 779.463 333.682 779.469 332.933L779.495 329.586C779.501 328.837 778.821 328.226 777.977 328.221L760.274 328.111C759.43 328.106 758.741 328.709 758.735 329.457Z" fill="#BDD0FB"/>
<path opacity="0.53" d="M835.605 334.652L781.29 334.315C780.737 334.312 780.292 333.91 780.296 333.42L780.33 329.139C780.333 328.648 780.786 328.253 781.339 328.256L835.654 328.593C836.207 328.597 836.653 328.998 836.648 329.489L836.614 333.77C836.611 334.26 836.158 334.656 835.605 334.652Z" fill="#BDD0FB"/>
<path opacity="0.53" d="M884.065 335.085L858.815 334.928C858.284 334.925 857.857 334.54 857.861 334.069L857.895 329.716C857.898 329.245 858.331 328.866 858.863 328.869L884.113 329.026C884.644 329.029 885.071 329.413 885.067 329.885L885.033 334.238C885.03 334.709 884.597 335.088 884.065 335.085Z" fill="#BDD0FB"/>
<path opacity="0.53" d="M951.307 335.502L891.601 335.131C890.756 335.126 890.077 334.515 890.084 333.765L890.11 330.419C890.116 329.67 890.805 329.068 891.649 329.073L951.356 329.445C952.2 329.45 952.879 330.061 952.873 330.81L952.846 334.156C952.84 334.906 952.152 335.508 951.307 335.502Z" fill="#BDD0FB"/>
<path opacity="0.53" d="M835.535 345.295L759.677 344.823C759.124 344.82 758.678 344.419 758.683 343.928L758.717 339.647C758.72 339.157 759.173 338.76 759.726 338.765L835.584 339.236C836.136 339.239 836.583 339.641 836.578 340.131L836.544 344.412C836.541 344.903 836.088 345.299 835.535 345.295Z" fill="#BDD0FB"/>
<path opacity="0.53" d="M883.961 345.727L858.711 345.57C858.18 345.567 857.753 345.183 857.757 344.712L857.79 340.359C857.794 339.887 858.227 339.509 858.758 339.512L884.008 339.668C884.54 339.672 884.967 340.056 884.963 340.527L884.929 344.88C884.926 345.351 884.492 345.73 883.961 345.727Z" fill="#BDD0FB"/>
<path opacity="0.53" d="M980.854 346.33L905.663 345.863C904.818 345.858 904.139 345.247 904.145 344.497L904.172 341.151C904.178 340.402 904.867 339.8 905.711 339.805L980.902 340.272C981.747 340.278 982.426 340.888 982.419 341.638L982.393 344.984C982.387 345.733 981.698 346.335 980.854 346.33Z" fill="#BDD0FB"/>
<path opacity="0.53" d="M758.766 350.759L758.74 354.106C758.734 354.854 759.413 355.466 760.257 355.471L777.131 355.575C777.974 355.581 778.663 354.978 778.669 354.229L778.696 350.882C778.702 350.133 778.022 349.522 777.178 349.517L760.305 349.412C759.461 349.407 758.772 350.01 758.766 350.759Z" fill="#BDD0FB"/>
<path opacity="0.53" d="M835.706 355.954L781.391 355.617C780.838 355.614 780.391 355.213 780.396 354.722L780.43 350.441C780.434 349.95 780.886 349.554 781.439 349.559L835.754 349.896C836.307 349.899 836.754 350.3 836.749 350.791L836.715 355.072C836.711 355.563 836.259 355.959 835.706 355.954Z" fill="#BDD0FB"/>
<path opacity="0.53" d="M884.096 356.387L858.846 356.23C858.314 356.227 857.887 355.843 857.891 355.371L857.925 351.018C857.929 350.547 858.362 350.168 858.893 350.171L884.143 350.328C884.674 350.331 885.101 350.716 885.098 351.187L885.064 355.54C885.06 356.011 884.627 356.39 884.096 356.387Z" fill="#BDD0FB"/>
<path opacity="0.53" d="M1020.43 357.234L917.57 356.595C916.725 356.59 916.046 355.979 916.052 355.23L916.079 351.884C916.085 351.134 916.774 350.532 917.618 350.538L1020.48 351.176C1021.33 351.182 1022.01 351.793 1022 352.542L1021.97 355.888C1021.97 356.637 1021.28 357.239 1020.43 357.234Z" fill="#BDD0FB"/>
<path opacity="0.53" d="M758.037 382.562L758.011 385.909C758.005 386.658 758.684 387.269 759.528 387.274L777.231 387.384C778.075 387.389 778.764 386.787 778.77 386.038L778.796 382.691C778.802 381.942 778.123 381.331 777.279 381.326L759.576 381.216C758.732 381.21 758.043 381.813 758.037 382.562Z" fill="#BDD0FB"/>
<path opacity="0.53" d="M834.934 387.758L780.619 387.421C780.066 387.418 779.619 387.016 779.624 386.526L779.658 382.245C779.662 381.754 780.114 381.358 780.667 381.362L834.982 381.699C835.535 381.703 835.982 382.104 835.977 382.595L835.943 386.876C835.939 387.366 835.487 387.762 834.934 387.758Z" fill="#BDD0FB"/>
<path opacity="0.53" d="M883.367 388.19L858.117 388.033C857.586 388.03 857.159 387.645 857.163 387.174L857.196 382.821C857.2 382.35 857.633 381.971 858.164 381.974L883.414 382.131C883.946 382.134 884.373 382.518 884.369 382.99L884.335 387.343C884.332 387.814 883.898 388.193 883.367 388.19Z" fill="#BDD0FB"/>
<path opacity="0.53" d="M950.609 388.607L890.903 388.236C890.058 388.231 889.379 387.62 889.386 386.87L889.412 383.524C889.418 382.775 890.107 382.173 890.951 382.178L950.658 382.55C951.502 382.555 952.181 383.166 952.175 383.915L952.148 387.261C952.142 388.011 951.454 388.613 950.609 388.607Z" fill="#BDD0FB"/>
<path opacity="0.53" d="M834.865 398.401L759.007 397.93C758.454 397.927 758.008 397.525 758.012 397.035L758.046 392.754C758.05 392.263 758.503 391.867 759.055 391.871L834.913 392.342C835.466 392.346 835.913 392.747 835.908 393.238L835.874 397.519C835.87 398.009 835.418 398.405 834.865 398.401Z" fill="#BDD0FB"/>
<path opacity="0.53" d="M883.263 398.832L858.013 398.675C857.482 398.672 857.055 398.288 857.058 397.817L857.092 393.464C857.096 392.992 857.529 392.613 858.06 392.617L883.31 392.773C883.842 392.777 884.269 393.161 884.265 393.632L884.231 397.985C884.227 398.456 883.794 398.835 883.263 398.832Z" fill="#BDD0FB"/>
<path opacity="0.53" d="M980.113 399.435L904.922 398.968C904.078 398.962 903.399 398.352 903.405 397.602L903.431 394.256C903.437 393.507 904.126 392.905 904.97 392.91L980.162 393.377C981.006 393.383 981.685 393.993 981.679 394.743L981.652 398.089C981.646 398.838 980.958 399.44 980.113 399.435Z" fill="#BDD0FB"/>
<path opacity="0.53" d="M758.069 403.863L758.043 407.21C758.037 407.959 758.716 408.57 759.56 408.575L776.433 408.679C777.277 408.684 777.966 408.081 777.972 407.333L777.999 403.986C778.005 403.237 777.325 402.626 776.482 402.62L759.608 402.517C758.764 402.512 758.075 403.114 758.069 403.863Z" fill="#BDD0FB"/>
<path opacity="0.53" d="M835.036 409.061L780.721 408.724C780.168 408.721 779.721 408.319 779.726 407.829L779.76 403.547C779.763 403.057 780.216 402.661 780.769 402.665L835.084 403.002C835.637 403.005 836.083 403.407 836.079 403.897L836.045 408.178C836.041 408.669 835.588 409.065 835.036 409.061Z" fill="#BDD0FB"/>
<path opacity="0.53" d="M883.398 409.492L858.148 409.336C857.616 409.332 857.189 408.948 857.193 408.477L857.227 404.124C857.23 403.653 857.664 403.274 858.195 403.277L883.445 403.434C883.976 403.437 884.403 403.821 884.399 404.292L884.366 408.645C884.362 409.117 883.929 409.496 883.398 409.492Z" fill="#BDD0FB"/>
<path opacity="0.53" d="M1019.69 410.339L916.829 409.7C915.985 409.695 915.306 409.084 915.312 408.335L915.339 404.989C915.345 404.239 916.033 403.637 916.878 403.643L1019.74 404.281C1020.59 404.287 1021.27 404.898 1021.26 405.647L1021.23 408.993C1021.23 409.742 1020.54 410.344 1019.69 410.339Z" fill="#BDD0FB"/>
<path opacity="0.53" d="M758.449 361.598L758.422 364.945C758.417 365.694 759.096 366.305 759.94 366.31L776.813 366.415C777.657 366.42 778.346 365.817 778.352 365.068L778.378 361.721C778.384 360.973 777.705 360.361 776.861 360.356L759.988 360.252C759.144 360.246 758.455 360.849 758.449 361.598Z" fill="#BDD0FB"/>
<path opacity="0.53" d="M835.189 366.792L780.874 366.455C780.321 366.452 779.875 366.05 779.879 365.559L779.913 361.278C779.917 360.788 780.369 360.392 780.922 360.396L835.237 360.733C835.79 360.736 836.237 361.138 836.232 361.628L836.198 365.909C836.194 366.4 835.742 366.796 835.189 366.792Z" fill="#BDD0FB"/>
<path opacity="0.53" d="M883.693 367.225L858.443 367.068C857.912 367.065 857.484 366.681 857.488 366.209L857.522 361.856C857.526 361.385 857.959 361.006 858.49 361.009L883.74 361.166C884.271 361.169 884.698 361.554 884.695 362.025L884.661 366.378C884.657 366.849 884.224 367.228 883.693 367.225Z" fill="#BDD0FB"/>
<path opacity="0.53" d="M1019.54 368.069L916.674 367.43C915.83 367.425 915.151 366.814 915.157 366.065L915.184 362.719C915.19 361.969 915.878 361.367 916.723 361.373L1019.59 362.011C1020.43 362.017 1021.11 362.628 1021.1 363.377L1021.08 366.723C1021.07 367.472 1020.38 368.074 1019.54 368.069Z" fill="#BDD0FB"/>
<path opacity="0.53" d="M758.526 372.257L758.499 375.604C758.493 376.352 759.173 376.964 760.017 376.969L776.89 377.073C777.734 377.079 778.423 376.476 778.429 375.727L778.455 372.38C778.461 371.631 777.782 371.02 776.938 371.015L760.064 370.91C759.22 370.905 758.531 371.508 758.526 372.257Z" fill="#BDD0FB"/>
<path opacity="0.53" d="M835.402 377.452L781.087 377.115C780.534 377.112 780.088 376.71 780.092 376.22L780.126 371.939C780.13 371.448 780.582 371.052 781.135 371.056L835.45 371.393C836.003 371.396 836.45 371.798 836.445 372.289L836.411 376.57C836.407 377.06 835.955 377.456 835.402 377.452Z" fill="#BDD0FB"/>
<path opacity="0.53" d="M883.826 377.884L858.576 377.728C858.045 377.724 857.617 377.34 857.621 376.869L857.655 372.516C857.659 372.045 858.092 371.666 858.623 371.669L883.873 371.826C884.404 371.829 884.831 372.213 884.828 372.684L884.794 377.037C884.79 377.509 884.357 377.888 883.826 377.884Z" fill="#BDD0FB"/>
<path opacity="0.53" d="M1020.01 378.731L917.146 378.092C916.302 378.087 915.623 377.476 915.629 376.726L915.655 373.38C915.661 372.631 916.35 372.029 917.194 372.034L1020.06 372.673C1020.9 372.678 1021.58 373.289 1021.58 374.038L1021.55 377.384C1021.54 378.134 1020.86 378.736 1020.01 378.731Z" fill="#BDD0FB"/>
<path opacity="0.53" d="M847.196 416.312L845.812 416.303C845.502 416.301 845.253 416.077 845.256 415.802L846.427 267.494C846.429 267.219 846.682 266.998 846.992 267L848.376 267.009C848.686 267.011 848.935 267.235 848.933 267.51L847.761 415.818C847.759 416.093 847.506 416.314 847.196 416.312Z" fill="#BDD0FB"/>
<rect x="708" y="444" width="127" height="55.6842" rx="25" fill="#EEF0FD"/>
<path d="M740.066 483.093L734.851 482.806V471.503L725.153 471.024V482.27L720 481.985V456L725.153 456.216V466.429L734.851 466.884V456.62L740.066 456.838V483.099V483.093Z" fill="#070808"/>
<path d="M757.754 484.076L752.425 483.779V462.012L745.643 461.712V457.063L764.623 457.854V462.547L757.754 462.245V484.073V484.076Z" fill="#070808"/>
<path d="M781.197 485.372L775 464.051L774.842 464.045C775.063 468.322 775.177 471.175 775.177 472.603V485.04L770.326 484.771V458.094L777.725 458.402L783.834 479.197L783.942 479.203L790.464 458.932L798.018 459.246V486.303L792.839 486.016V473.243C792.839 472.641 792.847 471.944 792.865 471.16C792.883 470.373 792.964 468.286 793.108 464.895L792.946 464.889L786.23 485.654L781.2 485.375L781.197 485.372Z" fill="#070808"/>
<path d="M806.499 486.771V459.598L812.133 459.831V482.311L823 482.886V487.684L806.499 486.771Z" fill="#070808"/>
<rect x="988" y="226" width="113.325" height="70" rx="25" fill="#EEF0FD"/>
<path d="M1026.74 277.549L1000 263.93V259.544L1026.74 244.048V251.516L1008.24 261.404L1026.74 270.119V277.552V277.549Z" fill="#070808"/>
<path d="M1055.18 238L1039.97 284L1032.33 283.921L1047.42 238.104L1055.18 238Z" fill="#070808"/>
<path d="M1060.83 270.217L1080.37 261.291L1060.83 251.283V243.684L1089.32 259.315V263.909L1060.83 277.783V270.217Z" fill="#070808"/>
<rect x="963" y="443" width="82" height="53" rx="25" fill="#EEF0FD"/>
<path d="M990.718 483.998C989.696 483.98 988.807 483.853 988.052 483.618V479.701C988.827 479.912 989.535 480.021 990.177 480.03C991.171 480.041 991.885 479.727 992.315 479.084C992.746 478.442 992.963 477.432 992.963 476.055V455.108L997.553 455V476.053C997.553 478.68 996.972 480.672 995.814 482.029C994.658 483.382 992.957 484.037 990.718 483.998Z" fill="#070808"/>
<path d="M1019.95 474.9C1019.95 477.345 1019.07 479.262 1017.32 480.646C1015.58 482.024 1013.17 482.687 1010.11 482.642C1007.31 482.6 1004.85 482.031 1002.73 480.941V475.732C1004.47 476.539 1005.96 477.113 1007.18 477.449C1008.4 477.786 1009.52 477.96 1010.54 477.968C1011.77 477.979 1012.71 477.749 1013.37 477.276C1014.03 476.803 1014.36 476.096 1014.36 475.152C1014.36 474.626 1014.22 474.157 1013.93 473.745C1013.64 473.333 1013.21 472.938 1012.65 472.56C1012.08 472.181 1010.94 471.577 1009.23 470.749C1007.62 469.987 1006.43 469.257 1005.63 468.558C1004.84 467.86 1004.21 467.049 1003.73 466.122C1003.26 465.196 1003.03 464.112 1003.03 462.87C1003.03 460.529 1003.8 458.676 1005.36 457.305C1006.92 455.928 1009.09 455.205 1011.87 455.141C1013.25 455.109 1014.57 455.245 1015.83 455.548C1017.1 455.852 1018.42 456.291 1019.82 456.866L1017.97 461.354C1016.54 460.785 1015.36 460.391 1014.43 460.173C1013.5 459.956 1012.59 459.853 1011.69 459.869C1010.64 459.887 1009.83 460.149 1009.26 460.656C1008.7 461.163 1008.42 461.817 1008.42 462.62C1008.42 463.119 1008.53 463.551 1008.76 463.919C1008.98 464.288 1009.35 464.643 1009.85 464.984C1010.34 465.327 1011.53 465.942 1013.4 466.832C1015.89 468.019 1017.61 469.218 1018.54 470.429C1019.48 471.642 1019.94 473.133 1019.94 474.898L1019.95 474.9Z" fill="#070808"/>
<circle cx="603.923" cy="347.923" r="49" fill="#FCAC7F"/>
<path d="M628.435 390.37C634.008 387.153 638.892 382.87 642.81 377.765C646.727 372.66 649.6 366.833 651.266 360.617C652.931 354.402 653.356 347.919 652.516 341.539C651.676 335.16 649.588 329.008 646.371 323.435C643.153 317.863 638.87 312.978 633.765 309.061C628.66 305.144 622.833 302.27 616.617 300.605C610.402 298.939 603.919 298.515 597.54 299.354C591.16 300.194 585.008 302.283 579.435 305.5L603.935 347.935L628.435 390.37Z" fill="#EF9562"/>
<path d="M578.809 333.014L588.525 361.446H588.917L598.633 333.014H604.326L591.764 367.923H585.679L573.116 333.014H578.809ZM628.407 342.184C628.225 340.571 627.475 339.321 626.157 338.434C624.839 337.536 623.18 337.088 621.18 337.088C619.748 337.088 618.509 337.315 617.464 337.769C616.419 338.213 615.606 338.826 615.027 339.61C614.458 340.383 614.174 341.264 614.174 342.252C614.174 343.082 614.367 343.798 614.754 344.4C615.152 345.002 615.669 345.508 616.305 345.917C616.953 346.315 617.646 346.65 618.384 346.923C619.123 347.184 619.833 347.4 620.515 347.571L623.924 348.457C625.038 348.73 626.18 349.099 627.35 349.565C628.521 350.031 629.606 350.644 630.606 351.406C631.606 352.167 632.413 353.11 633.027 354.235C633.652 355.36 633.964 356.707 633.964 358.275C633.964 360.252 633.453 362.008 632.43 363.542C631.419 365.076 629.947 366.286 628.015 367.173C626.095 368.059 623.771 368.502 621.044 368.502C618.43 368.502 616.169 368.088 614.259 367.258C612.35 366.429 610.856 365.252 609.777 363.73C608.697 362.196 608.1 360.377 607.987 358.275H613.271C613.373 359.536 613.782 360.588 614.498 361.429C615.225 362.258 616.152 362.877 617.277 363.286C618.413 363.684 619.657 363.883 621.009 363.883C622.498 363.883 623.822 363.65 624.981 363.184C626.152 362.707 627.072 362.048 627.742 361.207C628.413 360.355 628.748 359.36 628.748 358.224C628.748 357.19 628.453 356.343 627.862 355.684C627.282 355.025 626.492 354.48 625.492 354.048C624.504 353.616 623.384 353.235 622.134 352.906L618.009 351.781C615.214 351.019 612.998 349.9 611.362 348.423C609.737 346.946 608.924 344.991 608.924 342.559C608.924 340.548 609.47 338.792 610.561 337.292C611.652 335.792 613.129 334.627 614.992 333.798C616.856 332.957 618.958 332.536 621.299 332.536C623.663 332.536 625.748 332.951 627.555 333.781C629.373 334.61 630.805 335.752 631.85 337.207C632.896 338.65 633.441 340.309 633.487 342.184H628.407Z" fill="#252D3B"/>
</g>
<defs>
<filter id="filter0_d_84_3" x="0" y="0" width="1208" height="638" filterUnits="userSpaceOnUse" color-interpolation-filters="sRGB">
<feFlood flood-opacity="0" result="BackgroundImageFix"/>
<feColorMatrix in="SourceAlpha" type="matrix" values="0 0 0 0 0 0 0 0 0 0 0 0 0 0 0 0 0 0 127 0" result="hardAlpha"/>
<feOffset dy="4"/>
<feGaussianBlur stdDeviation="2"/>
<feComposite in2="hardAlpha" operator="out"/>
<feColorMatrix type="matrix" values="0 0 0 0 0 0 0 0 0 0 0 0 0 0 0 0 0 0 0.25 0"/>
<feBlend mode="normal" in2="BackgroundImageFix" result="effect1_dropShadow_84_3"/>
<feBlend mode="normal" in="SourceGraphic" in2="effect1_dropShadow_84_3" result="shape"/>
</filter>
<filter id="filter1_d_84_3" x="151.64" y="181.094" width="101.972" height="101.956" filterUnits="userSpaceOnUse" color-interpolation-filters="sRGB">
<feFlood flood-opacity="0" result="BackgroundImageFix"/>
<feColorMatrix in="SourceAlpha" type="matrix" values="0 0 0 0 0 0 0 0 0 0 0 0 0 0 0 0 0 0 127 0" result="hardAlpha"/>
<feOffset dy="2"/>
<feGaussianBlur stdDeviation="7.5"/>
<feComposite in2="hardAlpha" operator="out"/>
<feColorMatrix type="matrix" values="0 0 0 0 0.0941176 0 0 0 0 0.282353 0 0 0 0 0.572549 0 0 0 0.39 0"/>
<feBlend mode="normal" in2="BackgroundImageFix" result="effect1_dropShadow_84_3"/>
<feBlend mode="normal" in="SourceGraphic" in2="effect1_dropShadow_84_3" result="shape"/>
</filter>
<filter id="filter2_d_84_3" x="96" y="215" width="380" height="285" filterUnits="userSpaceOnUse" color-interpolation-filters="sRGB">
<feFlood flood-opacity="0" result="BackgroundImageFix"/>
<feColorMatrix in="SourceAlpha" type="matrix" values="0 0 0 0 0 0 0 0 0 0 0 0 0 0 0 0 0 0 127 0" result="hardAlpha"/>
<feOffset dy="2"/>
<feGaussianBlur stdDeviation="12.5"/>
<feComposite in2="hardAlpha" operator="out"/>
<feColorMatrix type="matrix" values="0 0 0 0 0.423529 0 0 0 0 0.396078 0 0 0 0 0.670588 0 0 0 1 0"/>
<feBlend mode="normal" in2="BackgroundImageFix" result="effect1_dropShadow_84_3"/>
<feBlend mode="normal" in="SourceGraphic" in2="effect1_dropShadow_84_3" result="shape"/>
</filter>
<filter id="filter3_d_84_3" x="377" y="179" width="123" height="122.995" filterUnits="userSpaceOnUse" color-interpolation-filters="sRGB">
<feFlood flood-opacity="0" result="BackgroundImageFix"/>
<feColorMatrix in="SourceAlpha" type="matrix" values="0 0 0 0 0 0 0 0 0 0 0 0 0 0 0 0 0 0 127 0" result="hardAlpha"/>
<feOffset dy="2"/>
<feGaussianBlur stdDeviation="12.5"/>
<feComposite in2="hardAlpha" operator="out"/>
<feColorMatrix type="matrix" values="0 0 0 0 0.498039 0 0 0 0 0.113725 0 0 0 0 0.470588 0 0 0 0.37 0"/>
<feBlend mode="normal" in2="BackgroundImageFix" result="effect1_dropShadow_84_3"/>
<feBlend mode="normal" in="SourceGraphic" in2="effect1_dropShadow_84_3" result="shape"/>
</filter>
<filter id="filter4_d_84_3" x="83.4983" y="416.512" width="120.003" height="120.072" filterUnits="userSpaceOnUse" color-interpolation-filters="sRGB">
<feFlood flood-opacity="0" result="BackgroundImageFix"/>
<feColorMatrix in="SourceAlpha" type="matrix" values="0 0 0 0 0 0 0 0 0 0 0 0 0 0 0 0 0 0 127 0" result="hardAlpha"/>
<feOffset dy="2"/>
<feGaussianBlur stdDeviation="12.5"/>
<feComposite in2="hardAlpha" operator="out"/>
<feColorMatrix type="matrix" values="0 0 0 0 0.364706 0 0 0 0 0.560784 0 0 0 0 0.282353 0 0 0 0.72 0"/>
<feBlend mode="normal" in2="BackgroundImageFix" result="effect1_dropShadow_84_3"/>
<feBlend mode="normal" in="SourceGraphic" in2="effect1_dropShadow_84_3" result="shape"/>
</filter>
<linearGradient id="paint0_linear_84_3" x1="298" y1="308.5" x2="228" y2="308.5" gradientUnits="userSpaceOnUse">
<stop stop-color="#50DDBF"/>
<stop offset="1" stop-color="#B5DD50"/>
</linearGradient>
<linearGradient id="paint1_linear_84_3" x1="298" y1="318.5" x2="228" y2="318.5" gradientUnits="userSpaceOnUse">
<stop stop-color="#50DDBF"/>
<stop offset="1" stop-color="#B5DD50"/>
</linearGradient>
<linearGradient id="paint2_linear_84_3" x1="298" y1="328.5" x2="228" y2="328.5" gradientUnits="userSpaceOnUse">
<stop stop-color="#50DDBF"/>
<stop offset="1" stop-color="#B5DD50"/>
</linearGradient>
<linearGradient id="paint3_linear_84_3" x1="298" y1="338.5" x2="228" y2="338.5" gradientUnits="userSpaceOnUse">
<stop stop-color="#50DDBF"/>
<stop offset="1" stop-color="#B5DD50"/>
</linearGradient>
<linearGradient id="paint4_linear_84_3" x1="364.5" y1="395" x2="364.5" y2="400" gradientUnits="userSpaceOnUse">
<stop stop-color="#DF4B3A"/>
<stop offset="1" stop-color="#7850DD"/>
</linearGradient>
<linearGradient id="paint5_linear_84_3" x1="275.5" y1="395" x2="275.5" y2="400" gradientUnits="userSpaceOnUse">
<stop stop-color="#DF4B3A"/>
<stop offset="1" stop-color="#7850DD"/>
</linearGradient>
<linearGradient id="paint6_linear_84_3" x1="422.105" y1="418.602" x2="408.175" y2="515.293" gradientUnits="userSpaceOnUse">
<stop stop-color="#7850DD"/>
<stop offset="0.67" stop-color="#50DDBF"/>
</linearGradient>
<linearGradient id="paint7_linear_84_3" x1="402.002" y1="238.497" x2="475" y2="238.497" gradientUnits="userSpaceOnUse">
<stop stop-color="#DD506E"/>
<stop offset="1" stop-color="#4042E2"/>
</linearGradient>
<linearGradient id="paint8_linear_84_3" x1="420.923" y1="237.199" x2="431.332" y2="237.199" gradientUnits="userSpaceOnUse">
<stop stop-color="#DAE3FE"/>
<stop offset="1" stop-color="#E9EFFD"/>
</linearGradient>
<linearGradient id="paint9_linear_84_3" x1="437.007" y1="236.532" x2="455.873" y2="236.532" gradientUnits="userSpaceOnUse">
<stop stop-color="#DAE3FE"/>
<stop offset="1" stop-color="#E9EFFD"/>
</linearGradient>
<linearGradient id="paint10_linear_84_3" x1="118.75" y1="449.774" x2="168.298" y2="499.274" gradientUnits="userSpaceOnUse">
<stop stop-color="#50DDBF"/>
<stop offset="1" stop-color="#B5DD50"/>
</linearGradient>
<clipPath id="clip0_84_3">
<rect width="1200" height="630" fill="white" transform="translate(4)"/>
</clipPath>
</defs>
</svg>
