<svg width="950" height="473" viewBox="0 0 950 473" fill="none" xmlns="http://www.w3.org/2000/svg">
<rect width="950" height="473" fill="#639ACD"/>
<rect x="351.143" y="333.808" width="224.715" height="62.7881" fill="#343333"/>
<rect x="214" y="43" width="499" height="317.245" rx="19" fill="#454545"/>
<path d="M314.791 407.377C314.791 394.123 325.536 383.377 338.791 383.377H586.556C599.811 383.377 610.556 394.123 610.556 407.377V429.642H314.791V407.377Z" fill="#454545"/>
<rect x="235.48" y="57.8708" width="456.04" height="287.503" rx="15" fill="#D9D9D9"/>
<path d="M235.48 72.8709C235.48 64.5866 242.196 57.8708 250.48 57.8708H465.153V345.374H250.48C242.196 345.374 235.48 338.658 235.48 330.374V72.8709Z" fill="#79B5EC"/>
<path d="M463.499 57.8708H678.171C686.455 57.8708 693.171 64.5866 693.171 72.8709V330.374C693.171 338.658 686.455 345.374 678.171 345.374H463.499V57.8708Z" fill="#4B7CA9"/>
<path d="M473.89 210.995C473.824 210.38 473.547 209.901 473.059 209.558C472.576 209.216 471.947 209.044 471.172 209.044C470.628 209.044 470.161 209.127 469.771 209.291C469.381 209.455 469.083 209.678 468.877 209.96C468.67 210.241 468.565 210.563 468.56 210.924C468.56 211.225 468.628 211.485 468.764 211.706C468.905 211.927 469.095 212.114 469.334 212.269C469.574 212.419 469.839 212.546 470.13 212.649C470.421 212.753 470.714 212.84 471.01 212.91L472.362 213.248C472.907 213.375 473.43 213.546 473.932 213.762C474.439 213.978 474.892 214.25 475.291 214.579C475.695 214.907 476.014 215.304 476.249 215.769C476.484 216.233 476.601 216.778 476.601 217.402C476.601 218.247 476.385 218.991 475.953 219.634C475.521 220.273 474.897 220.773 474.08 221.134C473.268 221.491 472.285 221.669 471.13 221.669C470.008 221.669 469.034 221.495 468.208 221.148C467.386 220.801 466.743 220.294 466.279 219.627C465.819 218.961 465.57 218.149 465.532 217.191H468.102C468.14 217.693 468.295 218.111 468.567 218.444C468.839 218.778 469.194 219.026 469.63 219.191C470.071 219.355 470.564 219.437 471.109 219.437C471.677 219.437 472.174 219.353 472.602 219.184C473.033 219.01 473.371 218.771 473.615 218.465C473.86 218.156 473.984 217.794 473.989 217.381C473.984 217.006 473.874 216.696 473.658 216.452C473.442 216.203 473.139 215.996 472.749 215.832C472.364 215.663 471.914 215.513 471.397 215.381L469.757 214.959C468.569 214.654 467.63 214.191 466.94 213.572C466.255 212.948 465.912 212.119 465.912 211.086C465.912 210.237 466.142 209.493 466.602 208.854C467.067 208.216 467.699 207.721 468.497 207.369C469.295 207.012 470.198 206.833 471.207 206.833C472.231 206.833 473.127 207.012 473.897 207.369C474.672 207.721 475.279 208.211 475.721 208.84C476.162 209.465 476.39 210.183 476.404 210.995H473.89Z" fill="white"/>
<path d="M453.634 207.03L457.387 218.381H457.535L461.281 207.03H464.154L459.07 221.451H455.845L450.769 207.03H453.634Z" fill="white"/>
<path d="M412.597 112.398H407.711V97.9773H412.696C414.128 97.9773 415.358 98.266 416.386 98.8434C417.418 99.416 418.212 100.24 418.766 101.315C419.319 102.39 419.596 103.676 419.596 105.173C419.596 106.675 419.317 107.966 418.758 109.046C418.205 110.126 417.404 110.954 416.357 111.531C415.315 112.109 414.062 112.398 412.597 112.398ZM410.323 110.137H412.471C413.475 110.137 414.313 109.954 414.984 109.588C415.656 109.217 416.16 108.666 416.498 107.933C416.836 107.196 417.005 106.276 417.005 105.173C417.005 104.07 416.836 103.155 416.498 102.427C416.16 101.695 415.66 101.148 414.999 100.787C414.341 100.421 413.525 100.237 412.548 100.237H410.323V110.137Z" fill="#F0E8E8"/>
<path d="M395.666 112.398V97.9773H405.045V100.167H398.278V104.082H404.559V106.272H398.278V110.208H405.101V112.398H395.666Z" fill="#F0E8E8"/>
<path d="M386.185 112.398H381.299V97.9773H386.284C387.716 97.9773 388.945 98.266 389.973 98.8434C391.006 99.416 391.799 100.24 392.353 101.315C392.907 102.39 393.184 103.676 393.184 105.173C393.184 106.675 392.905 107.966 392.346 109.046C391.792 110.126 390.992 110.954 389.945 111.531C388.903 112.109 387.65 112.398 386.185 112.398ZM383.911 110.137H386.059C387.063 110.137 387.901 109.954 388.572 109.588C389.244 109.217 389.748 108.666 390.086 107.933C390.424 107.196 390.593 106.276 390.593 105.173C390.593 104.07 390.424 103.155 390.086 102.427C389.748 101.695 389.248 101.148 388.586 100.787C387.929 100.421 387.112 100.237 386.136 100.237H383.911V110.137Z" fill="#F0E8E8"/>
<path d="M378.83 105.188C378.83 106.742 378.538 108.072 377.956 109.18C377.379 110.283 376.59 111.128 375.591 111.715C374.595 112.302 373.467 112.595 372.204 112.595C370.941 112.595 369.81 112.302 368.81 111.715C367.815 111.123 367.026 110.276 366.444 109.173C365.867 108.065 365.578 106.737 365.578 105.188C365.578 103.634 365.867 102.306 366.444 101.203C367.026 100.095 367.815 99.2474 368.81 98.6607C369.81 98.0739 370.941 97.7805 372.204 97.7805C373.467 97.7805 374.595 98.0739 375.591 98.6607C376.59 99.2474 377.379 100.095 377.956 101.203C378.538 102.306 378.83 103.634 378.83 105.188ZM376.203 105.188C376.203 104.094 376.032 103.172 375.689 102.421C375.351 101.665 374.882 101.095 374.281 100.71C373.68 100.32 372.988 100.125 372.204 100.125C371.42 100.125 370.728 100.32 370.127 100.71C369.526 101.095 369.054 101.665 368.711 102.421C368.373 103.172 368.204 104.094 368.204 105.188C368.204 106.282 368.373 107.206 368.711 107.962C369.054 108.713 369.526 109.283 370.127 109.673C370.728 110.058 371.42 110.25 372.204 110.25C372.988 110.25 373.68 110.058 374.281 109.673C374.882 109.283 375.351 108.713 375.689 107.962C376.032 107.206 376.203 106.282 376.203 105.188Z" fill="#F0E8E8"/>
<path d="M363.551 102.843H360.918C360.843 102.411 360.704 102.029 360.502 101.695C360.3 101.357 360.049 101.071 359.749 100.836C359.448 100.602 359.106 100.426 358.721 100.308C358.341 100.186 357.93 100.125 357.489 100.125C356.705 100.125 356.01 100.322 355.404 100.717C354.799 101.106 354.325 101.679 353.982 102.435C353.639 103.186 353.468 104.103 353.468 105.188C353.468 106.291 353.639 107.22 353.982 107.976C354.329 108.727 354.804 109.295 355.404 109.68C356.01 110.06 356.702 110.25 357.482 110.25C357.913 110.25 358.317 110.194 358.693 110.081C359.073 109.964 359.413 109.793 359.714 109.567C360.019 109.342 360.275 109.065 360.481 108.737C360.692 108.408 360.838 108.032 360.918 107.61L363.551 107.624C363.452 108.309 363.239 108.952 362.91 109.553C362.586 110.154 362.162 110.685 361.636 111.145C361.11 111.6 360.495 111.957 359.791 112.215C359.087 112.468 358.305 112.595 357.446 112.595C356.179 112.595 355.048 112.302 354.053 111.715C353.057 111.128 352.273 110.281 351.701 109.173C351.128 108.065 350.842 106.737 350.842 105.188C350.842 103.634 351.13 102.306 351.708 101.203C352.285 100.095 353.071 99.2474 354.067 98.6607C355.062 98.0739 356.188 97.7805 357.446 97.7805C358.249 97.7805 358.995 97.8932 359.685 98.1185C360.375 98.3438 360.99 98.6747 361.53 99.1113C362.07 99.5431 362.514 100.074 362.861 100.703C363.213 101.327 363.443 102.04 363.551 102.843Z" fill="#F0E8E8"/>
<path d="M336.81 112.398H331.924V97.9773H336.909C338.341 97.9773 339.57 98.266 340.598 98.8434C341.631 99.416 342.424 100.24 342.978 101.315C343.532 102.39 343.809 103.676 343.809 105.173C343.809 106.675 343.53 107.966 342.971 109.046C342.417 110.126 341.617 110.954 340.57 111.531C339.528 112.109 338.275 112.398 336.81 112.398ZM334.536 110.137H336.684C337.688 110.137 338.526 109.954 339.197 109.588C339.869 109.217 340.373 108.666 340.711 107.933C341.049 107.196 341.218 106.276 341.218 105.173C341.218 104.07 341.049 103.155 340.711 102.427C340.373 101.695 339.873 101.148 339.211 100.787C338.554 100.421 337.737 100.237 336.761 100.237H334.536V110.137Z" fill="#F0E8E8"/>
<path d="M329.077 97.9773V112.398H326.753L319.959 102.575H319.839V112.398H317.227V97.9773H319.564L326.352 107.807H326.479V97.9773H329.077Z" fill="#F0E8E8"/>
<path d="M304.731 112.398H301.942L307.019 97.9773H310.244L315.328 112.398H312.539L308.688 100.935H308.575L304.731 112.398ZM304.822 106.743H312.427V108.842H304.822V106.743Z" fill="#F0E8E8"/>
<path d="M288.124 112.398V97.9773H290.736V104.082H297.418V97.9773H300.038V112.398H297.418V106.272H290.736V112.398H288.124Z" fill="#F0E8E8"/>
<path d="M661.91 290.847H657.023V276.427H662.009C663.44 276.427 664.67 276.716 665.698 277.293C666.731 277.866 667.524 278.69 668.078 279.765C668.632 280.84 668.909 282.126 668.909 283.623C668.909 285.125 668.63 286.416 668.071 287.496C667.517 288.576 666.717 289.404 665.67 289.981C664.628 290.559 663.375 290.847 661.91 290.847ZM659.636 288.587H661.783C662.788 288.587 663.626 288.404 664.297 288.038C664.968 287.667 665.473 287.116 665.811 286.383C666.149 285.646 666.318 284.726 666.318 283.623C666.318 282.52 666.149 281.605 665.811 280.877C665.473 280.145 664.973 279.598 664.311 279.237C663.654 278.871 662.837 278.687 661.861 278.687H659.636V288.587Z" fill="#F0E8E8"/>
<path d="M644.979 290.847V276.427H654.357V278.617H647.591V282.532H653.871V284.722H647.591V288.658H654.414V290.847H644.979Z" fill="#F0E8E8"/>
<path d="M639.939 280.392C639.873 279.777 639.596 279.298 639.108 278.955C638.625 278.613 637.996 278.441 637.221 278.441C636.676 278.441 636.209 278.524 635.82 278.688C635.43 278.852 635.132 279.075 634.926 279.357C634.719 279.638 634.613 279.96 634.609 280.321C634.609 280.622 634.677 280.882 634.813 281.103C634.954 281.324 635.144 281.511 635.383 281.666C635.623 281.816 635.888 281.943 636.179 282.046C636.47 282.15 636.763 282.237 637.059 282.307L638.411 282.645C638.955 282.772 639.479 282.943 639.981 283.159C640.488 283.375 640.941 283.647 641.34 283.976C641.744 284.304 642.063 284.701 642.298 285.166C642.532 285.63 642.65 286.175 642.65 286.799C642.65 287.644 642.434 288.388 642.002 289.031C641.57 289.67 640.946 290.17 640.129 290.531C639.317 290.888 638.333 291.066 637.179 291.066C636.057 291.066 635.083 290.892 634.257 290.545C633.435 290.198 632.792 289.691 632.327 289.024C631.867 288.358 631.619 287.546 631.581 286.588H634.151C634.189 287.09 634.344 287.508 634.616 287.841C634.888 288.175 635.242 288.423 635.679 288.588C636.12 288.752 636.613 288.834 637.158 288.834C637.726 288.834 638.223 288.75 638.65 288.581C639.082 288.407 639.42 288.168 639.664 287.862C639.908 287.553 640.033 287.191 640.037 286.778C640.033 286.403 639.922 286.093 639.707 285.849C639.491 285.6 639.188 285.393 638.798 285.229C638.413 285.06 637.963 284.91 637.446 284.778L635.806 284.356C634.618 284.051 633.679 283.588 632.989 282.969C632.304 282.345 631.961 281.516 631.961 280.483C631.961 279.634 632.191 278.89 632.651 278.251C633.116 277.613 633.747 277.118 634.545 276.766C635.343 276.409 636.247 276.23 637.256 276.23C638.28 276.23 639.176 276.409 639.946 276.766C640.72 277.118 641.328 277.608 641.77 278.237C642.211 278.862 642.438 279.58 642.453 280.392H639.939Z" fill="#F0E8E8"/>
<path d="M619.838 290.847H617.05L622.126 276.427H625.351L630.435 290.847H627.647L623.795 279.385H623.683L619.838 290.847ZM619.93 285.193H627.534V287.292H619.93V285.193Z" fill="#F0E8E8"/>
<path d="M604.954 290.847V276.427H610.474C611.516 276.427 612.382 276.592 613.073 276.92C613.767 277.244 614.286 277.688 614.629 278.251C614.976 278.814 615.15 279.453 615.15 280.166C615.15 280.753 615.037 281.255 614.812 281.673C614.586 282.086 614.284 282.422 613.903 282.68C613.523 282.938 613.098 283.123 612.629 283.236V283.377C613.141 283.405 613.631 283.562 614.101 283.849C614.575 284.13 614.962 284.529 615.262 285.046C615.563 285.562 615.713 286.186 615.713 286.919C615.713 287.665 615.532 288.336 615.171 288.932C614.809 289.524 614.265 289.991 613.537 290.333C612.81 290.676 611.894 290.847 610.791 290.847H604.954ZM607.566 288.665H610.376C611.324 288.665 612.007 288.484 612.425 288.123C612.847 287.756 613.058 287.287 613.058 286.714C613.058 286.287 612.953 285.902 612.742 285.56C612.53 285.212 612.23 284.94 611.84 284.743C611.451 284.541 610.986 284.44 610.446 284.44H607.566V288.665ZM607.566 282.56H610.15C610.601 282.56 611.007 282.478 611.369 282.314C611.73 282.145 612.014 281.908 612.221 281.602C612.432 281.293 612.537 280.927 612.537 280.504C612.537 279.945 612.34 279.485 611.946 279.124C611.556 278.763 610.977 278.582 610.207 278.582H607.566V282.56Z" fill="#F0E8E8"/>
<path d="M587.992 290.847V276.427H597.371V278.617H590.604V282.532H596.885V284.722H590.604V288.658H597.427V290.847H587.992Z" fill="#F0E8E8"/>
<path d="M574.271 278.617V276.427H585.776V278.617H581.319V290.847H578.728V278.617H574.271Z" fill="#F0E8E8"/>
<path d="M564.15 290.847H561.361L566.438 276.427H569.663L574.747 290.847H571.958L568.107 279.385H567.994L564.15 290.847ZM564.241 285.193H571.846V287.292H564.241V285.193Z" fill="#F0E8E8"/>
<path d="M550.524 290.847V276.427H553.137V288.658H559.488V290.847H550.524Z" fill="#F0E8E8"/>
<path d="M537.764 290.847V276.427H543.171C544.279 276.427 545.208 276.634 545.96 277.047C546.715 277.46 547.286 278.028 547.671 278.751C548.06 279.469 548.255 280.286 548.255 281.201C548.255 282.126 548.06 282.947 547.671 283.666C547.281 284.384 546.706 284.949 545.945 285.362C545.185 285.771 544.249 285.975 543.136 285.975H539.552V283.827H542.784C543.432 283.827 543.962 283.715 544.375 283.489C544.788 283.264 545.093 282.954 545.291 282.56C545.492 282.166 545.593 281.713 545.593 281.201C545.593 280.689 545.492 280.239 545.291 279.849C545.093 279.46 544.786 279.157 544.368 278.941C543.955 278.72 543.422 278.61 542.77 278.61H540.376V290.847H537.764Z" fill="#F0E8E8"/>
<path d="M519.797 276.427H522.994L527.275 286.876H527.444L531.725 276.427H534.921V290.847H532.415V280.941H532.281L528.296 290.805H526.423L522.437 280.919H522.304V290.847H519.797V276.427Z" fill="#F0E8E8"/>
<path d="M507.752 290.847V276.427H517.131V278.617H510.364V282.532H516.645V284.722H510.364V288.658H517.187V290.847H507.752Z" fill="#F0E8E8"/>
<path d="M494.029 278.617V276.427H505.534V278.617H501.077V290.847H498.486V278.617H494.029Z" fill="#F0E8E8"/>
<rect x="493.243" y="135.53" width="176.798" height="123.924" fill="#D9D9D9"/>
<rect x="493.243" y="135.53" width="176.798" height="13.2185" fill="#9E9595"/>
<rect x="493.243" y="155.357" width="176.798" height="36.351" fill="#CEC9C9"/>
<rect x="514.724" y="199.97" width="133.838" height="8.26159" fill="#BDB6B6"/>
<rect x="514.724" y="218.145" width="64.4404" height="4.95695" fill="#CEC9C9"/>
<rect x="514.724" y="226.407" width="64.4404" height="4.95695" fill="#CEC9C9"/>
<rect x="514.724" y="234.668" width="64.4404" height="4.95695" fill="#CEC9C9"/>
<rect x="514.724" y="242.93" width="64.4404" height="4.95695" fill="#CEC9C9"/>
<rect x="584.121" y="218.145" width="64.4404" height="4.95695" fill="#CEC9C9"/>
<rect x="584.121" y="226.407" width="64.4404" height="4.95695" fill="#CEC9C9"/>
<rect x="584.121" y="234.668" width="64.4404" height="4.95695" fill="#CEC9C9"/>
<rect x="584.121" y="242.93" width="64.4404" height="4.95695" fill="#CEC9C9"/>
<rect x="260.265" y="133.877" width="180.103" height="125.576" fill="#B7D7F4"/>
<rect x="260.265" y="148.748" width="180.103" height="61.1358" fill="#9FC9F0"/>
<rect x="260.265" y="133.877" width="180.103" height="14.8709" fill="#4B7CA9"/>
<rect x="273.482" y="219.798" width="148.709" height="3.30464" fill="#4B7CA9"/>
<rect x="273.482" y="161.967" width="54.5265" height="33.0464" fill="#79B5EC"/>
<path d="M291.658 177.664L272.656 195.013H328.009V177.664L320.573 170.229L304.05 186.752L291.658 177.664Z" fill="#FAEEEE"/>
<rect x="273.482" y="231.364" width="26.4371" height="16.5232" fill="#79B5EC"/>
<path d="M282.558 238.634L273.482 247.887H299.92V238.634L296.368 234.668L288.477 243.481L282.558 238.634Z" fill="#FAEEEE"/>
<rect x="356.1" y="231.364" width="26.4371" height="16.5232" fill="#79B5EC"/>
<path d="M365.175 238.634L356.1 247.887H382.537V238.634L378.985 234.668L371.094 243.481L365.175 238.634Z" fill="#FAEEEE"/>
<rect x="334.619" y="161.967" width="24.7848" height="33.0464" fill="#E5F0FB"/>
<rect x="366.013" y="161.967" width="24.7848" height="33.0464" fill="#E5F0FB"/>
<rect x="397.408" y="161.967" width="24.7848" height="33.0464" fill="#E5F0FB"/>
<rect x="304.878" y="231.364" width="33.0464" height="3.30464" fill="#4B7CA9"/>
<rect x="389.146" y="231.364" width="33.0464" height="3.30464" fill="#4B7CA9"/>
<rect x="304.878" y="237.974" width="33.0464" height="3.30464" fill="#4B7CA9"/>
<rect x="389.146" y="237.974" width="33.0464" height="3.30464" fill="#4B7CA9"/>
<rect x="304.878" y="244.583" width="33.0464" height="3.30464" fill="#4B7CA9"/>
<rect x="389.146" y="244.583" width="33.0464" height="3.30464" fill="#4B7CA9"/>
</svg>
