<svg width="34" height="34" viewBox="0 0 34 34" fill="none" xmlns="http://www.w3.org/2000/svg">
<path d="M7.13536 3.77946C7.13489 4.78133 6.75856 5.74197 6.08915 6.45005C5.41975 7.15813 4.51211 7.55564 3.5659 7.55514C2.61969 7.55464 1.71242 7.15616 1.04369 6.44738C0.374953 5.73859 -0.000472657 4.77755 4.46605e-07 3.77568C0.000473551 2.77381 0.376807 1.81317 1.04621 1.10509C1.71562 0.397011 2.62326 -0.000500464 3.56947 4.72879e-07C4.51567 0.00050141 5.42294 0.398974 6.09167 1.10776C6.76041 1.81655 7.13584 2.77758 7.13536 3.77946ZM7.24239 10.3524H0.107031V34H7.24239V10.3524ZM18.5163 10.3524H11.4166V34H18.4449V21.5907C18.4449 14.6777 26.9538 14.0356 26.9538 21.5907V34H34V19.0219C34 7.36815 21.4061 7.80257 18.4449 13.5256L18.5163 10.3524Z" fill="#F7A464"/>
</svg>
