<svg width="32" height="46" viewBox="0 0 32 46" fill="none" xmlns="http://www.w3.org/2000/svg">
<path d="M2.28033 0.5L0 8.08482L5.20017 11.351L6.37291 5.08808L2.28033 0.5Z" fill="#FEE6D4"/>
<path d="M0.111389 8.13843L4.54859 15.7154L5.20012 11.1872L0.111389 8.13843Z" fill="#E8B389"/>
<path d="M6.37291 5.08813L4.05829 16.2133L7.91084 13.0952L6.37291 5.08813Z" fill="#EFCAAD"/>
<path d="M11.1942 11.6851L12.8624 1.45959L8.99957 7.45781L11.1942 11.6851Z" fill="#EFCAAD"/>
<path d="M12.9104 1.31787L13.7077 8.68211L10.8907 13.516L12.9104 1.31787Z" fill="#FEE6D4"/>
<path d="M8.17487 12.881L4.36519 15.925L2.79468 20.5887L18.1174 19.9821L8.17487 12.881Z" fill="#EFCAAD"/>
<path d="M8.17487 12.881L18.1174 19.9821L13.9048 14.2486L8.17487 12.881Z" fill="#FEE6D4"/>
<path d="M2.72443 20.5887L12.8179 25.235V23.9525L18.1175 19.9821L2.72443 20.5887Z" fill="#ECB58A"/>
<path d="M10.2941 24.0737L1.36993 30.261L4.29149 21.3102L10.2941 24.0737Z" fill="#E09C65"/>
<path d="M12.8179 25.2349L10.913 28.5027L1.36993 30.261L10.2941 24.0737L12.8179 25.2349Z" fill="#F4B887"/>
<path d="M12.8179 25.235L13.9615 29.2023L21.0716 31.8871L17.7694 34.6869L10.913 28.5027L12.8179 25.235Z" fill="#E09C65"/>
<path d="M10.913 28.5027L6.72441 39.4072L1.36993 30.261L10.913 28.5027Z" fill="#E0A06D"/>
<path d="M6.72443 39.4072L10.913 28.5027L10.4055 37.6032L6.72443 39.4072Z" fill="#EFAD78"/>
<path d="M1.36993 30.261L5.82428 42.7254L8.14747 42.0715L10.4055 37.6032L6.72441 39.4072L1.36993 30.261Z" fill="#D7A176"/>
<path d="M5.82424 42.7255L1.08185 45.4213H6.44319L8.21944 42.0653L5.82424 42.7255Z" fill="#C08C63"/>
<path d="M6.36951 45.5L21.2311 45.4213L10.5152 37.4489L6.36951 45.5Z" fill="#E09C65"/>
<path d="M10.4998 37.567L21.2311 45.4213L17.7694 34.6869L10.4998 37.567Z" fill="#E0B492"/>
<path d="M10.913 28.5027L17.7694 34.6868L10.4055 37.6032L10.913 28.5027Z" fill="#EFCAAD"/>
<path d="M17.7694 34.6869L21.0716 31.8871L25.1779 36.7288L17.7694 34.6869Z" fill="#E19455"/>
<path d="M25.1779 36.7288L21.231 45.4213L17.7694 34.6869L25.1779 36.7288Z" fill="#E3A574"/>
<path d="M25.1779 36.7289L30.0128 31.9313L25.099 45.4214L25.1779 36.7289Z" fill="#E3A26E"/>
<path d="M21.231 45.4213H25.099L25.1779 36.7289L21.231 45.4213Z" fill="#C08C63"/>
<path d="M8.99956 7.45776L11.1942 11.685L10.8907 13.5159L8.17487 12.8809L8.99956 7.45776Z" fill="#E8B389"/>
<path d="M12.8178 25.235L11.0244 24.4094L18.1174 19.9821L12.8178 23.9525V25.235Z" fill="#BD875C"/>
<path d="M8.17492 12.881L2.72443 20.6895L4.05833 16.2133L8.17492 12.881Z" fill="#E3A26E"/>
</svg>
