<svg width="292" height="438" viewBox="0 0 292 438" fill="none" xmlns="http://www.w3.org/2000/svg">
<path d="M260.189 -7.88115e-07L384.742 24.3585L323.784 391.122L199.231 366.764L260.189 -7.88115e-07Z" fill="url(#paint0_linear_340_1076)"/>
<path d="M274.853 19.3988L368.801 37.7719L358.546 99.4751L264.598 81.102L274.853 19.3988Z" fill="url(#paint1_linear_340_1076)"/>
<path d="M262.848 91.6167L356.796 109.99L346.541 171.696L252.592 153.322L262.848 91.6167Z" fill="url(#paint2_linear_340_1076)"/>
<path d="M250.847 163.832L344.795 182.205L334.54 243.909L240.591 225.535L250.847 163.832Z" fill="url(#paint3_linear_340_1076)"/>
<path d="M238.842 236.05L332.791 254.423L322.535 316.129L228.587 297.756L238.842 236.05Z" fill="url(#paint4_linear_340_1076)"/>
<g style="mix-blend-mode:multiply" opacity="0.3">
<path d="M260.187 0.00683594L326.4 12.9544C316.873 23.77 308.311 37.3242 303.698 54.016C294.917 85.7796 306.638 106.415 308.101 149.417C309.625 194.294 298.336 215.304 289.488 257.038C283.033 287.487 277.828 329.234 281.435 382.847L199.237 366.774L260.187 0.00683594Z" fill="url(#paint5_linear_340_1076)"/>
</g>
<path d="M116.008 50.5212L235.938 6.66425L345.691 359.813L225.761 403.67L116.008 50.5212Z" fill="url(#paint6_linear_340_1076)"/>
<path d="M137.481 59.8406L227.942 26.7602L246.406 86.1729L155.946 119.253L137.481 59.8406Z" fill="url(#paint7_linear_340_1076)"/>
<path d="M159.09 129.374L249.551 96.2935L268.015 155.706L177.555 188.787L159.09 129.374Z" fill="url(#paint8_linear_340_1076)"/>
<path d="M180.7 198.91L271.161 165.829L289.625 225.242L199.165 258.322L180.7 198.91Z" fill="url(#paint9_linear_340_1076)"/>
<path d="M202.311 268.445L292.772 235.365L311.237 294.778L220.776 327.858L202.311 268.445Z" fill="url(#paint10_linear_340_1076)"/>
<g style="mix-blend-mode:multiply" opacity="0.3">
<path d="M115.992 50.4916L194.981 21.6124C187.917 44.7434 188.993 62.0725 191.886 74.4698C200.016 109.307 224.898 115.598 241.511 157.013C257.087 195.848 248.339 223.043 249.733 255.874C251.061 287.11 261.771 328.062 299.705 376.599L225.724 403.648L115.992 50.4916Z" fill="url(#paint11_linear_340_1076)"/>
</g>
<path d="M2.63213e-05 168.075L85.5527 66.9057L338.732 318.826L253.18 419.996L2.63213e-05 168.075Z" fill="url(#paint12_linear_340_1076)"/>
<path d="M22.949 165L87.4795 88.6899L130.074 131.072L65.5432 207.382L22.949 165Z" fill="url(#paint13_linear_340_1076)"/>
<path d="M72.8034 214.609L137.334 138.299L179.928 180.681L115.398 256.991L72.8034 214.609Z" fill="url(#paint14_linear_340_1076)"/>
<path d="M122.659 264.213L187.189 187.903L229.784 230.285L165.253 306.595L122.659 264.213Z" fill="url(#paint15_linear_340_1076)"/>
<path d="M172.511 313.817L237.042 237.507L279.636 279.89L215.106 356.2L172.511 313.817Z" fill="url(#paint16_linear_340_1076)"/>
<g style="mix-blend-mode:multiply" opacity="0.3">
<path d="M0.0184021 168.09L54.9235 103.157C57.0375 136.723 67.381 155.695 76.9365 167.045C99.2727 193.583 123.945 186.378 156.622 214.367C187.263 240.613 191.395 269.065 206.924 297.289C220.691 322.309 245.318 350.589 292.768 373.216L253.208 420L0.020752 168.09H0.0184021Z" fill="url(#paint17_linear_340_1076)"/>
</g>
<path d="M267.076 360.449C261.82 354.747 261.82 345.502 267.076 339.8C272.333 334.098 280.856 334.098 286.112 339.8C291.369 345.502 291.369 354.747 286.112 360.449C280.856 366.151 272.333 366.151 267.076 360.449Z" fill="url(#paint18_linear_340_1076)"/>
<path d="M130.496 386.941C130.496 358.34 106.176 336.011 77.2071 337.034C60.7105 337.616 46.3571 345.684 37.396 357.592C37.396 357.588 37.3941 357.586 37.3922 357.582C37.3365 357.656 37.2844 357.733 37.2287 357.808C37.0744 358.015 36.9238 358.229 36.7714 358.439C36.4945 358.824 36.2212 359.209 35.9554 359.602C35.7993 359.834 35.6431 360.066 35.4907 360.302C35.2342 360.693 34.9851 361.088 34.7416 361.485C34.6022 361.713 34.461 361.941 34.3234 362.171C34.0502 362.63 33.7881 363.096 33.5297 363.566C33.4368 363.735 33.3383 363.903 33.2472 364.074C32.907 364.709 32.5799 365.354 32.2676 366.004C32.184 366.177 32.1096 366.353 32.0278 366.526C31.8011 367.014 31.578 367.506 31.3661 368.002C31.262 368.246 31.1635 368.492 31.065 368.736C30.8865 369.175 30.7118 369.617 30.5464 370.062C30.4497 370.321 30.3549 370.581 30.262 370.841C30.1003 371.298 29.946 371.758 29.7992 372.222C29.7211 372.464 29.6412 372.706 29.5668 372.948C29.3902 373.531 29.2248 374.117 29.0705 374.71C29.0389 374.833 28.9999 374.954 28.9683 375.079C28.7861 375.793 28.6226 376.513 28.4739 377.236C28.4293 377.45 28.3939 377.666 28.353 377.88C28.2527 378.4 28.1579 378.92 28.0742 379.446C28.0315 379.714 27.9943 379.983 27.9571 380.251C27.8883 380.737 27.827 381.225 27.7731 381.715C27.7434 381.989 27.7136 382.265 27.6876 382.541C27.6393 383.057 27.6021 383.578 27.5705 384.1C27.5556 384.342 27.537 384.584 27.5259 384.828C27.4906 385.59 27.4683 386.354 27.4683 387.126C27.4683 405.481 37.7157 421.669 53.0784 430.337C54.4911 431.134 55.9484 431.87 57.4447 432.535C58.1938 432.87 58.954 433.186 59.7235 433.487C65.1307 435.594 71.0174 436.844 77.2071 437.039C78.0603 437.066 78.9079 437.072 79.7536 437.058C80.038 437.054 80.3206 437.035 80.6049 437.027C81.1626 437.009 81.7221 436.991 82.276 436.957C82.6143 436.935 82.9507 436.902 83.2872 436.874C83.7816 436.834 84.2779 436.793 84.7686 436.739C85.1292 436.699 85.4861 436.65 85.843 436.602C86.3077 436.541 86.7724 436.479 87.2333 436.406C87.6014 436.348 87.9676 436.283 88.3319 436.217C88.778 436.136 89.2222 436.053 89.6646 435.961C90.0345 435.884 90.4025 435.803 90.7706 435.719C91.2037 435.62 91.6349 435.515 92.0624 435.404C92.4305 435.309 92.7966 435.213 93.161 435.112C93.5848 434.993 94.0048 434.868 94.4249 434.739C94.7855 434.628 95.1461 434.517 95.5049 434.398C95.6368 434.354 95.7725 434.317 95.9045 434.273C95.9008 434.269 95.8989 434.267 95.8952 434.263C115.936 427.454 130.493 408.993 130.493 386.943L130.496 386.941Z" fill="url(#paint19_linear_340_1076)"/>
<path d="M126.517 386.949C126.517 415.475 102.319 437.836 73.4972 436.922C45.7476 436.043 24 413.765 24 387.132C24 360.499 45.7476 338.145 73.4972 337.165C102.319 336.149 126.517 358.421 126.517 386.949Z" fill="url(#paint20_linear_340_1076)"/>
<path d="M60.4931 400.765L39.9165 389.405V385.747L60.4931 372.823V379.049L46.2568 387.298L60.4931 394.564V400.765Z" fill="white"/>
<path d="M82.3819 367.78L70.6791 406.144L64.7998 406.079L76.4097 367.869L82.3801 367.782L82.3819 367.78Z" fill="white"/>
<path d="M86.7314 394.651L101.769 387.207L86.7314 378.862V372.524L108.663 385.562V389.393L86.7314 400.962V394.651Z" fill="white"/>
<g style="mix-blend-mode:multiply" opacity="0.3">
<path d="M86.0309 424.506C79.7761 409.57 86.0997 395.768 77.6553 386.187C69.1718 376.563 58.2925 385.56 46.7607 377.859C42.3498 374.916 37.4779 369.28 33.8775 357.658C27.6655 365.929 24 376.13 24 387.13C24 413.761 45.7476 436.041 73.4972 436.92C80.0029 437.126 86.28 436.142 92.1054 434.158C89.228 430.904 87.3283 427.599 86.0328 424.506H86.0309Z" fill="url(#paint21_linear_340_1076)"/>
</g>
<defs>
<linearGradient id="paint0_linear_340_1076" x1="334.038" y1="162.581" x2="229.566" y2="232.183" gradientUnits="userSpaceOnUse">
<stop stop-color="white"/>
<stop offset="1" stop-color="#F4F7FA"/>
</linearGradient>
<linearGradient id="paint1_linear_340_1076" x1="340.58" y1="-6.47746" x2="220.632" y2="274.638" gradientUnits="userSpaceOnUse">
<stop stop-color="#FFC444"/>
<stop offset="1" stop-color="#F36F56"/>
</linearGradient>
<linearGradient id="paint2_linear_340_1076" x1="361.363" y1="-24.6771" x2="241.415" y2="256.441" gradientUnits="userSpaceOnUse">
<stop stop-color="#FFC444"/>
<stop offset="1" stop-color="#F36F56"/>
</linearGradient>
<linearGradient id="paint3_linear_340_1076" x1="373.845" y1="-19.9747" x2="253.897" y2="261.144" gradientUnits="userSpaceOnUse">
<stop stop-color="#FFC444"/>
<stop offset="1" stop-color="#F36F56"/>
</linearGradient>
<linearGradient id="paint4_linear_340_1076" x1="379.075" y1="4.72036" x2="259.126" y2="285.839" gradientUnits="userSpaceOnUse">
<stop stop-color="#FFC444"/>
<stop offset="1" stop-color="#F36F56"/>
</linearGradient>
<linearGradient id="paint5_linear_340_1076" x1="260.241" y1="-2.91884" x2="263.725" y2="219.636" gradientUnits="userSpaceOnUse">
<stop stop-color="#FFC444"/>
<stop offset="1" stop-color="#F36F56"/>
</linearGradient>
<linearGradient id="paint6_linear_340_1076" x1="209.681" y1="30.5822" x2="240.588" y2="247.136" gradientUnits="userSpaceOnUse">
<stop stop-color="white"/>
<stop offset="1" stop-color="#F4F7FA"/>
</linearGradient>
<linearGradient id="paint7_linear_340_1076" x1="184.603" y1="17.0966" x2="224.054" y2="273.329" gradientUnits="userSpaceOnUse">
<stop stop-color="#E38DDD"/>
<stop offset="1" stop-color="#9571F6"/>
</linearGradient>
<linearGradient id="paint8_linear_340_1076" x1="196.867" y1="15.2045" x2="236.316" y2="271.44" gradientUnits="userSpaceOnUse">
<stop stop-color="#E38DDD"/>
<stop offset="1" stop-color="#9571F6"/>
</linearGradient>
<linearGradient id="paint9_linear_340_1076" x1="209.129" y1="13.3159" x2="248.581" y2="269.551" gradientUnits="userSpaceOnUse">
<stop stop-color="#E38DDD"/>
<stop offset="1" stop-color="#9571F6"/>
</linearGradient>
<linearGradient id="paint10_linear_340_1076" x1="215.229" y1="-35.6847" x2="254.68" y2="220.548" gradientUnits="userSpaceOnUse">
<stop stop-color="#E38DDD"/>
<stop offset="1" stop-color="#9571F6"/>
</linearGradient>
<linearGradient id="paint11_linear_340_1076" x1="186.074" y1="33.868" x2="216.943" y2="250.429" gradientUnits="userSpaceOnUse">
<stop stop-color="#E38DDD"/>
<stop offset="1" stop-color="#9571F6"/>
</linearGradient>
<linearGradient id="paint12_linear_340_1076" x1="196.85" y1="203.264" x2="120.094" y2="298.631" gradientUnits="userSpaceOnUse">
<stop stop-color="white"/>
<stop offset="1" stop-color="#F4F7FA"/>
</linearGradient>
<linearGradient id="paint13_linear_340_1076" x1="70.8438" y1="139.912" x2="229.934" y2="335.116" gradientUnits="userSpaceOnUse">
<stop stop-color="#FF9085"/>
<stop offset="1" stop-color="#FB6FBB"/>
</linearGradient>
<linearGradient id="paint14_linear_340_1076" x1="71.9382" y1="119.113" x2="231.025" y2="314.317" gradientUnits="userSpaceOnUse">
<stop stop-color="#FF9085"/>
<stop offset="1" stop-color="#FB6FBB"/>
</linearGradient>
<linearGradient id="paint15_linear_340_1076" x1="76.6972" y1="103.598" x2="235.785" y2="298.802" gradientUnits="userSpaceOnUse">
<stop stop-color="#FF9085"/>
<stop offset="1" stop-color="#FB6FBB"/>
</linearGradient>
<linearGradient id="paint16_linear_340_1076" x1="77.8696" y1="82.9154" x2="236.957" y2="278.12" gradientUnits="userSpaceOnUse">
<stop stop-color="#FF9085"/>
<stop offset="1" stop-color="#FB6FBB"/>
</linearGradient>
<linearGradient id="paint17_linear_340_1076" x1="109.875" y1="64.9642" x2="147.199" y2="243.7" gradientUnits="userSpaceOnUse">
<stop stop-color="#FF9085"/>
<stop offset="1" stop-color="#FB6FBB"/>
</linearGradient>
<linearGradient id="paint18_linear_340_1076" x1="289.812" y1="352.717" x2="263.192" y2="348.293" gradientUnits="userSpaceOnUse">
<stop stop-color="#E38DDD"/>
<stop offset="1" stop-color="#9571F6"/>
</linearGradient>
<linearGradient id="paint19_linear_340_1076" x1="10.6074" y1="238.145" x2="97.0352" y2="398.035" gradientUnits="userSpaceOnUse">
<stop stop-color="#311944"/>
<stop offset="1" stop-color="#893976"/>
</linearGradient>
<linearGradient id="paint20_linear_340_1076" x1="55.3203" y1="346.855" x2="138.894" y2="489.749" gradientUnits="userSpaceOnUse">
<stop stop-color="#FF9085"/>
<stop offset="1" stop-color="#FB6FBB"/>
</linearGradient>
<linearGradient id="paint21_linear_340_1076" x1="35.0392" y1="356.731" x2="116.593" y2="507.602" gradientUnits="userSpaceOnUse">
<stop stop-color="#FF9085"/>
<stop offset="1" stop-color="#FB6FBB"/>
</linearGradient>
</defs>
</svg>
