<svg width="1440" height="442" viewBox="0 0 1440 442" fill="none" xmlns="http://www.w3.org/2000/svg" preserveAspectRatio="none">
<g clip-path="url(#clip0_338_841)">
<path d="M0 216.895L80 235.616C160 254.795 320 291.547 480 282.589C640 273.171 800 216.895 960 151.201C1120 85.9667 1280 10.1661 1440 1.20781C1600 -8.20984 1760 48.0664 1920 104.343C2080 160.619 2240 216.895 2400 245.033C2560 273.171 2720 273.171 2880 235.616C3040 198.519 3200 122.719 3360 113.76C3520 104.343 3680 160.619 3840 207.477C4000 254.795 4160 291.547 4320 282.589C4480 273.171 4640 216.895 4800 198.175C4960 178.995 5120 198.519 5280 160.619C5440 122.719 5600 29.6905 5760 29.3459C5920 29.6905 6080 122.719 6240 141.898C6400 160.619 6560 104.343 6720 113.76C6880 122.719 7040 198.519 7200 226.313C7360 254.795 7520 235.271 7680 207.477C7840 178.995 8000 142.243 8160 141.898C8320 142.243 8480 178.995 8640 151.201C8800 122.719 8960 29.6905 9120 1.20781C9280 -26.5858 9440 10.1661 9600 48.0664C9760 85.9667 9920 122.719 10080 151.201C10240 178.995 10400 198.519 10560 198.175C10720 198.519 10880 178.995 11040 207.477C11200 235.271 11360 311.072 11440 348.168L11520 385.724V442H11440C11360 442 11200 442 11040 442C10880 442 10720 442 10560 442C10400 442 10240 442 10080 442C9920 442 9760 442 9600 442C9440 442 9280 442 9120 442C8960 442 8800 442 8640 442C8480 442 8320 442 8160 442C8000 442 7840 442 7680 442C7520 442 7360 442 7200 442C7040 442 6880 442 6720 442C6560 442 6400 442 6240 442C6080 442 5920 442 5760 442C5600 442 5440 442 5280 442C5120 442 4960 442 4800 442C4640 442 4480 442 4320 442C4160 442 4000 442 3840 442C3680 442 3520 442 3360 442C3200 442 3040 442 2880 442C2720 442 2560 442 2400 442C2240 442 2080 442 1920 442C1760 442 1600 442 1440 442C1280 442 1120 442 960 442C800 442 640 442 480 442C320 442 160 442 80 442H0V216.895Z" fill="url(#paint0_linear_338_841)"/>
</g>
<defs>
<linearGradient id="paint0_linear_338_841" x1="0" y1="442" x2="0" y2="-8.52979" gradientUnits="userSpaceOnUse">
<stop stop-color="#FFFAF6"/>
<stop offset="1" stop-color="#FFD4B3"/>
</linearGradient>
<clipPath id="clip0_338_841">
<rect width="1440" height="442" fill="white"/>
</clipPath>
</defs>
</svg>
