<svg width="777" height="497" viewBox="0 0 777 497" fill="none" xmlns="http://www.w3.org/2000/svg">
<path d="M714.744 342.055L48.0928 336.249V353.428C48.0928 358.09 51.0007 362.054 54.9388 362.762L243.447 396.591C245.683 396.992 247.952 397.099 250.21 396.909L707.499 358.339C711.582 357.995 714.744 354.019 714.744 349.226V342.055Z" fill="url(#paint0_linear_323_3299)"/>
<path d="M500.138 314.205L55.428 345.634C47.471 346.197 41 340.222 41 332.286V14.3704C41 6.43483 47.471 0.00183105 55.428 0.00183105H500.138C506.694 0.00183105 511.995 5.81763 511.995 12.9913V300.38C511.995 307.554 506.694 313.742 500.138 314.207V314.205Z" fill="url(#paint1_linear_323_3299)"/>
<path d="M507.231 314.206L62.5207 345.632C54.5638 346.195 48.0928 340.22 48.0928 332.284V14.3686C48.0928 6.433 54.5638 0 62.5207 0H507.231C513.787 0 519.088 5.8158 519.088 12.9894V300.378C519.088 307.552 513.787 313.74 507.231 314.206Z" fill="url(#paint2_linear_323_3299)"/>
<path d="M493.375 293.945L79.173 321.244C72.6973 321.671 67.4346 316.767 67.4346 310.289V31.9537C67.4346 25.4756 72.6973 20.2034 79.173 20.1749L493.375 18.461C498.782 18.4396 503.157 23.2039 503.157 29.1051V282.62C503.157 288.521 498.782 293.591 493.375 293.948V293.945Z" fill="white"/>
<path d="M300.581 8.69749C300.581 11.6505 298.292 14.0528 295.465 14.0623C292.636 14.0718 290.338 11.6766 290.338 8.71647C290.338 5.75634 292.633 3.35406 295.465 3.35168C298.292 3.35168 300.581 5.74211 300.581 8.69749Z" fill="white"/>
<g style="mix-blend-mode:soft-light" opacity="0.48">
<path d="M400.085 227.013C365.802 208.567 338.845 231.941 312.828 208.88C297.057 194.898 304.8 184.473 285.392 163.578C263.897 140.436 249.904 148.215 228.3 127.39C200.984 101.055 214.646 80.5667 191.119 61.6593C162.576 38.7213 131.795 59.9526 104.625 37.9546C92.9054 28.4665 86.4771 14.6723 83.1182 0.00463867H56.534C51.8742 0.00463867 48.0928 3.78136 48.0928 8.43876V337.986C48.0928 342.644 51.8766 346.152 56.534 345.82L509.768 313.648C511.993 313.491 513.965 312.19 515.23 310.308C482.052 309.099 461.67 297.976 448.641 286.477C423.151 263.983 427.573 241.802 400.087 227.013H400.085Z" fill="white"/>
</g>
<path d="M496.135 312.781L48.0918 345.86L243.446 380.916C245.682 381.318 247.951 381.424 250.209 381.234L714.743 342.053L503.261 313.004C500.896 312.679 498.511 312.603 496.135 312.779V312.781Z" fill="url(#paint3_linear_323_3299)"/>
<path style="mix-blend-mode:multiply" opacity="0.3" d="M113.468 346.693L486.477 318.742L601.92 334.47L232.125 364.349L113.468 346.693Z" fill="url(#paint4_linear_323_3299)"/>
<path d="M476.194 120.67L86.1318 125.814V64.473H476.194V120.67Z" fill="#D8DEE8"/>
<path d="M352.51 230.081L105.386 239.414V136.494L352.51 132.654V230.081Z" fill="#D8DEE8"/>
<path d="M459.905 159.496L366.946 161.562V132.427L459.905 130.983V159.496Z" fill="#D8DEE8"/>
<path d="M459.905 226.026L366.946 229.536V171.878L459.905 169.595V226.026Z" fill="#D8DEE8"/>
<path d="M459.906 239.094L105.386 253.565V278.008L459.906 261.667V239.094Z" fill="#D8DEE8"/>
<path d="M518.286 115.504L183.448 119.708C181.551 119.731 180 118.201 180 116.303V61.4063C180 59.5255 181.525 58 183.405 58H518.243C520.124 58 521.649 59.5255 521.649 61.4063V112.099C521.649 113.963 520.15 115.48 518.286 115.504Z" fill="url(#paint5_linear_323_3299)"/>
<path d="M444.438 227.529L231.92 235.27V132.329L444.438 129.084V227.529Z" fill="url(#paint6_linear_323_3299)"/>
<path d="M538.152 156.591L456.988 158.346V128.891L538.152 127.652V156.591Z" fill="url(#paint7_linear_323_3299)"/>
<path d="M538.152 224.114L456.988 227.071V168.776L538.152 166.84V224.114Z" fill="url(#paint8_linear_323_3299)"/>
<path d="M547.497 234.868L242.56 246.719V271.114L547.497 257.73V234.868Z" fill="url(#paint9_linear_323_3299)"/>
<path d="M197.306 69.4872C197.671 67.24 196.145 65.1226 193.898 64.7578C191.65 64.3931 189.533 65.9191 189.168 68.1662C188.804 70.4134 190.33 72.5308 192.577 72.8956C194.824 73.2603 196.941 71.7343 197.306 69.4872Z" fill="url(#paint10_linear_323_3299)"/>
<path d="M210.792 69.7557C211.315 67.54 209.943 65.3198 207.727 64.7969C205.511 64.2739 203.291 65.6462 202.768 67.8619C202.245 70.0776 203.617 72.2977 205.833 72.8207C208.049 73.3436 210.269 71.9714 210.792 69.7557Z" fill="url(#paint11_linear_323_3299)"/>
<path d="M224.4 69.4868C224.765 67.2396 223.239 65.1222 220.991 64.7575C218.744 64.3927 216.627 65.9187 216.262 68.1659C215.897 70.413 217.423 72.5304 219.67 72.8952C221.918 73.26 224.035 71.734 224.4 69.4868Z" fill="url(#paint12_linear_323_3299)"/>
<path d="M35.5791 490.629L25.6289 484.649H21.1383C21.1383 484.649 19.6082 490.344 19.7824 490.629C21.7837 493.907 31.0995 496.402 36.9129 496.608C37.8776 496.642 39.2252 496.648 39.5735 495.947C40.1623 494.763 37.5293 492.278 35.5805 490.629H35.5791Z" fill="url(#paint13_linear_323_3299)"/>
<path d="M25.4521 478.126C25.4355 481.609 25.5848 484.068 26.4569 485.148C27.0706 485.91 21.1702 487.621 21.1384 484.651C21.1177 482.695 20.8094 479.341 20.4971 478.357C22.1488 478.281 23.8004 478.203 25.4535 478.127L25.4521 478.126Z" fill="url(#paint14_linear_323_3299)"/>
<path d="M102.11 482.781L92.1602 476.802H87.6695C87.6695 476.802 86.1395 482.496 86.3136 482.781C88.315 486.059 97.6307 488.554 103.444 488.76C104.409 488.795 105.756 488.799 106.105 488.099C106.694 486.915 104.061 484.43 102.112 482.781H102.11Z" fill="url(#paint15_linear_323_3299)"/>
<path d="M89.1386 470.321C90.5885 473.093 92.1172 476.22 92.9893 477.301C93.603 478.062 88.7005 479.59 87.6708 476.803C86.836 474.543 84.496 471.536 84.1836 470.552C85.8353 470.476 87.487 470.398 89.14 470.322L89.1386 470.321Z" fill="url(#paint16_linear_323_3299)"/>
<path d="M87.0898 307.194C83.2391 332.799 80.725 364.644 82.9959 401.018C84.6738 427.885 88.6199 451.739 93.2308 471.984C90.1596 472.78 87.0898 473.576 84.0187 474.372C80.1956 473.486 74.7762 471.57 71.054 466.866C66.1598 460.68 68.392 454.978 64.9131 444.689C61.5917 434.867 57.6236 434.346 53.654 425.923C48.4764 414.938 51.6388 408.211 51.2656 393.512C50.6354 368.645 41.0501 366.718 37.9596 335.852C36.3424 319.692 35.5435 310.412 41.3707 304.463C49.531 296.133 67.4742 297.61 87.0884 307.193L87.0898 307.194Z" fill="url(#paint17_linear_323_3299)"/>
<path d="M65.937 308.9C55.4201 333.372 44.49 364.715 37.2779 402.042C31.5143 431.872 29.4203 458.814 29.09 481.537H18.8551C15.8945 477.229 12.0037 470.55 9.64299 461.749C7.28917 452.972 8.76947 450.711 7.25462 436.842C5.18967 417.942 2.48479 417.072 2.81927 405.795C3.20351 392.835 7.14266 392.887 8.61881 379.865C10.804 360.602 2.84829 354.657 3.15928 336.876C3.29888 328.888 5.13715 316.857 14.077 302.076C31.3636 304.351 48.6503 306.625 65.937 308.9Z" fill="url(#paint18_linear_323_3299)"/>
<path d="M200.363 305.906L204.376 309.462C204.376 309.462 213.184 309.115 216.356 309.921C219.528 310.728 225 313.477 225 313.477C225 313.477 223.632 315.497 221.693 314.732C219.752 313.967 216.756 312.933 216.179 313.213C215.603 313.494 214.247 317.147 209.628 317.758C205.009 318.369 202.859 312.932 202.859 312.932L198.486 309.219L200.365 305.906H200.363Z" fill="url(#paint19_linear_323_3299)"/>
<path d="M154.386 212.262C156.012 212.461 159.198 213.443 166.413 226.848C176.433 245.461 176.414 256.05 181.766 267.533C185.762 276.106 193.684 287.169 211.084 297.024C209.77 298.572 208.455 300.12 207.142 301.668C200.086 302.232 188.975 302.258 176.212 298.431C172.233 297.238 164.968 295.003 157.189 289.953C151.382 286.181 133.526 274.585 130.846 255.251C127.917 234.118 144.174 211.009 154.386 212.263V212.262Z" fill="url(#paint20_linear_323_3299)"/>
<path d="M62.7804 188.464C73.2461 185.11 81.4382 186.039 96.0448 187.696C117.362 190.114 131.027 197.181 142.872 203.305C154.513 209.325 157.595 212.722 159.25 216.611C163.106 225.681 158.408 235.588 155.411 241.688C147.761 257.261 140.661 256.719 124.45 275.465C110.187 291.956 103.055 300.202 98.3489 312.312C96.2673 317.669 94.2342 324.606 87.6012 328.689C81.1631 332.652 73.8542 331.794 69.6898 331.248C52.1917 328.957 50.6409 317.665 39.2394 318.453C30.1545 319.082 28.1835 326.457 12.6273 328.944C5.67369 330.055 3.64606 328.968 2.64814 328.176C-1.13759 325.17 -0.696682 317.983 2.90384 303.356C8.43939 280.866 13.3737 273.576 18.0012 255.761C22.8069 237.261 19.1055 238.888 23.1193 228.382C24.4683 224.852 35.5187 197.197 62.7818 188.464H62.7804Z" fill="url(#paint21_linear_323_3299)"/>
<path d="M64.9279 281.702L101.814 241.217C102.704 240.041 104.172 239.455 105.627 239.692L147.87 246.598C149.681 246.893 150.514 249.018 149.389 250.466L115.049 294.648C114.129 295.833 112.619 296.4 111.146 296.112L67.3384 288.008C64.4497 287.445 63.1519 284.049 64.9279 281.702Z" fill="url(#paint22_linear_323_3299)"/>
<path d="M63.3779 268.669L71.2742 265.223C71.2742 265.223 74.2887 260.916 76.7296 260.199C79.1705 259.482 87.9279 260.487 87.9279 260.487C87.9279 260.487 87.0668 263.932 85.3432 264.506C83.621 265.081 78.308 265.511 77.4469 267.234C76.5858 268.957 73.4276 270.249 72.279 269.675C71.1305 269.1 63.8092 271.541 63.8092 271.541L63.3779 268.67V268.669Z" fill="url(#paint23_linear_323_3299)"/>
<path style="mix-blend-mode:multiply" opacity="0.3" d="M66.1078 322.036C62.4686 317.591 64.4312 312.26 59.4555 307.705C51.3477 300.287 36.6761 305.776 35.9145 303.1C35.0009 299.895 56.9773 295.247 59.4555 282.629C60.5792 276.908 56.441 275.935 56.8971 268.3C57.3242 261.142 61.7941 255.241 70.7145 243.735C77.758 234.65 79.664 233.91 79.9266 230.429C80.7172 219.963 67.4969 212.68 62.0152 208.935C55.3104 204.354 48.3042 201.98 41.7638 200.893C29.558 212.136 24.0487 225.956 23.1213 228.383C19.1075 238.889 22.8089 237.264 18.0031 255.762C13.3757 273.576 8.44134 280.868 2.9058 303.357C-0.694729 317.984 -1.13564 325.172 2.6501 328.178C3.64801 328.971 5.67703 330.058 12.6293 328.945C28.1855 326.458 30.1565 319.082 39.2414 318.454C50.6428 317.665 52.1936 328.959 69.6917 331.249C73.8562 331.794 81.1664 332.653 87.6031 328.691C89.053 327.799 90.2721 326.764 91.3308 325.646C75.8589 328.489 69.1624 325.766 66.1092 322.037L66.1078 322.036Z" fill="url(#paint24_linear_323_3299)"/>
<path d="M137.584 177.376C135.247 182.993 126.496 197.165 107.583 190.221C102.521 188.362 101.657 189.017 101.364 189.407C99.9367 191.31 110.076 203.963 124.424 207.821C133.176 210.173 142.536 208.995 143.034 206.558C143.534 204.104 137.281 204.328 136.563 199.213C136.062 195.651 143.265 191.384 146.969 188.978C146.365 184.323 138.193 182.042 137.587 177.378L137.584 177.376Z" fill="url(#paint25_linear_323_3299)"/>
<path d="M153.318 188.479C156.559 187.416 159.185 183.748 158.704 180.145C158.289 177.044 155.679 175.069 154.114 173.886C149.576 170.454 142.182 168.576 137.318 171.31C134.433 172.931 133.846 179.536 133.676 180.685C133.485 181.984 134.138 182.859 134.443 184.11C134.866 185.845 135.511 188.584 136.518 193.122C137.301 192.428 138.335 191.605 139.629 190.818C140.126 190.515 142.093 189.346 144.298 188.719C148.712 187.464 150.24 189.488 153.314 188.479H153.318Z" fill="url(#paint26_linear_323_3299)"/>
<path d="M133.973 188.292C133.973 188.292 134.012 194.927 140.667 198.367C146.614 201.44 155.176 190.472 153.169 185.859C152.498 184.319 150.287 182.522 147.968 181.832C146.596 181.425 145.905 181.622 143.677 180.916C141.619 180.264 141.236 179.787 140.427 179.87C139.413 179.973 138.085 180.917 136.942 184.946C136.515 183.303 135.456 182.138 134.261 181.975C134.07 181.948 133.514 181.953 133.047 182.183C131.358 183.017 131.571 185.496 133.975 188.294L133.973 188.292Z" fill="url(#paint27_linear_323_3299)"/>
<path d="M96.5584 192.046C89.642 180.371 57.0811 184.642 35.1463 197.42C28.0033 201.582 6.21903 214.271 4.69589 236.314C4.53003 238.709 4.10432 248.444 9.81402 257.552C19.4159 272.872 42.1206 279.632 66.1094 273.673C65.8537 271.114 65.598 268.554 65.3423 265.996C63.2995 266.067 55.1682 266.112 47.9423 260.111C46.4952 258.908 37.894 251.764 39.2416 245.269C41.5056 234.367 68.6982 240.311 86.3249 221.984C94.228 213.767 101.113 199.73 96.5597 192.045L96.5584 192.046Z" fill="url(#paint28_linear_323_3299)"/>
<path d="M664.04 453.383C664.04 453.383 664.538 457.354 664.203 458.683C663.868 460.013 652.326 460.975 648.408 460.512C644.491 460.05 650.743 456.048 653.239 455.296C655.735 454.544 664.04 453.383 664.04 453.383Z" fill="url(#paint29_linear_323_3299)"/>
<path d="M658.229 446.763L659.445 454.728C659.445 454.728 662.548 456.122 664.04 454.744L664.204 446.408L658.229 446.765V446.763Z" fill="url(#paint30_linear_323_3299)"/>
<path d="M723.297 446.406C723.297 446.406 720.846 448.223 721.499 450.401C722.152 452.576 727.867 461.298 731.939 463.772C736.01 466.246 734.734 461.09 733.551 457.879C732.365 454.667 729.337 447.592 728.154 446.406C726.971 445.221 723.294 446.406 723.294 446.406H723.297Z" fill="url(#paint31_linear_323_3299)"/>
<path d="M718.89 437.656C720.073 440.956 721.212 443.669 722.104 445.669C724.074 450.097 725.151 451.757 726.371 453.198C727.435 454.453 729.953 457.13 730.63 456.684C731.317 456.233 729.476 452.979 725.925 443.448C725.409 442.065 723.781 437.658 723.781 437.658H718.892L718.89 437.656Z" fill="url(#paint32_linear_323_3299)"/>
<path d="M634.058 299.773C633.212 308.068 632.403 320.94 633.615 336.564C635.195 356.92 639.264 369.802 644.37 391.507C647.49 404.77 651.694 424.294 655.498 448.709C656.38 449.215 658.977 450.543 662.321 450.046C664.193 449.769 665.593 449.025 666.42 448.49C676.401 417.991 673.452 399.093 668.636 387.319C666.583 382.301 664.095 378.34 662.762 370.626C661.001 360.418 663.179 354.713 666.282 331.069C668.494 314.216 668.111 311.612 666.639 309.084C660.755 298.98 642.753 299.178 634.058 299.775V299.773Z" fill="url(#paint33_linear_323_3299)"/>
<path d="M571.988 214.433C571.988 214.433 570.588 208.94 568.256 207.489C565.924 206.039 562.63 204.49 561.874 203.851C561.119 203.215 560.238 205.119 562.413 206.576L564.589 208.034C564.635 208.436 564.574 208.749 564.5 208.969C564.155 210 562.979 210.708 561.527 210.841C555.944 212.009 553.764 212.067 552.913 211.816C552.788 211.78 552.301 211.621 552.097 211.838C551.769 212.185 552.359 213.281 552.61 213.664C554.12 215.97 559.363 216.974 563.288 215.17C564.721 214.512 565.271 213.804 566.316 213.982C567.979 214.264 568.998 216.456 569.603 218.271L571.99 214.435L571.988 214.433Z" fill="white"/>
<path d="M668.412 303.319C674.526 334.895 680.528 351.477 685.067 360.856C686.187 363.169 689.924 370.633 693.456 381.333C696.583 390.803 697.887 397.771 698.554 400.838C700.662 410.516 705.871 424.648 719.891 443.182C720.067 443.286 722.457 444.638 724.741 443.433C725.897 442.824 726.473 441.85 726.702 441.397C724.869 423.675 722.765 408.783 720.939 397.291C720.556 394.88 718.869 384.335 716.222 370.402C715.186 364.95 713.668 356.961 711.851 348.755C709.589 338.535 706.117 324.634 700.768 307.976C689.982 306.425 679.196 304.873 668.409 303.322L668.412 303.319Z" fill="url(#paint34_linear_323_3299)"/>
<path d="M567.485 216.175C569.075 214.763 570.663 213.349 572.253 211.937C572.834 212.525 581.319 220.805 593.183 218.295C601.35 216.567 606.061 209.86 609.077 205.579C618.141 192.721 612.72 183.286 622.477 174.548C625.188 172.122 630.503 169.185 633.979 170.079C642.26 172.213 647.028 197.115 639.012 216.702C637.396 220.656 628.486 242.426 608.282 244.782C591.969 246.685 574.667 235.191 567.485 216.172V216.175Z" fill="url(#paint35_linear_323_3299)"/>
<path d="M663.203 178.429C659.736 175.225 653.101 171.529 649.774 162.94C648.772 160.355 645.225 151.195 650.458 144.187C653.564 140.026 659.336 137.202 664.422 138.202C668.769 139.057 669.448 142.083 676.833 148.176C679.707 150.547 684.328 154.358 689.472 156.479C698.283 160.109 703.576 156.693 712.423 157.083C723.289 157.563 735.913 163.627 741.997 172.447C752.793 188.1 737.154 203.977 748.979 222.316C752.853 228.322 754.764 226.975 763.941 238.605C773.13 250.248 777.724 256.072 776.907 263.205C775.773 273.107 765.107 282.566 755.062 283.209C745.252 283.838 739.014 276.119 734.02 279.497C730.463 281.899 732.497 286.572 728.722 292.188C723.855 299.431 714.287 300.874 712.743 301.105C698.403 303.268 679.066 286.452 670.853 266.53C656.043 230.603 682.058 195.855 663.206 178.431L663.203 178.429Z" fill="url(#paint36_linear_323_3299)"/>
<path style="mix-blend-mode:multiply" opacity="0.3" d="M668.634 387.317C666.581 382.299 664.092 378.338 662.76 370.623C660.998 360.415 663.177 354.71 666.28 331.066C668.491 314.214 668.108 311.609 666.636 309.082C663.439 303.591 656.662 301.153 649.745 300.158C649.836 300.512 649.93 300.869 650.005 301.211C653.633 317.784 639.785 327.896 646.032 346.114C649.111 355.096 654.026 357.153 655.17 367.573C656.243 377.333 652.354 379.367 653.183 388.237C654.426 401.498 663.844 404.707 666.297 414.862C667.889 421.461 666.547 431.107 654.915 445.074C655.108 446.276 655.301 447.483 655.493 448.712C656.377 449.218 658.972 450.545 662.316 450.049C664.188 449.772 665.588 449.027 666.415 448.492C676.396 417.994 673.447 399.096 668.631 387.322L668.634 387.317Z" fill="url(#paint37_linear_323_3299)"/>
<path d="M632.127 193.923C617.194 205.719 618.856 228.341 609.674 229.488C606.87 229.838 607.024 227.688 600.336 225.515C590.554 222.335 585.957 225.547 579.076 223.13C576.226 222.13 572.518 219.991 568.868 214.948C568.408 215.358 567.948 215.768 567.485 216.177C574.667 235.198 591.969 246.693 608.282 244.787C628.489 242.428 637.396 220.661 639.012 216.707C642.773 207.516 643.72 197.156 642.809 188.526C639.362 189.531 635.618 191.167 632.124 193.925L632.127 193.923Z" fill="url(#paint38_linear_323_3299)"/>
<path d="M621.291 176.041C622.207 174.62 625.115 170.681 637.463 167.778C643.65 166.323 655.091 163.831 669.814 166.951C690.036 171.235 702.629 183.368 707.368 188.468C703.487 190.996 692.775 198.708 687.472 213.336C685.822 217.887 680.945 233.449 687.92 248.022C691.939 256.421 699.046 262.726 704.443 267.515C712.541 274.697 716.733 275.801 719.448 282.236C722.404 289.244 719.427 292.661 723.096 297.457C727.038 302.608 731.659 300.213 738.34 305.425C745.184 310.761 742.749 315.153 748.979 321.051C758.031 329.618 770.031 326.836 770.588 330.693C771.07 334.01 762.541 338.508 755.294 340.335C740.944 343.948 728.43 337.882 724.708 336.012C714.403 330.835 716.184 327.486 708.327 323.54C695.172 316.931 686.183 324.284 656.221 325.043C639.997 325.453 631.791 325.547 627.298 320.056C623.192 315.042 625.351 309.542 627.813 285.84C627.813 285.84 627.813 285.84 627.813 285.838C628.606 277.921 630.261 261.348 630.273 251.903C630.278 246.321 628.343 237.202 624.472 218.962C624.243 217.885 622.147 208.031 620.455 194.867C618.93 183.014 619.152 179.373 621.294 176.046L621.291 176.041Z" fill="url(#paint39_linear_323_3299)"/>
<path d="M748.977 324.571C742.746 318.673 745.182 314.281 738.337 308.945C731.654 303.733 727.035 306.128 723.094 300.977C719.422 296.181 722.402 292.764 719.446 285.756C716.731 279.321 712.539 278.217 704.441 271.035C699.044 266.246 691.934 259.941 687.918 251.542C680.946 236.969 685.82 221.407 687.47 216.856C692.775 202.228 703.485 194.516 707.366 191.988C706.992 191.586 706.552 191.128 706.079 190.644C680.507 194.159 665.598 208.935 663.753 213.31C659.491 223.424 666.239 227.139 666.413 256.308C666.495 270.25 664.991 275.755 669.516 281.573C674.689 288.228 680.652 286.17 688.133 294.872C693.881 301.558 692.961 305.796 698.329 308.612C704.101 311.641 707.775 308.111 714.285 309.499C725.161 311.819 727.486 324.357 734.675 331.218C740.113 336.405 750.165 340.033 769.991 336.14C770.448 335.473 770.67 334.82 770.581 334.21C770.022 330.356 758.024 333.138 748.972 324.569L748.977 324.571Z" fill="url(#paint40_linear_323_3299)"/>
<path d="M671.513 217.656C668.796 223.429 681.285 236.875 695.17 243.257C697.999 244.558 718.314 253.898 727.366 244.917C734.846 237.494 730.018 222.149 728.296 216.671C719.832 189.767 693.838 176.082 682.946 171.148C674.817 191.475 679.604 200.534 681.488 203.362C683.456 206.316 688.952 212.522 694.787 217.991C698.893 221.836 701.449 223.708 701.104 224.308C700.676 225.055 695.864 223.646 677.178 214.548C675.012 214.9 672.443 215.688 671.516 217.659L671.513 217.656Z" fill="url(#paint41_linear_323_3299)"/>
<path d="M661.515 151.145C661.515 151.145 662.803 161.454 666.61 163.817C670.417 166.178 676.568 169.264 677.245 170.1C677.922 170.936 653.672 173.543 641.652 167.479C645.613 166.653 646.69 166.349 646.69 166.349C647.765 166.046 649.769 165.479 651.781 164.335C653.149 163.557 655.354 162.034 657.378 159.16L657.334 153.453L661.517 151.145H661.515Z" fill="white"/>
<path d="M662.093 154.794C662.093 154.794 659.611 158.199 655.72 156.78C652.236 155.51 654.316 146.511 657.079 145.485C658.002 145.143 659.693 145.295 660.826 146.001C661.621 146.497 663.746 149.138 662.529 152.096C663.408 151.841 664.184 152.072 664.377 152.508C664.623 153.06 663.878 153.814 663.71 153.985C663.124 154.575 662.418 154.741 662.093 154.794Z" fill="white"/>
<path d="M676.236 216.307C676.236 216.307 664.844 204.651 660.209 202.929C655.573 201.206 658.354 203.724 660.209 205.181C662.064 206.639 663.3 207.116 662.351 209.328C661.402 211.539 659.679 213.5 662.394 215.235C665.109 216.97 666.169 217.632 668.29 217.895L670.41 218.16L673.193 219.644C673.193 219.644 676.768 219.22 676.238 216.307H676.236Z" fill="white"/>
<defs>
<linearGradient id="paint0_linear_323_3299" x1="329.682" y1="367.68" x2="282.852" y2="387.349" gradientUnits="userSpaceOnUse">
<stop stop-color="#40447E"/>
<stop offset="1" stop-color="#3C3B6B"/>
</linearGradient>
<linearGradient id="paint1_linear_323_3299" x1="267.15" y1="161.28" x2="216.324" y2="182.625" gradientUnits="userSpaceOnUse">
<stop stop-color="#40447E"/>
<stop offset="1" stop-color="#3C3B6B"/>
</linearGradient>
<linearGradient id="paint2_linear_323_3299" x1="48.0904" y1="172.836" x2="519.085" y2="172.836" gradientUnits="userSpaceOnUse">
<stop stop-color="#40447E"/>
<stop offset="1" stop-color="#3C3B6B"/>
</linearGradient>
<linearGradient id="paint3_linear_323_3299" x1="48.0918" y1="347.009" x2="714.745" y2="347.009" gradientUnits="userSpaceOnUse">
<stop stop-color="#40447E"/>
<stop offset="1" stop-color="#3C3B6B"/>
</linearGradient>
<linearGradient id="paint4_linear_323_3299" x1="113.468" y1="341.547" x2="601.92" y2="341.547" gradientUnits="userSpaceOnUse">
<stop stop-color="#40447E"/>
<stop offset="1" stop-color="#3C3B6B"/>
</linearGradient>
<linearGradient id="paint5_linear_323_3299" x1="424.922" y1="-10.0277" x2="295.064" y2="159.583" gradientUnits="userSpaceOnUse">
<stop stop-color="#FF9085"/>
<stop offset="1" stop-color="#FB6FBB"/>
</linearGradient>
<linearGradient id="paint6_linear_323_3299" x1="303.974" y1="215.6" x2="427.65" y2="86.6235" gradientUnits="userSpaceOnUse">
<stop stop-color="#E38DDD"/>
<stop offset="1" stop-color="#9571F6"/>
</linearGradient>
<linearGradient id="paint7_linear_323_3299" x1="498.83" y1="140.453" x2="392.821" y2="333.033" gradientUnits="userSpaceOnUse">
<stop stop-color="#FFC444"/>
<stop offset="1" stop-color="#F36F56"/>
</linearGradient>
<linearGradient id="paint8_linear_323_3299" x1="521.517" y1="152.94" x2="415.51" y2="345.52" gradientUnits="userSpaceOnUse">
<stop stop-color="#FFC444"/>
<stop offset="1" stop-color="#F36F56"/>
</linearGradient>
<linearGradient id="paint9_linear_323_3299" x1="333.873" y1="277.668" x2="495.25" y2="210.527" gradientUnits="userSpaceOnUse">
<stop stop-color="#E38DDD"/>
<stop offset="1" stop-color="#9571F6"/>
</linearGradient>
<linearGradient id="paint10_linear_323_3299" x1="194.523" y1="64.9029" x2="191.969" y2="72.7449" gradientUnits="userSpaceOnUse">
<stop offset="0.49" stop-color="#EBEFF2"/>
<stop offset="1" stop-color="white"/>
</linearGradient>
<linearGradient id="paint11_linear_323_3299" x1="208.049" y1="64.8912" x2="205.495" y2="72.7331" gradientUnits="userSpaceOnUse">
<stop offset="0.49" stop-color="#EBEFF2"/>
<stop offset="1" stop-color="white"/>
</linearGradient>
<linearGradient id="paint12_linear_323_3299" x1="221.618" y1="-122.359" x2="219.061" y2="-122.359" gradientUnits="userSpaceOnUse">
<stop offset="0.49" stop-color="#EBEFF2"/>
<stop offset="1" stop-color="white"/>
</linearGradient>
<linearGradient id="paint13_linear_323_3299" x1="39.6551" y1="490.634" x2="19.7672" y2="490.634" gradientUnits="userSpaceOnUse">
<stop stop-color="#311944"/>
<stop offset="1" stop-color="#6B3976"/>
</linearGradient>
<linearGradient id="paint14_linear_323_3299" x1="25.9511" y1="489.505" x2="9.49232" y2="440.125" gradientUnits="userSpaceOnUse">
<stop stop-color="#FFC444"/>
<stop offset="1" stop-color="#F36F56"/>
</linearGradient>
<linearGradient id="paint15_linear_323_3299" x1="106.188" y1="482.788" x2="86.2998" y2="482.788" gradientUnits="userSpaceOnUse">
<stop stop-color="#311944"/>
<stop offset="1" stop-color="#6B3976"/>
</linearGradient>
<linearGradient id="paint16_linear_323_3299" x1="91.4261" y1="482.417" x2="73.2991" y2="428.039" gradientUnits="userSpaceOnUse">
<stop stop-color="#FFC444"/>
<stop offset="1" stop-color="#F36F56"/>
</linearGradient>
<linearGradient id="paint17_linear_323_3299" x1="46.2746" y1="276.85" x2="90.2867" y2="442.663" gradientUnits="userSpaceOnUse">
<stop stop-color="#311944"/>
<stop offset="1" stop-color="#6B3976"/>
</linearGradient>
<linearGradient id="paint18_linear_323_3299" x1="-7.94084" y1="391.807" x2="55.2059" y2="391.807" gradientUnits="userSpaceOnUse">
<stop stop-color="#311944"/>
<stop offset="1" stop-color="#6B3976"/>
</linearGradient>
<linearGradient id="paint19_linear_323_3299" x1="216.899" y1="293.721" x2="198.135" y2="357.863" gradientUnits="userSpaceOnUse">
<stop stop-color="#FFC444"/>
<stop offset="1" stop-color="#F36F56"/>
</linearGradient>
<linearGradient id="paint20_linear_323_3299" x1="88.1934" y1="341.054" x2="199.175" y2="237.402" gradientUnits="userSpaceOnUse">
<stop stop-color="#AA80F9"/>
<stop offset="1" stop-color="#6165D7"/>
</linearGradient>
<linearGradient id="paint21_linear_323_3299" x1="41.5739" y1="286.622" x2="150.068" y2="185.292" gradientUnits="userSpaceOnUse">
<stop stop-color="#AA80F9"/>
<stop offset="1" stop-color="#6165D7"/>
</linearGradient>
<linearGradient id="paint22_linear_323_3299" x1="126.77" y1="244.13" x2="87.4295" y2="291.241" gradientUnits="userSpaceOnUse">
<stop stop-color="#444B8C"/>
<stop offset="1" stop-color="#26264F"/>
</linearGradient>
<linearGradient id="paint23_linear_323_3299" x1="78.9369" y1="253.36" x2="60.1727" y2="317.502" gradientUnits="userSpaceOnUse">
<stop stop-color="#FFC444"/>
<stop offset="1" stop-color="#F36F56"/>
</linearGradient>
<linearGradient id="paint24_linear_323_3299" x1="41.5703" y1="286.619" x2="150.066" y2="185.287" gradientUnits="userSpaceOnUse">
<stop stop-color="#AA80F9"/>
<stop offset="1" stop-color="#6165D7"/>
</linearGradient>
<linearGradient id="paint25_linear_323_3299" x1="102.624" y1="215.292" x2="152.828" y2="171.312" gradientUnits="userSpaceOnUse">
<stop stop-color="#FFC444"/>
<stop offset="1" stop-color="#F36F56"/>
</linearGradient>
<linearGradient id="paint26_linear_323_3299" x1="117.18" y1="200.584" x2="152.453" y2="174.9" gradientUnits="userSpaceOnUse">
<stop stop-color="#311944"/>
<stop offset="1" stop-color="#6B3976"/>
</linearGradient>
<linearGradient id="paint27_linear_323_3299" x1="144.542" y1="183.24" x2="116.036" y2="233.318" gradientUnits="userSpaceOnUse">
<stop stop-color="#FFC444"/>
<stop offset="1" stop-color="#F36F56"/>
</linearGradient>
<linearGradient id="paint28_linear_323_3299" x1="19.4463" y1="262.929" x2="127.942" y2="161.599" gradientUnits="userSpaceOnUse">
<stop stop-color="#AA80F9"/>
<stop offset="1" stop-color="#6165D7"/>
</linearGradient>
<linearGradient id="paint29_linear_323_3299" x1="654.046" y1="427.848" x2="658.035" y2="499.662" gradientUnits="userSpaceOnUse">
<stop stop-color="#444B8C"/>
<stop offset="1" stop-color="#26264F"/>
</linearGradient>
<linearGradient id="paint30_linear_323_3299" x1="661.58" y1="463.239" x2="659.462" y2="366.282" gradientUnits="userSpaceOnUse">
<stop stop-color="#FFC444"/>
<stop offset="1" stop-color="#F36F56"/>
</linearGradient>
<linearGradient id="paint31_linear_323_3299" x1="726.255" y1="423.839" x2="730.245" y2="495.649" gradientUnits="userSpaceOnUse">
<stop stop-color="#444B8C"/>
<stop offset="1" stop-color="#26264F"/>
</linearGradient>
<linearGradient id="paint32_linear_323_3299" x1="725.156" y1="461.849" x2="723.036" y2="364.894" gradientUnits="userSpaceOnUse">
<stop stop-color="#FFC444"/>
<stop offset="1" stop-color="#F36F56"/>
</linearGradient>
<linearGradient id="paint33_linear_323_3299" x1="630.796" y1="400.221" x2="671.064" y2="346.178" gradientUnits="userSpaceOnUse">
<stop stop-color="#311944"/>
<stop offset="1" stop-color="#6B3976"/>
</linearGradient>
<linearGradient id="paint34_linear_323_3299" x1="660.709" y1="406.928" x2="755.016" y2="318.977" gradientUnits="userSpaceOnUse">
<stop stop-color="#311944"/>
<stop offset="1" stop-color="#6B3976"/>
</linearGradient>
<linearGradient id="paint35_linear_323_3299" x1="608.822" y1="212.862" x2="662.614" y2="389.255" gradientUnits="userSpaceOnUse">
<stop stop-color="#FFC444"/>
<stop offset="1" stop-color="#F36F56"/>
</linearGradient>
<linearGradient id="paint36_linear_323_3299" x1="726.597" y1="249.47" x2="698.671" y2="209.908" gradientUnits="userSpaceOnUse">
<stop stop-color="#444B8C"/>
<stop offset="1" stop-color="#26264F"/>
</linearGradient>
<linearGradient id="paint37_linear_323_3299" x1="635.932" y1="404.049" x2="676.198" y2="350.007" gradientUnits="userSpaceOnUse">
<stop stop-color="#311944"/>
<stop offset="1" stop-color="#6B3976"/>
</linearGradient>
<linearGradient id="paint38_linear_323_3299" x1="567.485" y1="216.758" x2="643.132" y2="216.758" gradientUnits="userSpaceOnUse">
<stop stop-color="#FFC444"/>
<stop offset="1" stop-color="#F36F56"/>
</linearGradient>
<linearGradient id="paint39_linear_323_3299" x1="659.534" y1="197.395" x2="713.327" y2="373.79" gradientUnits="userSpaceOnUse">
<stop stop-color="#FFC444"/>
<stop offset="1" stop-color="#F36F56"/>
</linearGradient>
<linearGradient id="paint40_linear_323_3299" x1="696.461" y1="169.19" x2="719.51" y2="310.149" gradientUnits="userSpaceOnUse">
<stop stop-color="#FFC444"/>
<stop offset="1" stop-color="#F36F56"/>
</linearGradient>
<linearGradient id="paint41_linear_323_3299" x1="690.4" y1="187.984" x2="744.192" y2="364.377" gradientUnits="userSpaceOnUse">
<stop stop-color="#FFC444"/>
<stop offset="1" stop-color="#F36F56"/>
</linearGradient>
</defs>
</svg>
