<svg width="575" height="362" viewBox="0 0 575 362" fill="none" xmlns="http://www.w3.org/2000/svg">
<g clip-path="url(#clip0_340_1020)">
<path d="M133.782 361.963C125.664 361.416 117.999 356.017 114.701 347.698L68.1952 230.403C63.9604 219.721 68.7383 207.636 78.9167 203.347C89.1675 199.031 105.15 204.115 109.492 214.908L157.201 333.476C161.7 344.654 156.625 356.879 145.929 360.725C143.293 361.672 136.46 362.142 133.782 361.963Z" fill="url(#paint0_linear_340_1020)"/>
<g style="mix-blend-mode:multiply">
<path d="M78.9167 203.347C89.1675 199.031 105.15 204.115 109.492 214.908L153.113 323.321C145.812 321.35 137.17 321.527 128.875 313.889C115.065 301.172 121.858 284.877 110.912 270.362C105.907 263.728 96.6506 256.741 77.8032 254.639L68.1952 230.403C63.9604 219.721 68.7383 207.636 78.9167 203.347Z" fill="#D8DEE8"/>
</g>
<path d="M17.8381 177.491C18.2391 177.491 18.6352 177.524 19.0263 177.581L47.7731 177.25V255.739L20.0128 255.339C19.2978 255.531 18.5729 255.63 17.8356 255.63C7.98342 255.63 -0.00292969 238.138 -0.00292969 216.561C-0.00292969 194.984 7.98342 177.491 17.8356 177.491H17.8381Z" fill="url(#paint1_linear_340_1020)"/>
<path d="M47.7757 177.25C36.8873 203.387 36.8873 229.429 47.7757 255.739L261.616 327.935L263.823 107.641L47.7757 177.25Z" fill="url(#paint2_linear_340_1020)"/>
<path style="mix-blend-mode:multiply" opacity="0.3" d="M203.891 263.179C183.559 255.091 177.241 224.117 153.636 223.073C135.115 222.256 129.535 241.139 111.385 239.102C92.8066 237.017 89.6878 215.984 68.8825 208.572C59.4239 205.203 49.5269 205.824 39.9239 208.674C38.6335 224.283 41.2392 239.944 47.7757 255.737L261.616 327.932L248.966 253.135C227.882 266.051 213.748 267.099 203.891 263.179Z" fill="url(#paint3_linear_340_1020)"/>
<path d="M271.984 330.832C300.711 330.832 324 279.83 324 216.916C324 154.002 300.711 103 271.984 103C243.256 103 219.968 154.002 219.968 216.916C219.968 279.83 243.256 330.832 271.984 330.832Z" fill="url(#paint4_linear_340_1020)"/>
<path d="M271.984 326.966C278.082 326.966 284.076 324.28 289.795 318.98C295.617 313.588 300.883 305.786 305.444 295.795C315.035 274.79 320.318 246.777 320.318 216.916C320.318 187.055 315.037 159.042 305.444 138.037C300.88 128.046 295.617 120.244 289.795 114.852C284.076 109.552 278.082 106.866 271.984 106.866C265.886 106.866 259.892 109.552 254.171 114.852C248.349 120.244 243.083 128.046 238.522 138.037C234.511 146.82 231.255 156.829 228.821 167.684C225.436 182.791 235.221 198.562 235.221 215.937C235.221 234.413 225.67 253.16 229.484 269C231.833 278.76 234.865 287.787 238.522 295.795C243.085 305.786 248.349 313.588 254.171 318.98C259.89 324.28 265.883 326.966 271.984 326.966Z" fill="url(#paint5_linear_340_1020)"/>
<mask id="mask0_340_1020" style="mask-type:luminance" maskUnits="userSpaceOnUse" x="223" y="106" width="98" height="221">
<path d="M271.984 326.966C278.082 326.966 284.076 324.28 289.795 318.98C295.617 313.588 300.883 305.786 305.444 295.795C315.035 274.79 320.318 246.777 320.318 216.916C320.318 187.055 315.037 159.042 305.444 138.037C300.88 128.046 295.617 120.244 289.795 114.852C284.076 109.552 278.082 106.866 271.984 106.866C265.886 106.866 259.892 109.552 254.17 114.852C248.349 120.244 243.083 128.046 238.522 138.037C228.931 159.042 223.647 187.055 223.647 216.916C223.647 246.777 228.929 274.79 238.522 295.795C243.085 305.786 248.349 313.588 254.17 318.98C259.89 324.28 265.883 326.966 271.984 326.966Z" fill="white"/>
</mask>
<g mask="url(#mask0_340_1020)">
<path d="M276.266 218.409C276.266 247.269 258.066 270.186 235.933 269.602C214.141 269.025 196.724 245.821 196.724 217.763C196.724 189.706 214.144 166.782 235.933 166.561C258.066 166.335 276.266 189.547 276.266 218.409Z" fill="url(#paint6_linear_340_1020)"/>
<path style="mix-blend-mode:multiply" opacity="0.3" d="M272.769 217.94C272.769 239.37 263.9 256.388 253.117 255.953C242.5 255.526 234.013 238.294 234.013 217.46C234.013 196.626 242.5 179.603 253.117 179.439C263.9 179.273 272.769 196.509 272.769 217.94Z" fill="url(#paint7_linear_340_1020)"/>
</g>
</g>
<g clip-path="url(#clip1_340_1020)">
<path d="M360.729 171.169C360.729 171.169 367.995 166.668 372.228 159.623C365.794 152.304 362.012 143.309 362.012 133.723C362.012 110.736 383.735 91.4468 411.718 90.6012C440.34 89.7375 464.729 108.318 465.98 132.492C465.98 132.5 465.98 132.508 465.98 132.516C465.996 132.816 466.006 133.117 466.016 133.418C466.016 133.462 466.016 133.507 466.02 133.551C466.026 133.846 466.032 134.143 466.032 134.441C466.032 135.815 465.958 137.17 465.813 138.506C465.75 139.079 465.674 139.647 465.587 140.214C465.41 141.344 465.182 142.459 464.904 143.556C464.765 144.104 464.614 144.651 464.451 145.191C464.342 145.551 464.23 145.91 464.109 146.266C461.308 154.638 455.599 161.895 447.995 167.313C447.834 167.427 447.67 167.542 447.507 167.656C444.891 169.472 442.058 171.075 439.049 172.433C438.862 172.517 438.673 172.601 438.484 172.684C437.156 173.264 435.797 173.799 434.408 174.283C433.812 174.49 433.211 174.688 432.603 174.877C432.199 175.004 431.792 175.124 431.383 175.243C430.769 175.42 430.151 175.586 429.528 175.745C429.113 175.849 428.695 175.952 428.276 176.048C423.03 177.256 417.46 177.786 411.72 177.535C411.296 177.517 410.873 177.493 410.452 177.466C410.329 177.458 410.208 177.448 410.085 177.44C409.785 177.42 409.485 177.398 409.185 177.372C409.052 177.36 408.921 177.348 408.788 177.336C408.498 177.31 408.208 177.282 407.92 177.252C407.796 177.24 407.673 177.223 407.55 177.209C407.25 177.175 406.95 177.141 406.652 177.105C406.545 177.091 406.44 177.077 406.334 177.063C406.013 177.021 405.695 176.976 405.377 176.93C405.296 176.918 405.216 176.906 405.135 176.894C404.787 176.842 404.439 176.786 404.092 176.727C404.046 176.719 403.998 176.711 403.951 176.703C403.561 176.637 403.172 176.567 402.785 176.492C402.783 176.492 402.781 176.492 402.779 176.492C399.511 175.868 396.367 174.992 393.379 173.889C393.383 173.885 393.387 173.883 393.389 173.879C391.623 173.226 389.913 172.491 388.258 171.688C384.267 174.817 374.043 180.56 360.729 171.175V171.169Z" fill="url(#paint8_linear_340_1020)"/>
<path d="M358.283 133.563C358.283 156.55 380.006 176.141 407.989 177.37C437.374 178.662 462.301 159.397 462.301 134.28C462.301 109.164 437.374 89.5528 407.989 90.4406C380.006 91.2843 358.283 110.576 358.283 133.563Z" fill="url(#paint9_linear_340_1020)"/>
<path d="M358.283 133.563C358.283 156.55 380.006 176.141 407.989 177.37C437.374 178.662 462.301 159.397 462.301 134.28C462.301 109.164 437.374 89.5528 407.989 90.4406C380.006 91.2843 358.283 110.576 358.283 133.563Z" fill="url(#paint10_linear_340_1020)"/>
<path d="M386.353 169.89C386.353 169.89 374.278 183.191 357 171.011C357 171.011 370.827 162.446 371.445 150.454L386.353 169.888V169.89Z" fill="url(#paint11_linear_340_1020)"/>
<path d="M379.487 122.286C381.592 116.302 386.846 112.008 393.056 111.933C401.256 111.835 407.988 119.118 407.988 128.202C407.988 119.118 414.799 111.674 423.311 111.572C429.923 111.494 435.632 115.856 437.945 122.107C446.818 144.669 407.986 164.464 407.986 164.464C407.986 164.464 371.567 143.498 379.483 122.286H379.487Z" fill="white"/>
<g style="mix-blend-mode:multiply" opacity="0.3">
<path d="M395.522 165.87C401.684 153.316 395.455 141.298 403.8 133.145C412.403 124.741 423.773 132.669 436.258 125.715C441.156 122.987 446.647 117.73 450.764 106.874C457.977 114.386 462.303 123.909 462.303 134.284C462.303 159.4 437.376 178.666 407.991 177.374C401.46 177.087 395.28 175.803 389.649 173.728C392.42 171.147 394.261 168.444 395.522 165.872V165.87Z" fill="url(#paint12_linear_340_1020)"/>
</g>
<path d="M411.1 0.0178788C426.854 0.499962 440.085 10.0934 442.662 22.2379C442.666 22.2539 442.669 22.27 442.673 22.2861C442.811 22.951 442.92 23.6239 442.995 24.3028C442.999 24.347 443.005 24.3932 443.009 24.4374C443.041 24.7548 443.067 25.0741 443.085 25.3935C443.089 25.4518 443.091 25.51 443.093 25.5683C443.11 25.8957 443.12 26.2231 443.12 26.5525C443.12 40.6655 428.679 51.3597 411.1 50.4518C410.633 50.4277 410.168 50.3935 409.707 50.3533C409.663 50.3493 409.616 50.3453 409.57 50.3413C409.133 50.3011 408.698 50.2549 408.265 50.2007C408.199 50.1926 408.13 50.1846 408.064 50.1766C407.645 50.1223 407.23 50.0621 406.815 49.9958C406.737 49.9837 406.66 49.9717 406.582 49.9576C406.177 49.8893 405.772 49.817 405.373 49.7367C405.293 49.7206 405.212 49.7045 405.13 49.6865C404.731 49.6041 404.336 49.5177 403.944 49.4253C403.867 49.4073 403.792 49.3872 403.716 49.3691C403.325 49.2747 402.939 49.1743 402.554 49.0678C402.486 49.0477 402.417 49.0276 402.349 49.0095C402.002 48.9111 401.66 48.8087 401.32 48.7022C401.233 48.6741 401.146 48.65 401.06 48.6219C400.713 48.5114 400.373 48.3949 400.033 48.2744C399.96 48.2483 399.884 48.2262 399.811 48.2C399.811 48.2 399.811 48.2 399.813 48.198C388.129 43.9939 379.913 34.531 379.913 23.9513C379.913 10.2079 393.776 -0.512412 411.1 0.0178788Z" fill="url(#paint13_linear_340_1020)"/>
<path d="M376.578 23.9533C376.578 37.6987 390.439 49.5579 407.764 50.4518C425.342 51.3597 439.783 40.6635 439.783 26.5525C439.783 12.4416 425.342 0.556204 407.764 0.0178788C390.439 -0.512412 376.578 10.2079 376.578 23.9533Z" fill="url(#paint14_linear_340_1020)"/>
<path d="M396.517 19.6287C396.517 23.6642 401.227 33.2636 404.556 39.5428C405.941 42.1581 409.594 42.3328 410.986 39.8461C414.341 33.8502 419.121 24.5841 419.121 20.5105C419.121 14.2234 414.024 8.9526 407.766 8.73767C401.541 8.52475 396.517 13.4018 396.517 19.6287ZM401.712 19.8316C401.712 16.4811 404.419 13.8618 407.766 13.9843C411.121 14.1069 413.849 16.9371 413.849 20.3056C413.849 23.6742 411.123 26.2915 407.766 26.1529C404.419 26.0143 401.712 23.1841 401.712 19.8336V19.8316Z" fill="white"/>
<g style="mix-blend-mode:multiply" opacity="0.3">
<path d="M400.117 43.6545C403.911 36.4051 400.075 29.2904 405.208 24.7026C410.444 20.0224 417.283 24.8512 424.686 21.1452C427.559 19.705 430.763 16.8567 433.152 10.8186C437.308 15.2578 439.785 20.7214 439.785 26.5506C439.785 40.6635 425.344 51.3577 407.766 50.4498C403.774 50.2429 399.968 49.4555 396.477 48.2001C398.198 46.7097 399.338 45.1429 400.117 43.6525V43.6545Z" fill="url(#paint15_linear_340_1020)"/>
</g>
<path d="M514.417 219.854C514.429 219.992 514.441 220.131 514.451 220.27C514.459 220.384 514.467 220.499 514.475 220.613C514.485 220.78 514.493 220.947 514.499 221.113C514.503 221.206 514.507 221.298 514.512 221.39C514.52 221.652 514.524 221.915 514.524 222.178C514.524 223.325 514.447 224.46 514.3 225.579C514.04 227.537 513.561 229.449 512.878 231.297C512.782 231.562 512.679 231.824 512.574 232.087C512.153 233.133 511.666 234.158 511.118 235.16C509.886 237.414 508.345 239.545 506.541 241.525C506.14 241.965 505.725 242.397 505.298 242.821C504.872 243.245 504.433 243.663 503.979 244.07C502.171 245.704 500.169 247.204 498.003 248.548C497.731 248.717 497.459 248.881 497.183 249.044C496.631 249.371 496.069 249.687 495.497 249.994C493.498 251.067 491.379 252.015 489.164 252.82C488.532 253.051 487.889 253.27 487.241 253.477C486.592 253.684 485.936 253.879 485.273 254.064C484.611 254.246 483.94 254.417 483.264 254.576C479.544 255.448 475.625 255.942 471.588 255.996C471.241 256 470.897 256.002 470.553 256C470.442 256 470.333 255.996 470.222 255.996C469.989 255.994 469.753 255.99 469.522 255.986C469.397 255.984 469.272 255.978 469.145 255.974C468.928 255.968 468.71 255.96 468.495 255.952C468.366 255.946 468.239 255.94 468.112 255.934C467.899 255.924 467.683 255.912 467.472 255.9C467.347 255.892 467.224 255.883 467.099 255.875C466.882 255.861 466.664 255.845 466.449 255.827C466.332 255.817 466.215 255.807 466.098 255.797C465.873 255.777 465.649 255.757 465.424 255.735C465.319 255.725 465.214 255.713 465.109 255.703C464.87 255.677 464.632 255.65 464.393 255.62C464.306 255.61 464.217 255.6 464.131 255.588C463.867 255.556 463.605 255.52 463.343 255.484C463.283 255.476 463.223 255.468 463.162 255.458C462.858 255.413 462.556 255.367 462.256 255.319C462.238 255.317 462.222 255.313 462.204 255.311C460.278 254.996 458.408 254.578 456.603 254.064L456.607 254.06C441.176 249.651 430.382 238.225 430.382 224.679C430.382 207.067 448.623 191.957 471.588 190.911C493.764 189.9 512.331 202.312 514.34 219.143C514.354 219.251 514.367 219.362 514.379 219.472C514.393 219.601 514.405 219.731 514.417 219.862V219.854Z" fill="url(#paint16_linear_340_1020)"/>
<path d="M427.627 224.671C427.627 242.283 445.473 256.309 467.941 255.994C490.924 255.671 509.946 240.527 509.946 222.176C509.946 203.825 490.924 189.832 467.941 190.903C445.473 191.949 427.627 207.059 427.627 224.671Z" fill="url(#paint17_linear_340_1020)"/>
<path d="M455.959 206.319V237.478C455.959 239.479 457.657 240.726 459.125 239.808L485.284 223.429C486.915 222.407 486.915 219.514 485.284 218.592L459.125 203.798C457.659 202.969 455.959 204.321 455.959 206.321V206.319Z" fill="white"/>
<g style="mix-blend-mode:multiply" opacity="0.3">
<path d="M458.001 247.885C462.926 238.209 457.946 229.383 464.612 222.997C471.431 216.467 480.36 222.069 490.058 216.576C493.834 214.438 498.047 210.435 501.19 202.366C506.674 207.727 509.944 214.593 509.944 222.174C509.944 240.525 490.922 255.671 467.939 255.992C462.747 256.064 457.805 255.373 453.278 254.054C455.508 251.987 456.988 249.871 457.999 247.883L458.001 247.885Z" fill="url(#paint18_linear_340_1020)"/>
</g>
<path d="M496.835 98.6983C496.732 98.6902 496.63 98.6822 496.527 98.6742C496.34 98.6601 496.154 98.646 495.969 98.63C495.866 98.6219 495.764 98.6099 495.661 98.6019C495.476 98.5838 495.29 98.5657 495.105 98.5456C495.006 98.5356 494.91 98.5235 494.811 98.5135C494.62 98.4914 494.428 98.4693 494.239 98.4452C494.151 98.4331 494.062 98.4231 493.973 98.411C493.772 98.3849 493.573 98.3568 493.373 98.3287C493.297 98.3166 493.22 98.3066 493.146 98.2945C492.928 98.2624 492.713 98.2282 492.497 98.1921C492.441 98.182 492.384 98.174 492.326 98.164C492.084 98.1238 491.843 98.0796 491.603 98.0354C491.573 98.0294 491.545 98.0254 491.515 98.0193C489.595 97.6598 487.739 97.1837 485.959 96.6012C485.959 96.6012 485.963 96.5992 485.963 96.5972C473.014 92.3509 463.992 82.4862 463.992 71.2798C463.992 56.7028 479.257 44.7733 498.577 44.6307C517.357 44.4921 533.159 55.4856 534.849 69.6448C534.859 69.7211 534.867 69.7994 534.877 69.8758C534.889 69.9923 534.901 70.1088 534.911 70.2253C534.922 70.3357 534.932 70.4442 534.94 70.5547C534.948 70.6531 534.954 70.7535 534.96 70.854C534.968 70.9906 534.974 71.1292 534.98 71.2658C534.984 71.3441 534.988 71.4224 534.99 71.5008C534.996 71.7197 535.002 71.9387 535.002 72.1596C535.002 79.5957 531.12 86.2264 524.859 91.0131C524.454 91.3224 524.041 91.6237 523.618 91.917C523.195 92.2103 522.762 92.4955 522.319 92.7727C522.098 92.9113 521.874 93.0479 521.649 93.1824C521.198 93.4516 520.738 93.7107 520.269 93.9638C519.8 94.2149 519.325 94.458 518.839 94.693C518.429 94.8918 518.012 95.0807 517.589 95.2675C515.225 96.3059 512.687 97.1375 510.017 97.7341C509.504 97.8486 508.988 97.9551 508.465 98.0535C505.311 98.638 501.994 98.8991 498.577 98.7887C498.285 98.7786 497.995 98.7666 497.705 98.7525C497.614 98.7485 497.526 98.7425 497.435 98.7364C497.236 98.7244 497.036 98.7143 496.837 98.7003L496.835 98.6983Z" fill="url(#paint19_linear_340_1020)"/>
<path d="M462.174 71.2779C462.174 85.8549 477.168 98.164 496.142 98.7867C515.67 99.4275 531.919 87.514 531.919 72.1597C531.919 56.8053 515.668 44.4821 496.142 44.6287C477.166 44.7714 462.174 56.7009 462.174 71.2779Z" fill="url(#paint20_linear_340_1020)"/>
<path d="M502.397 90.276L500.933 80.0579L495.633 79.9574L497.085 90.1354L491.873 89.9988L490.433 79.861L484.815 79.7546V74.5842L489.569 74.6545L488.651 68.3292L483.276 68.275V63.0544L487.848 63.0825L486.357 53.2842L491.468 53.2782L492.969 63.1147L498.247 63.1468L496.793 53.2721L501.984 53.2661L503.45 63.1789L509.286 63.2151V68.5361L504.272 68.4859L505.212 74.8855L510.944 74.9719V80.2427L506.153 80.1523L507.687 90.4126L502.393 90.274L502.397 90.276ZM499.999 74.8112L499.064 68.4357L493.778 68.3814L494.705 74.7309L499.997 74.8092L499.999 74.8112Z" fill="white"/>
<g style="mix-blend-mode:multiply" opacity="0.3">
<path d="M487.734 91.6559C491.899 83.7999 487.688 76.2794 493.325 71.2136C499.1 66.0231 506.68 71.0047 514.932 66.7704C518.15 65.1192 521.745 61.9234 524.431 55.2908C529.119 59.9609 531.921 65.8182 531.921 72.1596C531.921 87.514 515.669 99.4275 496.144 98.7867C491.75 98.6421 487.571 97.8727 483.749 96.5992C485.632 94.9702 486.88 93.2688 487.734 91.6559Z" fill="url(#paint21_linear_340_1020)"/>
</g>
</g>
<defs>
<linearGradient id="paint0_linear_340_1020" x1="66.6507" y1="281.908" x2="158.842" y2="281.908" gradientUnits="userSpaceOnUse">
<stop stop-color="#311944"/>
<stop offset="1" stop-color="#6B3976"/>
</linearGradient>
<linearGradient id="paint1_linear_340_1020" x1="-12.807" y1="201.079" x2="13.4571" y2="210.107" gradientUnits="userSpaceOnUse">
<stop stop-color="#311944"/>
<stop offset="1" stop-color="#6B3976"/>
</linearGradient>
<linearGradient id="paint2_linear_340_1020" x1="139.123" y1="96.8255" x2="199.902" y2="433.865" gradientUnits="userSpaceOnUse">
<stop stop-color="#AA80F9"/>
<stop offset="1" stop-color="#6165D7"/>
</linearGradient>
<linearGradient id="paint3_linear_340_1020" x1="119.182" y1="100.543" x2="179.931" y2="437.42" gradientUnits="userSpaceOnUse">
<stop stop-color="#AA80F9"/>
<stop offset="1" stop-color="#6165D7"/>
</linearGradient>
<linearGradient id="paint4_linear_340_1020" x1="211.578" y1="145.856" x2="332.033" y2="288.277" gradientUnits="userSpaceOnUse">
<stop stop-color="#E38DDD"/>
<stop offset="1" stop-color="#9571F6"/>
</linearGradient>
<linearGradient id="paint5_linear_340_1020" x1="228.109" y1="216.916" x2="320.321" y2="216.916" gradientUnits="userSpaceOnUse">
<stop stop-color="#D8DEE8"/>
<stop offset="1" stop-color="white"/>
</linearGradient>
<linearGradient id="paint6_linear_340_1020" x1="216.657" y1="108.618" x2="256.295" y2="328.418" gradientUnits="userSpaceOnUse">
<stop stop-color="#FFC444"/>
<stop offset="1" stop-color="#F36F56"/>
</linearGradient>
<linearGradient id="paint7_linear_340_1020" x1="238.746" y1="136.882" x2="268.01" y2="299.156" gradientUnits="userSpaceOnUse">
<stop stop-color="#FFC444"/>
<stop offset="1" stop-color="#F36F56"/>
</linearGradient>
<linearGradient id="paint8_linear_340_1020" x1="333.697" y1="-49.5162" x2="487.9" y2="336.972" gradientUnits="userSpaceOnUse">
<stop stop-color="#311944"/>
<stop offset="1" stop-color="#893976"/>
</linearGradient>
<linearGradient id="paint9_linear_340_1020" x1="429.581" y1="98.3207" x2="358.717" y2="230.085" gradientUnits="userSpaceOnUse">
<stop stop-color="#FF9085"/>
<stop offset="1" stop-color="#FB6FBB"/>
</linearGradient>
<linearGradient id="paint10_linear_340_1020" x1="429.581" y1="98.3207" x2="358.717" y2="230.085" gradientUnits="userSpaceOnUse">
<stop stop-color="#FF9085"/>
<stop offset="1" stop-color="#FB6FBB"/>
</linearGradient>
<linearGradient id="paint11_linear_340_1020" x1="424.436" y1="100.451" x2="339.771" y2="212.105" gradientUnits="userSpaceOnUse">
<stop stop-color="#FF9085"/>
<stop offset="1" stop-color="#FB6FBB"/>
</linearGradient>
<linearGradient id="paint12_linear_340_1020" x1="448.824" y1="105.638" x2="378.851" y2="246.415" gradientUnits="userSpaceOnUse">
<stop stop-color="#FF9085"/>
<stop offset="1" stop-color="#FB6FBB"/>
</linearGradient>
<linearGradient id="paint13_linear_340_1020" x1="379.414" y1="17.6862" x2="427.234" y2="29.0112" gradientUnits="userSpaceOnUse">
<stop stop-color="#FFC444"/>
<stop offset="1" stop-color="#F36F56"/>
</linearGradient>
<linearGradient id="paint14_linear_340_1020" x1="419.278" y1="4.73225" x2="378.433" y2="80.6846" gradientUnits="userSpaceOnUse">
<stop stop-color="#FFC444"/>
<stop offset="1" stop-color="#F36F56"/>
</linearGradient>
<linearGradient id="paint15_linear_340_1020" x1="431.299" y1="9.74396" x2="391.277" y2="90.2645" gradientUnits="userSpaceOnUse">
<stop stop-color="#FFC444"/>
<stop offset="1" stop-color="#F36F56"/>
</linearGradient>
<linearGradient id="paint16_linear_340_1020" x1="443.775" y1="190.662" x2="472.04" y2="223.091" gradientUnits="userSpaceOnUse">
<stop stop-color="#FFC444"/>
<stop offset="1" stop-color="#F36F56"/>
</linearGradient>
<linearGradient id="paint17_linear_340_1020" x1="483.767" y1="195.734" x2="428.656" y2="298.211" gradientUnits="userSpaceOnUse">
<stop stop-color="#FFC444"/>
<stop offset="1" stop-color="#F36F56"/>
</linearGradient>
<linearGradient id="paint18_linear_340_1020" x1="499.18" y1="201.159" x2="444.844" y2="310.477" gradientUnits="userSpaceOnUse">
<stop stop-color="#FFC444"/>
<stop offset="1" stop-color="#F36F56"/>
</linearGradient>
<linearGradient id="paint19_linear_340_1020" x1="473.056" y1="70.3056" x2="525.591" y2="73.126" gradientUnits="userSpaceOnUse">
<stop stop-color="#AA80F9"/>
<stop offset="1" stop-color="#6165D7"/>
</linearGradient>
<linearGradient id="paint20_linear_340_1020" x1="509.272" y1="49.1302" x2="464.31" y2="132.734" gradientUnits="userSpaceOnUse">
<stop stop-color="#AA80F9"/>
<stop offset="1" stop-color="#6165D7"/>
</linearGradient>
<linearGradient id="paint21_linear_340_1020" x1="522.331" y1="54.0775" x2="478.051" y2="143.164" gradientUnits="userSpaceOnUse">
<stop stop-color="#E38DDD"/>
<stop offset="1" stop-color="#9571F6"/>
</linearGradient>
<clipPath id="clip0_340_1020">
<rect width="324" height="259" fill="white" transform="translate(0 103)"/>
</clipPath>
<clipPath id="clip1_340_1020">
<rect width="178" height="256" fill="white" transform="translate(357)"/>
</clipPath>
</defs>
</svg>
