<svg width="546" height="521" viewBox="0 0 546 521" fill="none" xmlns="http://www.w3.org/2000/svg">
<g clip-path="url(#clip0_340_1062)">
<path d="M102.293 155.369C106.577 159.162 113.388 158.488 117.508 153.864C121.628 149.239 121.495 142.415 117.211 138.623C116.99 138.427 116.757 138.249 116.523 138.077C118.216 135.364 119.691 132.57 120.938 129.716C121.222 129.79 121.507 129.859 121.802 129.908C127.571 130.88 133.404 126.885 134.83 120.983C136.256 115.081 132.735 109.509 126.964 108.536C126.662 108.484 126.362 108.455 126.059 108.432C126.236 105.368 126.176 102.315 125.881 99.2989C126.181 99.216 126.479 99.1266 126.778 99.0161C132.487 96.9075 135.778 90.6607 134.128 85.0637C132.478 79.4667 126.512 76.6386 120.804 78.7459C120.511 78.8537 120.23 78.98 119.95 79.1089C118.598 76.511 117.02 74.0183 115.226 71.6519C115.453 71.4336 115.678 71.2113 115.891 70.9719C120.009 66.347 125.092 61.4484 120.749 57.7219C110.703 49.1035 104.498 52.6103 100.379 57.2352C100.165 57.4746 99.97 57.7232 99.78 57.9745C97.2115 56.4776 94.5426 55.2108 91.796 54.1769C91.8923 53.8849 91.9833 53.5916 92.0572 53.289C93.4833 47.3882 96.065 44.6666 90.4358 43.0776C78.1589 39.6129 72.5917 43.8642 71.1656 49.7664C71.0904 50.0755 71.0376 50.382 70.9901 50.6872C67.9506 50.7517 64.9031 51.0529 61.8742 51.5896C61.8148 51.2936 61.7501 50.9989 61.6631 50.7056C60.0127 45.1086 54.0471 42.2805 48.3387 44.3891C42.629 46.4977 39.3388 52.7445 40.9892 58.3415C41.0736 58.6282 41.1765 58.9031 41.2834 59.1741C38.5868 60.746 35.9787 62.535 33.4787 64.533C33.2795 64.3213 33.075 64.1121 32.8534 63.9148C28.5698 60.1212 21.7585 60.796 17.6385 65.4196C13.5185 70.0445 13.6518 76.8688 17.9354 80.6611C18.157 80.8571 18.3905 81.0347 18.624 81.207C16.9301 83.9193 15.4552 86.7132 14.2085 89.5676C13.9249 89.494 13.6399 89.4242 13.3444 89.3743C7.57533 88.4022 1.74295 92.397 0.316843 98.2992C-1.10926 104.201 2.41312 109.773 8.18219 110.747C8.48297 110.798 8.78508 110.827 9.08587 110.851C8.90909 113.914 8.96978 116.967 9.26397 119.983C8.9645 120.068 8.66635 120.156 8.36688 120.266C2.65718 122.375 -0.633013 128.622 1.01736 134.219C2.66774 139.816 11.7468 144.589 17.4565 142.482C17.7494 142.374 14.9169 140.302 15.1966 140.173C16.5502 142.771 18.1267 145.264 19.9208 147.63C19.6939 147.849 19.4683 148.071 19.2559 148.31C15.1359 152.935 15.2692 159.76 19.5528 163.552C23.8364 167.346 30.6476 166.671 34.7676 162.047C34.9813 161.808 35.1766 161.559 35.3666 161.308C37.9351 162.805 40.604 164.072 43.3506 165.105C43.2556 165.397 43.1633 165.691 43.0894 165.993C41.6633 171.894 45.1844 177.468 50.9548 178.441C56.7238 179.413 62.5562 175.418 63.9823 169.516C64.0562 169.208 64.1103 168.9 64.1578 168.595C67.1973 168.531 70.2448 168.23 73.2751 167.693C73.3344 167.989 73.3991 168.283 73.4862 168.575C75.1365 174.172 81.1022 177.002 86.8105 174.893C92.5202 172.785 95.8104 166.538 94.1601 160.941C94.0756 160.654 93.9727 160.381 93.8659 160.108C96.5611 158.536 99.1705 156.747 101.671 154.749C101.87 154.961 102.074 155.17 102.296 155.368L102.293 155.369ZM40.4905 140.046C24.9379 126.274 24.4551 101.497 39.4114 84.7059C54.3677 67.9149 79.0995 65.4683 94.6521 79.2405C110.205 93.0126 110.688 117.789 95.7313 134.58C80.775 151.371 56.0431 153.818 40.4905 140.046Z" fill="url(#paint0_linear_340_1062)"/>
<path d="M203.298 70.1263C205.95 72.4694 210.166 72.0526 212.717 69.1969C215.267 66.3403 215.185 62.1253 212.533 59.783C212.396 59.662 212.252 59.5523 212.107 59.4459C213.155 57.7706 214.068 56.0449 214.84 54.2819C215.016 54.3274 215.192 54.3705 215.375 54.4005C218.946 55.0009 222.557 52.5335 223.44 48.8881C224.322 45.2426 222.143 41.8011 218.571 41.1999C218.384 41.1682 218.197 41.1503 218.01 41.1357C218.12 39.2435 218.082 37.3578 217.9 35.4948C218.086 35.4437 218.27 35.3884 218.455 35.3202C221.989 34.0178 224.027 30.1595 223.005 26.7025C221.984 23.2455 218.291 21.4988 214.757 22.8003C214.575 22.8669 214.402 22.9449 214.228 23.0246C213.391 21.42 212.415 19.8804 211.304 18.4188C211.444 18.2839 211.584 18.1466 211.715 17.9988C214.265 15.1422 217.412 12.1166 214.723 9.81495C208.504 4.49178 204.663 6.65777 202.113 9.51434C201.981 9.66221 201.86 9.81576 201.742 9.97094C200.152 9.04637 198.5 8.26398 196.8 7.6254C196.859 7.44503 196.916 7.26386 196.961 7.07699C197.844 3.43235 199.442 1.75139 195.958 0.769951C188.358 -1.37004 184.911 1.2558 184.029 4.90126C183.982 5.09218 183.949 5.28148 183.92 5.46997C182.038 5.50978 180.152 5.69583 178.277 6.02731C178.24 5.84451 178.2 5.66252 178.146 5.48134C177.124 2.02437 173.431 0.277606 169.898 1.57996C166.363 2.88232 164.326 6.74064 165.348 10.1976C165.4 10.3747 165.464 10.5445 165.53 10.7119C163.861 11.6828 162.246 12.7877 160.699 14.0218C160.575 13.891 160.449 13.7618 160.311 13.64C157.66 11.2969 153.443 11.7136 150.893 14.5694C148.342 17.426 148.425 21.641 151.076 23.9833C151.214 24.1043 151.358 24.214 151.503 24.3204C150.454 25.9957 149.541 27.7213 148.769 29.4843C148.594 29.4389 148.417 29.3958 148.234 29.3649C144.663 28.7645 141.053 31.2319 140.17 34.8774C139.287 38.5228 141.467 41.9644 145.039 42.5656C145.225 42.5973 145.412 42.6152 145.598 42.6298C145.489 44.522 145.526 46.4077 145.708 48.2706C145.523 48.3226 145.339 48.377 145.153 48.4453C141.619 49.7477 139.582 53.606 140.603 57.0629C141.625 60.5199 147.245 63.4683 150.78 62.1667C150.961 62.1001 149.208 60.8205 149.381 60.7409C150.219 62.3455 151.195 63.8851 152.306 65.3467C152.165 65.4815 152.025 65.6188 151.894 65.7667C149.343 68.6233 149.426 72.8383 152.078 75.1806C154.729 77.5237 158.946 77.1069 161.496 74.2511C161.629 74.1033 161.75 73.9497 161.867 73.7945C163.457 74.7191 165.109 75.5015 166.81 76.1401C166.751 76.3204 166.694 76.5016 166.648 76.6885C165.765 80.3331 167.945 83.7755 171.517 84.3767C175.088 84.9771 178.699 82.5097 179.582 78.8642C179.627 78.6741 179.661 78.484 179.69 78.2955C181.572 78.2557 183.458 78.0696 185.334 77.7382C185.371 77.921 185.411 78.1029 185.465 78.2833C186.487 81.7403 190.18 83.4879 193.713 82.1855C197.248 80.8831 199.285 77.0248 198.263 73.5679C198.211 73.3907 198.147 73.2217 198.081 73.0536C199.75 72.0827 201.365 70.9778 202.913 69.7437C203.036 69.8745 203.162 70.0036 203.3 70.1255L203.298 70.1263ZM165.039 60.6621C155.411 52.1558 155.112 36.8525 164.371 26.4815C173.63 16.1106 188.94 14.5995 198.568 23.1058C208.196 31.6122 208.495 46.9154 199.236 57.2864C189.977 67.6573 174.667 69.1684 165.039 60.6621Z" fill="url(#paint1_linear_340_1062)"/>
<path d="M107.122 157.704C111.405 161.51 118.217 160.833 122.337 156.193C126.455 151.552 126.322 144.704 122.038 140.899C121.817 140.702 121.585 140.524 121.35 140.351C123.044 137.629 124.519 134.826 125.765 131.962C126.049 132.036 126.334 132.106 126.629 132.154C132.398 133.13 138.231 129.121 139.657 123.199C141.083 117.276 137.562 111.685 131.793 110.708C131.491 110.657 131.19 110.628 130.888 110.604C131.065 107.53 131.004 104.467 130.71 101.44C131.009 101.357 131.309 101.267 131.607 101.156C137.315 99.0405 140.607 92.7722 138.956 87.156C137.306 81.5398 131.34 78.702 125.632 80.8165C125.339 80.9247 125.058 81.0515 124.778 81.1808C123.426 78.574 121.848 76.0741 120.054 73.6982C120.281 73.4791 120.507 73.2561 120.72 73.0158C124.839 68.375 124.707 61.5274 120.424 57.7221C116.14 53.9154 109.329 54.5926 105.209 59.232C104.995 59.4723 104.8 59.7217 104.61 59.9738C102.041 58.4718 99.3724 57.2007 96.6258 56.1632C96.7207 55.8702 96.8131 55.5759 96.887 55.2723C98.3131 49.3499 94.792 43.7587 89.0216 42.782C83.2526 41.8053 77.4202 45.8152 75.9941 51.7376C75.9202 52.0478 75.8661 52.3553 75.8186 52.6615C72.7791 52.7262 69.7316 53.0285 66.7013 53.567C66.6419 53.27 66.5773 52.9743 66.4902 52.6813C64.8399 47.0651 58.8742 44.2273 53.1659 46.3431C47.4562 48.4589 44.166 54.7272 45.8163 60.3434C45.9008 60.6311 46.0037 60.907 46.1105 61.1789C43.414 62.7562 40.8058 64.5513 38.3059 66.5562C38.1067 66.3437 37.9022 66.1338 37.6805 65.9359C33.397 62.1292 26.5857 62.8064 22.4657 67.4458C18.347 72.0866 18.4789 78.9343 22.7625 82.7396C22.9841 82.9363 23.2177 83.1145 23.4512 83.2874C21.7573 86.009 20.2823 88.8125 19.0356 91.6767C18.752 91.6028 18.4671 91.5328 18.1715 91.4827C12.4025 90.5073 6.5701 94.5158 5.14399 100.438C3.71789 106.361 7.24027 111.952 13.0093 112.929C13.3101 112.98 13.6122 113.009 13.913 113.033C13.7362 116.107 13.7969 119.17 14.0911 122.197C13.7916 122.28 13.4935 122.37 13.194 122.481C7.48433 124.597 4.19414 130.865 5.84451 136.481C7.49489 142.097 13.4605 144.935 19.1689 142.821C19.4618 142.712 19.7428 142.586 20.0224 142.456C21.376 145.063 22.9525 147.564 24.7467 149.939C24.5198 150.158 24.2942 150.381 24.0818 150.621C19.9631 155.262 20.095 162.108 24.3786 165.915C28.6622 169.722 35.4734 169.045 39.5935 164.405C39.8072 164.165 40.0024 163.915 40.1924 163.663C42.761 165.165 45.4298 166.436 48.1765 167.472C48.0815 167.766 47.9891 168.06 47.9153 168.363C46.4905 174.285 50.0115 179.877 55.7806 180.854C61.5497 181.829 67.382 177.821 68.8081 171.898C68.882 171.589 68.9361 171.28 68.9836 170.974C72.0231 170.91 75.0706 170.607 78.1009 170.069C78.1603 170.366 78.2262 170.661 78.312 170.954C79.9624 176.571 85.928 179.41 91.6364 177.294C97.3461 175.178 100.636 168.91 98.9859 163.294C98.9015 163.006 98.7985 162.73 98.6917 162.458C101.388 160.881 103.996 159.086 106.496 157.081C106.696 157.293 106.9 157.503 107.122 157.701V157.704ZM45.319 142.327C29.7664 128.507 29.2835 103.646 44.2398 86.797C59.1961 69.9484 83.928 67.4933 99.4806 81.3128C115.033 95.1322 115.516 119.994 100.56 136.843C85.6035 153.691 60.8716 156.146 45.319 142.327Z" fill="url(#paint2_linear_340_1062)"/>
<path d="M206.517 71.7187C209.168 74.0646 213.385 73.6473 215.935 70.7873C218.485 67.9273 218.402 63.7072 215.751 61.362C215.614 61.2408 215.47 61.131 215.324 61.0245C216.373 59.3472 217.286 57.6194 218.058 55.8543C218.233 55.8998 218.41 55.943 218.593 55.9731C222.164 56.5742 225.775 54.1038 226.657 50.4539C227.54 46.804 225.361 43.3583 221.789 42.7564C221.602 42.7247 221.416 42.7068 221.229 42.6921C221.338 40.7977 221.301 38.9097 221.119 37.0445C221.304 36.9932 221.49 36.9379 221.674 36.8696C225.208 35.5657 227.245 31.7027 226.224 28.2415C225.202 24.7804 221.509 23.0315 217.975 24.3346C217.794 24.4013 217.62 24.4794 217.447 24.5591C216.61 22.9526 215.633 21.4119 214.522 19.9478C214.663 19.8127 214.803 19.6753 214.935 19.5272C217.485 16.6672 217.403 12.4471 214.751 10.102C212.099 7.75604 207.883 8.17333 205.332 11.0325C205.2 11.1806 205.079 11.3343 204.962 11.4897C203.372 10.564 201.719 9.78067 200.019 9.14131C200.078 8.96073 200.135 8.77934 200.181 8.59225C201.064 4.94238 198.884 1.49668 195.312 0.894736C191.74 0.292796 188.13 2.764 187.247 6.41387C187.201 6.60503 187.168 6.79456 187.138 6.98328C185.257 7.02314 183.37 7.20941 181.494 7.54129C181.458 7.35827 181.418 7.17606 181.364 6.99548C180.342 3.53432 176.649 1.78544 173.115 3.08938C169.581 4.39331 167.544 8.2563 168.566 11.7175C168.618 11.8948 168.682 12.0648 168.748 12.2324C167.078 13.2044 165.464 14.3107 163.916 15.5463C163.793 15.4153 163.666 15.286 163.529 15.164C160.877 12.818 156.661 13.2353 154.111 16.0945C151.561 18.9546 151.643 23.1746 154.294 25.5198C154.431 25.641 154.576 25.7508 154.721 25.8573C153.672 27.5346 152.759 29.2624 151.987 31.0275C151.812 30.982 151.635 30.9389 151.452 30.9079C147.881 30.3068 144.27 32.7772 143.388 36.4271C142.505 40.077 144.685 43.5227 148.257 44.1246C148.443 44.1563 148.63 44.1742 148.816 44.1889C148.707 46.0833 148.744 47.9713 148.926 49.8365C148.741 49.8878 148.556 49.9431 148.371 50.0114C144.836 51.3153 142.8 55.1783 143.821 58.6395C144.843 62.1006 148.536 63.8495 152.07 62.5464C152.251 62.4797 152.425 62.4016 152.598 62.3219C153.436 63.9284 154.412 65.4699 155.523 66.9332C155.382 67.0683 155.242 67.2057 155.111 67.3538C152.561 70.2138 152.643 74.4331 155.295 76.779C157.946 79.125 162.163 78.7077 164.713 75.8485C164.846 75.7004 164.967 75.5467 165.084 75.3913C166.674 76.317 168.326 77.1003 170.027 77.7389C169.968 77.9195 169.911 78.1009 169.865 78.2879C168.983 81.937 171.163 85.3835 174.734 85.9855C178.305 86.5866 181.916 84.1162 182.799 80.4663C182.844 80.276 182.878 80.0856 182.907 79.8969C184.789 79.8571 186.675 79.6708 188.551 79.3389C188.588 79.5219 188.629 79.7041 188.682 79.8847C189.704 83.3459 193.397 85.0956 196.93 83.7916C200.465 82.4877 202.502 78.6247 201.48 75.1636C201.428 74.9862 201.364 74.8162 201.298 74.6487C202.967 73.6766 204.582 72.5703 206.129 71.3347C206.253 71.4657 206.379 71.595 206.517 71.717V71.7187ZM168.258 62.2422C158.63 53.7255 158.331 38.4037 167.59 28.0203C176.848 17.6368 192.159 16.1238 201.786 24.6405C211.414 33.1571 211.713 48.4789 202.454 58.8624C193.196 69.2458 177.886 70.7588 168.258 62.2422Z" fill="url(#paint3_linear_340_1062)"/>
<rect x="76" y="95" width="414" height="426" rx="11" fill="#EAE9FE"/>
<rect x="111" y="117" width="213" height="14" fill="#A48EEC"/>
<rect x="125" y="171" width="129" height="14" transform="rotate(90 125 171)" fill="#A48EEC"/>
<rect x="149" y="171" width="129" height="14" transform="rotate(90 149 171)" fill="#A48EEC"/>
<rect x="179" y="196" width="103" height="14" transform="rotate(90 179 196)" fill="#A48EEC"/>
<rect x="212" y="174" width="128" height="14" transform="rotate(90 212 174)" fill="#A48EEC"/>
<rect x="245" y="255" width="47" height="14" transform="rotate(90 245 255)" fill="#A48EEC"/>
<rect x="285" y="215" width="87" height="14" transform="rotate(90 285 215)" fill="#A48EEC"/>
<rect x="331" y="198" width="104" height="14" transform="rotate(90 331 198)" fill="#A48EEC"/>
<rect x="372" y="233" width="70" height="14" transform="rotate(90 372 233)" fill="#A48EEC"/>
<rect x="412" y="200" width="102" height="14" transform="rotate(90 412 200)" fill="#A48EEC"/>
<rect x="457" y="235" width="67" height="14" transform="rotate(90 457 235)" fill="#A48EEC"/>
<rect x="293" y="327" width="164" height="88" fill="#A48EEC"/>
<path d="M358 374C320.4 370 299.667 397 294 411V417.5H456.5V327C448.5 334.5 429.3 352.3 416.5 363.5C400.5 377.5 405 379 358 374Z" fill="#8873CA"/>
<rect x="352" y="199" width="194" height="27" fill="url(#paint4_linear_340_1062)"/>
<path d="M351 212.5C351 246.687 324.142 274 291.5 274C258.858 274 232 246.687 232 212.5C232 178.313 258.858 151 291.5 151C324.142 151 351 178.313 351 212.5Z" fill="white" fill-opacity="0.46" stroke="url(#paint5_linear_340_1062)" stroke-width="16"/>
<rect x="111" y="342" width="22" height="19" fill="#FED373"/>
<rect x="111" y="369" width="22" height="19" fill="#FED373"/>
<rect x="111" y="396" width="22" height="19" fill="#FED373"/>
<rect x="137" y="342" width="100" height="3" rx="1.5" fill="#3C3C6E"/>
<rect x="137" y="369" width="100" height="3" rx="1.5" fill="#3C3C6E"/>
<rect x="137" y="396" width="100" height="3" rx="1.5" fill="#3C3C6E"/>
<rect x="137" y="350" width="82" height="3" rx="1.5" fill="#3C3C6E"/>
<rect x="137" y="377" width="82" height="3" rx="1.5" fill="#3C3C6E"/>
<rect x="137" y="404" width="82" height="3" rx="1.5" fill="#3C3C6E"/>
<rect x="137" y="358" width="74" height="3" rx="1.5" fill="#3C3C6E"/>
<rect x="137" y="385" width="74" height="3" rx="1.5" fill="#3C3C6E"/>
<rect x="137" y="412" width="74" height="3" rx="1.5" fill="#3C3C6E"/>
<path d="M116 348.857L120.459 353L127 342" stroke="#393D76" stroke-width="5"/>
<path d="M116 375.857L120.459 380L127 369" stroke="#393D76" stroke-width="5"/>
<path d="M116 402.857L120.459 407L127 396" stroke="#393D76" stroke-width="5"/>
<path d="M245.743 211.5C244.143 207.9 244.243 203 255.243 196C247.743 210 256.304 224.061 255.243 223C251.243 219 247.743 216 245.743 211.5Z" fill="white"/>
</g>
<defs>
<linearGradient id="paint0_linear_340_1062" x1="1.77097" y1="92.7616" x2="133.171" y2="127.31" gradientUnits="userSpaceOnUse">
<stop stop-color="#E25D5D"/>
<stop offset="1" stop-color="#FF9085"/>
</linearGradient>
<linearGradient id="paint1_linear_340_1062" x1="141.07" y1="31.4571" x2="222.389" y2="52.8865" gradientUnits="userSpaceOnUse">
<stop stop-color="#E25D5D"/>
<stop offset="1" stop-color="#FF9085"/>
</linearGradient>
<linearGradient id="paint2_linear_340_1062" x1="127.839" y1="54.552" x2="-113.935" y2="304.062" gradientUnits="userSpaceOnUse">
<stop stop-color="#FFC444"/>
<stop offset="1" stop-color="#E25D5D"/>
</linearGradient>
<linearGradient id="paint3_linear_340_1062" x1="219.342" y1="8.14834" x2="70.3638" y2="162.583" gradientUnits="userSpaceOnUse">
<stop stop-color="#FFC444"/>
<stop offset="1" stop-color="#E25D5D"/>
</linearGradient>
<linearGradient id="paint4_linear_340_1062" x1="449" y1="199" x2="449" y2="226" gradientUnits="userSpaceOnUse">
<stop stop-color="#303264"/>
<stop offset="1" stop-color="#6165CA"/>
</linearGradient>
<linearGradient id="paint5_linear_340_1062" x1="359" y1="212.5" x2="224" y2="212.5" gradientUnits="userSpaceOnUse">
<stop stop-color="#3C3E7C"/>
<stop offset="1" stop-color="#3C3E7C"/>
</linearGradient>
<clipPath id="clip0_340_1062">
<rect width="546" height="521" fill="white"/>
</clipPath>
</defs>
</svg>
