<svg width="485" height="417" viewBox="0 0 485 417" fill="none" xmlns="http://www.w3.org/2000/svg">
<g clip-path="url(#clip0_340_966)">
<path d="M146.16 193.138C151.485 197.854 159.952 197.015 165.074 191.268C170.195 185.518 170.029 177.035 164.705 172.321C164.429 172.077 164.14 171.857 163.849 171.642C165.954 168.271 167.788 164.798 169.337 161.249C169.69 161.341 170.044 161.428 170.412 161.488C177.583 162.696 184.833 157.73 186.606 150.394C188.379 143.057 184.002 136.13 176.829 134.92C176.453 134.856 176.079 134.82 175.704 134.791C175.923 130.983 175.848 127.187 175.482 123.438C175.855 123.335 176.225 123.224 176.597 123.086C183.694 120.465 187.785 112.7 185.734 105.742C183.682 98.7846 176.266 95.2691 169.17 97.8886C168.806 98.0227 168.457 98.1796 168.109 98.3399C166.428 95.1104 164.467 92.0118 162.236 89.0702C162.519 88.7987 162.799 88.5224 163.063 88.2248C168.183 82.4756 174.502 76.3862 169.103 71.7538C156.615 61.0403 148.9 65.3996 143.781 71.1488C143.515 71.4464 143.272 71.7555 143.036 72.0678C139.843 70.207 136.525 68.6323 133.111 67.3471C133.231 66.9841 133.344 66.6194 133.436 66.2434C135.208 58.908 138.418 55.5249 131.42 53.5496C116.159 49.2426 109.238 54.5274 107.466 61.8644C107.372 62.2487 107.306 62.6297 107.247 63.009C103.469 63.0891 99.6807 63.4636 95.9154 64.1307C95.8416 63.7628 95.7612 63.3965 95.653 63.0319C93.6014 56.0743 86.1856 52.5587 79.0895 55.1799C71.9919 57.801 67.9018 65.5664 69.9534 72.524C70.0584 72.8805 70.1863 73.2222 70.3191 73.5591C66.9671 75.5131 63.7249 77.7369 60.6172 80.2207C60.3696 79.9574 60.1154 79.6974 59.8399 79.4522C54.515 74.7364 46.0479 75.5752 40.9264 81.3228C35.8048 87.072 35.9704 95.5552 41.2953 100.269C41.5709 100.513 41.8611 100.734 42.1514 100.948C40.0457 104.32 38.2122 107.793 36.6625 111.341C36.3099 111.249 35.9557 111.163 35.5883 111.101C28.4168 109.892 21.1666 114.858 19.3939 122.195C17.6211 129.532 21.9997 136.459 29.1712 137.669C29.5451 137.732 29.9207 137.768 30.2946 137.798C30.0748 141.606 30.1503 145.401 30.516 149.151C30.1437 149.255 29.7731 149.365 29.4008 149.502C22.3031 152.124 18.2131 159.889 20.2647 166.846C22.3163 173.804 33.6024 179.738 40.7 177.119C41.0641 176.984 37.5432 174.409 37.8908 174.249C39.5734 177.478 41.5331 180.577 43.7635 183.519C43.4814 183.79 43.201 184.066 42.9369 184.364C37.8154 190.113 37.981 198.596 43.3059 203.311C48.6308 208.026 57.0979 207.187 62.2194 201.44C62.4851 201.142 62.7278 200.833 62.964 200.521C66.1569 202.382 69.4745 203.956 72.8889 205.242C72.7708 205.605 72.656 205.969 72.5642 206.345C70.7914 213.681 75.1684 220.609 82.3416 221.819C89.513 223.027 96.7632 218.061 98.536 210.724C98.6279 210.342 98.6951 209.959 98.7541 209.58C102.533 209.5 106.321 209.125 110.088 208.458C110.162 208.826 110.242 209.192 110.35 209.555C112.402 216.513 119.818 220.03 126.914 217.409C134.011 214.788 138.101 207.022 136.05 200.065C135.945 199.708 135.817 199.368 135.684 199.03C139.034 197.076 142.278 194.852 145.386 192.368C145.634 192.631 145.888 192.891 146.163 193.137L146.16 193.138ZM69.3335 174.09C50.0002 156.97 49.4 126.17 67.992 105.297C86.5841 84.4247 117.328 81.3833 136.661 98.5034C155.995 115.624 156.595 146.423 138.003 167.296C119.411 188.169 88.6668 191.21 69.3335 174.09Z" fill="url(#paint0_linear_340_966)"/>
<path d="M271.718 87.1736C275.014 90.0863 280.256 89.5682 283.426 86.0182C286.597 82.4672 286.494 77.2276 283.198 74.3159C283.028 74.1654 282.849 74.0291 282.668 73.8968C283.972 71.8143 285.107 69.6691 286.066 67.4775C286.284 67.5341 286.504 67.5876 286.731 67.625C291.17 68.3713 295.659 65.3041 296.756 60.7725C297.854 56.2408 295.144 51.9627 290.703 51.2153C290.471 51.1759 290.24 51.1537 290.007 51.1355C290.143 48.7833 290.096 46.4392 289.87 44.1234C290.1 44.0598 290.33 43.9911 290.56 43.9063C294.953 42.2873 297.486 37.4911 296.216 33.1937C294.946 28.8964 290.355 26.725 285.962 28.3429C285.737 28.4258 285.521 28.5227 285.306 28.6217C284.265 26.627 283.051 24.7132 281.67 22.8963C281.845 22.7286 282.018 22.5579 282.182 22.3741C285.351 18.8232 289.263 15.0621 285.921 12.2009C278.19 5.58371 273.415 8.27623 270.245 11.8272C270.081 12.011 269.93 12.2019 269.784 12.3948C267.808 11.2455 265.754 10.2729 263.64 9.47909C263.714 9.25488 263.784 9.02966 263.841 8.79737C264.939 4.26673 266.925 2.17714 262.593 0.957121C253.146 -1.70309 248.862 1.56107 247.764 6.09272C247.707 6.33006 247.666 6.56538 247.629 6.79969C245.29 6.84917 242.945 7.08045 240.614 7.49251C240.569 7.26527 240.519 7.03904 240.452 6.81383C239.182 2.51648 234.591 0.345091 230.198 1.96404C225.804 3.58299 223.273 8.37925 224.543 12.6766C224.608 12.8968 224.687 13.1078 224.769 13.3159C222.694 14.5228 220.687 15.8963 218.763 17.4304C218.61 17.2678 218.452 17.1072 218.282 16.9558C214.985 14.0431 209.744 14.5612 206.573 18.1111C203.403 21.6621 203.506 26.9017 206.802 29.8134C206.972 29.9639 207.152 30.1003 207.332 30.2326C206.028 32.3151 204.893 34.4602 203.934 36.6518C203.716 36.5953 203.496 36.5417 203.269 36.5033C198.829 35.757 194.341 38.8242 193.244 43.3559C192.146 47.8875 194.857 52.1657 199.296 52.913C199.528 52.9524 199.76 52.9746 199.992 52.9928C199.856 55.345 199.903 57.6891 200.129 60.0049C199.898 60.0695 199.669 60.1372 199.439 60.222C195.045 61.841 192.513 66.6373 193.783 70.9346C195.053 75.2319 202.04 78.897 206.433 77.2791C206.659 77.1963 204.479 75.6056 204.694 75.5066C205.736 77.5013 206.949 79.4152 208.33 81.2321C208.155 81.3997 207.982 81.5704 207.818 81.7542C204.648 85.3052 204.75 90.5448 208.047 93.4565C211.343 96.3692 216.584 95.8511 219.755 92.3011C219.919 92.1173 220.07 91.9264 220.216 91.7335C222.192 92.8828 224.246 93.8554 226.36 94.6492C226.287 94.8735 226.216 95.0987 226.159 95.331C225.061 99.8616 227.771 104.141 232.211 104.888C236.651 105.634 241.139 102.567 242.237 98.0356C242.293 97.7993 242.335 97.563 242.372 97.3287C244.711 97.2792 247.056 97.0479 249.388 96.6358C249.433 96.8631 249.483 97.0893 249.55 97.3135C250.82 101.611 255.411 103.783 259.804 102.164C264.197 100.545 266.729 95.7491 265.459 91.4517C265.394 91.2316 265.315 91.0215 265.233 90.8124C267.307 89.6056 269.315 88.232 271.239 86.6979C271.392 86.8605 271.55 87.0211 271.72 87.1726L271.718 87.1736ZM224.159 75.4087C212.191 64.8345 211.819 45.8111 223.328 32.919C234.838 20.027 253.87 18.1485 265.838 28.7227C277.806 39.2969 278.178 58.3203 266.668 71.2123C255.159 84.1044 236.127 85.9829 224.159 75.4087Z" fill="url(#paint1_linear_340_966)"/>
<path d="M152.162 196.041C157.487 200.773 165.954 199.931 171.075 194.162C176.195 188.393 176.029 179.881 170.705 175.15C170.429 174.906 170.14 174.685 169.849 174.47C171.954 171.086 173.788 167.601 175.337 164.041C175.69 164.133 176.044 164.22 176.412 164.28C183.583 165.493 190.833 160.51 192.606 153.148C194.379 145.786 190.002 138.835 182.83 137.621C182.455 137.557 182.081 137.521 181.705 137.492C181.925 133.67 181.85 129.862 181.484 126.1C181.856 125.996 182.228 125.885 182.599 125.747C189.695 123.117 193.787 115.325 191.735 108.343C189.684 101.362 182.268 97.8341 175.172 100.463C174.808 100.597 174.458 100.755 174.111 100.915C172.43 97.6749 170.468 94.5673 168.238 91.6139C168.52 91.3415 168.801 91.0642 169.066 90.7656C174.186 84.9967 174.022 76.4844 168.697 71.754C163.372 67.022 154.905 67.8637 149.784 73.6311C149.518 73.9297 149.275 74.2398 149.039 74.5532C145.846 72.686 142.529 71.1059 139.114 69.8163C139.232 69.452 139.347 69.0861 139.439 68.7087C141.212 61.3466 136.835 54.3963 129.662 53.1821C122.49 51.968 115.24 56.9526 113.467 64.3148C113.375 64.7003 113.308 65.0826 113.249 65.4633C109.471 65.5437 105.682 65.9194 101.915 66.5889C101.842 66.2197 101.761 65.8522 101.653 65.4879C99.6014 58.5064 92.1856 54.9788 85.0895 57.6089C77.9919 60.2391 73.9018 68.0311 75.9534 75.0126C76.0584 75.3703 76.1863 75.7132 76.3191 76.0512C72.9671 78.0119 69.7249 80.2434 66.6172 82.7357C66.3696 82.4715 66.1154 82.2106 65.8399 81.9645C60.515 77.2325 52.0479 78.0743 46.9264 83.8416C41.8064 89.6105 41.9704 98.1228 47.2953 102.853C47.5709 103.098 47.8611 103.319 48.1514 103.534C46.0457 106.917 44.2122 110.402 42.6625 113.963C42.3099 113.871 41.9557 113.784 41.5883 113.722C34.4168 112.509 27.1666 117.492 25.3939 124.854C23.6211 132.216 27.9997 139.167 35.1712 140.381C35.5451 140.445 35.9207 140.481 36.2946 140.511C36.0748 144.332 36.1503 148.14 36.516 151.902C36.1437 152.006 35.7731 152.117 35.4008 152.255C28.3031 154.885 24.2131 162.677 26.2647 169.659C28.3163 176.64 35.7321 180.168 42.8281 177.539C43.1922 177.405 43.5415 177.247 43.8892 177.087C45.5718 180.327 47.5315 183.436 49.7618 186.388C49.4798 186.66 49.1993 186.938 48.9353 187.236C43.8154 193.005 43.9794 201.516 49.3043 206.248C54.6292 210.98 63.0962 210.138 68.2178 204.371C68.4835 204.072 68.7262 203.762 68.9623 203.449C72.1553 205.316 75.4729 206.896 78.8873 208.184C78.7692 208.548 78.6544 208.914 78.5626 209.292C76.7914 216.652 81.1684 223.604 88.3399 224.818C95.5114 226.031 102.762 221.048 104.534 213.686C104.626 213.302 104.693 212.918 104.752 212.537C108.531 212.457 112.319 212.081 116.086 211.412C116.16 211.781 116.242 212.148 116.349 212.512C118.4 219.494 125.816 223.023 132.912 220.393C140.01 217.763 144.1 209.971 142.048 202.989C141.943 202.632 141.815 202.289 141.682 201.951C145.034 199.99 148.277 197.759 151.384 195.266C151.632 195.53 151.886 195.791 152.162 196.037V196.041ZM75.3351 176.926C56.0018 159.747 55.4016 128.841 73.9937 107.897C92.5857 86.9525 123.33 83.9006 142.663 101.08C161.996 118.258 162.597 149.164 144.005 170.108C125.413 191.053 94.6685 194.105 75.3351 176.926Z" fill="url(#paint2_linear_340_966)"/>
<path d="M275.719 89.153C279.016 92.0693 284.257 91.5505 287.428 87.9953C290.597 84.44 290.494 79.194 287.198 76.2788C287.028 76.1281 286.849 75.9916 286.668 75.8592C287.972 73.7741 289.107 71.6264 290.066 69.4321C290.284 69.4888 290.504 69.5424 290.731 69.5798C295.17 70.327 299.659 67.2561 300.756 62.719C301.854 58.1818 299.144 53.8985 294.704 53.1502C294.472 53.1108 294.241 53.0886 294.008 53.0704C294.144 50.7153 294.097 48.3684 293.871 46.0498C294.101 45.9861 294.332 45.9173 294.561 45.8324C298.954 44.2115 301.487 39.4094 300.217 35.1069C298.947 30.8043 294.356 28.6303 289.963 30.2502C289.738 30.3331 289.522 30.4302 289.307 30.5293C288.266 28.5322 287.052 26.6171 285.671 24.7969C285.846 24.6291 286.019 24.4582 286.184 24.2742C289.353 20.7189 289.252 15.4729 285.955 12.5577C282.659 9.64149 277.418 10.1602 274.247 13.7145C274.083 13.8985 273.932 14.0896 273.786 14.2828C271.81 13.1321 269.756 12.1583 267.642 11.3635C267.715 11.139 267.786 10.9135 267.843 10.681C268.941 6.14384 266.231 1.86051 261.791 1.11224C257.351 0.363974 252.863 3.43592 251.765 7.97305C251.709 8.21068 251.667 8.44628 251.63 8.68087C249.291 8.73042 246.946 8.96198 244.614 9.37454C244.569 9.14702 244.519 8.92052 244.452 8.69604C243.182 4.3935 238.591 2.21948 234.198 3.84039C229.804 5.4613 227.273 10.2634 228.543 14.5659C228.608 14.7863 228.687 14.9977 228.769 15.206C226.694 16.4143 224.687 17.7895 222.763 19.3255C222.61 19.1627 222.452 19.0019 222.282 18.8502C218.985 15.934 213.744 16.4527 210.573 20.007C207.404 23.5623 207.506 28.8083 210.802 31.7235C210.972 31.8741 211.152 32.0106 211.332 32.1431C210.028 34.2282 208.893 36.3759 207.934 38.5701C207.716 38.5135 207.496 38.4599 207.269 38.4215C202.829 37.6742 198.341 40.7452 197.244 45.2823C196.146 49.8194 198.857 54.1028 203.296 54.851C203.528 54.8905 203.76 54.9127 203.992 54.9309C203.856 57.2859 203.903 59.6329 204.129 61.9515C203.898 62.0152 203.669 62.0839 203.439 62.1689C199.045 63.7898 196.513 68.5919 197.783 72.8944C199.053 77.1969 203.644 79.371 208.036 77.7511C208.262 77.6681 208.478 77.5711 208.693 77.472C209.735 79.469 210.948 81.3852 212.329 83.2043C212.154 83.3722 211.981 83.5431 211.817 83.7271C208.648 87.2824 208.749 92.5273 212.046 95.4435C215.342 98.3598 220.583 97.841 223.754 94.2868C223.918 94.1027 224.069 93.9116 224.215 93.7185C226.191 94.8692 228.245 95.843 230.359 96.6367C230.286 96.8612 230.215 97.0867 230.158 97.3193C229.061 101.855 231.771 106.14 236.21 106.888C240.65 107.635 245.138 104.564 246.236 100.027C246.292 99.7906 246.334 99.554 246.371 99.3194C248.71 99.2698 251.055 99.0383 253.387 98.6257C253.432 98.8532 253.483 99.0797 253.549 99.3042C254.819 103.607 259.41 105.782 263.803 104.161C268.196 102.54 270.728 97.7379 269.458 93.4354C269.393 93.2149 269.314 93.0036 269.232 92.7953C271.307 91.5869 273.314 90.2117 275.238 88.6758C275.391 88.8386 275.549 88.9993 275.719 89.151V89.153ZM228.16 77.3729C216.192 66.7859 215.82 47.7394 227.329 34.8318C238.839 21.9242 257.871 20.0434 269.839 30.6304C281.807 41.2174 282.179 60.2638 270.67 73.1715C259.16 86.0791 240.128 87.9599 228.16 77.3729Z" fill="url(#paint3_linear_340_966)"/>
<path d="M445 379.923L4.68457 376.088V387.435C4.68457 390.514 6.60521 393.133 9.2063 393.6L133.714 415.944C135.191 416.209 136.69 416.279 138.181 416.154L440.215 390.679C442.911 390.452 445 387.825 445 384.66V379.923Z" fill="url(#paint4_linear_340_966)"/>
<path d="M303.255 361.529L9.5295 382.287C4.27401 382.659 0 378.713 0 373.471V163.492C0 158.25 4.27401 154.001 9.5295 154.001H303.255C307.586 154.001 311.087 157.842 311.087 162.581V352.398C311.087 357.136 307.586 361.223 303.255 361.53V361.529Z" fill="url(#paint5_linear_340_966)"/>
<path d="M307.94 361.529L14.2141 382.286C8.95858 382.658 4.68457 378.711 4.68457 373.47V163.49C4.68457 158.249 8.95858 154 14.2141 154H307.94C312.27 154 315.771 157.841 315.771 162.579V352.396C315.771 357.134 312.27 361.222 307.94 361.529Z" fill="url(#paint6_linear_340_966)"/>
<path d="M298.788 348.147L25.2126 366.178C20.9354 366.46 17.4595 363.221 17.4595 358.942V175.105C17.4595 170.826 20.9354 167.344 25.2126 167.325L298.788 166.193C302.36 166.179 305.249 169.326 305.249 173.223V340.667C305.249 344.565 302.36 347.914 298.788 348.149V348.147Z" fill="white"/>
<path d="M171.45 159.745C171.45 161.695 169.939 163.282 168.072 163.288C166.203 163.294 164.685 161.712 164.685 159.757C164.685 157.802 166.201 156.215 168.072 156.214C169.939 156.214 171.45 157.793 171.45 159.745Z" fill="white"/>
<g style="mix-blend-mode:soft-light" opacity="0.48">
<path d="M237.171 303.94C214.528 291.756 196.723 307.195 179.539 291.963C169.123 282.728 174.237 275.842 161.418 262.042C147.221 246.757 137.978 251.895 123.709 238.14C105.668 220.746 114.691 207.213 99.1517 194.725C80.2997 179.575 59.9691 193.598 42.0233 179.069C34.2828 172.802 30.037 163.691 27.8185 154.003H10.2599C7.18218 154.003 4.68457 156.498 4.68457 159.574V377.236C4.68457 380.312 7.18375 382.63 10.2599 382.41L309.616 361.161C311.085 361.057 312.388 360.198 313.224 358.955C291.31 358.157 277.848 350.81 269.242 343.215C252.406 328.358 255.327 313.708 237.173 303.94H237.171Z" fill="white"/>
</g>
<path d="M300.611 360.588L4.68408 382.437L133.713 405.591C135.19 405.856 136.689 405.927 138.18 405.801L444.999 379.922L305.318 360.736C303.756 360.521 302.181 360.471 300.611 360.587V360.588Z" fill="url(#paint7_linear_340_966)"/>
<path style="mix-blend-mode:multiply" opacity="0.3" d="M47.8643 382.987L294.233 364.525L370.481 374.914L126.236 394.649L47.8643 382.987Z" fill="url(#paint8_linear_340_966)"/>
<path d="M287.441 233.701L29.8091 237.099V196.584H287.441V233.701Z" fill="#D8DEE8"/>
<path d="M205.749 305.966L42.5264 312.13V244.153L205.749 241.616V305.966Z" fill="#D8DEE8"/>
<path d="M276.682 259.345L215.284 260.71V241.467L276.682 240.513V259.345Z" fill="#D8DEE8"/>
<path d="M276.682 303.288L215.284 305.606V267.524L276.682 266.015V303.288Z" fill="#D8DEE8"/>
<path d="M276.683 311.919L42.5264 321.477V337.621L276.683 326.828V311.919Z" fill="#D8DEE8"/>
<path d="M315.242 230.289L94.0856 233.066C92.8323 233.081 91.8081 232.07 91.8081 230.817V194.558C91.8081 193.316 92.8157 192.308 94.0568 192.308H315.213C316.456 192.308 317.463 193.316 317.463 194.558V228.04C317.463 229.271 316.473 230.273 315.242 230.289Z" fill="url(#paint9_linear_340_966)"/>
<path d="M266.466 304.28L126.1 309.393V241.402L266.466 239.258V304.28Z" fill="url(#paint10_linear_340_966)"/>
<path d="M328.363 257.426L274.756 258.586V239.131L328.363 238.313V257.426Z" fill="url(#paint11_linear_340_966)"/>
<path d="M328.363 302.025L274.756 303.978V265.475L328.363 264.196V302.025Z" fill="url(#paint12_linear_340_966)"/>
<path d="M334.534 309.127L133.127 316.955V333.067L334.534 324.228V309.127Z" fill="url(#paint13_linear_340_966)"/>
<path d="M103.238 199.895C103.479 198.411 102.471 197.013 100.987 196.772C99.5024 196.531 98.1039 197.539 97.863 199.023C97.6221 200.507 98.63 201.906 100.114 202.147C101.598 202.388 102.997 201.38 103.238 199.895Z" fill="url(#paint14_linear_340_966)"/>
<path d="M112.146 200.073C112.491 198.609 111.585 197.143 110.121 196.797C108.658 196.452 107.192 197.358 106.846 198.822C106.501 200.285 107.407 201.752 108.871 202.097C110.334 202.442 111.8 201.536 112.146 200.073Z" fill="url(#paint15_linear_340_966)"/>
<path d="M121.134 199.895C121.375 198.411 120.367 197.012 118.883 196.772C117.398 196.531 116 197.539 115.759 199.023C115.518 200.507 116.526 201.906 118.01 202.146C119.494 202.387 120.893 201.379 121.134 199.895Z" fill="url(#paint16_linear_340_966)"/>
</g>
<defs>
<linearGradient id="paint0_linear_340_966" x1="21.2015" y1="115.311" x2="184.544" y2="158.258" gradientUnits="userSpaceOnUse">
<stop stop-color="#E25D5D"/>
<stop offset="1" stop-color="#FF9085"/>
</linearGradient>
<linearGradient id="paint1_linear_340_966" x1="194.363" y1="39.1041" x2="295.45" y2="65.7428" gradientUnits="userSpaceOnUse">
<stop stop-color="#E25D5D"/>
<stop offset="1" stop-color="#FF9085"/>
</linearGradient>
<linearGradient id="paint2_linear_340_966" x1="177.916" y1="67.8134" x2="-122.633" y2="377.978" gradientUnits="userSpaceOnUse">
<stop stop-color="#FFC444"/>
<stop offset="1" stop-color="#E25D5D"/>
</linearGradient>
<linearGradient id="paint3_linear_340_966" x1="291.662" y1="10.1292" x2="106.468" y2="202.107" gradientUnits="userSpaceOnUse">
<stop stop-color="#FFC444"/>
<stop offset="1" stop-color="#E25D5D"/>
</linearGradient>
<linearGradient id="paint4_linear_340_966" x1="190.671" y1="396.849" x2="159.74" y2="409.84" gradientUnits="userSpaceOnUse">
<stop stop-color="#40447E"/>
<stop offset="1" stop-color="#3C3B6B"/>
</linearGradient>
<linearGradient id="paint5_linear_340_966" x1="149.369" y1="260.524" x2="115.8" y2="274.622" gradientUnits="userSpaceOnUse">
<stop stop-color="#40447E"/>
<stop offset="1" stop-color="#3C3B6B"/>
</linearGradient>
<linearGradient id="paint6_linear_340_966" x1="4.683" y1="268.156" x2="315.77" y2="268.156" gradientUnits="userSpaceOnUse">
<stop stop-color="#40447E"/>
<stop offset="1" stop-color="#3C3B6B"/>
</linearGradient>
<linearGradient id="paint7_linear_340_966" x1="4.68408" y1="383.196" x2="445.001" y2="383.196" gradientUnits="userSpaceOnUse">
<stop stop-color="#40447E"/>
<stop offset="1" stop-color="#3C3B6B"/>
</linearGradient>
<linearGradient id="paint8_linear_340_966" x1="47.8643" y1="379.588" x2="370.481" y2="379.588" gradientUnits="userSpaceOnUse">
<stop stop-color="#40447E"/>
<stop offset="1" stop-color="#3C3B6B"/>
</linearGradient>
<linearGradient id="paint9_linear_340_966" x1="253.576" y1="147.377" x2="167.807" y2="259.403" gradientUnits="userSpaceOnUse">
<stop stop-color="#FF9085"/>
<stop offset="1" stop-color="#FB6FBB"/>
</linearGradient>
<linearGradient id="paint10_linear_340_966" x1="173.691" y1="296.401" x2="255.377" y2="211.214" gradientUnits="userSpaceOnUse">
<stop stop-color="#E38DDD"/>
<stop offset="1" stop-color="#9571F6"/>
</linearGradient>
<linearGradient id="paint11_linear_340_966" x1="302.392" y1="246.767" x2="232.374" y2="373.964" gradientUnits="userSpaceOnUse">
<stop stop-color="#FFC444"/>
<stop offset="1" stop-color="#F36F56"/>
</linearGradient>
<linearGradient id="paint12_linear_340_966" x1="317.377" y1="255.015" x2="247.36" y2="382.212" gradientUnits="userSpaceOnUse">
<stop stop-color="#FFC444"/>
<stop offset="1" stop-color="#F36F56"/>
</linearGradient>
<linearGradient id="paint13_linear_340_966" x1="193.439" y1="337.397" x2="300.026" y2="293.051" gradientUnits="userSpaceOnUse">
<stop stop-color="#E38DDD"/>
<stop offset="1" stop-color="#9571F6"/>
</linearGradient>
<linearGradient id="paint14_linear_340_966" x1="101.4" y1="196.868" x2="99.7126" y2="202.047" gradientUnits="userSpaceOnUse">
<stop offset="0.49" stop-color="#EBEFF2"/>
<stop offset="1" stop-color="white"/>
</linearGradient>
<linearGradient id="paint15_linear_340_966" x1="110.334" y1="196.86" x2="108.647" y2="202.039" gradientUnits="userSpaceOnUse">
<stop offset="0.49" stop-color="#EBEFF2"/>
<stop offset="1" stop-color="white"/>
</linearGradient>
<linearGradient id="paint16_linear_340_966" x1="119.296" y1="73.183" x2="117.608" y2="73.183" gradientUnits="userSpaceOnUse">
<stop offset="0.49" stop-color="#EBEFF2"/>
<stop offset="1" stop-color="white"/>
</linearGradient>
<clipPath id="clip0_340_966">
<rect width="485" height="416.214" fill="white"/>
</clipPath>
</defs>
</svg>
